G04 #@! TF.GenerationSoftware,KiCad,Pcbnew,5.1.2*
G04 #@! TF.CreationDate,2019-08-16T09:09:30-07:00*
G04 #@! TF.ProjectId,lofi,6c6f6669-2e6b-4696-9361-645f70636258,rev?*
G04 #@! TF.SameCoordinates,Original*
G04 #@! TF.FileFunction,Soldermask,Top*
G04 #@! TF.FilePolarity,Negative*
%FSLAX46Y46*%
G04 Gerber Fmt 4.6, Leading zero omitted, Abs format (unit mm)*
G04 Created by KiCad (PCBNEW 5.1.2) date 2019-08-16 09:09:30*
%MOMM*%
%LPD*%
G04 APERTURE LIST*
%ADD10C,0.100000*%
G04 APERTURE END LIST*
D10*
G36*
X132051000Y-94171000D02*
G01*
X129949000Y-94171000D01*
X129949000Y-92069000D01*
X132051000Y-92069000D01*
X132051000Y-94171000D01*
X132051000Y-94171000D01*
G37*
G36*
X128389683Y-92952725D02*
G01*
X128420143Y-92961966D01*
X128448223Y-92976974D01*
X128472831Y-92997169D01*
X128493026Y-93021777D01*
X128508034Y-93049857D01*
X128517275Y-93080317D01*
X128521000Y-93118140D01*
X128521000Y-93881860D01*
X128517275Y-93919683D01*
X128508034Y-93950143D01*
X128493026Y-93978223D01*
X128472831Y-94002831D01*
X128448223Y-94023026D01*
X128420143Y-94038034D01*
X128389683Y-94047275D01*
X128351860Y-94051000D01*
X127788140Y-94051000D01*
X127750317Y-94047275D01*
X127719857Y-94038034D01*
X127691777Y-94023026D01*
X127667169Y-94002831D01*
X127646974Y-93978223D01*
X127631966Y-93950143D01*
X127622725Y-93919683D01*
X127619000Y-93881860D01*
X127619000Y-93118140D01*
X127622725Y-93080317D01*
X127631966Y-93049857D01*
X127646974Y-93021777D01*
X127667169Y-92997169D01*
X127691777Y-92976974D01*
X127719857Y-92961966D01*
X127750317Y-92952725D01*
X127788140Y-92949000D01*
X128351860Y-92949000D01*
X128389683Y-92952725D01*
X128389683Y-92952725D01*
G37*
G36*
X125981000Y-94051000D02*
G01*
X125079000Y-94051000D01*
X125079000Y-92949000D01*
X125981000Y-92949000D01*
X125981000Y-94051000D01*
X125981000Y-94051000D01*
G37*
G36*
X127119683Y-92952725D02*
G01*
X127150143Y-92961966D01*
X127178223Y-92976974D01*
X127202831Y-92997169D01*
X127223026Y-93021777D01*
X127238034Y-93049857D01*
X127247275Y-93080317D01*
X127251000Y-93118140D01*
X127251000Y-93881860D01*
X127247275Y-93919683D01*
X127238034Y-93950143D01*
X127223026Y-93978223D01*
X127202831Y-94002831D01*
X127178223Y-94023026D01*
X127150143Y-94038034D01*
X127119683Y-94047275D01*
X127081860Y-94051000D01*
X126518140Y-94051000D01*
X126480317Y-94047275D01*
X126449857Y-94038034D01*
X126421777Y-94023026D01*
X126397169Y-94002831D01*
X126376974Y-93978223D01*
X126361966Y-93950143D01*
X126352725Y-93919683D01*
X126349000Y-93881860D01*
X126349000Y-93118140D01*
X126352725Y-93080317D01*
X126361966Y-93049857D01*
X126376974Y-93021777D01*
X126397169Y-92997169D01*
X126421777Y-92976974D01*
X126449857Y-92961966D01*
X126480317Y-92952725D01*
X126518140Y-92949000D01*
X127081860Y-92949000D01*
X127119683Y-92952725D01*
X127119683Y-92952725D01*
G37*
G36*
X123063674Y-92453465D02*
G01*
X123101367Y-92464899D01*
X123136103Y-92483466D01*
X123166548Y-92508452D01*
X123191534Y-92538897D01*
X123210101Y-92573633D01*
X123221535Y-92611326D01*
X123226000Y-92656661D01*
X123226000Y-93743339D01*
X123221535Y-93788674D01*
X123210101Y-93826367D01*
X123191534Y-93861103D01*
X123166548Y-93891548D01*
X123136103Y-93916534D01*
X123101367Y-93935101D01*
X123063674Y-93946535D01*
X123018339Y-93951000D01*
X122181661Y-93951000D01*
X122136326Y-93946535D01*
X122098633Y-93935101D01*
X122063897Y-93916534D01*
X122033452Y-93891548D01*
X122008466Y-93861103D01*
X121989899Y-93826367D01*
X121978465Y-93788674D01*
X121974000Y-93743339D01*
X121974000Y-92656661D01*
X121978465Y-92611326D01*
X121989899Y-92573633D01*
X122008466Y-92538897D01*
X122033452Y-92508452D01*
X122063897Y-92483466D01*
X122098633Y-92464899D01*
X122136326Y-92453465D01*
X122181661Y-92449000D01*
X123018339Y-92449000D01*
X123063674Y-92453465D01*
X123063674Y-92453465D01*
G37*
G36*
X121013674Y-92453465D02*
G01*
X121051367Y-92464899D01*
X121086103Y-92483466D01*
X121116548Y-92508452D01*
X121141534Y-92538897D01*
X121160101Y-92573633D01*
X121171535Y-92611326D01*
X121176000Y-92656661D01*
X121176000Y-93743339D01*
X121171535Y-93788674D01*
X121160101Y-93826367D01*
X121141534Y-93861103D01*
X121116548Y-93891548D01*
X121086103Y-93916534D01*
X121051367Y-93935101D01*
X121013674Y-93946535D01*
X120968339Y-93951000D01*
X120131661Y-93951000D01*
X120086326Y-93946535D01*
X120048633Y-93935101D01*
X120013897Y-93916534D01*
X119983452Y-93891548D01*
X119958466Y-93861103D01*
X119939899Y-93826367D01*
X119928465Y-93788674D01*
X119924000Y-93743339D01*
X119924000Y-92656661D01*
X119928465Y-92611326D01*
X119939899Y-92573633D01*
X119958466Y-92538897D01*
X119983452Y-92508452D01*
X120013897Y-92483466D01*
X120048633Y-92464899D01*
X120086326Y-92453465D01*
X120131661Y-92449000D01*
X120968339Y-92449000D01*
X121013674Y-92453465D01*
X121013674Y-92453465D01*
G37*
G36*
X113826850Y-89327554D02*
G01*
X113855647Y-89336290D01*
X113882179Y-89350471D01*
X113905439Y-89369561D01*
X113924529Y-89392821D01*
X113938710Y-89419353D01*
X113947446Y-89448150D01*
X113951000Y-89484233D01*
X113951000Y-93715767D01*
X113947446Y-93751850D01*
X113938710Y-93780647D01*
X113924529Y-93807179D01*
X113905439Y-93830439D01*
X113882179Y-93849529D01*
X113855647Y-93863710D01*
X113826850Y-93872446D01*
X113790767Y-93876000D01*
X110984233Y-93876000D01*
X110948150Y-93872446D01*
X110919353Y-93863710D01*
X110892821Y-93849529D01*
X110869561Y-93830439D01*
X110850471Y-93807179D01*
X110836290Y-93780647D01*
X110827554Y-93751850D01*
X110824000Y-93715767D01*
X110824000Y-89484233D01*
X110827554Y-89448150D01*
X110836290Y-89419353D01*
X110850471Y-89392821D01*
X110869561Y-89369561D01*
X110892821Y-89350471D01*
X110919353Y-89336290D01*
X110948150Y-89327554D01*
X110984233Y-89324000D01*
X113790767Y-89324000D01*
X113826850Y-89327554D01*
X113826850Y-89327554D01*
G37*
G36*
X118851850Y-89327554D02*
G01*
X118880647Y-89336290D01*
X118907179Y-89350471D01*
X118930439Y-89369561D01*
X118949529Y-89392821D01*
X118963710Y-89419353D01*
X118972446Y-89448150D01*
X118976000Y-89484233D01*
X118976000Y-93715767D01*
X118972446Y-93751850D01*
X118963710Y-93780647D01*
X118949529Y-93807179D01*
X118930439Y-93830439D01*
X118907179Y-93849529D01*
X118880647Y-93863710D01*
X118851850Y-93872446D01*
X118815767Y-93876000D01*
X116009233Y-93876000D01*
X115973150Y-93872446D01*
X115944353Y-93863710D01*
X115917821Y-93849529D01*
X115894561Y-93830439D01*
X115875471Y-93807179D01*
X115861290Y-93780647D01*
X115852554Y-93751850D01*
X115849000Y-93715767D01*
X115849000Y-89484233D01*
X115852554Y-89448150D01*
X115861290Y-89419353D01*
X115875471Y-89392821D01*
X115894561Y-89369561D01*
X115917821Y-89350471D01*
X115944353Y-89336290D01*
X115973150Y-89327554D01*
X116009233Y-89324000D01*
X118815767Y-89324000D01*
X118851850Y-89327554D01*
X118851850Y-89327554D01*
G37*
G36*
X125849683Y-90952725D02*
G01*
X125880143Y-90961966D01*
X125908223Y-90976974D01*
X125932831Y-90997169D01*
X125953026Y-91021777D01*
X125968034Y-91049857D01*
X125977275Y-91080317D01*
X125981000Y-91118140D01*
X125981000Y-91881860D01*
X125977275Y-91919683D01*
X125968034Y-91950143D01*
X125953026Y-91978223D01*
X125932831Y-92002831D01*
X125908223Y-92023026D01*
X125880143Y-92038034D01*
X125849683Y-92047275D01*
X125811860Y-92051000D01*
X125248140Y-92051000D01*
X125210317Y-92047275D01*
X125179857Y-92038034D01*
X125151777Y-92023026D01*
X125127169Y-92002831D01*
X125106974Y-91978223D01*
X125091966Y-91950143D01*
X125082725Y-91919683D01*
X125079000Y-91881860D01*
X125079000Y-91118140D01*
X125082725Y-91080317D01*
X125091966Y-91049857D01*
X125106974Y-91021777D01*
X125127169Y-90997169D01*
X125151777Y-90976974D01*
X125179857Y-90961966D01*
X125210317Y-90952725D01*
X125248140Y-90949000D01*
X125811860Y-90949000D01*
X125849683Y-90952725D01*
X125849683Y-90952725D01*
G37*
G36*
X128389683Y-90952725D02*
G01*
X128420143Y-90961966D01*
X128448223Y-90976974D01*
X128472831Y-90997169D01*
X128493026Y-91021777D01*
X128508034Y-91049857D01*
X128517275Y-91080317D01*
X128521000Y-91118140D01*
X128521000Y-91881860D01*
X128517275Y-91919683D01*
X128508034Y-91950143D01*
X128493026Y-91978223D01*
X128472831Y-92002831D01*
X128448223Y-92023026D01*
X128420143Y-92038034D01*
X128389683Y-92047275D01*
X128351860Y-92051000D01*
X127788140Y-92051000D01*
X127750317Y-92047275D01*
X127719857Y-92038034D01*
X127691777Y-92023026D01*
X127667169Y-92002831D01*
X127646974Y-91978223D01*
X127631966Y-91950143D01*
X127622725Y-91919683D01*
X127619000Y-91881860D01*
X127619000Y-91118140D01*
X127622725Y-91080317D01*
X127631966Y-91049857D01*
X127646974Y-91021777D01*
X127667169Y-90997169D01*
X127691777Y-90976974D01*
X127719857Y-90961966D01*
X127750317Y-90952725D01*
X127788140Y-90949000D01*
X128351860Y-90949000D01*
X128389683Y-90952725D01*
X128389683Y-90952725D01*
G37*
G36*
X127119683Y-90952725D02*
G01*
X127150143Y-90961966D01*
X127178223Y-90976974D01*
X127202831Y-90997169D01*
X127223026Y-91021777D01*
X127238034Y-91049857D01*
X127247275Y-91080317D01*
X127251000Y-91118140D01*
X127251000Y-91881860D01*
X127247275Y-91919683D01*
X127238034Y-91950143D01*
X127223026Y-91978223D01*
X127202831Y-92002831D01*
X127178223Y-92023026D01*
X127150143Y-92038034D01*
X127119683Y-92047275D01*
X127081860Y-92051000D01*
X126518140Y-92051000D01*
X126480317Y-92047275D01*
X126449857Y-92038034D01*
X126421777Y-92023026D01*
X126397169Y-92002831D01*
X126376974Y-91978223D01*
X126361966Y-91950143D01*
X126352725Y-91919683D01*
X126349000Y-91881860D01*
X126349000Y-91118140D01*
X126352725Y-91080317D01*
X126361966Y-91049857D01*
X126376974Y-91021777D01*
X126397169Y-90997169D01*
X126421777Y-90976974D01*
X126449857Y-90961966D01*
X126480317Y-90952725D01*
X126518140Y-90949000D01*
X127081860Y-90949000D01*
X127119683Y-90952725D01*
X127119683Y-90952725D01*
G37*
G36*
X130579591Y-88715585D02*
G01*
X130613569Y-88725893D01*
X130644890Y-88742634D01*
X130672339Y-88765161D01*
X130694866Y-88792610D01*
X130711607Y-88823931D01*
X130721915Y-88857909D01*
X130726000Y-88899390D01*
X130726000Y-89500610D01*
X130721915Y-89542091D01*
X130711607Y-89576069D01*
X130694866Y-89607390D01*
X130672339Y-89634839D01*
X130644890Y-89657366D01*
X130613569Y-89674107D01*
X130579591Y-89684415D01*
X130538110Y-89688500D01*
X129861890Y-89688500D01*
X129820409Y-89684415D01*
X129786431Y-89674107D01*
X129755110Y-89657366D01*
X129727661Y-89634839D01*
X129705134Y-89607390D01*
X129688393Y-89576069D01*
X129678085Y-89542091D01*
X129674000Y-89500610D01*
X129674000Y-88899390D01*
X129678085Y-88857909D01*
X129688393Y-88823931D01*
X129705134Y-88792610D01*
X129727661Y-88765161D01*
X129755110Y-88742634D01*
X129786431Y-88725893D01*
X129820409Y-88715585D01*
X129861890Y-88711500D01*
X130538110Y-88711500D01*
X130579591Y-88715585D01*
X130579591Y-88715585D01*
G37*
G36*
X130579591Y-87140585D02*
G01*
X130613569Y-87150893D01*
X130644890Y-87167634D01*
X130672339Y-87190161D01*
X130694866Y-87217610D01*
X130711607Y-87248931D01*
X130721915Y-87282909D01*
X130726000Y-87324390D01*
X130726000Y-87925610D01*
X130721915Y-87967091D01*
X130711607Y-88001069D01*
X130694866Y-88032390D01*
X130672339Y-88059839D01*
X130644890Y-88082366D01*
X130613569Y-88099107D01*
X130579591Y-88109415D01*
X130538110Y-88113500D01*
X129861890Y-88113500D01*
X129820409Y-88109415D01*
X129786431Y-88099107D01*
X129755110Y-88082366D01*
X129727661Y-88059839D01*
X129705134Y-88032390D01*
X129688393Y-88001069D01*
X129678085Y-87967091D01*
X129674000Y-87925610D01*
X129674000Y-87324390D01*
X129678085Y-87282909D01*
X129688393Y-87248931D01*
X129705134Y-87217610D01*
X129727661Y-87190161D01*
X129755110Y-87167634D01*
X129786431Y-87150893D01*
X129820409Y-87140585D01*
X129861890Y-87136500D01*
X130538110Y-87136500D01*
X130579591Y-87140585D01*
X130579591Y-87140585D01*
G37*
G36*
X121084928Y-87391764D02*
G01*
X121106009Y-87398160D01*
X121125445Y-87408548D01*
X121142476Y-87422524D01*
X121156452Y-87439555D01*
X121166840Y-87458991D01*
X121173236Y-87480072D01*
X121176000Y-87508140D01*
X121176000Y-87971860D01*
X121173236Y-87999928D01*
X121166840Y-88021009D01*
X121156452Y-88040445D01*
X121142476Y-88057476D01*
X121125445Y-88071452D01*
X121106009Y-88081840D01*
X121084928Y-88088236D01*
X121056860Y-88091000D01*
X119793140Y-88091000D01*
X119765072Y-88088236D01*
X119743991Y-88081840D01*
X119724555Y-88071452D01*
X119707524Y-88057476D01*
X119693548Y-88040445D01*
X119683160Y-88021009D01*
X119676764Y-87999928D01*
X119674000Y-87971860D01*
X119674000Y-87508140D01*
X119676764Y-87480072D01*
X119683160Y-87458991D01*
X119693548Y-87439555D01*
X119707524Y-87422524D01*
X119724555Y-87408548D01*
X119743991Y-87398160D01*
X119765072Y-87391764D01*
X119793140Y-87389000D01*
X121056860Y-87389000D01*
X121084928Y-87391764D01*
X121084928Y-87391764D01*
G37*
G36*
X127084928Y-87391764D02*
G01*
X127106009Y-87398160D01*
X127125445Y-87408548D01*
X127142476Y-87422524D01*
X127156452Y-87439555D01*
X127166840Y-87458991D01*
X127173236Y-87480072D01*
X127176000Y-87508140D01*
X127176000Y-87971860D01*
X127173236Y-87999928D01*
X127166840Y-88021009D01*
X127156452Y-88040445D01*
X127142476Y-88057476D01*
X127125445Y-88071452D01*
X127106009Y-88081840D01*
X127084928Y-88088236D01*
X127056860Y-88091000D01*
X125793140Y-88091000D01*
X125765072Y-88088236D01*
X125743991Y-88081840D01*
X125724555Y-88071452D01*
X125707524Y-88057476D01*
X125693548Y-88040445D01*
X125683160Y-88021009D01*
X125676764Y-87999928D01*
X125674000Y-87971860D01*
X125674000Y-87508140D01*
X125676764Y-87480072D01*
X125683160Y-87458991D01*
X125693548Y-87439555D01*
X125707524Y-87422524D01*
X125724555Y-87408548D01*
X125743991Y-87398160D01*
X125765072Y-87391764D01*
X125793140Y-87389000D01*
X127056860Y-87389000D01*
X127084928Y-87391764D01*
X127084928Y-87391764D01*
G37*
G36*
X113442091Y-86678085D02*
G01*
X113476069Y-86688393D01*
X113507390Y-86705134D01*
X113534839Y-86727661D01*
X113557366Y-86755110D01*
X113574107Y-86786431D01*
X113584415Y-86820409D01*
X113588500Y-86861890D01*
X113588500Y-87538110D01*
X113584415Y-87579591D01*
X113574107Y-87613569D01*
X113557366Y-87644890D01*
X113534839Y-87672339D01*
X113507390Y-87694866D01*
X113476069Y-87711607D01*
X113442091Y-87721915D01*
X113400610Y-87726000D01*
X112799390Y-87726000D01*
X112757909Y-87721915D01*
X112723931Y-87711607D01*
X112692610Y-87694866D01*
X112665161Y-87672339D01*
X112642634Y-87644890D01*
X112625893Y-87613569D01*
X112615585Y-87579591D01*
X112611500Y-87538110D01*
X112611500Y-86861890D01*
X112615585Y-86820409D01*
X112625893Y-86786431D01*
X112642634Y-86755110D01*
X112665161Y-86727661D01*
X112692610Y-86705134D01*
X112723931Y-86688393D01*
X112757909Y-86678085D01*
X112799390Y-86674000D01*
X113400610Y-86674000D01*
X113442091Y-86678085D01*
X113442091Y-86678085D01*
G37*
G36*
X111867091Y-86678085D02*
G01*
X111901069Y-86688393D01*
X111932390Y-86705134D01*
X111959839Y-86727661D01*
X111982366Y-86755110D01*
X111999107Y-86786431D01*
X112009415Y-86820409D01*
X112013500Y-86861890D01*
X112013500Y-87538110D01*
X112009415Y-87579591D01*
X111999107Y-87613569D01*
X111982366Y-87644890D01*
X111959839Y-87672339D01*
X111932390Y-87694866D01*
X111901069Y-87711607D01*
X111867091Y-87721915D01*
X111825610Y-87726000D01*
X111224390Y-87726000D01*
X111182909Y-87721915D01*
X111148931Y-87711607D01*
X111117610Y-87694866D01*
X111090161Y-87672339D01*
X111067634Y-87644890D01*
X111050893Y-87613569D01*
X111040585Y-87579591D01*
X111036500Y-87538110D01*
X111036500Y-86861890D01*
X111040585Y-86820409D01*
X111050893Y-86786431D01*
X111067634Y-86755110D01*
X111090161Y-86727661D01*
X111117610Y-86705134D01*
X111148931Y-86688393D01*
X111182909Y-86678085D01*
X111224390Y-86674000D01*
X111825610Y-86674000D01*
X111867091Y-86678085D01*
X111867091Y-86678085D01*
G37*
G36*
X127084928Y-86121764D02*
G01*
X127106009Y-86128160D01*
X127125445Y-86138548D01*
X127142476Y-86152524D01*
X127156452Y-86169555D01*
X127166840Y-86188991D01*
X127173236Y-86210072D01*
X127176000Y-86238140D01*
X127176000Y-86701860D01*
X127173236Y-86729928D01*
X127166840Y-86751009D01*
X127156452Y-86770445D01*
X127142476Y-86787476D01*
X127125445Y-86801452D01*
X127106009Y-86811840D01*
X127084928Y-86818236D01*
X127056860Y-86821000D01*
X125793140Y-86821000D01*
X125765072Y-86818236D01*
X125743991Y-86811840D01*
X125724555Y-86801452D01*
X125707524Y-86787476D01*
X125693548Y-86770445D01*
X125683160Y-86751009D01*
X125676764Y-86729928D01*
X125674000Y-86701860D01*
X125674000Y-86238140D01*
X125676764Y-86210072D01*
X125683160Y-86188991D01*
X125693548Y-86169555D01*
X125707524Y-86152524D01*
X125724555Y-86138548D01*
X125743991Y-86128160D01*
X125765072Y-86121764D01*
X125793140Y-86119000D01*
X127056860Y-86119000D01*
X127084928Y-86121764D01*
X127084928Y-86121764D01*
G37*
G36*
X121084928Y-86121764D02*
G01*
X121106009Y-86128160D01*
X121125445Y-86138548D01*
X121142476Y-86152524D01*
X121156452Y-86169555D01*
X121166840Y-86188991D01*
X121173236Y-86210072D01*
X121176000Y-86238140D01*
X121176000Y-86701860D01*
X121173236Y-86729928D01*
X121166840Y-86751009D01*
X121156452Y-86770445D01*
X121142476Y-86787476D01*
X121125445Y-86801452D01*
X121106009Y-86811840D01*
X121084928Y-86818236D01*
X121056860Y-86821000D01*
X119793140Y-86821000D01*
X119765072Y-86818236D01*
X119743991Y-86811840D01*
X119724555Y-86801452D01*
X119707524Y-86787476D01*
X119693548Y-86770445D01*
X119683160Y-86751009D01*
X119676764Y-86729928D01*
X119674000Y-86701860D01*
X119674000Y-86238140D01*
X119676764Y-86210072D01*
X119683160Y-86188991D01*
X119693548Y-86169555D01*
X119707524Y-86152524D01*
X119724555Y-86138548D01*
X119743991Y-86128160D01*
X119765072Y-86121764D01*
X119793140Y-86119000D01*
X121056860Y-86119000D01*
X121084928Y-86121764D01*
X121084928Y-86121764D01*
G37*
G36*
X130579591Y-85203085D02*
G01*
X130613569Y-85213393D01*
X130644890Y-85230134D01*
X130672339Y-85252661D01*
X130694866Y-85280110D01*
X130711607Y-85311431D01*
X130721915Y-85345409D01*
X130726000Y-85386890D01*
X130726000Y-85988110D01*
X130721915Y-86029591D01*
X130711607Y-86063569D01*
X130694866Y-86094890D01*
X130672339Y-86122339D01*
X130644890Y-86144866D01*
X130613569Y-86161607D01*
X130579591Y-86171915D01*
X130538110Y-86176000D01*
X129861890Y-86176000D01*
X129820409Y-86171915D01*
X129786431Y-86161607D01*
X129755110Y-86144866D01*
X129727661Y-86122339D01*
X129705134Y-86094890D01*
X129688393Y-86063569D01*
X129678085Y-86029591D01*
X129674000Y-85988110D01*
X129674000Y-85386890D01*
X129678085Y-85345409D01*
X129688393Y-85311431D01*
X129705134Y-85280110D01*
X129727661Y-85252661D01*
X129755110Y-85230134D01*
X129786431Y-85213393D01*
X129820409Y-85203085D01*
X129861890Y-85199000D01*
X130538110Y-85199000D01*
X130579591Y-85203085D01*
X130579591Y-85203085D01*
G37*
G36*
X121084928Y-84851764D02*
G01*
X121106009Y-84858160D01*
X121125445Y-84868548D01*
X121142476Y-84882524D01*
X121156452Y-84899555D01*
X121166840Y-84918991D01*
X121173236Y-84940072D01*
X121176000Y-84968140D01*
X121176000Y-85431860D01*
X121173236Y-85459928D01*
X121166840Y-85481009D01*
X121156452Y-85500445D01*
X121142476Y-85517476D01*
X121125445Y-85531452D01*
X121106009Y-85541840D01*
X121084928Y-85548236D01*
X121056860Y-85551000D01*
X119793140Y-85551000D01*
X119765072Y-85548236D01*
X119743991Y-85541840D01*
X119724555Y-85531452D01*
X119707524Y-85517476D01*
X119693548Y-85500445D01*
X119683160Y-85481009D01*
X119676764Y-85459928D01*
X119674000Y-85431860D01*
X119674000Y-84968140D01*
X119676764Y-84940072D01*
X119683160Y-84918991D01*
X119693548Y-84899555D01*
X119707524Y-84882524D01*
X119724555Y-84868548D01*
X119743991Y-84858160D01*
X119765072Y-84851764D01*
X119793140Y-84849000D01*
X121056860Y-84849000D01*
X121084928Y-84851764D01*
X121084928Y-84851764D01*
G37*
G36*
X127084928Y-84851764D02*
G01*
X127106009Y-84858160D01*
X127125445Y-84868548D01*
X127142476Y-84882524D01*
X127156452Y-84899555D01*
X127166840Y-84918991D01*
X127173236Y-84940072D01*
X127176000Y-84968140D01*
X127176000Y-85431860D01*
X127173236Y-85459928D01*
X127166840Y-85481009D01*
X127156452Y-85500445D01*
X127142476Y-85517476D01*
X127125445Y-85531452D01*
X127106009Y-85541840D01*
X127084928Y-85548236D01*
X127056860Y-85551000D01*
X125793140Y-85551000D01*
X125765072Y-85548236D01*
X125743991Y-85541840D01*
X125724555Y-85531452D01*
X125707524Y-85517476D01*
X125693548Y-85500445D01*
X125683160Y-85481009D01*
X125676764Y-85459928D01*
X125674000Y-85431860D01*
X125674000Y-84968140D01*
X125676764Y-84940072D01*
X125683160Y-84918991D01*
X125693548Y-84899555D01*
X125707524Y-84882524D01*
X125724555Y-84868548D01*
X125743991Y-84858160D01*
X125765072Y-84851764D01*
X125793140Y-84849000D01*
X127056860Y-84849000D01*
X127084928Y-84851764D01*
X127084928Y-84851764D01*
G37*
G36*
X113429591Y-84378085D02*
G01*
X113463569Y-84388393D01*
X113494890Y-84405134D01*
X113522339Y-84427661D01*
X113544866Y-84455110D01*
X113561607Y-84486431D01*
X113571915Y-84520409D01*
X113576000Y-84561890D01*
X113576000Y-85238110D01*
X113571915Y-85279591D01*
X113561607Y-85313569D01*
X113544866Y-85344890D01*
X113522339Y-85372339D01*
X113494890Y-85394866D01*
X113463569Y-85411607D01*
X113429591Y-85421915D01*
X113388110Y-85426000D01*
X112786890Y-85426000D01*
X112745409Y-85421915D01*
X112711431Y-85411607D01*
X112680110Y-85394866D01*
X112652661Y-85372339D01*
X112630134Y-85344890D01*
X112613393Y-85313569D01*
X112603085Y-85279591D01*
X112599000Y-85238110D01*
X112599000Y-84561890D01*
X112603085Y-84520409D01*
X112613393Y-84486431D01*
X112630134Y-84455110D01*
X112652661Y-84427661D01*
X112680110Y-84405134D01*
X112711431Y-84388393D01*
X112745409Y-84378085D01*
X112786890Y-84374000D01*
X113388110Y-84374000D01*
X113429591Y-84378085D01*
X113429591Y-84378085D01*
G37*
G36*
X111854591Y-84378085D02*
G01*
X111888569Y-84388393D01*
X111919890Y-84405134D01*
X111947339Y-84427661D01*
X111969866Y-84455110D01*
X111986607Y-84486431D01*
X111996915Y-84520409D01*
X112001000Y-84561890D01*
X112001000Y-85238110D01*
X111996915Y-85279591D01*
X111986607Y-85313569D01*
X111969866Y-85344890D01*
X111947339Y-85372339D01*
X111919890Y-85394866D01*
X111888569Y-85411607D01*
X111854591Y-85421915D01*
X111813110Y-85426000D01*
X111211890Y-85426000D01*
X111170409Y-85421915D01*
X111136431Y-85411607D01*
X111105110Y-85394866D01*
X111077661Y-85372339D01*
X111055134Y-85344890D01*
X111038393Y-85313569D01*
X111028085Y-85279591D01*
X111024000Y-85238110D01*
X111024000Y-84561890D01*
X111028085Y-84520409D01*
X111038393Y-84486431D01*
X111055134Y-84455110D01*
X111077661Y-84427661D01*
X111105110Y-84405134D01*
X111136431Y-84388393D01*
X111170409Y-84378085D01*
X111211890Y-84374000D01*
X111813110Y-84374000D01*
X111854591Y-84378085D01*
X111854591Y-84378085D01*
G37*
G36*
X116281000Y-84976000D02*
G01*
X114619000Y-84976000D01*
X114619000Y-82324000D01*
X116281000Y-82324000D01*
X116281000Y-84976000D01*
X116281000Y-84976000D01*
G37*
G36*
X118981000Y-84976000D02*
G01*
X117319000Y-84976000D01*
X117319000Y-82324000D01*
X118981000Y-82324000D01*
X118981000Y-84976000D01*
X118981000Y-84976000D01*
G37*
G36*
X130579591Y-83628085D02*
G01*
X130613569Y-83638393D01*
X130644890Y-83655134D01*
X130672339Y-83677661D01*
X130694866Y-83705110D01*
X130711607Y-83736431D01*
X130721915Y-83770409D01*
X130726000Y-83811890D01*
X130726000Y-84413110D01*
X130721915Y-84454591D01*
X130711607Y-84488569D01*
X130694866Y-84519890D01*
X130672339Y-84547339D01*
X130644890Y-84569866D01*
X130613569Y-84586607D01*
X130579591Y-84596915D01*
X130538110Y-84601000D01*
X129861890Y-84601000D01*
X129820409Y-84596915D01*
X129786431Y-84586607D01*
X129755110Y-84569866D01*
X129727661Y-84547339D01*
X129705134Y-84519890D01*
X129688393Y-84488569D01*
X129678085Y-84454591D01*
X129674000Y-84413110D01*
X129674000Y-83811890D01*
X129678085Y-83770409D01*
X129688393Y-83736431D01*
X129705134Y-83705110D01*
X129727661Y-83677661D01*
X129755110Y-83655134D01*
X129786431Y-83638393D01*
X129820409Y-83628085D01*
X129861890Y-83624000D01*
X130538110Y-83624000D01*
X130579591Y-83628085D01*
X130579591Y-83628085D01*
G37*
G36*
X121084928Y-83581764D02*
G01*
X121106009Y-83588160D01*
X121125445Y-83598548D01*
X121142476Y-83612524D01*
X121156452Y-83629555D01*
X121166840Y-83648991D01*
X121173236Y-83670072D01*
X121176000Y-83698140D01*
X121176000Y-84161860D01*
X121173236Y-84189928D01*
X121166840Y-84211009D01*
X121156452Y-84230445D01*
X121142476Y-84247476D01*
X121125445Y-84261452D01*
X121106009Y-84271840D01*
X121084928Y-84278236D01*
X121056860Y-84281000D01*
X119793140Y-84281000D01*
X119765072Y-84278236D01*
X119743991Y-84271840D01*
X119724555Y-84261452D01*
X119707524Y-84247476D01*
X119693548Y-84230445D01*
X119683160Y-84211009D01*
X119676764Y-84189928D01*
X119674000Y-84161860D01*
X119674000Y-83698140D01*
X119676764Y-83670072D01*
X119683160Y-83648991D01*
X119693548Y-83629555D01*
X119707524Y-83612524D01*
X119724555Y-83598548D01*
X119743991Y-83588160D01*
X119765072Y-83581764D01*
X119793140Y-83579000D01*
X121056860Y-83579000D01*
X121084928Y-83581764D01*
X121084928Y-83581764D01*
G37*
G36*
X127084928Y-83581764D02*
G01*
X127106009Y-83588160D01*
X127125445Y-83598548D01*
X127142476Y-83612524D01*
X127156452Y-83629555D01*
X127166840Y-83648991D01*
X127173236Y-83670072D01*
X127176000Y-83698140D01*
X127176000Y-84161860D01*
X127173236Y-84189928D01*
X127166840Y-84211009D01*
X127156452Y-84230445D01*
X127142476Y-84247476D01*
X127125445Y-84261452D01*
X127106009Y-84271840D01*
X127084928Y-84278236D01*
X127056860Y-84281000D01*
X125793140Y-84281000D01*
X125765072Y-84278236D01*
X125743991Y-84271840D01*
X125724555Y-84261452D01*
X125707524Y-84247476D01*
X125693548Y-84230445D01*
X125683160Y-84211009D01*
X125676764Y-84189928D01*
X125674000Y-84161860D01*
X125674000Y-83698140D01*
X125676764Y-83670072D01*
X125683160Y-83648991D01*
X125693548Y-83629555D01*
X125707524Y-83612524D01*
X125724555Y-83598548D01*
X125743991Y-83588160D01*
X125765072Y-83581764D01*
X125793140Y-83579000D01*
X127056860Y-83579000D01*
X127084928Y-83581764D01*
X127084928Y-83581764D01*
G37*
G36*
X111842091Y-82178085D02*
G01*
X111876069Y-82188393D01*
X111907390Y-82205134D01*
X111934839Y-82227661D01*
X111957366Y-82255110D01*
X111974107Y-82286431D01*
X111984415Y-82320409D01*
X111988500Y-82361890D01*
X111988500Y-83038110D01*
X111984415Y-83079591D01*
X111974107Y-83113569D01*
X111957366Y-83144890D01*
X111934839Y-83172339D01*
X111907390Y-83194866D01*
X111876069Y-83211607D01*
X111842091Y-83221915D01*
X111800610Y-83226000D01*
X111199390Y-83226000D01*
X111157909Y-83221915D01*
X111123931Y-83211607D01*
X111092610Y-83194866D01*
X111065161Y-83172339D01*
X111042634Y-83144890D01*
X111025893Y-83113569D01*
X111015585Y-83079591D01*
X111011500Y-83038110D01*
X111011500Y-82361890D01*
X111015585Y-82320409D01*
X111025893Y-82286431D01*
X111042634Y-82255110D01*
X111065161Y-82227661D01*
X111092610Y-82205134D01*
X111123931Y-82188393D01*
X111157909Y-82178085D01*
X111199390Y-82174000D01*
X111800610Y-82174000D01*
X111842091Y-82178085D01*
X111842091Y-82178085D01*
G37*
G36*
X113417091Y-82178085D02*
G01*
X113451069Y-82188393D01*
X113482390Y-82205134D01*
X113509839Y-82227661D01*
X113532366Y-82255110D01*
X113549107Y-82286431D01*
X113559415Y-82320409D01*
X113563500Y-82361890D01*
X113563500Y-83038110D01*
X113559415Y-83079591D01*
X113549107Y-83113569D01*
X113532366Y-83144890D01*
X113509839Y-83172339D01*
X113482390Y-83194866D01*
X113451069Y-83211607D01*
X113417091Y-83221915D01*
X113375610Y-83226000D01*
X112774390Y-83226000D01*
X112732909Y-83221915D01*
X112698931Y-83211607D01*
X112667610Y-83194866D01*
X112640161Y-83172339D01*
X112617634Y-83144890D01*
X112600893Y-83113569D01*
X112590585Y-83079591D01*
X112586500Y-83038110D01*
X112586500Y-82361890D01*
X112590585Y-82320409D01*
X112600893Y-82286431D01*
X112617634Y-82255110D01*
X112640161Y-82227661D01*
X112667610Y-82205134D01*
X112698931Y-82188393D01*
X112732909Y-82178085D01*
X112774390Y-82174000D01*
X113375610Y-82174000D01*
X113417091Y-82178085D01*
X113417091Y-82178085D01*
G37*
G36*
X121084928Y-82311764D02*
G01*
X121106009Y-82318160D01*
X121125445Y-82328548D01*
X121142476Y-82342524D01*
X121156452Y-82359555D01*
X121166840Y-82378991D01*
X121173236Y-82400072D01*
X121176000Y-82428140D01*
X121176000Y-82891860D01*
X121173236Y-82919928D01*
X121166840Y-82941009D01*
X121156452Y-82960445D01*
X121142476Y-82977476D01*
X121125445Y-82991452D01*
X121106009Y-83001840D01*
X121084928Y-83008236D01*
X121056860Y-83011000D01*
X119793140Y-83011000D01*
X119765072Y-83008236D01*
X119743991Y-83001840D01*
X119724555Y-82991452D01*
X119707524Y-82977476D01*
X119693548Y-82960445D01*
X119683160Y-82941009D01*
X119676764Y-82919928D01*
X119674000Y-82891860D01*
X119674000Y-82428140D01*
X119676764Y-82400072D01*
X119683160Y-82378991D01*
X119693548Y-82359555D01*
X119707524Y-82342524D01*
X119724555Y-82328548D01*
X119743991Y-82318160D01*
X119765072Y-82311764D01*
X119793140Y-82309000D01*
X121056860Y-82309000D01*
X121084928Y-82311764D01*
X121084928Y-82311764D01*
G37*
G36*
X127084928Y-82311764D02*
G01*
X127106009Y-82318160D01*
X127125445Y-82328548D01*
X127142476Y-82342524D01*
X127156452Y-82359555D01*
X127166840Y-82378991D01*
X127173236Y-82400072D01*
X127176000Y-82428140D01*
X127176000Y-82891860D01*
X127173236Y-82919928D01*
X127166840Y-82941009D01*
X127156452Y-82960445D01*
X127142476Y-82977476D01*
X127125445Y-82991452D01*
X127106009Y-83001840D01*
X127084928Y-83008236D01*
X127056860Y-83011000D01*
X125793140Y-83011000D01*
X125765072Y-83008236D01*
X125743991Y-83001840D01*
X125724555Y-82991452D01*
X125707524Y-82977476D01*
X125693548Y-82960445D01*
X125683160Y-82941009D01*
X125676764Y-82919928D01*
X125674000Y-82891860D01*
X125674000Y-82428140D01*
X125676764Y-82400072D01*
X125683160Y-82378991D01*
X125693548Y-82359555D01*
X125707524Y-82342524D01*
X125724555Y-82328548D01*
X125743991Y-82318160D01*
X125765072Y-82311764D01*
X125793140Y-82309000D01*
X127056860Y-82309000D01*
X127084928Y-82311764D01*
X127084928Y-82311764D01*
G37*
G36*
X130579591Y-81703085D02*
G01*
X130613569Y-81713393D01*
X130644890Y-81730134D01*
X130672339Y-81752661D01*
X130694866Y-81780110D01*
X130711607Y-81811431D01*
X130721915Y-81845409D01*
X130726000Y-81886890D01*
X130726000Y-82488110D01*
X130721915Y-82529591D01*
X130711607Y-82563569D01*
X130694866Y-82594890D01*
X130672339Y-82622339D01*
X130644890Y-82644866D01*
X130613569Y-82661607D01*
X130579591Y-82671915D01*
X130538110Y-82676000D01*
X129861890Y-82676000D01*
X129820409Y-82671915D01*
X129786431Y-82661607D01*
X129755110Y-82644866D01*
X129727661Y-82622339D01*
X129705134Y-82594890D01*
X129688393Y-82563569D01*
X129678085Y-82529591D01*
X129674000Y-82488110D01*
X129674000Y-81886890D01*
X129678085Y-81845409D01*
X129688393Y-81811431D01*
X129705134Y-81780110D01*
X129727661Y-81752661D01*
X129755110Y-81730134D01*
X129786431Y-81713393D01*
X129820409Y-81703085D01*
X129861890Y-81699000D01*
X130538110Y-81699000D01*
X130579591Y-81703085D01*
X130579591Y-81703085D01*
G37*
G36*
X127084928Y-81041764D02*
G01*
X127106009Y-81048160D01*
X127125445Y-81058548D01*
X127142476Y-81072524D01*
X127156452Y-81089555D01*
X127166840Y-81108991D01*
X127173236Y-81130072D01*
X127176000Y-81158140D01*
X127176000Y-81621860D01*
X127173236Y-81649928D01*
X127166840Y-81671009D01*
X127156452Y-81690445D01*
X127142476Y-81707476D01*
X127125445Y-81721452D01*
X127106009Y-81731840D01*
X127084928Y-81738236D01*
X127056860Y-81741000D01*
X125793140Y-81741000D01*
X125765072Y-81738236D01*
X125743991Y-81731840D01*
X125724555Y-81721452D01*
X125707524Y-81707476D01*
X125693548Y-81690445D01*
X125683160Y-81671009D01*
X125676764Y-81649928D01*
X125674000Y-81621860D01*
X125674000Y-81158140D01*
X125676764Y-81130072D01*
X125683160Y-81108991D01*
X125693548Y-81089555D01*
X125707524Y-81072524D01*
X125724555Y-81058548D01*
X125743991Y-81048160D01*
X125765072Y-81041764D01*
X125793140Y-81039000D01*
X127056860Y-81039000D01*
X127084928Y-81041764D01*
X127084928Y-81041764D01*
G37*
G36*
X121084928Y-81041764D02*
G01*
X121106009Y-81048160D01*
X121125445Y-81058548D01*
X121142476Y-81072524D01*
X121156452Y-81089555D01*
X121166840Y-81108991D01*
X121173236Y-81130072D01*
X121176000Y-81158140D01*
X121176000Y-81621860D01*
X121173236Y-81649928D01*
X121166840Y-81671009D01*
X121156452Y-81690445D01*
X121142476Y-81707476D01*
X121125445Y-81721452D01*
X121106009Y-81731840D01*
X121084928Y-81738236D01*
X121056860Y-81741000D01*
X119793140Y-81741000D01*
X119765072Y-81738236D01*
X119743991Y-81731840D01*
X119724555Y-81721452D01*
X119707524Y-81707476D01*
X119693548Y-81690445D01*
X119683160Y-81671009D01*
X119676764Y-81649928D01*
X119674000Y-81621860D01*
X119674000Y-81158140D01*
X119676764Y-81130072D01*
X119683160Y-81108991D01*
X119693548Y-81089555D01*
X119707524Y-81072524D01*
X119724555Y-81058548D01*
X119743991Y-81048160D01*
X119765072Y-81041764D01*
X119793140Y-81039000D01*
X121056860Y-81039000D01*
X121084928Y-81041764D01*
X121084928Y-81041764D01*
G37*
G36*
X130579591Y-80128085D02*
G01*
X130613569Y-80138393D01*
X130644890Y-80155134D01*
X130672339Y-80177661D01*
X130694866Y-80205110D01*
X130711607Y-80236431D01*
X130721915Y-80270409D01*
X130726000Y-80311890D01*
X130726000Y-80913110D01*
X130721915Y-80954591D01*
X130711607Y-80988569D01*
X130694866Y-81019890D01*
X130672339Y-81047339D01*
X130644890Y-81069866D01*
X130613569Y-81086607D01*
X130579591Y-81096915D01*
X130538110Y-81101000D01*
X129861890Y-81101000D01*
X129820409Y-81096915D01*
X129786431Y-81086607D01*
X129755110Y-81069866D01*
X129727661Y-81047339D01*
X129705134Y-81019890D01*
X129688393Y-80988569D01*
X129678085Y-80954591D01*
X129674000Y-80913110D01*
X129674000Y-80311890D01*
X129678085Y-80270409D01*
X129688393Y-80236431D01*
X129705134Y-80205110D01*
X129727661Y-80177661D01*
X129755110Y-80155134D01*
X129786431Y-80138393D01*
X129820409Y-80128085D01*
X129861890Y-80124000D01*
X130538110Y-80124000D01*
X130579591Y-80128085D01*
X130579591Y-80128085D01*
G37*
G36*
X127084928Y-79771764D02*
G01*
X127106009Y-79778160D01*
X127125445Y-79788548D01*
X127142476Y-79802524D01*
X127156452Y-79819555D01*
X127166840Y-79838991D01*
X127173236Y-79860072D01*
X127176000Y-79888140D01*
X127176000Y-80351860D01*
X127173236Y-80379928D01*
X127166840Y-80401009D01*
X127156452Y-80420445D01*
X127142476Y-80437476D01*
X127125445Y-80451452D01*
X127106009Y-80461840D01*
X127084928Y-80468236D01*
X127056860Y-80471000D01*
X125793140Y-80471000D01*
X125765072Y-80468236D01*
X125743991Y-80461840D01*
X125724555Y-80451452D01*
X125707524Y-80437476D01*
X125693548Y-80420445D01*
X125683160Y-80401009D01*
X125676764Y-80379928D01*
X125674000Y-80351860D01*
X125674000Y-79888140D01*
X125676764Y-79860072D01*
X125683160Y-79838991D01*
X125693548Y-79819555D01*
X125707524Y-79802524D01*
X125724555Y-79788548D01*
X125743991Y-79778160D01*
X125765072Y-79771764D01*
X125793140Y-79769000D01*
X127056860Y-79769000D01*
X127084928Y-79771764D01*
X127084928Y-79771764D01*
G37*
G36*
X121084928Y-79771764D02*
G01*
X121106009Y-79778160D01*
X121125445Y-79788548D01*
X121142476Y-79802524D01*
X121156452Y-79819555D01*
X121166840Y-79838991D01*
X121173236Y-79860072D01*
X121176000Y-79888140D01*
X121176000Y-80351860D01*
X121173236Y-80379928D01*
X121166840Y-80401009D01*
X121156452Y-80420445D01*
X121142476Y-80437476D01*
X121125445Y-80451452D01*
X121106009Y-80461840D01*
X121084928Y-80468236D01*
X121056860Y-80471000D01*
X119793140Y-80471000D01*
X119765072Y-80468236D01*
X119743991Y-80461840D01*
X119724555Y-80451452D01*
X119707524Y-80437476D01*
X119693548Y-80420445D01*
X119683160Y-80401009D01*
X119676764Y-80379928D01*
X119674000Y-80351860D01*
X119674000Y-79888140D01*
X119676764Y-79860072D01*
X119683160Y-79838991D01*
X119693548Y-79819555D01*
X119707524Y-79802524D01*
X119724555Y-79788548D01*
X119743991Y-79778160D01*
X119765072Y-79771764D01*
X119793140Y-79769000D01*
X121056860Y-79769000D01*
X121084928Y-79771764D01*
X121084928Y-79771764D01*
G37*
G36*
X116181000Y-80426000D02*
G01*
X114519000Y-80426000D01*
X114519000Y-77774000D01*
X116181000Y-77774000D01*
X116181000Y-80426000D01*
X116181000Y-80426000D01*
G37*
G36*
X118881000Y-80426000D02*
G01*
X117219000Y-80426000D01*
X117219000Y-79674000D01*
X118881000Y-79674000D01*
X118881000Y-80426000D01*
X118881000Y-80426000D01*
G37*
G36*
X112579591Y-79403085D02*
G01*
X112613569Y-79413393D01*
X112644890Y-79430134D01*
X112672339Y-79452661D01*
X112694866Y-79480110D01*
X112711607Y-79511431D01*
X112721915Y-79545409D01*
X112726000Y-79586890D01*
X112726000Y-80188110D01*
X112721915Y-80229591D01*
X112711607Y-80263569D01*
X112694866Y-80294890D01*
X112672339Y-80322339D01*
X112644890Y-80344866D01*
X112613569Y-80361607D01*
X112579591Y-80371915D01*
X112538110Y-80376000D01*
X111861890Y-80376000D01*
X111820409Y-80371915D01*
X111786431Y-80361607D01*
X111755110Y-80344866D01*
X111727661Y-80322339D01*
X111705134Y-80294890D01*
X111688393Y-80263569D01*
X111678085Y-80229591D01*
X111674000Y-80188110D01*
X111674000Y-79586890D01*
X111678085Y-79545409D01*
X111688393Y-79511431D01*
X111705134Y-79480110D01*
X111727661Y-79452661D01*
X111755110Y-79430134D01*
X111786431Y-79413393D01*
X111820409Y-79403085D01*
X111861890Y-79399000D01*
X112538110Y-79399000D01*
X112579591Y-79403085D01*
X112579591Y-79403085D01*
G37*
G36*
X130579591Y-78103085D02*
G01*
X130613569Y-78113393D01*
X130644890Y-78130134D01*
X130672339Y-78152661D01*
X130694866Y-78180110D01*
X130711607Y-78211431D01*
X130721915Y-78245409D01*
X130726000Y-78286890D01*
X130726000Y-78888110D01*
X130721915Y-78929591D01*
X130711607Y-78963569D01*
X130694866Y-78994890D01*
X130672339Y-79022339D01*
X130644890Y-79044866D01*
X130613569Y-79061607D01*
X130579591Y-79071915D01*
X130538110Y-79076000D01*
X129861890Y-79076000D01*
X129820409Y-79071915D01*
X129786431Y-79061607D01*
X129755110Y-79044866D01*
X129727661Y-79022339D01*
X129705134Y-78994890D01*
X129688393Y-78963569D01*
X129678085Y-78929591D01*
X129674000Y-78888110D01*
X129674000Y-78286890D01*
X129678085Y-78245409D01*
X129688393Y-78211431D01*
X129705134Y-78180110D01*
X129727661Y-78152661D01*
X129755110Y-78130134D01*
X129786431Y-78113393D01*
X129820409Y-78103085D01*
X129861890Y-78099000D01*
X130538110Y-78099000D01*
X130579591Y-78103085D01*
X130579591Y-78103085D01*
G37*
G36*
X112579591Y-77828085D02*
G01*
X112613569Y-77838393D01*
X112644890Y-77855134D01*
X112672339Y-77877661D01*
X112694866Y-77905110D01*
X112711607Y-77936431D01*
X112721915Y-77970409D01*
X112726000Y-78011890D01*
X112726000Y-78613110D01*
X112721915Y-78654591D01*
X112711607Y-78688569D01*
X112694866Y-78719890D01*
X112672339Y-78747339D01*
X112644890Y-78769866D01*
X112613569Y-78786607D01*
X112579591Y-78796915D01*
X112538110Y-78801000D01*
X111861890Y-78801000D01*
X111820409Y-78796915D01*
X111786431Y-78786607D01*
X111755110Y-78769866D01*
X111727661Y-78747339D01*
X111705134Y-78719890D01*
X111688393Y-78688569D01*
X111678085Y-78654591D01*
X111674000Y-78613110D01*
X111674000Y-78011890D01*
X111678085Y-77970409D01*
X111688393Y-77936431D01*
X111705134Y-77905110D01*
X111727661Y-77877661D01*
X111755110Y-77855134D01*
X111786431Y-77838393D01*
X111820409Y-77828085D01*
X111861890Y-77824000D01*
X112538110Y-77824000D01*
X112579591Y-77828085D01*
X112579591Y-77828085D01*
G37*
G36*
X118881000Y-78526000D02*
G01*
X117219000Y-78526000D01*
X117219000Y-77774000D01*
X118881000Y-77774000D01*
X118881000Y-78526000D01*
X118881000Y-78526000D01*
G37*
G36*
X124629591Y-77378085D02*
G01*
X124663569Y-77388393D01*
X124694890Y-77405134D01*
X124722339Y-77427661D01*
X124744866Y-77455110D01*
X124761607Y-77486431D01*
X124771915Y-77520409D01*
X124776000Y-77561890D01*
X124776000Y-78238110D01*
X124771915Y-78279591D01*
X124761607Y-78313569D01*
X124744866Y-78344890D01*
X124722339Y-78372339D01*
X124694890Y-78394866D01*
X124663569Y-78411607D01*
X124629591Y-78421915D01*
X124588110Y-78426000D01*
X123986890Y-78426000D01*
X123945409Y-78421915D01*
X123911431Y-78411607D01*
X123880110Y-78394866D01*
X123852661Y-78372339D01*
X123830134Y-78344890D01*
X123813393Y-78313569D01*
X123803085Y-78279591D01*
X123799000Y-78238110D01*
X123799000Y-77561890D01*
X123803085Y-77520409D01*
X123813393Y-77486431D01*
X123830134Y-77455110D01*
X123852661Y-77427661D01*
X123880110Y-77405134D01*
X123911431Y-77388393D01*
X123945409Y-77378085D01*
X123986890Y-77374000D01*
X124588110Y-77374000D01*
X124629591Y-77378085D01*
X124629591Y-77378085D01*
G37*
G36*
X123054591Y-77378085D02*
G01*
X123088569Y-77388393D01*
X123119890Y-77405134D01*
X123147339Y-77427661D01*
X123169866Y-77455110D01*
X123186607Y-77486431D01*
X123196915Y-77520409D01*
X123201000Y-77561890D01*
X123201000Y-78238110D01*
X123196915Y-78279591D01*
X123186607Y-78313569D01*
X123169866Y-78344890D01*
X123147339Y-78372339D01*
X123119890Y-78394866D01*
X123088569Y-78411607D01*
X123054591Y-78421915D01*
X123013110Y-78426000D01*
X122411890Y-78426000D01*
X122370409Y-78421915D01*
X122336431Y-78411607D01*
X122305110Y-78394866D01*
X122277661Y-78372339D01*
X122255134Y-78344890D01*
X122238393Y-78313569D01*
X122228085Y-78279591D01*
X122224000Y-78238110D01*
X122224000Y-77561890D01*
X122228085Y-77520409D01*
X122238393Y-77486431D01*
X122255134Y-77455110D01*
X122277661Y-77427661D01*
X122305110Y-77405134D01*
X122336431Y-77388393D01*
X122370409Y-77378085D01*
X122411890Y-77374000D01*
X123013110Y-77374000D01*
X123054591Y-77378085D01*
X123054591Y-77378085D01*
G37*
G36*
X130579591Y-76528085D02*
G01*
X130613569Y-76538393D01*
X130644890Y-76555134D01*
X130672339Y-76577661D01*
X130694866Y-76605110D01*
X130711607Y-76636431D01*
X130721915Y-76670409D01*
X130726000Y-76711890D01*
X130726000Y-77313110D01*
X130721915Y-77354591D01*
X130711607Y-77388569D01*
X130694866Y-77419890D01*
X130672339Y-77447339D01*
X130644890Y-77469866D01*
X130613569Y-77486607D01*
X130579591Y-77496915D01*
X130538110Y-77501000D01*
X129861890Y-77501000D01*
X129820409Y-77496915D01*
X129786431Y-77486607D01*
X129755110Y-77469866D01*
X129727661Y-77447339D01*
X129705134Y-77419890D01*
X129688393Y-77388569D01*
X129678085Y-77354591D01*
X129674000Y-77313110D01*
X129674000Y-76711890D01*
X129678085Y-76670409D01*
X129688393Y-76636431D01*
X129705134Y-76605110D01*
X129727661Y-76577661D01*
X129755110Y-76555134D01*
X129786431Y-76538393D01*
X129820409Y-76528085D01*
X129861890Y-76524000D01*
X130538110Y-76524000D01*
X130579591Y-76528085D01*
X130579591Y-76528085D01*
G37*
G36*
X132051000Y-74201000D02*
G01*
X129949000Y-74201000D01*
X129949000Y-72099000D01*
X132051000Y-72099000D01*
X132051000Y-74201000D01*
X132051000Y-74201000D01*
G37*
G36*
X132051000Y-71731000D02*
G01*
X129949000Y-71731000D01*
X129949000Y-69629000D01*
X132051000Y-69629000D01*
X132051000Y-71731000D01*
X132051000Y-71731000D01*
G37*
G36*
X116753402Y-69268099D02*
G01*
X116760515Y-69291548D01*
X116772066Y-69313159D01*
X116787611Y-69332101D01*
X116806553Y-69347646D01*
X116828164Y-69359197D01*
X116851613Y-69366310D01*
X116875999Y-69368712D01*
X116900385Y-69366310D01*
X116923834Y-69359197D01*
X116945445Y-69347646D01*
X116972623Y-69323013D01*
X116981813Y-69311815D01*
X117014001Y-69285399D01*
X117050716Y-69265774D01*
X117090566Y-69253686D01*
X117138141Y-69249000D01*
X117801859Y-69249000D01*
X117849434Y-69253686D01*
X117889284Y-69265774D01*
X117925999Y-69285399D01*
X117958186Y-69311814D01*
X117984600Y-69343999D01*
X117994760Y-69363008D01*
X118008374Y-69383383D01*
X118025701Y-69400710D01*
X118046075Y-69414324D01*
X118068714Y-69423701D01*
X118092747Y-69428482D01*
X118117251Y-69428482D01*
X118141285Y-69423702D01*
X118163923Y-69414325D01*
X118184298Y-69400711D01*
X118201625Y-69383384D01*
X118215240Y-69363008D01*
X118225400Y-69343999D01*
X118251814Y-69311814D01*
X118284001Y-69285399D01*
X118320716Y-69265774D01*
X118360566Y-69253686D01*
X118408141Y-69249000D01*
X119071859Y-69249000D01*
X119119434Y-69253686D01*
X119159284Y-69265774D01*
X119195999Y-69285399D01*
X119228186Y-69311814D01*
X119254600Y-69343999D01*
X119264760Y-69363008D01*
X119278374Y-69383383D01*
X119295701Y-69400710D01*
X119316075Y-69414324D01*
X119338714Y-69423701D01*
X119362747Y-69428482D01*
X119387251Y-69428482D01*
X119411285Y-69423702D01*
X119433923Y-69414325D01*
X119454298Y-69400711D01*
X119471625Y-69383384D01*
X119485240Y-69363008D01*
X119495400Y-69343999D01*
X119521814Y-69311814D01*
X119554001Y-69285399D01*
X119590716Y-69265774D01*
X119630566Y-69253686D01*
X119678141Y-69249000D01*
X120341859Y-69249000D01*
X120389434Y-69253686D01*
X120429284Y-69265774D01*
X120465999Y-69285399D01*
X120498186Y-69311814D01*
X120524600Y-69343999D01*
X120534760Y-69363008D01*
X120548374Y-69383383D01*
X120565701Y-69400710D01*
X120586075Y-69414324D01*
X120608714Y-69423701D01*
X120632747Y-69428482D01*
X120657251Y-69428482D01*
X120681285Y-69423702D01*
X120703923Y-69414325D01*
X120724298Y-69400711D01*
X120741625Y-69383384D01*
X120755240Y-69363008D01*
X120765400Y-69343999D01*
X120791814Y-69311814D01*
X120824001Y-69285399D01*
X120860716Y-69265774D01*
X120900566Y-69253686D01*
X120948141Y-69249000D01*
X121611859Y-69249000D01*
X121659434Y-69253686D01*
X121699284Y-69265774D01*
X121735999Y-69285399D01*
X121768186Y-69311814D01*
X121794600Y-69343999D01*
X121804760Y-69363008D01*
X121818374Y-69383383D01*
X121835701Y-69400710D01*
X121856075Y-69414324D01*
X121878714Y-69423701D01*
X121902747Y-69428482D01*
X121927251Y-69428482D01*
X121951285Y-69423702D01*
X121973923Y-69414325D01*
X121994298Y-69400711D01*
X122011625Y-69383384D01*
X122025240Y-69363008D01*
X122035400Y-69343999D01*
X122061814Y-69311814D01*
X122094001Y-69285399D01*
X122130716Y-69265774D01*
X122170566Y-69253686D01*
X122218141Y-69249000D01*
X122881859Y-69249000D01*
X122929434Y-69253686D01*
X122969284Y-69265774D01*
X123005999Y-69285399D01*
X123038186Y-69311814D01*
X123064600Y-69343999D01*
X123074760Y-69363008D01*
X123088374Y-69383383D01*
X123105701Y-69400710D01*
X123126075Y-69414324D01*
X123148714Y-69423701D01*
X123172747Y-69428482D01*
X123197251Y-69428482D01*
X123221285Y-69423702D01*
X123243923Y-69414325D01*
X123264298Y-69400711D01*
X123281625Y-69383384D01*
X123295240Y-69363008D01*
X123305400Y-69343999D01*
X123331814Y-69311814D01*
X123364001Y-69285399D01*
X123400716Y-69265774D01*
X123440566Y-69253686D01*
X123488141Y-69249000D01*
X124151859Y-69249000D01*
X124199434Y-69253686D01*
X124239284Y-69265774D01*
X124275999Y-69285399D01*
X124308186Y-69311814D01*
X124334600Y-69343999D01*
X124344760Y-69363008D01*
X124358374Y-69383383D01*
X124375701Y-69400710D01*
X124396075Y-69414324D01*
X124418714Y-69423701D01*
X124442747Y-69428482D01*
X124467251Y-69428482D01*
X124491285Y-69423702D01*
X124513923Y-69414325D01*
X124534298Y-69400711D01*
X124551625Y-69383384D01*
X124565240Y-69363008D01*
X124575400Y-69343999D01*
X124601814Y-69311814D01*
X124634001Y-69285399D01*
X124670716Y-69265774D01*
X124710566Y-69253686D01*
X124758141Y-69249000D01*
X125421859Y-69249000D01*
X125469434Y-69253686D01*
X125509284Y-69265774D01*
X125545999Y-69285399D01*
X125578186Y-69311814D01*
X125604601Y-69344001D01*
X125624226Y-69380716D01*
X125636314Y-69420566D01*
X125641000Y-69468141D01*
X125641000Y-70731859D01*
X125636314Y-70779434D01*
X125624226Y-70819284D01*
X125604601Y-70855999D01*
X125578186Y-70888186D01*
X125545999Y-70914601D01*
X125509284Y-70934226D01*
X125469434Y-70946314D01*
X125421859Y-70951000D01*
X124758141Y-70951000D01*
X124710566Y-70946314D01*
X124670716Y-70934226D01*
X124634001Y-70914601D01*
X124601814Y-70888186D01*
X124575400Y-70856001D01*
X124565240Y-70836992D01*
X124551626Y-70816617D01*
X124534299Y-70799290D01*
X124513925Y-70785676D01*
X124491286Y-70776299D01*
X124467253Y-70771518D01*
X124442749Y-70771518D01*
X124418715Y-70776298D01*
X124396077Y-70785675D01*
X124375702Y-70799289D01*
X124358375Y-70816616D01*
X124344760Y-70836992D01*
X124334600Y-70856001D01*
X124308186Y-70888186D01*
X124275999Y-70914601D01*
X124239284Y-70934226D01*
X124199434Y-70946314D01*
X124151859Y-70951000D01*
X123488141Y-70951000D01*
X123440566Y-70946314D01*
X123400716Y-70934226D01*
X123364001Y-70914601D01*
X123331814Y-70888186D01*
X123305400Y-70856001D01*
X123295240Y-70836992D01*
X123281626Y-70816617D01*
X123264299Y-70799290D01*
X123243925Y-70785676D01*
X123221286Y-70776299D01*
X123197253Y-70771518D01*
X123172749Y-70771518D01*
X123148715Y-70776298D01*
X123126077Y-70785675D01*
X123105702Y-70799289D01*
X123088375Y-70816616D01*
X123074760Y-70836992D01*
X123064600Y-70856001D01*
X123038186Y-70888186D01*
X123005999Y-70914601D01*
X122969284Y-70934226D01*
X122929434Y-70946314D01*
X122881859Y-70951000D01*
X122218141Y-70951000D01*
X122170566Y-70946314D01*
X122130716Y-70934226D01*
X122094001Y-70914601D01*
X122061814Y-70888186D01*
X122035400Y-70856001D01*
X122025240Y-70836992D01*
X122011626Y-70816617D01*
X121994299Y-70799290D01*
X121973925Y-70785676D01*
X121951286Y-70776299D01*
X121927253Y-70771518D01*
X121902749Y-70771518D01*
X121878715Y-70776298D01*
X121856077Y-70785675D01*
X121835702Y-70799289D01*
X121818375Y-70816616D01*
X121804760Y-70836992D01*
X121794600Y-70856001D01*
X121768186Y-70888186D01*
X121735999Y-70914601D01*
X121699284Y-70934226D01*
X121659434Y-70946314D01*
X121611859Y-70951000D01*
X120948141Y-70951000D01*
X120900566Y-70946314D01*
X120860716Y-70934226D01*
X120824001Y-70914601D01*
X120791814Y-70888186D01*
X120765400Y-70856001D01*
X120755240Y-70836992D01*
X120741626Y-70816617D01*
X120724299Y-70799290D01*
X120703925Y-70785676D01*
X120681286Y-70776299D01*
X120657253Y-70771518D01*
X120632749Y-70771518D01*
X120608715Y-70776298D01*
X120586077Y-70785675D01*
X120565702Y-70799289D01*
X120548375Y-70816616D01*
X120534760Y-70836992D01*
X120524600Y-70856001D01*
X120498186Y-70888186D01*
X120465999Y-70914601D01*
X120429284Y-70934226D01*
X120389434Y-70946314D01*
X120341859Y-70951000D01*
X119678141Y-70951000D01*
X119630566Y-70946314D01*
X119590716Y-70934226D01*
X119554001Y-70914601D01*
X119521814Y-70888186D01*
X119495400Y-70856001D01*
X119485240Y-70836992D01*
X119471626Y-70816617D01*
X119454299Y-70799290D01*
X119433925Y-70785676D01*
X119411286Y-70776299D01*
X119387253Y-70771518D01*
X119362749Y-70771518D01*
X119338715Y-70776298D01*
X119316077Y-70785675D01*
X119295702Y-70799289D01*
X119278375Y-70816616D01*
X119264760Y-70836992D01*
X119254600Y-70856001D01*
X119228186Y-70888186D01*
X119195999Y-70914601D01*
X119159284Y-70934226D01*
X119119434Y-70946314D01*
X119071859Y-70951000D01*
X118408141Y-70951000D01*
X118360566Y-70946314D01*
X118320716Y-70934226D01*
X118284001Y-70914601D01*
X118251814Y-70888186D01*
X118225400Y-70856001D01*
X118215240Y-70836992D01*
X118201626Y-70816617D01*
X118184299Y-70799290D01*
X118163925Y-70785676D01*
X118141286Y-70776299D01*
X118117253Y-70771518D01*
X118092749Y-70771518D01*
X118068715Y-70776298D01*
X118046077Y-70785675D01*
X118025702Y-70799289D01*
X118008375Y-70816616D01*
X117994760Y-70836992D01*
X117984600Y-70856001D01*
X117958186Y-70888186D01*
X117925999Y-70914601D01*
X117889284Y-70934226D01*
X117849434Y-70946314D01*
X117801859Y-70951000D01*
X117138141Y-70951000D01*
X117090566Y-70946314D01*
X117050716Y-70934226D01*
X117014001Y-70914601D01*
X116981813Y-70888185D01*
X116972623Y-70876987D01*
X116955296Y-70859660D01*
X116934922Y-70846047D01*
X116912283Y-70836670D01*
X116888249Y-70831890D01*
X116863745Y-70831890D01*
X116839712Y-70836671D01*
X116817073Y-70846049D01*
X116796699Y-70859663D01*
X116779372Y-70876990D01*
X116765759Y-70897364D01*
X116756382Y-70920003D01*
X116751784Y-70951000D01*
X115649000Y-70951000D01*
X115649000Y-69249000D01*
X116751521Y-69249000D01*
X116753402Y-69268099D01*
X116753402Y-69268099D01*
G37*
M02*
