M48
; DRILL file {KiCad 5.1.7} date Sat Oct 17 14:52:58 2020
; FORMAT={-:-/ absolute / inch / decimal}
; #@! TF.CreationDate,2020-10-17T14:52:58-07:00
; #@! TF.GenerationSoftware,Kicad,Pcbnew,5.1.7
; #@! TF.FileFunction,Plated,1,2,PTH
FMAT,2
INCH
T1C0.0157
T2C0.0197
%
G90
G05
T1
X4.3937Y-2.9413
X4.4173Y-2.8035
X4.4252Y-3.5988
X4.4594Y-3.1106
X4.5Y-3.6539
X4.5114Y-2.7972
X4.5118Y-2.8429
X4.5118Y-2.8882
X4.5236Y-2.9413
X4.5315Y-3.5398
X4.5661Y-2.9996
X4.7209Y-3.6917
X4.7213Y-3.6075
X4.7217Y-3.6496
X4.9409Y-2.9413
X4.9957Y-2.7787
X5.074Y-3.5134
T2
X4.8787Y-2.7445
X4.9287Y-2.7445
X4.6787Y-2.7445
X4.8287Y-2.7445
X4.6287Y-2.7445
X4.5787Y-2.7445
X4.7787Y-2.7445
X4.7287Y-2.7445
X4.5787Y-2.7917
X4.6287Y-2.7917
X4.6787Y-2.7917
X4.7287Y-2.7917
X4.7787Y-2.7917
X4.8287Y-2.7917
X4.8787Y-2.7917
X4.9287Y-2.7917
T0
M30
