G04 #@! TF.GenerationSoftware,KiCad,Pcbnew,5.1.7*
G04 #@! TF.CreationDate,2020-10-17T14:52:52-07:00*
G04 #@! TF.ProjectId,lofi,6c6f6669-2e6b-4696-9361-645f70636258,rev?*
G04 #@! TF.SameCoordinates,Original*
G04 #@! TF.FileFunction,Copper,L1,Top*
G04 #@! TF.FilePolarity,Positive*
%FSLAX46Y46*%
G04 Gerber Fmt 4.6, Leading zero omitted, Abs format (unit mm)*
G04 Created by KiCad (PCBNEW 5.1.7) date 2020-10-17 14:52:52*
%MOMM*%
%LPD*%
G01*
G04 APERTURE LIST*
G04 #@! TA.AperFunction,SMDPad,CuDef*
%ADD10R,3.400000X1.000000*%
G04 #@! TD*
G04 #@! TA.AperFunction,SMDPad,CuDef*
%ADD11R,1.500000X3.000000*%
G04 #@! TD*
G04 #@! TA.AperFunction,SMDPad,CuDef*
%ADD12R,2.000000X3.000000*%
G04 #@! TD*
G04 #@! TA.AperFunction,SMDPad,CuDef*
%ADD13R,1.500000X4.000000*%
G04 #@! TD*
G04 #@! TA.AperFunction,SMDPad,CuDef*
%ADD14R,0.600000X1.800000*%
G04 #@! TD*
G04 #@! TA.AperFunction,SMDPad,CuDef*
%ADD15R,0.650000X1.560000*%
G04 #@! TD*
G04 #@! TA.AperFunction,ComponentPad*
%ADD16R,1.000000X1.650000*%
G04 #@! TD*
G04 #@! TA.AperFunction,ComponentPad*
%ADD17R,1.000000X1.000000*%
G04 #@! TD*
G04 #@! TA.AperFunction,SMDPad,CuDef*
%ADD18R,1.000000X0.800000*%
G04 #@! TD*
G04 #@! TA.AperFunction,SMDPad,CuDef*
%ADD19R,1.560000X0.650000*%
G04 #@! TD*
G04 #@! TA.AperFunction,ViaPad*
%ADD20C,0.800000*%
G04 #@! TD*
G04 #@! TA.AperFunction,Conductor*
%ADD21C,0.400000*%
G04 #@! TD*
G04 #@! TA.AperFunction,Conductor*
%ADD22C,0.250000*%
G04 #@! TD*
G04 APERTURE END LIST*
G04 #@! TA.AperFunction,SMDPad,CuDef*
G36*
G01*
X112019999Y-85300000D02*
X112920001Y-85300000D01*
G75*
G02*
X113170000Y-85549999I0J-249999D01*
G01*
X113170000Y-86250001D01*
G75*
G02*
X112920001Y-86500000I-249999J0D01*
G01*
X112019999Y-86500000D01*
G75*
G02*
X111770000Y-86250001I0J249999D01*
G01*
X111770000Y-85549999D01*
G75*
G02*
X112019999Y-85300000I249999J0D01*
G01*
G37*
G04 #@! TD.AperFunction*
G04 #@! TA.AperFunction,SMDPad,CuDef*
G36*
G01*
X112019999Y-83300000D02*
X112920001Y-83300000D01*
G75*
G02*
X113170000Y-83549999I0J-249999D01*
G01*
X113170000Y-84250001D01*
G75*
G02*
X112920001Y-84500000I-249999J0D01*
G01*
X112019999Y-84500000D01*
G75*
G02*
X111770000Y-84250001I0J249999D01*
G01*
X111770000Y-83549999D01*
G75*
G02*
X112019999Y-83300000I249999J0D01*
G01*
G37*
G04 #@! TD.AperFunction*
G04 #@! TA.AperFunction,SMDPad,CuDef*
G36*
G01*
X112019999Y-87300000D02*
X112920001Y-87300000D01*
G75*
G02*
X113170000Y-87549999I0J-249999D01*
G01*
X113170000Y-88250001D01*
G75*
G02*
X112920001Y-88500000I-249999J0D01*
G01*
X112019999Y-88500000D01*
G75*
G02*
X111770000Y-88250001I0J249999D01*
G01*
X111770000Y-87549999D01*
G75*
G02*
X112019999Y-87300000I249999J0D01*
G01*
G37*
G04 #@! TD.AperFunction*
G04 #@! TA.AperFunction,SMDPad,CuDef*
G36*
G01*
X112019999Y-85300000D02*
X112920001Y-85300000D01*
G75*
G02*
X113170000Y-85549999I0J-249999D01*
G01*
X113170000Y-86250001D01*
G75*
G02*
X112920001Y-86500000I-249999J0D01*
G01*
X112019999Y-86500000D01*
G75*
G02*
X111770000Y-86250001I0J249999D01*
G01*
X111770000Y-85549999D01*
G75*
G02*
X112019999Y-85300000I249999J0D01*
G01*
G37*
G04 #@! TD.AperFunction*
G04 #@! TA.AperFunction,SMDPad,CuDef*
G36*
G01*
X118259999Y-84980000D02*
X119160001Y-84980000D01*
G75*
G02*
X119410000Y-85229999I0J-249999D01*
G01*
X119410000Y-85880001D01*
G75*
G02*
X119160001Y-86130000I-249999J0D01*
G01*
X118259999Y-86130000D01*
G75*
G02*
X118010000Y-85880001I0J249999D01*
G01*
X118010000Y-85229999D01*
G75*
G02*
X118259999Y-84980000I249999J0D01*
G01*
G37*
G04 #@! TD.AperFunction*
G04 #@! TA.AperFunction,SMDPad,CuDef*
G36*
G01*
X118259999Y-82930000D02*
X119160001Y-82930000D01*
G75*
G02*
X119410000Y-83179999I0J-249999D01*
G01*
X119410000Y-83830001D01*
G75*
G02*
X119160001Y-84080000I-249999J0D01*
G01*
X118259999Y-84080000D01*
G75*
G02*
X118010000Y-83830001I0J249999D01*
G01*
X118010000Y-83179999D01*
G75*
G02*
X118259999Y-82930000I249999J0D01*
G01*
G37*
G04 #@! TD.AperFunction*
D10*
X130360000Y-70620000D03*
D11*
X131310000Y-73020000D03*
D12*
X131010000Y-92790000D03*
D13*
X129410000Y-72520000D03*
D14*
X116690000Y-74710000D03*
X117960000Y-74710000D03*
X119230000Y-74710000D03*
X120500000Y-74710000D03*
X121770000Y-74710000D03*
X123040000Y-74710000D03*
X124310000Y-74710000D03*
X124310000Y-80310000D03*
X123040000Y-80310000D03*
X121770000Y-80310000D03*
X120500000Y-80310000D03*
X119230000Y-80310000D03*
X117960000Y-80310000D03*
X116690000Y-80310000D03*
D15*
X115290000Y-84820000D03*
X114340000Y-84820000D03*
X116240000Y-84820000D03*
X116240000Y-87520000D03*
X115290000Y-87520000D03*
X114340000Y-87520000D03*
D16*
X125190000Y-70610000D03*
X123920000Y-70610000D03*
X122650000Y-70610000D03*
X121380000Y-70610000D03*
X120110000Y-70610000D03*
X118840000Y-70610000D03*
X117570000Y-70610000D03*
X116300000Y-70610000D03*
D17*
X125190000Y-69710000D03*
X123920000Y-69710000D03*
X122650000Y-69710000D03*
X121380000Y-69710000D03*
X120110000Y-69710000D03*
X118840000Y-69710000D03*
X117570000Y-69710000D03*
X116300000Y-69710000D03*
G04 #@! TA.AperFunction,SMDPad,CuDef*
G36*
G01*
X111700000Y-70340000D02*
X111700000Y-70740000D01*
G75*
G02*
X111500000Y-70940000I-200000J0D01*
G01*
X110900000Y-70940000D01*
G75*
G02*
X110700000Y-70740000I0J200000D01*
G01*
X110700000Y-70340000D01*
G75*
G02*
X110900000Y-70140000I200000J0D01*
G01*
X111500000Y-70140000D01*
G75*
G02*
X111700000Y-70340000I0J-200000D01*
G01*
G37*
G04 #@! TD.AperFunction*
G04 #@! TA.AperFunction,SMDPad,CuDef*
G36*
G01*
X113700000Y-70340000D02*
X113700000Y-70740000D01*
G75*
G02*
X113500000Y-70940000I-200000J0D01*
G01*
X112900000Y-70940000D01*
G75*
G02*
X112700000Y-70740000I0J200000D01*
G01*
X112700000Y-70340000D01*
G75*
G02*
X112900000Y-70140000I200000J0D01*
G01*
X113500000Y-70140000D01*
G75*
G02*
X113700000Y-70340000I0J-200000D01*
G01*
G37*
G04 #@! TD.AperFunction*
G04 #@! TA.AperFunction,SMDPad,CuDef*
G36*
G01*
X111700000Y-71610000D02*
X111700000Y-72010000D01*
G75*
G02*
X111500000Y-72210000I-200000J0D01*
G01*
X110900000Y-72210000D01*
G75*
G02*
X110700000Y-72010000I0J200000D01*
G01*
X110700000Y-71610000D01*
G75*
G02*
X110900000Y-71410000I200000J0D01*
G01*
X111500000Y-71410000D01*
G75*
G02*
X111700000Y-71610000I0J-200000D01*
G01*
G37*
G04 #@! TD.AperFunction*
G04 #@! TA.AperFunction,SMDPad,CuDef*
G36*
G01*
X113700000Y-71610000D02*
X113700000Y-72010000D01*
G75*
G02*
X113500000Y-72210000I-200000J0D01*
G01*
X112900000Y-72210000D01*
G75*
G02*
X112700000Y-72010000I0J200000D01*
G01*
X112700000Y-71610000D01*
G75*
G02*
X112900000Y-71410000I200000J0D01*
G01*
X113500000Y-71410000D01*
G75*
G02*
X113700000Y-71610000I0J-200000D01*
G01*
G37*
G04 #@! TD.AperFunction*
G04 #@! TA.AperFunction,SMDPad,CuDef*
G36*
G01*
X111700000Y-72880000D02*
X111700000Y-73280000D01*
G75*
G02*
X111500000Y-73480000I-200000J0D01*
G01*
X110900000Y-73480000D01*
G75*
G02*
X110700000Y-73280000I0J200000D01*
G01*
X110700000Y-72880000D01*
G75*
G02*
X110900000Y-72680000I200000J0D01*
G01*
X111500000Y-72680000D01*
G75*
G02*
X111700000Y-72880000I0J-200000D01*
G01*
G37*
G04 #@! TD.AperFunction*
D18*
X113200000Y-73080000D03*
G04 #@! TA.AperFunction,SMDPad,CuDef*
G36*
G01*
X124190000Y-92799999D02*
X124190000Y-93700001D01*
G75*
G02*
X123940001Y-93950000I-249999J0D01*
G01*
X123289999Y-93950000D01*
G75*
G02*
X123040000Y-93700001I0J249999D01*
G01*
X123040000Y-92799999D01*
G75*
G02*
X123289999Y-92550000I249999J0D01*
G01*
X123940001Y-92550000D01*
G75*
G02*
X124190000Y-92799999I0J-249999D01*
G01*
G37*
G04 #@! TD.AperFunction*
G04 #@! TA.AperFunction,SMDPad,CuDef*
G36*
G01*
X122140000Y-92799999D02*
X122140000Y-93700001D01*
G75*
G02*
X121890001Y-93950000I-249999J0D01*
G01*
X121239999Y-93950000D01*
G75*
G02*
X120990000Y-93700001I0J249999D01*
G01*
X120990000Y-92799999D01*
G75*
G02*
X121239999Y-92550000I249999J0D01*
G01*
X121890001Y-92550000D01*
G75*
G02*
X122140000Y-92799999I0J-249999D01*
G01*
G37*
G04 #@! TD.AperFunction*
D19*
X112100000Y-80210000D03*
X112100000Y-81160000D03*
X112100000Y-82110000D03*
X114800000Y-82110000D03*
X114800000Y-80210000D03*
G04 #@! TA.AperFunction,SMDPad,CuDef*
G36*
G01*
X111439999Y-77745000D02*
X112340001Y-77745000D01*
G75*
G02*
X112590000Y-77994999I0J-249999D01*
G01*
X112590000Y-78645001D01*
G75*
G02*
X112340001Y-78895000I-249999J0D01*
G01*
X111439999Y-78895000D01*
G75*
G02*
X111190000Y-78645001I0J249999D01*
G01*
X111190000Y-77994999D01*
G75*
G02*
X111439999Y-77745000I249999J0D01*
G01*
G37*
G04 #@! TD.AperFunction*
G04 #@! TA.AperFunction,SMDPad,CuDef*
G36*
G01*
X111439999Y-75695000D02*
X112340001Y-75695000D01*
G75*
G02*
X112590000Y-75944999I0J-249999D01*
G01*
X112590000Y-76595001D01*
G75*
G02*
X112340001Y-76845000I-249999J0D01*
G01*
X111439999Y-76845000D01*
G75*
G02*
X111190000Y-76595001I0J249999D01*
G01*
X111190000Y-75944999D01*
G75*
G02*
X111439999Y-75695000I249999J0D01*
G01*
G37*
G04 #@! TD.AperFunction*
G04 #@! TA.AperFunction,SMDPad,CuDef*
G36*
G01*
X115060001Y-78910000D02*
X114159999Y-78910000D01*
G75*
G02*
X113910000Y-78660001I0J249999D01*
G01*
X113910000Y-78009999D01*
G75*
G02*
X114159999Y-77760000I249999J0D01*
G01*
X115060001Y-77760000D01*
G75*
G02*
X115310000Y-78009999I0J-249999D01*
G01*
X115310000Y-78660001D01*
G75*
G02*
X115060001Y-78910000I-249999J0D01*
G01*
G37*
G04 #@! TD.AperFunction*
G04 #@! TA.AperFunction,SMDPad,CuDef*
G36*
G01*
X115060001Y-76860000D02*
X114159999Y-76860000D01*
G75*
G02*
X113910000Y-76610001I0J249999D01*
G01*
X113910000Y-75959999D01*
G75*
G02*
X114159999Y-75710000I249999J0D01*
G01*
X115060001Y-75710000D01*
G75*
G02*
X115310000Y-75959999I0J-249999D01*
G01*
X115310000Y-76610001D01*
G75*
G02*
X115060001Y-76860000I-249999J0D01*
G01*
G37*
G04 #@! TD.AperFunction*
G04 #@! TA.AperFunction,SMDPad,CuDef*
G36*
G01*
X127410001Y-82730000D02*
X126509999Y-82730000D01*
G75*
G02*
X126260000Y-82480001I0J249999D01*
G01*
X126260000Y-81829999D01*
G75*
G02*
X126509999Y-81580000I249999J0D01*
G01*
X127410001Y-81580000D01*
G75*
G02*
X127660000Y-81829999I0J-249999D01*
G01*
X127660000Y-82480001D01*
G75*
G02*
X127410001Y-82730000I-249999J0D01*
G01*
G37*
G04 #@! TD.AperFunction*
G04 #@! TA.AperFunction,SMDPad,CuDef*
G36*
G01*
X127410001Y-80680000D02*
X126509999Y-80680000D01*
G75*
G02*
X126260000Y-80430001I0J249999D01*
G01*
X126260000Y-79779999D01*
G75*
G02*
X126509999Y-79530000I249999J0D01*
G01*
X127410001Y-79530000D01*
G75*
G02*
X127660000Y-79779999I0J-249999D01*
G01*
X127660000Y-80430001D01*
G75*
G02*
X127410001Y-80680000I-249999J0D01*
G01*
G37*
G04 #@! TD.AperFunction*
G04 #@! TA.AperFunction,SMDPad,CuDef*
G36*
G01*
X122400000Y-86130001D02*
X122400000Y-85229999D01*
G75*
G02*
X122649999Y-84980000I249999J0D01*
G01*
X123300001Y-84980000D01*
G75*
G02*
X123550000Y-85229999I0J-249999D01*
G01*
X123550000Y-86130001D01*
G75*
G02*
X123300001Y-86380000I-249999J0D01*
G01*
X122649999Y-86380000D01*
G75*
G02*
X122400000Y-86130001I0J249999D01*
G01*
G37*
G04 #@! TD.AperFunction*
G04 #@! TA.AperFunction,SMDPad,CuDef*
G36*
G01*
X120350000Y-86130001D02*
X120350000Y-85229999D01*
G75*
G02*
X120599999Y-84980000I249999J0D01*
G01*
X121250001Y-84980000D01*
G75*
G02*
X121500000Y-85229999I0J-249999D01*
G01*
X121500000Y-86130001D01*
G75*
G02*
X121250001Y-86380000I-249999J0D01*
G01*
X120599999Y-86380000D01*
G75*
G02*
X120350000Y-86130001I0J249999D01*
G01*
G37*
G04 #@! TD.AperFunction*
G04 #@! TA.AperFunction,SMDPad,CuDef*
G36*
G01*
X121500000Y-87269999D02*
X121500000Y-88170001D01*
G75*
G02*
X121250001Y-88420000I-249999J0D01*
G01*
X120599999Y-88420000D01*
G75*
G02*
X120350000Y-88170001I0J249999D01*
G01*
X120350000Y-87269999D01*
G75*
G02*
X120599999Y-87020000I249999J0D01*
G01*
X121250001Y-87020000D01*
G75*
G02*
X121500000Y-87269999I0J-249999D01*
G01*
G37*
G04 #@! TD.AperFunction*
G04 #@! TA.AperFunction,SMDPad,CuDef*
G36*
G01*
X123550000Y-87269999D02*
X123550000Y-88170001D01*
G75*
G02*
X123300001Y-88420000I-249999J0D01*
G01*
X122649999Y-88420000D01*
G75*
G02*
X122400000Y-88170001I0J249999D01*
G01*
X122400000Y-87269999D01*
G75*
G02*
X122649999Y-87020000I249999J0D01*
G01*
X123300001Y-87020000D01*
G75*
G02*
X123550000Y-87269999I0J-249999D01*
G01*
G37*
G04 #@! TD.AperFunction*
G04 #@! TA.AperFunction,SMDPad,CuDef*
G36*
G01*
X120350000Y-84110001D02*
X120350000Y-83209999D01*
G75*
G02*
X120599999Y-82960000I249999J0D01*
G01*
X121250001Y-82960000D01*
G75*
G02*
X121500000Y-83209999I0J-249999D01*
G01*
X121500000Y-84110001D01*
G75*
G02*
X121250001Y-84360000I-249999J0D01*
G01*
X120599999Y-84360000D01*
G75*
G02*
X120350000Y-84110001I0J249999D01*
G01*
G37*
G04 #@! TD.AperFunction*
G04 #@! TA.AperFunction,SMDPad,CuDef*
G36*
G01*
X122400000Y-84110001D02*
X122400000Y-83209999D01*
G75*
G02*
X122649999Y-82960000I249999J0D01*
G01*
X123300001Y-82960000D01*
G75*
G02*
X123550000Y-83209999I0J-249999D01*
G01*
X123550000Y-84110001D01*
G75*
G02*
X123300001Y-84360000I-249999J0D01*
G01*
X122649999Y-84360000D01*
G75*
G02*
X122400000Y-84110001I0J249999D01*
G01*
G37*
G04 #@! TD.AperFunction*
G04 #@! TA.AperFunction,SMDPad,CuDef*
G36*
G01*
X126509999Y-77640000D02*
X127410001Y-77640000D01*
G75*
G02*
X127660000Y-77889999I0J-249999D01*
G01*
X127660000Y-78540001D01*
G75*
G02*
X127410001Y-78790000I-249999J0D01*
G01*
X126509999Y-78790000D01*
G75*
G02*
X126260000Y-78540001I0J249999D01*
G01*
X126260000Y-77889999D01*
G75*
G02*
X126509999Y-77640000I249999J0D01*
G01*
G37*
G04 #@! TD.AperFunction*
G04 #@! TA.AperFunction,SMDPad,CuDef*
G36*
G01*
X126509999Y-75590000D02*
X127410001Y-75590000D01*
G75*
G02*
X127660000Y-75839999I0J-249999D01*
G01*
X127660000Y-76490001D01*
G75*
G02*
X127410001Y-76740000I-249999J0D01*
G01*
X126509999Y-76740000D01*
G75*
G02*
X126260000Y-76490001I0J249999D01*
G01*
X126260000Y-75839999D01*
G75*
G02*
X126509999Y-75590000I249999J0D01*
G01*
G37*
G04 #@! TD.AperFunction*
G04 #@! TA.AperFunction,SMDPad,CuDef*
G36*
G01*
X124500000Y-90860001D02*
X124500000Y-89959999D01*
G75*
G02*
X124749999Y-89710000I249999J0D01*
G01*
X125400001Y-89710000D01*
G75*
G02*
X125650000Y-89959999I0J-249999D01*
G01*
X125650000Y-90860001D01*
G75*
G02*
X125400001Y-91110000I-249999J0D01*
G01*
X124749999Y-91110000D01*
G75*
G02*
X124500000Y-90860001I0J249999D01*
G01*
G37*
G04 #@! TD.AperFunction*
G04 #@! TA.AperFunction,SMDPad,CuDef*
G36*
G01*
X126550000Y-90860001D02*
X126550000Y-89959999D01*
G75*
G02*
X126799999Y-89710000I249999J0D01*
G01*
X127450001Y-89710000D01*
G75*
G02*
X127700000Y-89959999I0J-249999D01*
G01*
X127700000Y-90860001D01*
G75*
G02*
X127450001Y-91110000I-249999J0D01*
G01*
X126799999Y-91110000D01*
G75*
G02*
X126550000Y-90860001I0J249999D01*
G01*
G37*
G04 #@! TD.AperFunction*
G04 #@! TA.AperFunction,SMDPad,CuDef*
G36*
G01*
X126509999Y-83540000D02*
X127410001Y-83540000D01*
G75*
G02*
X127660000Y-83789999I0J-249999D01*
G01*
X127660000Y-84440001D01*
G75*
G02*
X127410001Y-84690000I-249999J0D01*
G01*
X126509999Y-84690000D01*
G75*
G02*
X126260000Y-84440001I0J249999D01*
G01*
X126260000Y-83789999D01*
G75*
G02*
X126509999Y-83540000I249999J0D01*
G01*
G37*
G04 #@! TD.AperFunction*
G04 #@! TA.AperFunction,SMDPad,CuDef*
G36*
G01*
X126509999Y-85590000D02*
X127410001Y-85590000D01*
G75*
G02*
X127660000Y-85839999I0J-249999D01*
G01*
X127660000Y-86490001D01*
G75*
G02*
X127410001Y-86740000I-249999J0D01*
G01*
X126509999Y-86740000D01*
G75*
G02*
X126260000Y-86490001I0J249999D01*
G01*
X126260000Y-85839999D01*
G75*
G02*
X126509999Y-85590000I249999J0D01*
G01*
G37*
G04 #@! TD.AperFunction*
G04 #@! TA.AperFunction,SMDPad,CuDef*
G36*
G01*
X110570000Y-93705000D02*
X110570000Y-89755000D01*
G75*
G02*
X110820000Y-89505000I250000J0D01*
G01*
X113520000Y-89505000D01*
G75*
G02*
X113770000Y-89755000I0J-250000D01*
G01*
X113770000Y-93705000D01*
G75*
G02*
X113520000Y-93955000I-250000J0D01*
G01*
X110820000Y-93955000D01*
G75*
G02*
X110570000Y-93705000I0J250000D01*
G01*
G37*
G04 #@! TD.AperFunction*
G04 #@! TA.AperFunction,SMDPad,CuDef*
G36*
G01*
X115770000Y-93705000D02*
X115770000Y-89755000D01*
G75*
G02*
X116020000Y-89505000I250000J0D01*
G01*
X118720000Y-89505000D01*
G75*
G02*
X118970000Y-89755000I0J-250000D01*
G01*
X118970000Y-93705000D01*
G75*
G02*
X118720000Y-93955000I-250000J0D01*
G01*
X116020000Y-93955000D01*
G75*
G02*
X115770000Y-93705000I0J250000D01*
G01*
G37*
G04 #@! TD.AperFunction*
G04 #@! TA.AperFunction,SMDPad,CuDef*
G36*
G01*
X124500000Y-88710001D02*
X124500000Y-87809999D01*
G75*
G02*
X124749999Y-87560000I249999J0D01*
G01*
X125400001Y-87560000D01*
G75*
G02*
X125650000Y-87809999I0J-249999D01*
G01*
X125650000Y-88710001D01*
G75*
G02*
X125400001Y-88960000I-249999J0D01*
G01*
X124749999Y-88960000D01*
G75*
G02*
X124500000Y-88710001I0J249999D01*
G01*
G37*
G04 #@! TD.AperFunction*
G04 #@! TA.AperFunction,SMDPad,CuDef*
G36*
G01*
X126550000Y-88710001D02*
X126550000Y-87809999D01*
G75*
G02*
X126799999Y-87560000I249999J0D01*
G01*
X127450001Y-87560000D01*
G75*
G02*
X127700000Y-87809999I0J-249999D01*
G01*
X127700000Y-88710001D01*
G75*
G02*
X127450001Y-88960000I-249999J0D01*
G01*
X126799999Y-88960000D01*
G75*
G02*
X126550000Y-88710001I0J249999D01*
G01*
G37*
G04 #@! TD.AperFunction*
D20*
X112200000Y-71210000D03*
X115100000Y-89910000D03*
X119920000Y-91630000D03*
X119930000Y-92700000D03*
X119910000Y-93770000D03*
X115980000Y-76190000D03*
X113270000Y-79010000D03*
X128880000Y-89240000D03*
X126890000Y-70580000D03*
X111600000Y-74710000D03*
X125500000Y-74710000D03*
X114900000Y-74710000D03*
X114300000Y-92810000D03*
X112400000Y-91410000D03*
X114590000Y-71050000D03*
X114600000Y-72210000D03*
X114600000Y-73360000D03*
D21*
X117570000Y-72680000D02*
X117570000Y-70910000D01*
X116690000Y-73560000D02*
X117570000Y-72680000D01*
X116690000Y-74710000D02*
X116690000Y-73560000D01*
D22*
X114900000Y-76522500D02*
X114412500Y-76522500D01*
X111630000Y-70540000D02*
X112200000Y-71110000D01*
X111200000Y-70540000D02*
X111630000Y-70540000D01*
X116690000Y-74710000D02*
X116690000Y-75310000D01*
X118225000Y-93710000D02*
X117125000Y-92610000D01*
D21*
X117125000Y-91935000D02*
X115100000Y-89910000D01*
X112280000Y-78710000D02*
X111890000Y-78320000D01*
X117360000Y-92600000D02*
X117360000Y-92490000D01*
X117360000Y-92490000D02*
X118220000Y-91630000D01*
X118220000Y-91630000D02*
X119920000Y-91630000D01*
X118260000Y-92600000D02*
X118540000Y-92880000D01*
X119910000Y-92880000D02*
X119990000Y-92880000D01*
X119990000Y-92880000D02*
X120010000Y-92900000D01*
X117360000Y-92600000D02*
X117360000Y-92820000D01*
X116690000Y-76010000D02*
X116510000Y-76190000D01*
X116690000Y-74710000D02*
X116690000Y-76010000D01*
X116510000Y-76190000D02*
X115980000Y-76190000D01*
X115885000Y-76285000D02*
X115980000Y-76190000D01*
X114610000Y-76285000D02*
X115885000Y-76285000D01*
X111890000Y-78320000D02*
X112580000Y-78320000D01*
X112580000Y-78320000D02*
X113270000Y-79010000D01*
D22*
X120855000Y-88350000D02*
X120835000Y-88370000D01*
D21*
X113270000Y-79575685D02*
X113270000Y-79010000D01*
X113280001Y-80855001D02*
X113280001Y-79585686D01*
X113280001Y-79585686D02*
X113270000Y-79575685D01*
X112975002Y-81160000D02*
X113280001Y-80855001D01*
X112100000Y-81160000D02*
X112975002Y-81160000D01*
X120925000Y-90625000D02*
X119920000Y-91630000D01*
X120925000Y-87720000D02*
X120925000Y-90625000D01*
X127125000Y-88260000D02*
X127900000Y-88260000D01*
X127900000Y-88260000D02*
X128880000Y-89240000D01*
X118340000Y-92700000D02*
X117370000Y-91730000D01*
X119930000Y-92700000D02*
X118340000Y-92700000D01*
X121045000Y-93770000D02*
X121565000Y-93250000D01*
X119910000Y-93770000D02*
X121045000Y-93770000D01*
D22*
X127470000Y-70580000D02*
X129410000Y-72520000D01*
X126890000Y-70580000D02*
X127470000Y-70580000D01*
D21*
X115290000Y-87520000D02*
X115290000Y-88740000D01*
X115100000Y-88930000D02*
X115100000Y-89910000D01*
X115290000Y-88740000D02*
X115100000Y-88930000D01*
D22*
X114600000Y-80310000D02*
X114500000Y-80210000D01*
D21*
X116690000Y-80310000D02*
X114600000Y-80310000D01*
X111600000Y-74710000D02*
X111200000Y-74310000D01*
X111200000Y-74310000D02*
X111200000Y-73080000D01*
X116300000Y-72710000D02*
X116300000Y-70910000D01*
X114900000Y-78097500D02*
X114325000Y-78097500D01*
X111600000Y-75980000D02*
X111890000Y-76270000D01*
X111600000Y-74710000D02*
X111600000Y-75980000D01*
X125500000Y-74710000D02*
X125500000Y-74980000D01*
X114610000Y-80020000D02*
X114800000Y-80210000D01*
X114610000Y-78335000D02*
X114610000Y-80020000D01*
X111890000Y-76270000D02*
X112070000Y-76270000D01*
X113910000Y-78335000D02*
X114610000Y-78335000D01*
X112070000Y-76495000D02*
X113910000Y-78335000D01*
X112070000Y-76270000D02*
X112070000Y-76495000D01*
X126960000Y-80105000D02*
X126960000Y-78215000D01*
X125500000Y-75275685D02*
X125500000Y-74710000D01*
X125500000Y-77455000D02*
X125500000Y-75275685D01*
X126260000Y-78215000D02*
X125500000Y-77455000D01*
X126960000Y-78215000D02*
X126260000Y-78215000D01*
X114900000Y-74710000D02*
X115710000Y-73900000D01*
X115710000Y-73300000D02*
X116300000Y-72710000D01*
X115710000Y-73900000D02*
X115710000Y-73300000D01*
D22*
X126960000Y-84115000D02*
X126960000Y-82155000D01*
X120925000Y-83660000D02*
X120925000Y-85680000D01*
X119085000Y-87520000D02*
X120925000Y-85680000D01*
X116240000Y-87520000D02*
X119085000Y-87520000D01*
X122975000Y-83660000D02*
X122975000Y-87720000D01*
X131310000Y-74770000D02*
X131310000Y-73020000D01*
X129915000Y-76165000D02*
X131310000Y-74770000D01*
X126960000Y-76165000D02*
X129915000Y-76165000D01*
X129505000Y-92790000D02*
X127125000Y-90410000D01*
X131010000Y-92790000D02*
X129505000Y-92790000D01*
X119230000Y-80910000D02*
X119230000Y-80310000D01*
X119230000Y-80310000D02*
X119230000Y-80826410D01*
X116815000Y-84820000D02*
X116240000Y-84820000D01*
X119398180Y-84405010D02*
X117229990Y-84405010D01*
X120024990Y-83778200D02*
X119398180Y-84405010D01*
X120024990Y-82254990D02*
X120024990Y-83778200D01*
X119230000Y-81460000D02*
X120024990Y-82254990D01*
X117229990Y-84405010D02*
X116815000Y-84820000D01*
X119230000Y-80310000D02*
X119230000Y-81460000D01*
X111550000Y-92060000D02*
X112100000Y-92610000D01*
D21*
X114300000Y-92810000D02*
X112300000Y-92810000D01*
X112380000Y-91390000D02*
X112400000Y-91410000D01*
X114340000Y-87520000D02*
X114340000Y-84820000D01*
X112470000Y-92290000D02*
X112160000Y-92600000D01*
X112470000Y-87730000D02*
X112470000Y-92290000D01*
X110880000Y-86310000D02*
X112470000Y-87900000D01*
X110880000Y-80554998D02*
X110880000Y-86310000D01*
X111224998Y-80210000D02*
X110880000Y-80554998D01*
X112100000Y-80210000D02*
X111224998Y-80210000D01*
X113960000Y-87900000D02*
X114340000Y-87520000D01*
X112470000Y-87900000D02*
X113960000Y-87900000D01*
D22*
X117960000Y-73560000D02*
X117960000Y-74710000D01*
X118840000Y-72680000D02*
X117960000Y-73560000D01*
X118840000Y-70910000D02*
X118840000Y-72680000D01*
X120110000Y-72680000D02*
X120110000Y-70910000D01*
X119230000Y-73560000D02*
X120110000Y-72680000D01*
X119230000Y-74710000D02*
X119230000Y-73560000D01*
X121380000Y-71900000D02*
X121380000Y-70910000D01*
X123040000Y-73560000D02*
X121380000Y-71900000D01*
X123040000Y-74710000D02*
X123040000Y-73560000D01*
X114080000Y-70540000D02*
X114590000Y-71050000D01*
X113200000Y-70540000D02*
X114080000Y-70540000D01*
X123490010Y-73373600D02*
X122650000Y-72533590D01*
X124310000Y-78370000D02*
X123665001Y-77725001D01*
X123490010Y-73376420D02*
X123490010Y-73373600D01*
X122650000Y-72533590D02*
X122650000Y-70910000D01*
X124310000Y-80310000D02*
X124310000Y-78370000D01*
X123665001Y-73551411D02*
X123490010Y-73376420D01*
X123665001Y-77725001D02*
X123665001Y-73551411D01*
X113600000Y-72210000D02*
X113200000Y-71810000D01*
X114600000Y-72210000D02*
X113600000Y-72210000D01*
X123920000Y-73170000D02*
X123920000Y-70910000D01*
X124310000Y-73560000D02*
X123920000Y-73170000D01*
X124310000Y-74710000D02*
X124310000Y-73560000D01*
X114630000Y-73080000D02*
X114700000Y-73010000D01*
X113480000Y-73360000D02*
X113200000Y-73080000D01*
X114600000Y-73360000D02*
X113480000Y-73360000D01*
X111726998Y-71810000D02*
X111200000Y-71810000D01*
X112944999Y-76254999D02*
X112944999Y-74554999D01*
X120500000Y-80310000D02*
X120500000Y-79010000D01*
X117400000Y-78610000D02*
X116075010Y-77285010D01*
X112944999Y-74554999D02*
X112200000Y-73810000D01*
X116075010Y-77285010D02*
X113975010Y-77285010D01*
X112200000Y-72283002D02*
X111726998Y-71810000D01*
X120500000Y-79010000D02*
X120100000Y-78610000D01*
X112200000Y-73810000D02*
X112200000Y-72283002D01*
X120100000Y-78610000D02*
X117400000Y-78610000D01*
X112944999Y-76254999D02*
X113975010Y-77285010D01*
X121770000Y-80910000D02*
X121770000Y-80310000D01*
X126224990Y-86200010D02*
X126260000Y-86165000D01*
X126224990Y-91985010D02*
X126224990Y-86200010D01*
X126260000Y-86165000D02*
X126960000Y-86165000D01*
X125820000Y-85725000D02*
X125820000Y-83605002D01*
X121770000Y-77100000D02*
X121770000Y-74710000D01*
X126260000Y-86165000D02*
X125820000Y-85725000D01*
X125820000Y-83605002D02*
X123665001Y-81450003D01*
X123665001Y-78995001D02*
X121770000Y-77100000D01*
X123665001Y-81450003D02*
X123665001Y-78995001D01*
X124960000Y-93250000D02*
X126224990Y-91985010D01*
X123615000Y-93250000D02*
X124960000Y-93250000D01*
X125075000Y-90410000D02*
X125075000Y-88260000D01*
X125075000Y-88260000D02*
X125075000Y-83715000D01*
X123040000Y-81680000D02*
X123040000Y-80310000D01*
X125075000Y-83715000D02*
X123040000Y-81680000D01*
X118010000Y-85555000D02*
X117465000Y-86100000D01*
X118710000Y-85555000D02*
X118010000Y-85555000D01*
X115290000Y-85850000D02*
X115290000Y-84820000D01*
X115540000Y-86100000D02*
X115290000Y-85850000D01*
X117465000Y-86100000D02*
X115540000Y-86100000D01*
X115290000Y-83790000D02*
X114960000Y-83460000D01*
X115290000Y-84820000D02*
X115290000Y-83790000D01*
X112910000Y-83460000D02*
X112470000Y-83900000D01*
X114960000Y-83460000D02*
X112910000Y-83460000D01*
X117960000Y-80910000D02*
X117960000Y-80310000D01*
X117960000Y-80310000D02*
X117960000Y-81460000D01*
X118710000Y-82210000D02*
X118710000Y-83505000D01*
X117960000Y-81460000D02*
X118710000Y-82210000D01*
X111444990Y-85404990D02*
X111444990Y-82765010D01*
X111770000Y-85730000D02*
X111444990Y-85404990D01*
X111444990Y-82765010D02*
X112100000Y-82110000D01*
X112470000Y-85730000D02*
X111770000Y-85730000D01*
M02*
