G04 #@! TF.GenerationSoftware,KiCad,Pcbnew,5.1.2*
G04 #@! TF.CreationDate,2019-08-16T09:09:30-07:00*
G04 #@! TF.ProjectId,lofi,6c6f6669-2e6b-4696-9361-645f70636258,rev?*
G04 #@! TF.SameCoordinates,Original*
G04 #@! TF.FileFunction,Copper,L2,Bot*
G04 #@! TF.FilePolarity,Positive*
%FSLAX46Y46*%
G04 Gerber Fmt 4.6, Leading zero omitted, Abs format (unit mm)*
G04 Created by KiCad (PCBNEW 5.1.2) date 2019-08-16 09:09:30*
%MOMM*%
%LPD*%
G04 APERTURE LIST*
%ADD10C,0.300000*%
%ADD11C,2.400000*%
%ADD12C,0.100000*%
%ADD13C,15.000000*%
%ADD14R,1.000000X1.600000*%
%ADD15C,1.000000*%
%ADD16C,0.800000*%
%ADD17C,0.500000*%
G04 APERTURE END LIST*
D10*
X111549383Y-87831130D02*
X110814768Y-88706609D01*
X111619815Y-88636177D02*
X110744336Y-87901562D01*
X129349383Y-69831130D02*
X128614768Y-70706609D01*
X129419815Y-70636177D02*
X128544336Y-69901562D01*
D11*
X128820615Y-73537280D03*
D12*
G36*
X129964381Y-76063502D02*
G01*
X126134159Y-72849564D01*
X127676849Y-71011058D01*
X131507071Y-74224996D01*
X129964381Y-76063502D01*
X129964381Y-76063502D01*
G37*
D13*
X121300000Y-82500000D03*
D11*
X113779385Y-91462720D03*
D12*
G36*
X114923151Y-93988942D02*
G01*
X111092929Y-90775004D01*
X112635619Y-88936498D01*
X116465841Y-92150436D01*
X114923151Y-93988942D01*
X114923151Y-93988942D01*
G37*
D14*
X116200000Y-70100000D03*
D12*
G36*
X117744504Y-69301204D02*
G01*
X117768773Y-69304804D01*
X117792571Y-69310765D01*
X117815671Y-69319030D01*
X117837849Y-69329520D01*
X117858893Y-69342133D01*
X117878598Y-69356747D01*
X117896777Y-69373223D01*
X117913253Y-69391402D01*
X117927867Y-69411107D01*
X117940480Y-69432151D01*
X117950970Y-69454329D01*
X117959235Y-69477429D01*
X117965196Y-69501227D01*
X117968796Y-69525496D01*
X117970000Y-69550000D01*
X117970000Y-70650000D01*
X117968796Y-70674504D01*
X117965196Y-70698773D01*
X117959235Y-70722571D01*
X117950970Y-70745671D01*
X117940480Y-70767849D01*
X117927867Y-70788893D01*
X117913253Y-70808598D01*
X117896777Y-70826777D01*
X117878598Y-70843253D01*
X117858893Y-70857867D01*
X117837849Y-70870480D01*
X117815671Y-70880970D01*
X117792571Y-70889235D01*
X117768773Y-70895196D01*
X117744504Y-70898796D01*
X117720000Y-70900000D01*
X117220000Y-70900000D01*
X117195496Y-70898796D01*
X117171227Y-70895196D01*
X117147429Y-70889235D01*
X117124329Y-70880970D01*
X117102151Y-70870480D01*
X117081107Y-70857867D01*
X117061402Y-70843253D01*
X117043223Y-70826777D01*
X117026747Y-70808598D01*
X117012133Y-70788893D01*
X116999520Y-70767849D01*
X116989030Y-70745671D01*
X116980765Y-70722571D01*
X116974804Y-70698773D01*
X116971204Y-70674504D01*
X116970000Y-70650000D01*
X116970000Y-69550000D01*
X116971204Y-69525496D01*
X116974804Y-69501227D01*
X116980765Y-69477429D01*
X116989030Y-69454329D01*
X116999520Y-69432151D01*
X117012133Y-69411107D01*
X117026747Y-69391402D01*
X117043223Y-69373223D01*
X117061402Y-69356747D01*
X117081107Y-69342133D01*
X117102151Y-69329520D01*
X117124329Y-69319030D01*
X117147429Y-69310765D01*
X117171227Y-69304804D01*
X117195496Y-69301204D01*
X117220000Y-69300000D01*
X117720000Y-69300000D01*
X117744504Y-69301204D01*
X117744504Y-69301204D01*
G37*
D15*
X117470000Y-70100000D03*
D12*
G36*
X119014504Y-69301204D02*
G01*
X119038773Y-69304804D01*
X119062571Y-69310765D01*
X119085671Y-69319030D01*
X119107849Y-69329520D01*
X119128893Y-69342133D01*
X119148598Y-69356747D01*
X119166777Y-69373223D01*
X119183253Y-69391402D01*
X119197867Y-69411107D01*
X119210480Y-69432151D01*
X119220970Y-69454329D01*
X119229235Y-69477429D01*
X119235196Y-69501227D01*
X119238796Y-69525496D01*
X119240000Y-69550000D01*
X119240000Y-70650000D01*
X119238796Y-70674504D01*
X119235196Y-70698773D01*
X119229235Y-70722571D01*
X119220970Y-70745671D01*
X119210480Y-70767849D01*
X119197867Y-70788893D01*
X119183253Y-70808598D01*
X119166777Y-70826777D01*
X119148598Y-70843253D01*
X119128893Y-70857867D01*
X119107849Y-70870480D01*
X119085671Y-70880970D01*
X119062571Y-70889235D01*
X119038773Y-70895196D01*
X119014504Y-70898796D01*
X118990000Y-70900000D01*
X118490000Y-70900000D01*
X118465496Y-70898796D01*
X118441227Y-70895196D01*
X118417429Y-70889235D01*
X118394329Y-70880970D01*
X118372151Y-70870480D01*
X118351107Y-70857867D01*
X118331402Y-70843253D01*
X118313223Y-70826777D01*
X118296747Y-70808598D01*
X118282133Y-70788893D01*
X118269520Y-70767849D01*
X118259030Y-70745671D01*
X118250765Y-70722571D01*
X118244804Y-70698773D01*
X118241204Y-70674504D01*
X118240000Y-70650000D01*
X118240000Y-69550000D01*
X118241204Y-69525496D01*
X118244804Y-69501227D01*
X118250765Y-69477429D01*
X118259030Y-69454329D01*
X118269520Y-69432151D01*
X118282133Y-69411107D01*
X118296747Y-69391402D01*
X118313223Y-69373223D01*
X118331402Y-69356747D01*
X118351107Y-69342133D01*
X118372151Y-69329520D01*
X118394329Y-69319030D01*
X118417429Y-69310765D01*
X118441227Y-69304804D01*
X118465496Y-69301204D01*
X118490000Y-69300000D01*
X118990000Y-69300000D01*
X119014504Y-69301204D01*
X119014504Y-69301204D01*
G37*
D15*
X118740000Y-70100000D03*
D12*
G36*
X120284504Y-69301204D02*
G01*
X120308773Y-69304804D01*
X120332571Y-69310765D01*
X120355671Y-69319030D01*
X120377849Y-69329520D01*
X120398893Y-69342133D01*
X120418598Y-69356747D01*
X120436777Y-69373223D01*
X120453253Y-69391402D01*
X120467867Y-69411107D01*
X120480480Y-69432151D01*
X120490970Y-69454329D01*
X120499235Y-69477429D01*
X120505196Y-69501227D01*
X120508796Y-69525496D01*
X120510000Y-69550000D01*
X120510000Y-70650000D01*
X120508796Y-70674504D01*
X120505196Y-70698773D01*
X120499235Y-70722571D01*
X120490970Y-70745671D01*
X120480480Y-70767849D01*
X120467867Y-70788893D01*
X120453253Y-70808598D01*
X120436777Y-70826777D01*
X120418598Y-70843253D01*
X120398893Y-70857867D01*
X120377849Y-70870480D01*
X120355671Y-70880970D01*
X120332571Y-70889235D01*
X120308773Y-70895196D01*
X120284504Y-70898796D01*
X120260000Y-70900000D01*
X119760000Y-70900000D01*
X119735496Y-70898796D01*
X119711227Y-70895196D01*
X119687429Y-70889235D01*
X119664329Y-70880970D01*
X119642151Y-70870480D01*
X119621107Y-70857867D01*
X119601402Y-70843253D01*
X119583223Y-70826777D01*
X119566747Y-70808598D01*
X119552133Y-70788893D01*
X119539520Y-70767849D01*
X119529030Y-70745671D01*
X119520765Y-70722571D01*
X119514804Y-70698773D01*
X119511204Y-70674504D01*
X119510000Y-70650000D01*
X119510000Y-69550000D01*
X119511204Y-69525496D01*
X119514804Y-69501227D01*
X119520765Y-69477429D01*
X119529030Y-69454329D01*
X119539520Y-69432151D01*
X119552133Y-69411107D01*
X119566747Y-69391402D01*
X119583223Y-69373223D01*
X119601402Y-69356747D01*
X119621107Y-69342133D01*
X119642151Y-69329520D01*
X119664329Y-69319030D01*
X119687429Y-69310765D01*
X119711227Y-69304804D01*
X119735496Y-69301204D01*
X119760000Y-69300000D01*
X120260000Y-69300000D01*
X120284504Y-69301204D01*
X120284504Y-69301204D01*
G37*
D15*
X120010000Y-70100000D03*
D12*
G36*
X121554504Y-69301204D02*
G01*
X121578773Y-69304804D01*
X121602571Y-69310765D01*
X121625671Y-69319030D01*
X121647849Y-69329520D01*
X121668893Y-69342133D01*
X121688598Y-69356747D01*
X121706777Y-69373223D01*
X121723253Y-69391402D01*
X121737867Y-69411107D01*
X121750480Y-69432151D01*
X121760970Y-69454329D01*
X121769235Y-69477429D01*
X121775196Y-69501227D01*
X121778796Y-69525496D01*
X121780000Y-69550000D01*
X121780000Y-70650000D01*
X121778796Y-70674504D01*
X121775196Y-70698773D01*
X121769235Y-70722571D01*
X121760970Y-70745671D01*
X121750480Y-70767849D01*
X121737867Y-70788893D01*
X121723253Y-70808598D01*
X121706777Y-70826777D01*
X121688598Y-70843253D01*
X121668893Y-70857867D01*
X121647849Y-70870480D01*
X121625671Y-70880970D01*
X121602571Y-70889235D01*
X121578773Y-70895196D01*
X121554504Y-70898796D01*
X121530000Y-70900000D01*
X121030000Y-70900000D01*
X121005496Y-70898796D01*
X120981227Y-70895196D01*
X120957429Y-70889235D01*
X120934329Y-70880970D01*
X120912151Y-70870480D01*
X120891107Y-70857867D01*
X120871402Y-70843253D01*
X120853223Y-70826777D01*
X120836747Y-70808598D01*
X120822133Y-70788893D01*
X120809520Y-70767849D01*
X120799030Y-70745671D01*
X120790765Y-70722571D01*
X120784804Y-70698773D01*
X120781204Y-70674504D01*
X120780000Y-70650000D01*
X120780000Y-69550000D01*
X120781204Y-69525496D01*
X120784804Y-69501227D01*
X120790765Y-69477429D01*
X120799030Y-69454329D01*
X120809520Y-69432151D01*
X120822133Y-69411107D01*
X120836747Y-69391402D01*
X120853223Y-69373223D01*
X120871402Y-69356747D01*
X120891107Y-69342133D01*
X120912151Y-69329520D01*
X120934329Y-69319030D01*
X120957429Y-69310765D01*
X120981227Y-69304804D01*
X121005496Y-69301204D01*
X121030000Y-69300000D01*
X121530000Y-69300000D01*
X121554504Y-69301204D01*
X121554504Y-69301204D01*
G37*
D15*
X121280000Y-70100000D03*
D12*
G36*
X122824504Y-69301204D02*
G01*
X122848773Y-69304804D01*
X122872571Y-69310765D01*
X122895671Y-69319030D01*
X122917849Y-69329520D01*
X122938893Y-69342133D01*
X122958598Y-69356747D01*
X122976777Y-69373223D01*
X122993253Y-69391402D01*
X123007867Y-69411107D01*
X123020480Y-69432151D01*
X123030970Y-69454329D01*
X123039235Y-69477429D01*
X123045196Y-69501227D01*
X123048796Y-69525496D01*
X123050000Y-69550000D01*
X123050000Y-70650000D01*
X123048796Y-70674504D01*
X123045196Y-70698773D01*
X123039235Y-70722571D01*
X123030970Y-70745671D01*
X123020480Y-70767849D01*
X123007867Y-70788893D01*
X122993253Y-70808598D01*
X122976777Y-70826777D01*
X122958598Y-70843253D01*
X122938893Y-70857867D01*
X122917849Y-70870480D01*
X122895671Y-70880970D01*
X122872571Y-70889235D01*
X122848773Y-70895196D01*
X122824504Y-70898796D01*
X122800000Y-70900000D01*
X122300000Y-70900000D01*
X122275496Y-70898796D01*
X122251227Y-70895196D01*
X122227429Y-70889235D01*
X122204329Y-70880970D01*
X122182151Y-70870480D01*
X122161107Y-70857867D01*
X122141402Y-70843253D01*
X122123223Y-70826777D01*
X122106747Y-70808598D01*
X122092133Y-70788893D01*
X122079520Y-70767849D01*
X122069030Y-70745671D01*
X122060765Y-70722571D01*
X122054804Y-70698773D01*
X122051204Y-70674504D01*
X122050000Y-70650000D01*
X122050000Y-69550000D01*
X122051204Y-69525496D01*
X122054804Y-69501227D01*
X122060765Y-69477429D01*
X122069030Y-69454329D01*
X122079520Y-69432151D01*
X122092133Y-69411107D01*
X122106747Y-69391402D01*
X122123223Y-69373223D01*
X122141402Y-69356747D01*
X122161107Y-69342133D01*
X122182151Y-69329520D01*
X122204329Y-69319030D01*
X122227429Y-69310765D01*
X122251227Y-69304804D01*
X122275496Y-69301204D01*
X122300000Y-69300000D01*
X122800000Y-69300000D01*
X122824504Y-69301204D01*
X122824504Y-69301204D01*
G37*
D15*
X122550000Y-70100000D03*
D12*
G36*
X124094504Y-69301204D02*
G01*
X124118773Y-69304804D01*
X124142571Y-69310765D01*
X124165671Y-69319030D01*
X124187849Y-69329520D01*
X124208893Y-69342133D01*
X124228598Y-69356747D01*
X124246777Y-69373223D01*
X124263253Y-69391402D01*
X124277867Y-69411107D01*
X124290480Y-69432151D01*
X124300970Y-69454329D01*
X124309235Y-69477429D01*
X124315196Y-69501227D01*
X124318796Y-69525496D01*
X124320000Y-69550000D01*
X124320000Y-70650000D01*
X124318796Y-70674504D01*
X124315196Y-70698773D01*
X124309235Y-70722571D01*
X124300970Y-70745671D01*
X124290480Y-70767849D01*
X124277867Y-70788893D01*
X124263253Y-70808598D01*
X124246777Y-70826777D01*
X124228598Y-70843253D01*
X124208893Y-70857867D01*
X124187849Y-70870480D01*
X124165671Y-70880970D01*
X124142571Y-70889235D01*
X124118773Y-70895196D01*
X124094504Y-70898796D01*
X124070000Y-70900000D01*
X123570000Y-70900000D01*
X123545496Y-70898796D01*
X123521227Y-70895196D01*
X123497429Y-70889235D01*
X123474329Y-70880970D01*
X123452151Y-70870480D01*
X123431107Y-70857867D01*
X123411402Y-70843253D01*
X123393223Y-70826777D01*
X123376747Y-70808598D01*
X123362133Y-70788893D01*
X123349520Y-70767849D01*
X123339030Y-70745671D01*
X123330765Y-70722571D01*
X123324804Y-70698773D01*
X123321204Y-70674504D01*
X123320000Y-70650000D01*
X123320000Y-69550000D01*
X123321204Y-69525496D01*
X123324804Y-69501227D01*
X123330765Y-69477429D01*
X123339030Y-69454329D01*
X123349520Y-69432151D01*
X123362133Y-69411107D01*
X123376747Y-69391402D01*
X123393223Y-69373223D01*
X123411402Y-69356747D01*
X123431107Y-69342133D01*
X123452151Y-69329520D01*
X123474329Y-69319030D01*
X123497429Y-69310765D01*
X123521227Y-69304804D01*
X123545496Y-69301204D01*
X123570000Y-69300000D01*
X124070000Y-69300000D01*
X124094504Y-69301204D01*
X124094504Y-69301204D01*
G37*
D15*
X123820000Y-70100000D03*
D12*
G36*
X125364504Y-69301204D02*
G01*
X125388773Y-69304804D01*
X125412571Y-69310765D01*
X125435671Y-69319030D01*
X125457849Y-69329520D01*
X125478893Y-69342133D01*
X125498598Y-69356747D01*
X125516777Y-69373223D01*
X125533253Y-69391402D01*
X125547867Y-69411107D01*
X125560480Y-69432151D01*
X125570970Y-69454329D01*
X125579235Y-69477429D01*
X125585196Y-69501227D01*
X125588796Y-69525496D01*
X125590000Y-69550000D01*
X125590000Y-70650000D01*
X125588796Y-70674504D01*
X125585196Y-70698773D01*
X125579235Y-70722571D01*
X125570970Y-70745671D01*
X125560480Y-70767849D01*
X125547867Y-70788893D01*
X125533253Y-70808598D01*
X125516777Y-70826777D01*
X125498598Y-70843253D01*
X125478893Y-70857867D01*
X125457849Y-70870480D01*
X125435671Y-70880970D01*
X125412571Y-70889235D01*
X125388773Y-70895196D01*
X125364504Y-70898796D01*
X125340000Y-70900000D01*
X124840000Y-70900000D01*
X124815496Y-70898796D01*
X124791227Y-70895196D01*
X124767429Y-70889235D01*
X124744329Y-70880970D01*
X124722151Y-70870480D01*
X124701107Y-70857867D01*
X124681402Y-70843253D01*
X124663223Y-70826777D01*
X124646747Y-70808598D01*
X124632133Y-70788893D01*
X124619520Y-70767849D01*
X124609030Y-70745671D01*
X124600765Y-70722571D01*
X124594804Y-70698773D01*
X124591204Y-70674504D01*
X124590000Y-70650000D01*
X124590000Y-69550000D01*
X124591204Y-69525496D01*
X124594804Y-69501227D01*
X124600765Y-69477429D01*
X124609030Y-69454329D01*
X124619520Y-69432151D01*
X124632133Y-69411107D01*
X124646747Y-69391402D01*
X124663223Y-69373223D01*
X124681402Y-69356747D01*
X124701107Y-69342133D01*
X124722151Y-69329520D01*
X124744329Y-69319030D01*
X124767429Y-69310765D01*
X124791227Y-69304804D01*
X124815496Y-69301204D01*
X124840000Y-69300000D01*
X125340000Y-69300000D01*
X125364504Y-69301204D01*
X125364504Y-69301204D01*
G37*
D15*
X125090000Y-70100000D03*
D16*
X114600000Y-88300000D03*
D17*
X113779385Y-89120615D02*
X113779385Y-91462720D01*
X114600000Y-88300000D02*
X113779385Y-89120615D01*
M02*
