G04 #@! TF.GenerationSoftware,KiCad,Pcbnew,5.1.2*
G04 #@! TF.CreationDate,2019-08-16T23:11:14-07:00*
G04 #@! TF.ProjectId,lofi,6c6f6669-2e6b-4696-9361-645f70636258,rev?*
G04 #@! TF.SameCoordinates,Original*
G04 #@! TF.FileFunction,Soldermask,Top*
G04 #@! TF.FilePolarity,Negative*
%FSLAX46Y46*%
G04 Gerber Fmt 4.6, Leading zero omitted, Abs format (unit mm)*
G04 Created by KiCad (PCBNEW 5.1.2) date 2019-08-16 23:11:14*
%MOMM*%
%LPD*%
G04 APERTURE LIST*
%ADD10C,0.100000*%
G04 APERTURE END LIST*
D10*
G36*
X118464350Y-89827554D02*
G01*
X118493147Y-89836290D01*
X118519679Y-89850471D01*
X118542939Y-89869561D01*
X118562029Y-89892821D01*
X118576210Y-89919353D01*
X118584946Y-89948150D01*
X118588500Y-89984233D01*
X118588500Y-94215767D01*
X118584946Y-94251850D01*
X118576210Y-94280647D01*
X118562029Y-94307179D01*
X118542939Y-94330439D01*
X118519679Y-94349529D01*
X118493147Y-94363710D01*
X118464350Y-94372446D01*
X118428267Y-94376000D01*
X115621733Y-94376000D01*
X115585650Y-94372446D01*
X115556853Y-94363710D01*
X115530321Y-94349529D01*
X115507061Y-94330439D01*
X115487971Y-94307179D01*
X115473790Y-94280647D01*
X115465054Y-94251850D01*
X115461500Y-94215767D01*
X115461500Y-89984233D01*
X115465054Y-89948150D01*
X115473790Y-89919353D01*
X115487971Y-89892821D01*
X115507061Y-89869561D01*
X115530321Y-89850471D01*
X115556853Y-89836290D01*
X115585650Y-89827554D01*
X115621733Y-89824000D01*
X118428267Y-89824000D01*
X118464350Y-89827554D01*
X118464350Y-89827554D01*
G37*
G36*
X113439350Y-89827554D02*
G01*
X113468147Y-89836290D01*
X113494679Y-89850471D01*
X113517939Y-89869561D01*
X113537029Y-89892821D01*
X113551210Y-89919353D01*
X113559946Y-89948150D01*
X113563500Y-89984233D01*
X113563500Y-94215767D01*
X113559946Y-94251850D01*
X113551210Y-94280647D01*
X113537029Y-94307179D01*
X113517939Y-94330439D01*
X113494679Y-94349529D01*
X113468147Y-94363710D01*
X113439350Y-94372446D01*
X113403267Y-94376000D01*
X110596733Y-94376000D01*
X110560650Y-94372446D01*
X110531853Y-94363710D01*
X110505321Y-94349529D01*
X110482061Y-94330439D01*
X110462971Y-94307179D01*
X110448790Y-94280647D01*
X110440054Y-94251850D01*
X110436500Y-94215767D01*
X110436500Y-89984233D01*
X110440054Y-89948150D01*
X110448790Y-89919353D01*
X110462971Y-89892821D01*
X110482061Y-89869561D01*
X110505321Y-89850471D01*
X110531853Y-89836290D01*
X110560650Y-89827554D01*
X110596733Y-89824000D01*
X113403267Y-89824000D01*
X113439350Y-89827554D01*
X113439350Y-89827554D01*
G37*
G36*
X132051000Y-94351000D02*
G01*
X129949000Y-94351000D01*
X129949000Y-92649000D01*
X132051000Y-92649000D01*
X132051000Y-94351000D01*
X132051000Y-94351000D01*
G37*
G36*
X121013674Y-92453465D02*
G01*
X121051367Y-92464899D01*
X121086103Y-92483466D01*
X121116548Y-92508452D01*
X121141534Y-92538897D01*
X121160101Y-92573633D01*
X121171535Y-92611326D01*
X121176000Y-92656661D01*
X121176000Y-93743339D01*
X121171535Y-93788674D01*
X121160101Y-93826367D01*
X121141534Y-93861103D01*
X121116548Y-93891548D01*
X121086103Y-93916534D01*
X121051367Y-93935101D01*
X121013674Y-93946535D01*
X120968339Y-93951000D01*
X120131661Y-93951000D01*
X120086326Y-93946535D01*
X120048633Y-93935101D01*
X120013897Y-93916534D01*
X119983452Y-93891548D01*
X119958466Y-93861103D01*
X119939899Y-93826367D01*
X119928465Y-93788674D01*
X119924000Y-93743339D01*
X119924000Y-92656661D01*
X119928465Y-92611326D01*
X119939899Y-92573633D01*
X119958466Y-92538897D01*
X119983452Y-92508452D01*
X120013897Y-92483466D01*
X120048633Y-92464899D01*
X120086326Y-92453465D01*
X120131661Y-92449000D01*
X120968339Y-92449000D01*
X121013674Y-92453465D01*
X121013674Y-92453465D01*
G37*
G36*
X123063674Y-92453465D02*
G01*
X123101367Y-92464899D01*
X123136103Y-92483466D01*
X123166548Y-92508452D01*
X123191534Y-92538897D01*
X123210101Y-92573633D01*
X123221535Y-92611326D01*
X123226000Y-92656661D01*
X123226000Y-93743339D01*
X123221535Y-93788674D01*
X123210101Y-93826367D01*
X123191534Y-93861103D01*
X123166548Y-93891548D01*
X123136103Y-93916534D01*
X123101367Y-93935101D01*
X123063674Y-93946535D01*
X123018339Y-93951000D01*
X122181661Y-93951000D01*
X122136326Y-93946535D01*
X122098633Y-93935101D01*
X122063897Y-93916534D01*
X122033452Y-93891548D01*
X122008466Y-93861103D01*
X121989899Y-93826367D01*
X121978465Y-93788674D01*
X121974000Y-93743339D01*
X121974000Y-92656661D01*
X121978465Y-92611326D01*
X121989899Y-92573633D01*
X122008466Y-92538897D01*
X122033452Y-92508452D01*
X122063897Y-92483466D01*
X122098633Y-92464899D01*
X122136326Y-92453465D01*
X122181661Y-92449000D01*
X123018339Y-92449000D01*
X123063674Y-92453465D01*
X123063674Y-92453465D01*
G37*
G36*
X130579591Y-88715585D02*
G01*
X130613569Y-88725893D01*
X130644890Y-88742634D01*
X130672339Y-88765161D01*
X130694866Y-88792610D01*
X130711607Y-88823931D01*
X130721915Y-88857909D01*
X130726000Y-88899390D01*
X130726000Y-89500610D01*
X130721915Y-89542091D01*
X130711607Y-89576069D01*
X130694866Y-89607390D01*
X130672339Y-89634839D01*
X130644890Y-89657366D01*
X130613569Y-89674107D01*
X130579591Y-89684415D01*
X130538110Y-89688500D01*
X129861890Y-89688500D01*
X129820409Y-89684415D01*
X129786431Y-89674107D01*
X129755110Y-89657366D01*
X129727661Y-89634839D01*
X129705134Y-89607390D01*
X129688393Y-89576069D01*
X129678085Y-89542091D01*
X129674000Y-89500610D01*
X129674000Y-88899390D01*
X129678085Y-88857909D01*
X129688393Y-88823931D01*
X129705134Y-88792610D01*
X129727661Y-88765161D01*
X129755110Y-88742634D01*
X129786431Y-88725893D01*
X129820409Y-88715585D01*
X129861890Y-88711500D01*
X130538110Y-88711500D01*
X130579591Y-88715585D01*
X130579591Y-88715585D01*
G37*
G36*
X130579591Y-87140585D02*
G01*
X130613569Y-87150893D01*
X130644890Y-87167634D01*
X130672339Y-87190161D01*
X130694866Y-87217610D01*
X130711607Y-87248931D01*
X130721915Y-87282909D01*
X130726000Y-87324390D01*
X130726000Y-87925610D01*
X130721915Y-87967091D01*
X130711607Y-88001069D01*
X130694866Y-88032390D01*
X130672339Y-88059839D01*
X130644890Y-88082366D01*
X130613569Y-88099107D01*
X130579591Y-88109415D01*
X130538110Y-88113500D01*
X129861890Y-88113500D01*
X129820409Y-88109415D01*
X129786431Y-88099107D01*
X129755110Y-88082366D01*
X129727661Y-88059839D01*
X129705134Y-88032390D01*
X129688393Y-88001069D01*
X129678085Y-87967091D01*
X129674000Y-87925610D01*
X129674000Y-87324390D01*
X129678085Y-87282909D01*
X129688393Y-87248931D01*
X129705134Y-87217610D01*
X129727661Y-87190161D01*
X129755110Y-87167634D01*
X129786431Y-87150893D01*
X129820409Y-87140585D01*
X129861890Y-87136500D01*
X130538110Y-87136500D01*
X130579591Y-87140585D01*
X130579591Y-87140585D01*
G37*
G36*
X117342091Y-86778085D02*
G01*
X117376069Y-86788393D01*
X117407390Y-86805134D01*
X117434839Y-86827661D01*
X117457366Y-86855110D01*
X117474107Y-86886431D01*
X117484415Y-86920409D01*
X117488500Y-86961890D01*
X117488500Y-87638110D01*
X117484415Y-87679591D01*
X117474107Y-87713569D01*
X117457366Y-87744890D01*
X117434839Y-87772339D01*
X117407390Y-87794866D01*
X117376069Y-87811607D01*
X117342091Y-87821915D01*
X117300610Y-87826000D01*
X116699390Y-87826000D01*
X116657909Y-87821915D01*
X116623931Y-87811607D01*
X116592610Y-87794866D01*
X116565161Y-87772339D01*
X116542634Y-87744890D01*
X116525893Y-87713569D01*
X116515585Y-87679591D01*
X116511500Y-87638110D01*
X116511500Y-86961890D01*
X116515585Y-86920409D01*
X116525893Y-86886431D01*
X116542634Y-86855110D01*
X116565161Y-86827661D01*
X116592610Y-86805134D01*
X116623931Y-86788393D01*
X116657909Y-86778085D01*
X116699390Y-86774000D01*
X117300610Y-86774000D01*
X117342091Y-86778085D01*
X117342091Y-86778085D01*
G37*
G36*
X115767091Y-86778085D02*
G01*
X115801069Y-86788393D01*
X115832390Y-86805134D01*
X115859839Y-86827661D01*
X115882366Y-86855110D01*
X115899107Y-86886431D01*
X115909415Y-86920409D01*
X115913500Y-86961890D01*
X115913500Y-87638110D01*
X115909415Y-87679591D01*
X115899107Y-87713569D01*
X115882366Y-87744890D01*
X115859839Y-87772339D01*
X115832390Y-87794866D01*
X115801069Y-87811607D01*
X115767091Y-87821915D01*
X115725610Y-87826000D01*
X115124390Y-87826000D01*
X115082909Y-87821915D01*
X115048931Y-87811607D01*
X115017610Y-87794866D01*
X114990161Y-87772339D01*
X114967634Y-87744890D01*
X114950893Y-87713569D01*
X114940585Y-87679591D01*
X114936500Y-87638110D01*
X114936500Y-86961890D01*
X114940585Y-86920409D01*
X114950893Y-86886431D01*
X114967634Y-86855110D01*
X114990161Y-86827661D01*
X115017610Y-86805134D01*
X115048931Y-86788393D01*
X115082909Y-86778085D01*
X115124390Y-86774000D01*
X115725610Y-86774000D01*
X115767091Y-86778085D01*
X115767091Y-86778085D01*
G37*
G36*
X113726000Y-87681000D02*
G01*
X111074000Y-87681000D01*
X111074000Y-86019000D01*
X113726000Y-86019000D01*
X113726000Y-87681000D01*
X113726000Y-87681000D01*
G37*
G36*
X117342091Y-85178085D02*
G01*
X117376069Y-85188393D01*
X117407390Y-85205134D01*
X117434839Y-85227661D01*
X117457366Y-85255110D01*
X117474107Y-85286431D01*
X117484415Y-85320409D01*
X117488500Y-85361890D01*
X117488500Y-86038110D01*
X117484415Y-86079591D01*
X117474107Y-86113569D01*
X117457366Y-86144890D01*
X117434839Y-86172339D01*
X117407390Y-86194866D01*
X117376069Y-86211607D01*
X117342091Y-86221915D01*
X117300610Y-86226000D01*
X116699390Y-86226000D01*
X116657909Y-86221915D01*
X116623931Y-86211607D01*
X116592610Y-86194866D01*
X116565161Y-86172339D01*
X116542634Y-86144890D01*
X116525893Y-86113569D01*
X116515585Y-86079591D01*
X116511500Y-86038110D01*
X116511500Y-85361890D01*
X116515585Y-85320409D01*
X116525893Y-85286431D01*
X116542634Y-85255110D01*
X116565161Y-85227661D01*
X116592610Y-85205134D01*
X116623931Y-85188393D01*
X116657909Y-85178085D01*
X116699390Y-85174000D01*
X117300610Y-85174000D01*
X117342091Y-85178085D01*
X117342091Y-85178085D01*
G37*
G36*
X115767091Y-85178085D02*
G01*
X115801069Y-85188393D01*
X115832390Y-85205134D01*
X115859839Y-85227661D01*
X115882366Y-85255110D01*
X115899107Y-85286431D01*
X115909415Y-85320409D01*
X115913500Y-85361890D01*
X115913500Y-86038110D01*
X115909415Y-86079591D01*
X115899107Y-86113569D01*
X115882366Y-86144890D01*
X115859839Y-86172339D01*
X115832390Y-86194866D01*
X115801069Y-86211607D01*
X115767091Y-86221915D01*
X115725610Y-86226000D01*
X115124390Y-86226000D01*
X115082909Y-86221915D01*
X115048931Y-86211607D01*
X115017610Y-86194866D01*
X114990161Y-86172339D01*
X114967634Y-86144890D01*
X114950893Y-86113569D01*
X114940585Y-86079591D01*
X114936500Y-86038110D01*
X114936500Y-85361890D01*
X114940585Y-85320409D01*
X114950893Y-85286431D01*
X114967634Y-85255110D01*
X114990161Y-85227661D01*
X115017610Y-85205134D01*
X115048931Y-85188393D01*
X115082909Y-85178085D01*
X115124390Y-85174000D01*
X115725610Y-85174000D01*
X115767091Y-85178085D01*
X115767091Y-85178085D01*
G37*
G36*
X130579591Y-85203085D02*
G01*
X130613569Y-85213393D01*
X130644890Y-85230134D01*
X130672339Y-85252661D01*
X130694866Y-85280110D01*
X130711607Y-85311431D01*
X130721915Y-85345409D01*
X130726000Y-85386890D01*
X130726000Y-85988110D01*
X130721915Y-86029591D01*
X130711607Y-86063569D01*
X130694866Y-86094890D01*
X130672339Y-86122339D01*
X130644890Y-86144866D01*
X130613569Y-86161607D01*
X130579591Y-86171915D01*
X130538110Y-86176000D01*
X129861890Y-86176000D01*
X129820409Y-86171915D01*
X129786431Y-86161607D01*
X129755110Y-86144866D01*
X129727661Y-86122339D01*
X129705134Y-86094890D01*
X129688393Y-86063569D01*
X129678085Y-86029591D01*
X129674000Y-85988110D01*
X129674000Y-85386890D01*
X129678085Y-85345409D01*
X129688393Y-85311431D01*
X129705134Y-85280110D01*
X129727661Y-85252661D01*
X129755110Y-85230134D01*
X129786431Y-85213393D01*
X129820409Y-85203085D01*
X129861890Y-85199000D01*
X130538110Y-85199000D01*
X130579591Y-85203085D01*
X130579591Y-85203085D01*
G37*
G36*
X113726000Y-84981000D02*
G01*
X111074000Y-84981000D01*
X111074000Y-83319000D01*
X113726000Y-83319000D01*
X113726000Y-84981000D01*
X113726000Y-84981000D01*
G37*
G36*
X117342091Y-83578085D02*
G01*
X117376069Y-83588393D01*
X117407390Y-83605134D01*
X117434839Y-83627661D01*
X117457366Y-83655110D01*
X117474107Y-83686431D01*
X117484415Y-83720409D01*
X117488500Y-83761890D01*
X117488500Y-84438110D01*
X117484415Y-84479591D01*
X117474107Y-84513569D01*
X117457366Y-84544890D01*
X117434839Y-84572339D01*
X117407390Y-84594866D01*
X117376069Y-84611607D01*
X117342091Y-84621915D01*
X117300610Y-84626000D01*
X116699390Y-84626000D01*
X116657909Y-84621915D01*
X116623931Y-84611607D01*
X116592610Y-84594866D01*
X116565161Y-84572339D01*
X116542634Y-84544890D01*
X116525893Y-84513569D01*
X116515585Y-84479591D01*
X116511500Y-84438110D01*
X116511500Y-83761890D01*
X116515585Y-83720409D01*
X116525893Y-83686431D01*
X116542634Y-83655110D01*
X116565161Y-83627661D01*
X116592610Y-83605134D01*
X116623931Y-83588393D01*
X116657909Y-83578085D01*
X116699390Y-83574000D01*
X117300610Y-83574000D01*
X117342091Y-83578085D01*
X117342091Y-83578085D01*
G37*
G36*
X115767091Y-83578085D02*
G01*
X115801069Y-83588393D01*
X115832390Y-83605134D01*
X115859839Y-83627661D01*
X115882366Y-83655110D01*
X115899107Y-83686431D01*
X115909415Y-83720409D01*
X115913500Y-83761890D01*
X115913500Y-84438110D01*
X115909415Y-84479591D01*
X115899107Y-84513569D01*
X115882366Y-84544890D01*
X115859839Y-84572339D01*
X115832390Y-84594866D01*
X115801069Y-84611607D01*
X115767091Y-84621915D01*
X115725610Y-84626000D01*
X115124390Y-84626000D01*
X115082909Y-84621915D01*
X115048931Y-84611607D01*
X115017610Y-84594866D01*
X114990161Y-84572339D01*
X114967634Y-84544890D01*
X114950893Y-84513569D01*
X114940585Y-84479591D01*
X114936500Y-84438110D01*
X114936500Y-83761890D01*
X114940585Y-83720409D01*
X114950893Y-83686431D01*
X114967634Y-83655110D01*
X114990161Y-83627661D01*
X115017610Y-83605134D01*
X115048931Y-83588393D01*
X115082909Y-83578085D01*
X115124390Y-83574000D01*
X115725610Y-83574000D01*
X115767091Y-83578085D01*
X115767091Y-83578085D01*
G37*
G36*
X130579591Y-83628085D02*
G01*
X130613569Y-83638393D01*
X130644890Y-83655134D01*
X130672339Y-83677661D01*
X130694866Y-83705110D01*
X130711607Y-83736431D01*
X130721915Y-83770409D01*
X130726000Y-83811890D01*
X130726000Y-84413110D01*
X130721915Y-84454591D01*
X130711607Y-84488569D01*
X130694866Y-84519890D01*
X130672339Y-84547339D01*
X130644890Y-84569866D01*
X130613569Y-84586607D01*
X130579591Y-84596915D01*
X130538110Y-84601000D01*
X129861890Y-84601000D01*
X129820409Y-84596915D01*
X129786431Y-84586607D01*
X129755110Y-84569866D01*
X129727661Y-84547339D01*
X129705134Y-84519890D01*
X129688393Y-84488569D01*
X129678085Y-84454591D01*
X129674000Y-84413110D01*
X129674000Y-83811890D01*
X129678085Y-83770409D01*
X129688393Y-83736431D01*
X129705134Y-83705110D01*
X129727661Y-83677661D01*
X129755110Y-83655134D01*
X129786431Y-83638393D01*
X129820409Y-83628085D01*
X129861890Y-83624000D01*
X130538110Y-83624000D01*
X130579591Y-83628085D01*
X130579591Y-83628085D01*
G37*
G36*
X130579591Y-81703085D02*
G01*
X130613569Y-81713393D01*
X130644890Y-81730134D01*
X130672339Y-81752661D01*
X130694866Y-81780110D01*
X130711607Y-81811431D01*
X130721915Y-81845409D01*
X130726000Y-81886890D01*
X130726000Y-82488110D01*
X130721915Y-82529591D01*
X130711607Y-82563569D01*
X130694866Y-82594890D01*
X130672339Y-82622339D01*
X130644890Y-82644866D01*
X130613569Y-82661607D01*
X130579591Y-82671915D01*
X130538110Y-82676000D01*
X129861890Y-82676000D01*
X129820409Y-82671915D01*
X129786431Y-82661607D01*
X129755110Y-82644866D01*
X129727661Y-82622339D01*
X129705134Y-82594890D01*
X129688393Y-82563569D01*
X129678085Y-82529591D01*
X129674000Y-82488110D01*
X129674000Y-81886890D01*
X129678085Y-81845409D01*
X129688393Y-81811431D01*
X129705134Y-81780110D01*
X129727661Y-81752661D01*
X129755110Y-81730134D01*
X129786431Y-81713393D01*
X129820409Y-81703085D01*
X129861890Y-81699000D01*
X130538110Y-81699000D01*
X130579591Y-81703085D01*
X130579591Y-81703085D01*
G37*
G36*
X112831000Y-81976000D02*
G01*
X111169000Y-81976000D01*
X111169000Y-79324000D01*
X112831000Y-79324000D01*
X112831000Y-81976000D01*
X112831000Y-81976000D01*
G37*
G36*
X115531000Y-81976000D02*
G01*
X113869000Y-81976000D01*
X113869000Y-81224000D01*
X115531000Y-81224000D01*
X115531000Y-81976000D01*
X115531000Y-81976000D01*
G37*
G36*
X130579591Y-80128085D02*
G01*
X130613569Y-80138393D01*
X130644890Y-80155134D01*
X130672339Y-80177661D01*
X130694866Y-80205110D01*
X130711607Y-80236431D01*
X130721915Y-80270409D01*
X130726000Y-80311890D01*
X130726000Y-80913110D01*
X130721915Y-80954591D01*
X130711607Y-80988569D01*
X130694866Y-81019890D01*
X130672339Y-81047339D01*
X130644890Y-81069866D01*
X130613569Y-81086607D01*
X130579591Y-81096915D01*
X130538110Y-81101000D01*
X129861890Y-81101000D01*
X129820409Y-81096915D01*
X129786431Y-81086607D01*
X129755110Y-81069866D01*
X129727661Y-81047339D01*
X129705134Y-81019890D01*
X129688393Y-80988569D01*
X129678085Y-80954591D01*
X129674000Y-80913110D01*
X129674000Y-80311890D01*
X129678085Y-80270409D01*
X129688393Y-80236431D01*
X129705134Y-80205110D01*
X129727661Y-80177661D01*
X129755110Y-80155134D01*
X129786431Y-80138393D01*
X129820409Y-80128085D01*
X129861890Y-80124000D01*
X130538110Y-80124000D01*
X130579591Y-80128085D01*
X130579591Y-80128085D01*
G37*
G36*
X124561000Y-80751000D02*
G01*
X123859000Y-80751000D01*
X123859000Y-78849000D01*
X124561000Y-78849000D01*
X124561000Y-80751000D01*
X124561000Y-80751000D01*
G37*
G36*
X123291000Y-80751000D02*
G01*
X122589000Y-80751000D01*
X122589000Y-78849000D01*
X123291000Y-78849000D01*
X123291000Y-80751000D01*
X123291000Y-80751000D01*
G37*
G36*
X122021000Y-80751000D02*
G01*
X121319000Y-80751000D01*
X121319000Y-78849000D01*
X122021000Y-78849000D01*
X122021000Y-80751000D01*
X122021000Y-80751000D01*
G37*
G36*
X119481000Y-80751000D02*
G01*
X118779000Y-80751000D01*
X118779000Y-78849000D01*
X119481000Y-78849000D01*
X119481000Y-80751000D01*
X119481000Y-80751000D01*
G37*
G36*
X118211000Y-80751000D02*
G01*
X117509000Y-80751000D01*
X117509000Y-78849000D01*
X118211000Y-78849000D01*
X118211000Y-80751000D01*
X118211000Y-80751000D01*
G37*
G36*
X116941000Y-80751000D02*
G01*
X116239000Y-80751000D01*
X116239000Y-78849000D01*
X116941000Y-78849000D01*
X116941000Y-80751000D01*
X116941000Y-80751000D01*
G37*
G36*
X120751000Y-80751000D02*
G01*
X120049000Y-80751000D01*
X120049000Y-78849000D01*
X120751000Y-78849000D01*
X120751000Y-80751000D01*
X120751000Y-80751000D01*
G37*
G36*
X115531000Y-80076000D02*
G01*
X113869000Y-80076000D01*
X113869000Y-79324000D01*
X115531000Y-79324000D01*
X115531000Y-80076000D01*
X115531000Y-80076000D01*
G37*
G36*
X130579591Y-78103085D02*
G01*
X130613569Y-78113393D01*
X130644890Y-78130134D01*
X130672339Y-78152661D01*
X130694866Y-78180110D01*
X130711607Y-78211431D01*
X130721915Y-78245409D01*
X130726000Y-78286890D01*
X130726000Y-78888110D01*
X130721915Y-78929591D01*
X130711607Y-78963569D01*
X130694866Y-78994890D01*
X130672339Y-79022339D01*
X130644890Y-79044866D01*
X130613569Y-79061607D01*
X130579591Y-79071915D01*
X130538110Y-79076000D01*
X129861890Y-79076000D01*
X129820409Y-79071915D01*
X129786431Y-79061607D01*
X129755110Y-79044866D01*
X129727661Y-79022339D01*
X129705134Y-78994890D01*
X129688393Y-78963569D01*
X129678085Y-78929591D01*
X129674000Y-78888110D01*
X129674000Y-78286890D01*
X129678085Y-78245409D01*
X129688393Y-78211431D01*
X129705134Y-78180110D01*
X129727661Y-78152661D01*
X129755110Y-78130134D01*
X129786431Y-78113393D01*
X129820409Y-78103085D01*
X129861890Y-78099000D01*
X130538110Y-78099000D01*
X130579591Y-78103085D01*
X130579591Y-78103085D01*
G37*
G36*
X115179591Y-77103085D02*
G01*
X115213569Y-77113393D01*
X115244890Y-77130134D01*
X115272339Y-77152661D01*
X115294866Y-77180110D01*
X115311607Y-77211431D01*
X115321915Y-77245409D01*
X115326000Y-77286890D01*
X115326000Y-77888110D01*
X115321915Y-77929591D01*
X115311607Y-77963569D01*
X115294866Y-77994890D01*
X115272339Y-78022339D01*
X115244890Y-78044866D01*
X115213569Y-78061607D01*
X115179591Y-78071915D01*
X115138110Y-78076000D01*
X114461890Y-78076000D01*
X114420409Y-78071915D01*
X114386431Y-78061607D01*
X114355110Y-78044866D01*
X114327661Y-78022339D01*
X114305134Y-77994890D01*
X114288393Y-77963569D01*
X114278085Y-77929591D01*
X114274000Y-77888110D01*
X114274000Y-77286890D01*
X114278085Y-77245409D01*
X114288393Y-77211431D01*
X114305134Y-77180110D01*
X114327661Y-77152661D01*
X114355110Y-77130134D01*
X114386431Y-77113393D01*
X114420409Y-77103085D01*
X114461890Y-77099000D01*
X115138110Y-77099000D01*
X115179591Y-77103085D01*
X115179591Y-77103085D01*
G37*
G36*
X112179591Y-76790585D02*
G01*
X112213569Y-76800893D01*
X112244890Y-76817634D01*
X112272339Y-76840161D01*
X112294866Y-76867610D01*
X112311607Y-76898931D01*
X112321915Y-76932909D01*
X112326000Y-76974390D01*
X112326000Y-77575610D01*
X112321915Y-77617091D01*
X112311607Y-77651069D01*
X112294866Y-77682390D01*
X112272339Y-77709839D01*
X112244890Y-77732366D01*
X112213569Y-77749107D01*
X112179591Y-77759415D01*
X112138110Y-77763500D01*
X111461890Y-77763500D01*
X111420409Y-77759415D01*
X111386431Y-77749107D01*
X111355110Y-77732366D01*
X111327661Y-77709839D01*
X111305134Y-77682390D01*
X111288393Y-77651069D01*
X111278085Y-77617091D01*
X111274000Y-77575610D01*
X111274000Y-76974390D01*
X111278085Y-76932909D01*
X111288393Y-76898931D01*
X111305134Y-76867610D01*
X111327661Y-76840161D01*
X111355110Y-76817634D01*
X111386431Y-76800893D01*
X111420409Y-76790585D01*
X111461890Y-76786500D01*
X112138110Y-76786500D01*
X112179591Y-76790585D01*
X112179591Y-76790585D01*
G37*
G36*
X130579591Y-76528085D02*
G01*
X130613569Y-76538393D01*
X130644890Y-76555134D01*
X130672339Y-76577661D01*
X130694866Y-76605110D01*
X130711607Y-76636431D01*
X130721915Y-76670409D01*
X130726000Y-76711890D01*
X130726000Y-77313110D01*
X130721915Y-77354591D01*
X130711607Y-77388569D01*
X130694866Y-77419890D01*
X130672339Y-77447339D01*
X130644890Y-77469866D01*
X130613569Y-77486607D01*
X130579591Y-77496915D01*
X130538110Y-77501000D01*
X129861890Y-77501000D01*
X129820409Y-77496915D01*
X129786431Y-77486607D01*
X129755110Y-77469866D01*
X129727661Y-77447339D01*
X129705134Y-77419890D01*
X129688393Y-77388569D01*
X129678085Y-77354591D01*
X129674000Y-77313110D01*
X129674000Y-76711890D01*
X129678085Y-76670409D01*
X129688393Y-76636431D01*
X129705134Y-76605110D01*
X129727661Y-76577661D01*
X129755110Y-76555134D01*
X129786431Y-76538393D01*
X129820409Y-76528085D01*
X129861890Y-76524000D01*
X130538110Y-76524000D01*
X130579591Y-76528085D01*
X130579591Y-76528085D01*
G37*
G36*
X115179591Y-75528085D02*
G01*
X115213569Y-75538393D01*
X115244890Y-75555134D01*
X115272339Y-75577661D01*
X115294866Y-75605110D01*
X115311607Y-75636431D01*
X115321915Y-75670409D01*
X115326000Y-75711890D01*
X115326000Y-76313110D01*
X115321915Y-76354591D01*
X115311607Y-76388569D01*
X115294866Y-76419890D01*
X115272339Y-76447339D01*
X115244890Y-76469866D01*
X115213569Y-76486607D01*
X115179591Y-76496915D01*
X115138110Y-76501000D01*
X114461890Y-76501000D01*
X114420409Y-76496915D01*
X114386431Y-76486607D01*
X114355110Y-76469866D01*
X114327661Y-76447339D01*
X114305134Y-76419890D01*
X114288393Y-76388569D01*
X114278085Y-76354591D01*
X114274000Y-76313110D01*
X114274000Y-75711890D01*
X114278085Y-75670409D01*
X114288393Y-75636431D01*
X114305134Y-75605110D01*
X114327661Y-75577661D01*
X114355110Y-75555134D01*
X114386431Y-75538393D01*
X114420409Y-75528085D01*
X114461890Y-75524000D01*
X115138110Y-75524000D01*
X115179591Y-75528085D01*
X115179591Y-75528085D01*
G37*
G36*
X112179591Y-75215585D02*
G01*
X112213569Y-75225893D01*
X112244890Y-75242634D01*
X112272339Y-75265161D01*
X112294866Y-75292610D01*
X112311607Y-75323931D01*
X112321915Y-75357909D01*
X112326000Y-75399390D01*
X112326000Y-76000610D01*
X112321915Y-76042091D01*
X112311607Y-76076069D01*
X112294866Y-76107390D01*
X112272339Y-76134839D01*
X112244890Y-76157366D01*
X112213569Y-76174107D01*
X112179591Y-76184415D01*
X112138110Y-76188500D01*
X111461890Y-76188500D01*
X111420409Y-76184415D01*
X111386431Y-76174107D01*
X111355110Y-76157366D01*
X111327661Y-76134839D01*
X111305134Y-76107390D01*
X111288393Y-76076069D01*
X111278085Y-76042091D01*
X111274000Y-76000610D01*
X111274000Y-75399390D01*
X111278085Y-75357909D01*
X111288393Y-75323931D01*
X111305134Y-75292610D01*
X111327661Y-75265161D01*
X111355110Y-75242634D01*
X111386431Y-75225893D01*
X111420409Y-75215585D01*
X111461890Y-75211500D01*
X112138110Y-75211500D01*
X112179591Y-75215585D01*
X112179591Y-75215585D01*
G37*
G36*
X122021000Y-75151000D02*
G01*
X121319000Y-75151000D01*
X121319000Y-73249000D01*
X122021000Y-73249000D01*
X122021000Y-75151000D01*
X122021000Y-75151000D01*
G37*
G36*
X116941000Y-75151000D02*
G01*
X116239000Y-75151000D01*
X116239000Y-73249000D01*
X116941000Y-73249000D01*
X116941000Y-75151000D01*
X116941000Y-75151000D01*
G37*
G36*
X118211000Y-75151000D02*
G01*
X117509000Y-75151000D01*
X117509000Y-73249000D01*
X118211000Y-73249000D01*
X118211000Y-75151000D01*
X118211000Y-75151000D01*
G37*
G36*
X124561000Y-75151000D02*
G01*
X123859000Y-75151000D01*
X123859000Y-73249000D01*
X124561000Y-73249000D01*
X124561000Y-75151000D01*
X124561000Y-75151000D01*
G37*
G36*
X123291000Y-75151000D02*
G01*
X122589000Y-75151000D01*
X122589000Y-73249000D01*
X123291000Y-73249000D01*
X123291000Y-75151000D01*
X123291000Y-75151000D01*
G37*
G36*
X119481000Y-75151000D02*
G01*
X118779000Y-75151000D01*
X118779000Y-73249000D01*
X119481000Y-73249000D01*
X119481000Y-75151000D01*
X119481000Y-75151000D01*
G37*
G36*
X120751000Y-75151000D02*
G01*
X120049000Y-75151000D01*
X120049000Y-73249000D01*
X120751000Y-73249000D01*
X120751000Y-75151000D01*
X120751000Y-75151000D01*
G37*
G36*
X132051000Y-73351000D02*
G01*
X129949000Y-73351000D01*
X129949000Y-71649000D01*
X132051000Y-71649000D01*
X132051000Y-73351000D01*
X132051000Y-73351000D01*
G37*
G36*
X111519683Y-72122725D02*
G01*
X111550143Y-72131966D01*
X111578223Y-72146974D01*
X111602831Y-72167169D01*
X111623026Y-72191777D01*
X111638034Y-72219857D01*
X111647275Y-72250317D01*
X111651000Y-72288140D01*
X111651000Y-72851860D01*
X111647275Y-72889683D01*
X111638034Y-72920143D01*
X111623026Y-72948223D01*
X111602831Y-72972831D01*
X111578223Y-72993026D01*
X111550143Y-73008034D01*
X111519683Y-73017275D01*
X111481860Y-73021000D01*
X110718140Y-73021000D01*
X110680317Y-73017275D01*
X110649857Y-73008034D01*
X110621777Y-72993026D01*
X110597169Y-72972831D01*
X110576974Y-72948223D01*
X110561966Y-72920143D01*
X110552725Y-72889683D01*
X110549000Y-72851860D01*
X110549000Y-72288140D01*
X110552725Y-72250317D01*
X110561966Y-72219857D01*
X110576974Y-72191777D01*
X110597169Y-72167169D01*
X110621777Y-72146974D01*
X110649857Y-72131966D01*
X110680317Y-72122725D01*
X110718140Y-72119000D01*
X111481860Y-72119000D01*
X111519683Y-72122725D01*
X111519683Y-72122725D01*
G37*
G36*
X113651000Y-73021000D02*
G01*
X112549000Y-73021000D01*
X112549000Y-72119000D01*
X113651000Y-72119000D01*
X113651000Y-73021000D01*
X113651000Y-73021000D01*
G37*
G36*
X111519683Y-70852725D02*
G01*
X111550143Y-70861966D01*
X111578223Y-70876974D01*
X111602831Y-70897169D01*
X111623026Y-70921777D01*
X111638034Y-70949857D01*
X111647275Y-70980317D01*
X111651000Y-71018140D01*
X111651000Y-71581860D01*
X111647275Y-71619683D01*
X111638034Y-71650143D01*
X111623026Y-71678223D01*
X111602831Y-71702831D01*
X111578223Y-71723026D01*
X111550143Y-71738034D01*
X111519683Y-71747275D01*
X111481860Y-71751000D01*
X110718140Y-71751000D01*
X110680317Y-71747275D01*
X110649857Y-71738034D01*
X110621777Y-71723026D01*
X110597169Y-71702831D01*
X110576974Y-71678223D01*
X110561966Y-71650143D01*
X110552725Y-71619683D01*
X110549000Y-71581860D01*
X110549000Y-71018140D01*
X110552725Y-70980317D01*
X110561966Y-70949857D01*
X110576974Y-70921777D01*
X110597169Y-70897169D01*
X110621777Y-70876974D01*
X110649857Y-70861966D01*
X110680317Y-70852725D01*
X110718140Y-70849000D01*
X111481860Y-70849000D01*
X111519683Y-70852725D01*
X111519683Y-70852725D01*
G37*
G36*
X113519683Y-70852725D02*
G01*
X113550143Y-70861966D01*
X113578223Y-70876974D01*
X113602831Y-70897169D01*
X113623026Y-70921777D01*
X113638034Y-70949857D01*
X113647275Y-70980317D01*
X113651000Y-71018140D01*
X113651000Y-71581860D01*
X113647275Y-71619683D01*
X113638034Y-71650143D01*
X113623026Y-71678223D01*
X113602831Y-71702831D01*
X113578223Y-71723026D01*
X113550143Y-71738034D01*
X113519683Y-71747275D01*
X113481860Y-71751000D01*
X112718140Y-71751000D01*
X112680317Y-71747275D01*
X112649857Y-71738034D01*
X112621777Y-71723026D01*
X112597169Y-71702831D01*
X112576974Y-71678223D01*
X112561966Y-71650143D01*
X112552725Y-71619683D01*
X112549000Y-71581860D01*
X112549000Y-71018140D01*
X112552725Y-70980317D01*
X112561966Y-70949857D01*
X112576974Y-70921777D01*
X112597169Y-70897169D01*
X112621777Y-70876974D01*
X112649857Y-70861966D01*
X112680317Y-70852725D01*
X112718140Y-70849000D01*
X113481860Y-70849000D01*
X113519683Y-70852725D01*
X113519683Y-70852725D01*
G37*
G36*
X132051000Y-71151000D02*
G01*
X129949000Y-71151000D01*
X129949000Y-69449000D01*
X132051000Y-69449000D01*
X132051000Y-71151000D01*
X132051000Y-71151000D01*
G37*
G36*
X125641000Y-70976000D02*
G01*
X115649000Y-70976000D01*
X115649000Y-68649000D01*
X125641000Y-68649000D01*
X125641000Y-70976000D01*
X125641000Y-70976000D01*
G37*
G36*
X113519683Y-69582725D02*
G01*
X113550143Y-69591966D01*
X113578223Y-69606974D01*
X113602831Y-69627169D01*
X113623026Y-69651777D01*
X113638034Y-69679857D01*
X113647275Y-69710317D01*
X113651000Y-69748140D01*
X113651000Y-70311860D01*
X113647275Y-70349683D01*
X113638034Y-70380143D01*
X113623026Y-70408223D01*
X113602831Y-70432831D01*
X113578223Y-70453026D01*
X113550143Y-70468034D01*
X113519683Y-70477275D01*
X113481860Y-70481000D01*
X112718140Y-70481000D01*
X112680317Y-70477275D01*
X112649857Y-70468034D01*
X112621777Y-70453026D01*
X112597169Y-70432831D01*
X112576974Y-70408223D01*
X112561966Y-70380143D01*
X112552725Y-70349683D01*
X112549000Y-70311860D01*
X112549000Y-69748140D01*
X112552725Y-69710317D01*
X112561966Y-69679857D01*
X112576974Y-69651777D01*
X112597169Y-69627169D01*
X112621777Y-69606974D01*
X112649857Y-69591966D01*
X112680317Y-69582725D01*
X112718140Y-69579000D01*
X113481860Y-69579000D01*
X113519683Y-69582725D01*
X113519683Y-69582725D01*
G37*
G36*
X111519683Y-69582725D02*
G01*
X111550143Y-69591966D01*
X111578223Y-69606974D01*
X111602831Y-69627169D01*
X111623026Y-69651777D01*
X111638034Y-69679857D01*
X111647275Y-69710317D01*
X111651000Y-69748140D01*
X111651000Y-70311860D01*
X111647275Y-70349683D01*
X111638034Y-70380143D01*
X111623026Y-70408223D01*
X111602831Y-70432831D01*
X111578223Y-70453026D01*
X111550143Y-70468034D01*
X111519683Y-70477275D01*
X111481860Y-70481000D01*
X110718140Y-70481000D01*
X110680317Y-70477275D01*
X110649857Y-70468034D01*
X110621777Y-70453026D01*
X110597169Y-70432831D01*
X110576974Y-70408223D01*
X110561966Y-70380143D01*
X110552725Y-70349683D01*
X110549000Y-70311860D01*
X110549000Y-69748140D01*
X110552725Y-69710317D01*
X110561966Y-69679857D01*
X110576974Y-69651777D01*
X110597169Y-69627169D01*
X110621777Y-69606974D01*
X110649857Y-69591966D01*
X110680317Y-69582725D01*
X110718140Y-69579000D01*
X111481860Y-69579000D01*
X111519683Y-69582725D01*
X111519683Y-69582725D01*
G37*
M02*
