G04 #@! TF.GenerationSoftware,KiCad,Pcbnew,5.1.2*
G04 #@! TF.CreationDate,2019-08-16T23:11:14-07:00*
G04 #@! TF.ProjectId,lofi,6c6f6669-2e6b-4696-9361-645f70636258,rev?*
G04 #@! TF.SameCoordinates,Original*
G04 #@! TF.FileFunction,Legend,Top*
G04 #@! TF.FilePolarity,Positive*
%FSLAX46Y46*%
G04 Gerber Fmt 4.6, Leading zero omitted, Abs format (unit mm)*
G04 Created by KiCad (PCBNEW 5.1.2) date 2019-08-16 23:11:14*
%MOMM*%
%LPD*%
G04 APERTURE LIST*
%ADD10C,0.150000*%
%ADD11C,0.120000*%
G04 APERTURE END LIST*
D10*
X117057142Y-63377619D02*
X117104761Y-63330000D01*
X117200000Y-63282380D01*
X117438095Y-63282380D01*
X117533333Y-63330000D01*
X117580952Y-63377619D01*
X117628571Y-63472857D01*
X117628571Y-63568095D01*
X117580952Y-63710952D01*
X117009523Y-64282380D01*
X117628571Y-64282380D01*
X118009523Y-63377619D02*
X118057142Y-63330000D01*
X118152380Y-63282380D01*
X118390476Y-63282380D01*
X118485714Y-63330000D01*
X118533333Y-63377619D01*
X118580952Y-63472857D01*
X118580952Y-63568095D01*
X118533333Y-63710952D01*
X117961904Y-64282380D01*
X118580952Y-64282380D01*
X119009523Y-64187142D02*
X119057142Y-64234761D01*
X119009523Y-64282380D01*
X118961904Y-64234761D01*
X119009523Y-64187142D01*
X119009523Y-64282380D01*
X119676190Y-63282380D02*
X119771428Y-63282380D01*
X119866666Y-63330000D01*
X119914285Y-63377619D01*
X119961904Y-63472857D01*
X120009523Y-63663333D01*
X120009523Y-63901428D01*
X119961904Y-64091904D01*
X119914285Y-64187142D01*
X119866666Y-64234761D01*
X119771428Y-64282380D01*
X119676190Y-64282380D01*
X119580952Y-64234761D01*
X119533333Y-64187142D01*
X119485714Y-64091904D01*
X119438095Y-63901428D01*
X119438095Y-63663333D01*
X119485714Y-63472857D01*
X119533333Y-63377619D01*
X119580952Y-63330000D01*
X119676190Y-63282380D01*
X120628571Y-63282380D02*
X120723809Y-63282380D01*
X120819047Y-63330000D01*
X120866666Y-63377619D01*
X120914285Y-63472857D01*
X120961904Y-63663333D01*
X120961904Y-63901428D01*
X120914285Y-64091904D01*
X120866666Y-64187142D01*
X120819047Y-64234761D01*
X120723809Y-64282380D01*
X120628571Y-64282380D01*
X120533333Y-64234761D01*
X120485714Y-64187142D01*
X120438095Y-64091904D01*
X120390476Y-63901428D01*
X120390476Y-63663333D01*
X120438095Y-63472857D01*
X120485714Y-63377619D01*
X120533333Y-63330000D01*
X120628571Y-63282380D01*
X121580952Y-63282380D02*
X121676190Y-63282380D01*
X121771428Y-63330000D01*
X121819047Y-63377619D01*
X121866666Y-63472857D01*
X121914285Y-63663333D01*
X121914285Y-63901428D01*
X121866666Y-64091904D01*
X121819047Y-64187142D01*
X121771428Y-64234761D01*
X121676190Y-64282380D01*
X121580952Y-64282380D01*
X121485714Y-64234761D01*
X121438095Y-64187142D01*
X121390476Y-64091904D01*
X121342857Y-63901428D01*
X121342857Y-63663333D01*
X121390476Y-63472857D01*
X121438095Y-63377619D01*
X121485714Y-63330000D01*
X121580952Y-63282380D01*
X123104761Y-64282380D02*
X123104761Y-63615714D01*
X123104761Y-63710952D02*
X123152380Y-63663333D01*
X123247619Y-63615714D01*
X123390476Y-63615714D01*
X123485714Y-63663333D01*
X123533333Y-63758571D01*
X123533333Y-64282380D01*
X123533333Y-63758571D02*
X123580952Y-63663333D01*
X123676190Y-63615714D01*
X123819047Y-63615714D01*
X123914285Y-63663333D01*
X123961904Y-63758571D01*
X123961904Y-64282380D01*
X124438095Y-64282380D02*
X124438095Y-63615714D01*
X124438095Y-63710952D02*
X124485714Y-63663333D01*
X124580952Y-63615714D01*
X124723809Y-63615714D01*
X124819047Y-63663333D01*
X124866666Y-63758571D01*
X124866666Y-64282380D01*
X124866666Y-63758571D02*
X124914285Y-63663333D01*
X125009523Y-63615714D01*
X125152380Y-63615714D01*
X125247619Y-63663333D01*
X125295238Y-63758571D01*
X125295238Y-64282380D01*
D11*
X110200000Y-65100000D02*
X132200000Y-65100000D01*
X110200000Y-68600000D02*
X110200000Y-64513579D01*
X132200000Y-68600000D02*
X132200000Y-64513579D01*
X132200000Y-65100000D02*
X131073496Y-65686421D01*
X132200000Y-65100000D02*
X131073496Y-64513579D01*
X110200000Y-65100000D02*
X111326504Y-65686421D01*
X110200000Y-65100000D02*
X111326504Y-64513579D01*
D10*
X105782380Y-77757142D02*
X105830000Y-77804761D01*
X105877619Y-77900000D01*
X105877619Y-78138095D01*
X105830000Y-78233333D01*
X105782380Y-78280952D01*
X105687142Y-78328571D01*
X105591904Y-78328571D01*
X105449047Y-78280952D01*
X104877619Y-77709523D01*
X104877619Y-78328571D01*
X105877619Y-79233333D02*
X105877619Y-78757142D01*
X105401428Y-78709523D01*
X105449047Y-78757142D01*
X105496666Y-78852380D01*
X105496666Y-79090476D01*
X105449047Y-79185714D01*
X105401428Y-79233333D01*
X105306190Y-79280952D01*
X105068095Y-79280952D01*
X104972857Y-79233333D01*
X104925238Y-79185714D01*
X104877619Y-79090476D01*
X104877619Y-78852380D01*
X104925238Y-78757142D01*
X104972857Y-78709523D01*
X104972857Y-79709523D02*
X104925238Y-79757142D01*
X104877619Y-79709523D01*
X104925238Y-79661904D01*
X104972857Y-79709523D01*
X104877619Y-79709523D01*
X105544285Y-80614285D02*
X104877619Y-80614285D01*
X105925238Y-80376190D02*
X105210952Y-80138095D01*
X105210952Y-80757142D01*
X105877619Y-81328571D02*
X105877619Y-81423809D01*
X105830000Y-81519047D01*
X105782380Y-81566666D01*
X105687142Y-81614285D01*
X105496666Y-81661904D01*
X105258571Y-81661904D01*
X105068095Y-81614285D01*
X104972857Y-81566666D01*
X104925238Y-81519047D01*
X104877619Y-81423809D01*
X104877619Y-81328571D01*
X104925238Y-81233333D01*
X104972857Y-81185714D01*
X105068095Y-81138095D01*
X105258571Y-81090476D01*
X105496666Y-81090476D01*
X105687142Y-81138095D01*
X105782380Y-81185714D01*
X105830000Y-81233333D01*
X105877619Y-81328571D01*
X105877619Y-82280952D02*
X105877619Y-82376190D01*
X105830000Y-82471428D01*
X105782380Y-82519047D01*
X105687142Y-82566666D01*
X105496666Y-82614285D01*
X105258571Y-82614285D01*
X105068095Y-82566666D01*
X104972857Y-82519047D01*
X104925238Y-82471428D01*
X104877619Y-82376190D01*
X104877619Y-82280952D01*
X104925238Y-82185714D01*
X104972857Y-82138095D01*
X105068095Y-82090476D01*
X105258571Y-82042857D01*
X105496666Y-82042857D01*
X105687142Y-82090476D01*
X105782380Y-82138095D01*
X105830000Y-82185714D01*
X105877619Y-82280952D01*
X104877619Y-83804761D02*
X105544285Y-83804761D01*
X105449047Y-83804761D02*
X105496666Y-83852380D01*
X105544285Y-83947619D01*
X105544285Y-84090476D01*
X105496666Y-84185714D01*
X105401428Y-84233333D01*
X104877619Y-84233333D01*
X105401428Y-84233333D02*
X105496666Y-84280952D01*
X105544285Y-84376190D01*
X105544285Y-84519047D01*
X105496666Y-84614285D01*
X105401428Y-84661904D01*
X104877619Y-84661904D01*
X104877619Y-85138095D02*
X105544285Y-85138095D01*
X105449047Y-85138095D02*
X105496666Y-85185714D01*
X105544285Y-85280952D01*
X105544285Y-85423809D01*
X105496666Y-85519047D01*
X105401428Y-85566666D01*
X104877619Y-85566666D01*
X105401428Y-85566666D02*
X105496666Y-85614285D01*
X105544285Y-85709523D01*
X105544285Y-85852380D01*
X105496666Y-85947619D01*
X105401428Y-85995238D01*
X104877619Y-85995238D01*
D11*
X106600000Y-69200000D02*
X106600000Y-94600000D01*
X109600000Y-69200000D02*
X106013579Y-69200000D01*
X109600000Y-94600000D02*
X106013579Y-94600000D01*
X106600000Y-94600000D02*
X106013579Y-93473496D01*
X106600000Y-94600000D02*
X107186421Y-93473496D01*
X106600000Y-69200000D02*
X106013579Y-70326504D01*
X106600000Y-69200000D02*
X107186421Y-70326504D01*
X116070711Y-80600000D02*
G75*
G03X116070711Y-80600000I-70711J0D01*
G01*
X116050000Y-75300000D02*
X116050000Y-77950000D01*
X124750000Y-75300000D02*
X116050000Y-75300000D01*
X124750000Y-78700000D02*
X124750000Y-75300000D01*
X116850000Y-78700000D02*
X124750000Y-78700000D01*
X116050000Y-77950000D02*
X116850000Y-78700000D01*
X110900000Y-87550000D02*
G75*
G03X110900000Y-87550000I-50000J0D01*
G01*
X110800000Y-85900000D02*
X114050000Y-85900000D01*
X110335000Y-69400000D02*
X110335000Y-69335000D01*
X113865000Y-69400000D02*
X113865000Y-69335000D01*
X110335000Y-73265000D02*
X110335000Y-73200000D01*
X113865000Y-73265000D02*
X113865000Y-73200000D01*
X113865000Y-69335000D02*
X110335000Y-69335000D01*
X113865000Y-73265000D02*
X110335000Y-73265000D01*
X111290000Y-76324721D02*
X111290000Y-76650279D01*
X112310000Y-76324721D02*
X112310000Y-76650279D01*
X114290000Y-76962779D02*
X114290000Y-76637221D01*
X115310000Y-76962779D02*
X115310000Y-76637221D01*
X129465000Y-80600000D02*
X129465000Y-82885000D01*
X129465000Y-82885000D02*
X130935000Y-82885000D01*
X130935000Y-82885000D02*
X130935000Y-80600000D01*
X116049721Y-86790000D02*
X116375279Y-86790000D01*
X116049721Y-87810000D02*
X116375279Y-87810000D01*
X116375279Y-84610000D02*
X116049721Y-84610000D01*
X116375279Y-83590000D02*
X116049721Y-83590000D01*
X116049721Y-86210000D02*
X116375279Y-86210000D01*
X116049721Y-85190000D02*
X116375279Y-85190000D01*
X130710000Y-77962779D02*
X130710000Y-77637221D01*
X129690000Y-77962779D02*
X129690000Y-77637221D01*
X130710000Y-88249721D02*
X130710000Y-88575279D01*
X129690000Y-88249721D02*
X129690000Y-88575279D01*
X130710000Y-85062779D02*
X130710000Y-84737221D01*
X129690000Y-85062779D02*
X129690000Y-84737221D01*
X118062500Y-89615000D02*
X110227500Y-89615000D01*
X110227500Y-89615000D02*
X110227500Y-94585000D01*
X110227500Y-94585000D02*
X118062500Y-94585000D01*
X121836252Y-93910000D02*
X121313748Y-93910000D01*
X121836252Y-92490000D02*
X121313748Y-92490000D01*
X111300000Y-79050000D02*
G75*
G03X111300000Y-79050000I-50000J0D01*
G01*
D10*
X125022380Y-77786904D02*
X125831904Y-77786904D01*
X125927142Y-77739285D01*
X125974761Y-77691666D01*
X126022380Y-77596428D01*
X126022380Y-77405952D01*
X125974761Y-77310714D01*
X125927142Y-77263095D01*
X125831904Y-77215476D01*
X125022380Y-77215476D01*
X125022380Y-76834523D02*
X125022380Y-76215476D01*
X125403333Y-76548809D01*
X125403333Y-76405952D01*
X125450952Y-76310714D01*
X125498571Y-76263095D01*
X125593809Y-76215476D01*
X125831904Y-76215476D01*
X125927142Y-76263095D01*
X125974761Y-76310714D01*
X126022380Y-76405952D01*
X126022380Y-76691666D01*
X125974761Y-76786904D01*
X125927142Y-76834523D01*
X110638095Y-88052380D02*
X110638095Y-88861904D01*
X110685714Y-88957142D01*
X110733333Y-89004761D01*
X110828571Y-89052380D01*
X111019047Y-89052380D01*
X111114285Y-89004761D01*
X111161904Y-88957142D01*
X111209523Y-88861904D01*
X111209523Y-88052380D01*
X112209523Y-89052380D02*
X111638095Y-89052380D01*
X111923809Y-89052380D02*
X111923809Y-88052380D01*
X111828571Y-88195238D01*
X111733333Y-88290476D01*
X111638095Y-88338095D01*
X126376666Y-70802380D02*
X126376666Y-71516666D01*
X126329047Y-71659523D01*
X126233809Y-71754761D01*
X126090952Y-71802380D01*
X125995714Y-71802380D01*
X127376666Y-71802380D02*
X126805238Y-71802380D01*
X127090952Y-71802380D02*
X127090952Y-70802380D01*
X126995714Y-70945238D01*
X126900476Y-71040476D01*
X126805238Y-71088095D01*
X126504761Y-70030952D02*
X126409523Y-69983333D01*
X126361904Y-69935714D01*
X126314285Y-69840476D01*
X126314285Y-69792857D01*
X126361904Y-69697619D01*
X126409523Y-69650000D01*
X126504761Y-69602380D01*
X126695238Y-69602380D01*
X126790476Y-69650000D01*
X126838095Y-69697619D01*
X126885714Y-69792857D01*
X126885714Y-69840476D01*
X126838095Y-69935714D01*
X126790476Y-69983333D01*
X126695238Y-70030952D01*
X126504761Y-70030952D01*
X126409523Y-70078571D01*
X126361904Y-70126190D01*
X126314285Y-70221428D01*
X126314285Y-70411904D01*
X126361904Y-70507142D01*
X126409523Y-70554761D01*
X126504761Y-70602380D01*
X126695238Y-70602380D01*
X126790476Y-70554761D01*
X126838095Y-70507142D01*
X126885714Y-70411904D01*
X126885714Y-70221428D01*
X126838095Y-70126190D01*
X126790476Y-70078571D01*
X126695238Y-70030952D01*
X115415714Y-70432380D02*
X114844285Y-70432380D01*
X115130000Y-70432380D02*
X115130000Y-69432380D01*
X115034761Y-69575238D01*
X114939523Y-69670476D01*
X114844285Y-69718095D01*
X126504761Y-70030952D02*
X126409523Y-69983333D01*
X126361904Y-69935714D01*
X126314285Y-69840476D01*
X126314285Y-69792857D01*
X126361904Y-69697619D01*
X126409523Y-69650000D01*
X126504761Y-69602380D01*
X126695238Y-69602380D01*
X126790476Y-69650000D01*
X126838095Y-69697619D01*
X126885714Y-69792857D01*
X126885714Y-69840476D01*
X126838095Y-69935714D01*
X126790476Y-69983333D01*
X126695238Y-70030952D01*
X126504761Y-70030952D01*
X126409523Y-70078571D01*
X126361904Y-70126190D01*
X126314285Y-70221428D01*
X126314285Y-70411904D01*
X126361904Y-70507142D01*
X126409523Y-70554761D01*
X126504761Y-70602380D01*
X126695238Y-70602380D01*
X126790476Y-70554761D01*
X126838095Y-70507142D01*
X126885714Y-70411904D01*
X126885714Y-70221428D01*
X126838095Y-70126190D01*
X126790476Y-70078571D01*
X126695238Y-70030952D01*
X115405714Y-70432380D02*
X114834285Y-70432380D01*
X115120000Y-70432380D02*
X115120000Y-69432380D01*
X115024761Y-69575238D01*
X114929523Y-69670476D01*
X114834285Y-69718095D01*
X123756666Y-67957380D02*
X123423333Y-67481190D01*
X123185238Y-67957380D02*
X123185238Y-66957380D01*
X123566190Y-66957380D01*
X123661428Y-67005000D01*
X123709047Y-67052619D01*
X123756666Y-67147857D01*
X123756666Y-67290714D01*
X123709047Y-67385952D01*
X123661428Y-67433571D01*
X123566190Y-67481190D01*
X123185238Y-67481190D01*
X124185238Y-67433571D02*
X124518571Y-67433571D01*
X124661428Y-67957380D02*
X124185238Y-67957380D01*
X124185238Y-66957380D01*
X124661428Y-66957380D01*
X125423333Y-67433571D02*
X125090000Y-67433571D01*
X125090000Y-67957380D02*
X125090000Y-66957380D01*
X125566190Y-66957380D01*
X126090000Y-66957380D02*
X126090000Y-67195476D01*
X125851904Y-67100238D02*
X126090000Y-67195476D01*
X126328095Y-67100238D01*
X125947142Y-67385952D02*
X126090000Y-67195476D01*
X126232857Y-67385952D01*
X126851904Y-66957380D02*
X126851904Y-67195476D01*
X126613809Y-67100238D02*
X126851904Y-67195476D01*
X127090000Y-67100238D01*
X126709047Y-67385952D02*
X126851904Y-67195476D01*
X126994761Y-67385952D01*
X122486666Y-67957380D02*
X122153333Y-67481190D01*
X121915238Y-67957380D02*
X121915238Y-66957380D01*
X122296190Y-66957380D01*
X122391428Y-67005000D01*
X122439047Y-67052619D01*
X122486666Y-67147857D01*
X122486666Y-67290714D01*
X122439047Y-67385952D01*
X122391428Y-67433571D01*
X122296190Y-67481190D01*
X121915238Y-67481190D01*
X122915238Y-67433571D02*
X123248571Y-67433571D01*
X123391428Y-67957380D02*
X122915238Y-67957380D01*
X122915238Y-66957380D01*
X123391428Y-66957380D01*
X124153333Y-67433571D02*
X123820000Y-67433571D01*
X123820000Y-67957380D02*
X123820000Y-66957380D01*
X124296190Y-66957380D01*
X124820000Y-66957380D02*
X124820000Y-67195476D01*
X124581904Y-67100238D02*
X124820000Y-67195476D01*
X125058095Y-67100238D01*
X124677142Y-67385952D02*
X124820000Y-67195476D01*
X124962857Y-67385952D01*
X125581904Y-66957380D02*
X125581904Y-67195476D01*
X125343809Y-67100238D02*
X125581904Y-67195476D01*
X125820000Y-67100238D01*
X125439047Y-67385952D02*
X125581904Y-67195476D01*
X125724761Y-67385952D01*
X121216666Y-67957380D02*
X120883333Y-67481190D01*
X120645238Y-67957380D02*
X120645238Y-66957380D01*
X121026190Y-66957380D01*
X121121428Y-67005000D01*
X121169047Y-67052619D01*
X121216666Y-67147857D01*
X121216666Y-67290714D01*
X121169047Y-67385952D01*
X121121428Y-67433571D01*
X121026190Y-67481190D01*
X120645238Y-67481190D01*
X121645238Y-67433571D02*
X121978571Y-67433571D01*
X122121428Y-67957380D02*
X121645238Y-67957380D01*
X121645238Y-66957380D01*
X122121428Y-66957380D01*
X122883333Y-67433571D02*
X122550000Y-67433571D01*
X122550000Y-67957380D02*
X122550000Y-66957380D01*
X123026190Y-66957380D01*
X123550000Y-66957380D02*
X123550000Y-67195476D01*
X123311904Y-67100238D02*
X123550000Y-67195476D01*
X123788095Y-67100238D01*
X123407142Y-67385952D02*
X123550000Y-67195476D01*
X123692857Y-67385952D01*
X124311904Y-66957380D02*
X124311904Y-67195476D01*
X124073809Y-67100238D02*
X124311904Y-67195476D01*
X124550000Y-67100238D01*
X124169047Y-67385952D02*
X124311904Y-67195476D01*
X124454761Y-67385952D01*
X119946666Y-67957380D02*
X119613333Y-67481190D01*
X119375238Y-67957380D02*
X119375238Y-66957380D01*
X119756190Y-66957380D01*
X119851428Y-67005000D01*
X119899047Y-67052619D01*
X119946666Y-67147857D01*
X119946666Y-67290714D01*
X119899047Y-67385952D01*
X119851428Y-67433571D01*
X119756190Y-67481190D01*
X119375238Y-67481190D01*
X120375238Y-67433571D02*
X120708571Y-67433571D01*
X120851428Y-67957380D02*
X120375238Y-67957380D01*
X120375238Y-66957380D01*
X120851428Y-66957380D01*
X121613333Y-67433571D02*
X121280000Y-67433571D01*
X121280000Y-67957380D02*
X121280000Y-66957380D01*
X121756190Y-66957380D01*
X122280000Y-66957380D02*
X122280000Y-67195476D01*
X122041904Y-67100238D02*
X122280000Y-67195476D01*
X122518095Y-67100238D01*
X122137142Y-67385952D02*
X122280000Y-67195476D01*
X122422857Y-67385952D01*
X123041904Y-66957380D02*
X123041904Y-67195476D01*
X122803809Y-67100238D02*
X123041904Y-67195476D01*
X123280000Y-67100238D01*
X122899047Y-67385952D02*
X123041904Y-67195476D01*
X123184761Y-67385952D01*
X118676666Y-67957380D02*
X118343333Y-67481190D01*
X118105238Y-67957380D02*
X118105238Y-66957380D01*
X118486190Y-66957380D01*
X118581428Y-67005000D01*
X118629047Y-67052619D01*
X118676666Y-67147857D01*
X118676666Y-67290714D01*
X118629047Y-67385952D01*
X118581428Y-67433571D01*
X118486190Y-67481190D01*
X118105238Y-67481190D01*
X119105238Y-67433571D02*
X119438571Y-67433571D01*
X119581428Y-67957380D02*
X119105238Y-67957380D01*
X119105238Y-66957380D01*
X119581428Y-66957380D01*
X120343333Y-67433571D02*
X120010000Y-67433571D01*
X120010000Y-67957380D02*
X120010000Y-66957380D01*
X120486190Y-66957380D01*
X121010000Y-66957380D02*
X121010000Y-67195476D01*
X120771904Y-67100238D02*
X121010000Y-67195476D01*
X121248095Y-67100238D01*
X120867142Y-67385952D02*
X121010000Y-67195476D01*
X121152857Y-67385952D01*
X121771904Y-66957380D02*
X121771904Y-67195476D01*
X121533809Y-67100238D02*
X121771904Y-67195476D01*
X122010000Y-67100238D01*
X121629047Y-67385952D02*
X121771904Y-67195476D01*
X121914761Y-67385952D01*
X117406666Y-67957380D02*
X117073333Y-67481190D01*
X116835238Y-67957380D02*
X116835238Y-66957380D01*
X117216190Y-66957380D01*
X117311428Y-67005000D01*
X117359047Y-67052619D01*
X117406666Y-67147857D01*
X117406666Y-67290714D01*
X117359047Y-67385952D01*
X117311428Y-67433571D01*
X117216190Y-67481190D01*
X116835238Y-67481190D01*
X117835238Y-67433571D02*
X118168571Y-67433571D01*
X118311428Y-67957380D02*
X117835238Y-67957380D01*
X117835238Y-66957380D01*
X118311428Y-66957380D01*
X119073333Y-67433571D02*
X118740000Y-67433571D01*
X118740000Y-67957380D02*
X118740000Y-66957380D01*
X119216190Y-66957380D01*
X119740000Y-66957380D02*
X119740000Y-67195476D01*
X119501904Y-67100238D02*
X119740000Y-67195476D01*
X119978095Y-67100238D01*
X119597142Y-67385952D02*
X119740000Y-67195476D01*
X119882857Y-67385952D01*
X120501904Y-66957380D02*
X120501904Y-67195476D01*
X120263809Y-67100238D02*
X120501904Y-67195476D01*
X120740000Y-67100238D01*
X120359047Y-67385952D02*
X120501904Y-67195476D01*
X120644761Y-67385952D01*
X116136666Y-67957380D02*
X115803333Y-67481190D01*
X115565238Y-67957380D02*
X115565238Y-66957380D01*
X115946190Y-66957380D01*
X116041428Y-67005000D01*
X116089047Y-67052619D01*
X116136666Y-67147857D01*
X116136666Y-67290714D01*
X116089047Y-67385952D01*
X116041428Y-67433571D01*
X115946190Y-67481190D01*
X115565238Y-67481190D01*
X116565238Y-67433571D02*
X116898571Y-67433571D01*
X117041428Y-67957380D02*
X116565238Y-67957380D01*
X116565238Y-66957380D01*
X117041428Y-66957380D01*
X117803333Y-67433571D02*
X117470000Y-67433571D01*
X117470000Y-67957380D02*
X117470000Y-66957380D01*
X117946190Y-66957380D01*
X118470000Y-66957380D02*
X118470000Y-67195476D01*
X118231904Y-67100238D02*
X118470000Y-67195476D01*
X118708095Y-67100238D01*
X118327142Y-67385952D02*
X118470000Y-67195476D01*
X118612857Y-67385952D01*
X119231904Y-66957380D02*
X119231904Y-67195476D01*
X118993809Y-67100238D02*
X119231904Y-67195476D01*
X119470000Y-67100238D01*
X119089047Y-67385952D02*
X119231904Y-67195476D01*
X119374761Y-67385952D01*
X114866666Y-67957380D02*
X114533333Y-67481190D01*
X114295238Y-67957380D02*
X114295238Y-66957380D01*
X114676190Y-66957380D01*
X114771428Y-67005000D01*
X114819047Y-67052619D01*
X114866666Y-67147857D01*
X114866666Y-67290714D01*
X114819047Y-67385952D01*
X114771428Y-67433571D01*
X114676190Y-67481190D01*
X114295238Y-67481190D01*
X115295238Y-67433571D02*
X115628571Y-67433571D01*
X115771428Y-67957380D02*
X115295238Y-67957380D01*
X115295238Y-66957380D01*
X115771428Y-66957380D01*
X116533333Y-67433571D02*
X116200000Y-67433571D01*
X116200000Y-67957380D02*
X116200000Y-66957380D01*
X116676190Y-66957380D01*
X117200000Y-66957380D02*
X117200000Y-67195476D01*
X116961904Y-67100238D02*
X117200000Y-67195476D01*
X117438095Y-67100238D01*
X117057142Y-67385952D02*
X117200000Y-67195476D01*
X117342857Y-67385952D01*
X117961904Y-66957380D02*
X117961904Y-67195476D01*
X117723809Y-67100238D02*
X117961904Y-67195476D01*
X118200000Y-67100238D01*
X117819047Y-67385952D02*
X117961904Y-67195476D01*
X118104761Y-67385952D01*
X129304761Y-72633333D02*
X129352380Y-72490476D01*
X129352380Y-72252380D01*
X129304761Y-72157142D01*
X129257142Y-72109523D01*
X129161904Y-72061904D01*
X129066666Y-72061904D01*
X128971428Y-72109523D01*
X128923809Y-72157142D01*
X128876190Y-72252380D01*
X128828571Y-72442857D01*
X128780952Y-72538095D01*
X128733333Y-72585714D01*
X128638095Y-72633333D01*
X128542857Y-72633333D01*
X128447619Y-72585714D01*
X128400000Y-72538095D01*
X128352380Y-72442857D01*
X128352380Y-72204761D01*
X128400000Y-72061904D01*
X128352380Y-71728571D02*
X129352380Y-71490476D01*
X128638095Y-71300000D01*
X129352380Y-71109523D01*
X128352380Y-70871428D01*
X129352380Y-69966666D02*
X129352380Y-70538095D01*
X129352380Y-70252380D02*
X128352380Y-70252380D01*
X128495238Y-70347619D01*
X128590476Y-70442857D01*
X128638095Y-70538095D01*
X114266666Y-71252380D02*
X114266666Y-71966666D01*
X114219047Y-72109523D01*
X114123809Y-72204761D01*
X113980952Y-72252380D01*
X113885714Y-72252380D01*
X114695238Y-71347619D02*
X114742857Y-71300000D01*
X114838095Y-71252380D01*
X115076190Y-71252380D01*
X115171428Y-71300000D01*
X115219047Y-71347619D01*
X115266666Y-71442857D01*
X115266666Y-71538095D01*
X115219047Y-71680952D01*
X114647619Y-72252380D01*
X115266666Y-72252380D01*
X112533333Y-74757142D02*
X112485714Y-74804761D01*
X112342857Y-74852380D01*
X112247619Y-74852380D01*
X112104761Y-74804761D01*
X112009523Y-74709523D01*
X111961904Y-74614285D01*
X111914285Y-74423809D01*
X111914285Y-74280952D01*
X111961904Y-74090476D01*
X112009523Y-73995238D01*
X112104761Y-73900000D01*
X112247619Y-73852380D01*
X112342857Y-73852380D01*
X112485714Y-73900000D01*
X112533333Y-73947619D01*
X112914285Y-73947619D02*
X112961904Y-73900000D01*
X113057142Y-73852380D01*
X113295238Y-73852380D01*
X113390476Y-73900000D01*
X113438095Y-73947619D01*
X113485714Y-74042857D01*
X113485714Y-74138095D01*
X113438095Y-74280952D01*
X112866666Y-74852380D01*
X113485714Y-74852380D01*
X114733333Y-74957142D02*
X114685714Y-75004761D01*
X114542857Y-75052380D01*
X114447619Y-75052380D01*
X114304761Y-75004761D01*
X114209523Y-74909523D01*
X114161904Y-74814285D01*
X114114285Y-74623809D01*
X114114285Y-74480952D01*
X114161904Y-74290476D01*
X114209523Y-74195238D01*
X114304761Y-74100000D01*
X114447619Y-74052380D01*
X114542857Y-74052380D01*
X114685714Y-74100000D01*
X114733333Y-74147619D01*
X115066666Y-74052380D02*
X115685714Y-74052380D01*
X115352380Y-74433333D01*
X115495238Y-74433333D01*
X115590476Y-74480952D01*
X115638095Y-74528571D01*
X115685714Y-74623809D01*
X115685714Y-74861904D01*
X115638095Y-74957142D01*
X115590476Y-75004761D01*
X115495238Y-75052380D01*
X115209523Y-75052380D01*
X115114285Y-75004761D01*
X115066666Y-74957142D01*
X129222380Y-82138095D02*
X128222380Y-82138095D01*
X128222380Y-81900000D01*
X128270000Y-81757142D01*
X128365238Y-81661904D01*
X128460476Y-81614285D01*
X128650952Y-81566666D01*
X128793809Y-81566666D01*
X128984285Y-81614285D01*
X129079523Y-81661904D01*
X129174761Y-81757142D01*
X129222380Y-81900000D01*
X129222380Y-82138095D01*
X129222380Y-80614285D02*
X129222380Y-81185714D01*
X129222380Y-80900000D02*
X128222380Y-80900000D01*
X128365238Y-80995238D01*
X128460476Y-81090476D01*
X128508095Y-81185714D01*
X118533333Y-87752380D02*
X118200000Y-87276190D01*
X117961904Y-87752380D02*
X117961904Y-86752380D01*
X118342857Y-86752380D01*
X118438095Y-86800000D01*
X118485714Y-86847619D01*
X118533333Y-86942857D01*
X118533333Y-87085714D01*
X118485714Y-87180952D01*
X118438095Y-87228571D01*
X118342857Y-87276190D01*
X117961904Y-87276190D01*
X119485714Y-87752380D02*
X118914285Y-87752380D01*
X119200000Y-87752380D02*
X119200000Y-86752380D01*
X119104761Y-86895238D01*
X119009523Y-86990476D01*
X118914285Y-87038095D01*
X118533333Y-84552380D02*
X118200000Y-84076190D01*
X117961904Y-84552380D02*
X117961904Y-83552380D01*
X118342857Y-83552380D01*
X118438095Y-83600000D01*
X118485714Y-83647619D01*
X118533333Y-83742857D01*
X118533333Y-83885714D01*
X118485714Y-83980952D01*
X118438095Y-84028571D01*
X118342857Y-84076190D01*
X117961904Y-84076190D01*
X118914285Y-83647619D02*
X118961904Y-83600000D01*
X119057142Y-83552380D01*
X119295238Y-83552380D01*
X119390476Y-83600000D01*
X119438095Y-83647619D01*
X119485714Y-83742857D01*
X119485714Y-83838095D01*
X119438095Y-83980952D01*
X118866666Y-84552380D01*
X119485714Y-84552380D01*
X118533333Y-86052380D02*
X118200000Y-85576190D01*
X117961904Y-86052380D02*
X117961904Y-85052380D01*
X118342857Y-85052380D01*
X118438095Y-85100000D01*
X118485714Y-85147619D01*
X118533333Y-85242857D01*
X118533333Y-85385714D01*
X118485714Y-85480952D01*
X118438095Y-85528571D01*
X118342857Y-85576190D01*
X117961904Y-85576190D01*
X118866666Y-85052380D02*
X119485714Y-85052380D01*
X119152380Y-85433333D01*
X119295238Y-85433333D01*
X119390476Y-85480952D01*
X119438095Y-85528571D01*
X119485714Y-85623809D01*
X119485714Y-85861904D01*
X119438095Y-85957142D01*
X119390476Y-86004761D01*
X119295238Y-86052380D01*
X119009523Y-86052380D01*
X118914285Y-86004761D01*
X118866666Y-85957142D01*
X129222380Y-77966666D02*
X128746190Y-78300000D01*
X129222380Y-78538095D02*
X128222380Y-78538095D01*
X128222380Y-78157142D01*
X128270000Y-78061904D01*
X128317619Y-78014285D01*
X128412857Y-77966666D01*
X128555714Y-77966666D01*
X128650952Y-78014285D01*
X128698571Y-78061904D01*
X128746190Y-78157142D01*
X128746190Y-78538095D01*
X128555714Y-77109523D02*
X129222380Y-77109523D01*
X128174761Y-77347619D02*
X128889047Y-77585714D01*
X128889047Y-76966666D01*
X129252380Y-88566666D02*
X128776190Y-88900000D01*
X129252380Y-89138095D02*
X128252380Y-89138095D01*
X128252380Y-88757142D01*
X128300000Y-88661904D01*
X128347619Y-88614285D01*
X128442857Y-88566666D01*
X128585714Y-88566666D01*
X128680952Y-88614285D01*
X128728571Y-88661904D01*
X128776190Y-88757142D01*
X128776190Y-89138095D01*
X128252380Y-87661904D02*
X128252380Y-88138095D01*
X128728571Y-88185714D01*
X128680952Y-88138095D01*
X128633333Y-88042857D01*
X128633333Y-87804761D01*
X128680952Y-87709523D01*
X128728571Y-87661904D01*
X128823809Y-87614285D01*
X129061904Y-87614285D01*
X129157142Y-87661904D01*
X129204761Y-87709523D01*
X129252380Y-87804761D01*
X129252380Y-88042857D01*
X129204761Y-88138095D01*
X129157142Y-88185714D01*
X129222380Y-85066666D02*
X128746190Y-85400000D01*
X129222380Y-85638095D02*
X128222380Y-85638095D01*
X128222380Y-85257142D01*
X128270000Y-85161904D01*
X128317619Y-85114285D01*
X128412857Y-85066666D01*
X128555714Y-85066666D01*
X128650952Y-85114285D01*
X128698571Y-85161904D01*
X128746190Y-85257142D01*
X128746190Y-85638095D01*
X128222380Y-84209523D02*
X128222380Y-84400000D01*
X128270000Y-84495238D01*
X128317619Y-84542857D01*
X128460476Y-84638095D01*
X128650952Y-84685714D01*
X129031904Y-84685714D01*
X129127142Y-84638095D01*
X129174761Y-84590476D01*
X129222380Y-84495238D01*
X129222380Y-84304761D01*
X129174761Y-84209523D01*
X129127142Y-84161904D01*
X129031904Y-84114285D01*
X128793809Y-84114285D01*
X128698571Y-84161904D01*
X128650952Y-84209523D01*
X128603333Y-84304761D01*
X128603333Y-84495238D01*
X128650952Y-84590476D01*
X128698571Y-84638095D01*
X128793809Y-84685714D01*
X119693333Y-90387142D02*
X119645714Y-90434761D01*
X119502857Y-90482380D01*
X119407619Y-90482380D01*
X119264761Y-90434761D01*
X119169523Y-90339523D01*
X119121904Y-90244285D01*
X119074285Y-90053809D01*
X119074285Y-89910952D01*
X119121904Y-89720476D01*
X119169523Y-89625238D01*
X119264761Y-89530000D01*
X119407619Y-89482380D01*
X119502857Y-89482380D01*
X119645714Y-89530000D01*
X119693333Y-89577619D01*
X120645714Y-90482380D02*
X120074285Y-90482380D01*
X120360000Y-90482380D02*
X120360000Y-89482380D01*
X120264761Y-89625238D01*
X120169523Y-89720476D01*
X120074285Y-89768095D01*
X121666666Y-90852380D02*
X121666666Y-91566666D01*
X121619047Y-91709523D01*
X121523809Y-91804761D01*
X121380952Y-91852380D01*
X121285714Y-91852380D01*
X122047619Y-90852380D02*
X122666666Y-90852380D01*
X122333333Y-91233333D01*
X122476190Y-91233333D01*
X122571428Y-91280952D01*
X122619047Y-91328571D01*
X122666666Y-91423809D01*
X122666666Y-91661904D01*
X122619047Y-91757142D01*
X122571428Y-91804761D01*
X122476190Y-91852380D01*
X122190476Y-91852380D01*
X122095238Y-91804761D01*
X122047619Y-91757142D01*
X112588095Y-77202380D02*
X112588095Y-78011904D01*
X112635714Y-78107142D01*
X112683333Y-78154761D01*
X112778571Y-78202380D01*
X112969047Y-78202380D01*
X113064285Y-78154761D01*
X113111904Y-78107142D01*
X113159523Y-78011904D01*
X113159523Y-77202380D01*
X113588095Y-77297619D02*
X113635714Y-77250000D01*
X113730952Y-77202380D01*
X113969047Y-77202380D01*
X114064285Y-77250000D01*
X114111904Y-77297619D01*
X114159523Y-77392857D01*
X114159523Y-77488095D01*
X114111904Y-77630952D01*
X113540476Y-78202380D01*
X114159523Y-78202380D01*
M02*
