G04 #@! TF.GenerationSoftware,KiCad,Pcbnew,5.1.7*
G04 #@! TF.CreationDate,2020-10-17T14:52:52-07:00*
G04 #@! TF.ProjectId,lofi,6c6f6669-2e6b-4696-9361-645f70636258,rev?*
G04 #@! TF.SameCoordinates,Original*
G04 #@! TF.FileFunction,Copper,L2,Bot*
G04 #@! TF.FilePolarity,Positive*
%FSLAX46Y46*%
G04 Gerber Fmt 4.6, Leading zero omitted, Abs format (unit mm)*
G04 Created by KiCad (PCBNEW 5.1.7) date 2020-10-17 14:52:52*
%MOMM*%
%LPD*%
G01*
G04 APERTURE LIST*
G04 #@! TA.AperFunction,EtchedComponent*
%ADD10C,0.100000*%
G04 #@! TD*
G04 #@! TA.AperFunction,SMDPad,CuDef*
%ADD11C,0.100000*%
G04 #@! TD*
G04 #@! TA.AperFunction,SMDPad,CuDef*
%ADD12C,15.000000*%
G04 #@! TD*
G04 #@! TA.AperFunction,ComponentPad*
%ADD13R,1.000000X1.650000*%
G04 #@! TD*
G04 #@! TA.AperFunction,ComponentPad*
%ADD14R,1.000000X1.000000*%
G04 #@! TD*
G04 #@! TA.AperFunction,ViaPad*
%ADD15C,0.800000*%
G04 #@! TD*
G04 #@! TA.AperFunction,Conductor*
%ADD16C,0.250000*%
G04 #@! TD*
G04 #@! TA.AperFunction,Conductor*
%ADD17C,0.400000*%
G04 #@! TD*
G04 #@! TA.AperFunction,Conductor*
%ADD18C,0.254000*%
G04 #@! TD*
G04 #@! TA.AperFunction,Conductor*
%ADD19C,0.100000*%
G04 #@! TD*
G04 APERTURE END LIST*
D10*
G36*
X111071846Y-90884424D02*
G01*
X111695219Y-93953040D01*
X114825464Y-94034083D01*
X111071846Y-90884424D01*
G37*
X111071846Y-90884424D02*
X111695219Y-93953040D01*
X114825464Y-94034083D01*
X111071846Y-90884424D01*
G36*
X130561035Y-71469636D02*
G01*
X127655766Y-71120477D01*
X131409384Y-74270136D01*
X130561035Y-71469636D01*
G37*
X130561035Y-71469636D02*
X127655766Y-71120477D01*
X131409384Y-74270136D01*
X130561035Y-71469636D01*
G04 #@! TA.AperFunction,SMDPad,CuDef*
D11*
G36*
X114863766Y-94066222D02*
G01*
X111033544Y-90852284D01*
X112576234Y-89013778D01*
X116406456Y-92227716D01*
X114863766Y-94066222D01*
G37*
G04 #@! TD.AperFunction*
D12*
X121240615Y-82577280D03*
G04 #@! TA.AperFunction,SMDPad,CuDef*
D11*
G36*
X129904996Y-76140782D02*
G01*
X126074774Y-72926844D01*
X127617464Y-71088338D01*
X131447686Y-74302276D01*
X129904996Y-76140782D01*
G37*
G04 #@! TD.AperFunction*
D13*
X125190000Y-70610000D03*
X123920000Y-70610000D03*
X122650000Y-70610000D03*
X121380000Y-70610000D03*
X120110000Y-70610000D03*
X118840000Y-70610000D03*
X117570000Y-70610000D03*
X116300000Y-70610000D03*
D14*
X125190000Y-69710000D03*
X123920000Y-69710000D03*
X122650000Y-69710000D03*
X121380000Y-69710000D03*
X120110000Y-69710000D03*
X118840000Y-69710000D03*
X117570000Y-69710000D03*
X116300000Y-69710000D03*
D15*
X112200000Y-71210000D03*
X115100000Y-89910000D03*
X119920000Y-91630000D03*
X119930000Y-92700000D03*
X119910000Y-93770000D03*
X115980000Y-76190000D03*
X113270000Y-79010000D03*
X128880000Y-89240000D03*
X126890000Y-70580000D03*
X111600000Y-74710000D03*
X125500000Y-74710000D03*
X114900000Y-74710000D03*
X114300000Y-92810000D03*
X112400000Y-91410000D03*
X114590000Y-71050000D03*
X114600000Y-72210000D03*
X114600000Y-73360000D03*
D16*
X120899999Y-82900001D02*
X121300000Y-82500000D01*
X115565685Y-82500000D02*
X121300000Y-82500000D01*
X113665685Y-80600000D02*
X115565685Y-82500000D01*
X113100000Y-80600000D02*
X113665685Y-80600000D01*
D17*
X119920000Y-92690000D02*
X119930000Y-92700000D01*
X119930000Y-93750000D02*
X119910000Y-93770000D01*
X111600000Y-74710000D02*
X114900000Y-74710000D01*
X115299999Y-74310001D02*
X114900000Y-74710000D01*
X125100001Y-74310001D02*
X115299999Y-74310001D01*
X125500000Y-74710000D02*
X125100001Y-74310001D01*
D16*
X121380000Y-70910000D02*
X121380000Y-71850000D01*
X121380000Y-71850000D02*
X121160000Y-72070000D01*
X115300001Y-71760001D02*
X114590000Y-71050000D01*
X117730000Y-72070000D02*
X117420001Y-71760001D01*
X117420001Y-71760001D02*
X115300001Y-71760001D01*
X121160000Y-72070000D02*
X117730000Y-72070000D01*
X122650000Y-70910000D02*
X122650000Y-71700000D01*
X114999999Y-72609999D02*
X114600000Y-72210000D01*
X121740001Y-72609999D02*
X114999999Y-72609999D01*
X122650000Y-71700000D02*
X121740001Y-72609999D01*
X123920000Y-71250002D02*
X123920000Y-70910000D01*
X121810002Y-73360000D02*
X123920000Y-71250002D01*
X114600000Y-73360000D02*
X121810002Y-73360000D01*
D18*
X115370934Y-70774288D02*
X115322877Y-70658269D01*
X115232372Y-70522819D01*
X115117181Y-70407628D01*
X114981731Y-70317123D01*
X114831227Y-70254782D01*
X114671452Y-70223000D01*
X114508548Y-70223000D01*
X114348773Y-70254782D01*
X114198269Y-70317123D01*
X114062819Y-70407628D01*
X113947628Y-70522819D01*
X113857123Y-70658269D01*
X113794782Y-70808773D01*
X113763000Y-70968548D01*
X113763000Y-71131452D01*
X113794782Y-71291227D01*
X113857123Y-71441731D01*
X113947628Y-71577181D01*
X114005447Y-71635000D01*
X113957628Y-71682819D01*
X113867123Y-71818269D01*
X113804782Y-71968773D01*
X113773000Y-72128548D01*
X113773000Y-72291452D01*
X113804782Y-72451227D01*
X113867123Y-72601731D01*
X113957628Y-72737181D01*
X114005447Y-72785000D01*
X113957628Y-72832819D01*
X113867123Y-72968269D01*
X113804782Y-73118773D01*
X113773000Y-73278548D01*
X113773000Y-73441452D01*
X113804782Y-73601227D01*
X113867123Y-73751731D01*
X113957628Y-73887181D01*
X114072819Y-74002372D01*
X114193487Y-74083000D01*
X112142553Y-74083000D01*
X112127181Y-74067628D01*
X111991731Y-73977123D01*
X111841227Y-73914782D01*
X111681452Y-73883000D01*
X111518548Y-73883000D01*
X111358773Y-73914782D01*
X111208269Y-73977123D01*
X111072819Y-74067628D01*
X110957628Y-74182819D01*
X110867123Y-74318269D01*
X110804782Y-74468773D01*
X110773000Y-74628548D01*
X110773000Y-74791452D01*
X110804782Y-74951227D01*
X110867123Y-75101731D01*
X110957628Y-75237181D01*
X111072819Y-75352372D01*
X111208269Y-75442877D01*
X111358773Y-75505218D01*
X111518548Y-75537000D01*
X111681452Y-75537000D01*
X111841227Y-75505218D01*
X111991731Y-75442877D01*
X112127181Y-75352372D01*
X112142553Y-75337000D01*
X114357447Y-75337000D01*
X114372819Y-75352372D01*
X114508269Y-75442877D01*
X114658773Y-75505218D01*
X114818548Y-75537000D01*
X114981452Y-75537000D01*
X115141227Y-75505218D01*
X115291731Y-75442877D01*
X115427181Y-75352372D01*
X115542372Y-75237181D01*
X115632877Y-75101731D01*
X115695218Y-74951227D01*
X115698048Y-74937001D01*
X118446331Y-74937001D01*
X117639243Y-75239003D01*
X116276815Y-76082598D01*
X115105144Y-77175781D01*
X114169255Y-78476540D01*
X113505114Y-79934888D01*
X113138245Y-81494782D01*
X113096009Y-81880444D01*
X113245438Y-83149282D01*
X118463875Y-82692728D01*
X121378201Y-82692728D01*
X122065651Y-90550319D01*
X123341161Y-90477147D01*
X124841987Y-89915557D01*
X126204415Y-89071962D01*
X127376086Y-87978779D01*
X128311975Y-86678020D01*
X128976116Y-85219672D01*
X129342985Y-83659778D01*
X129385221Y-83274116D01*
X129235792Y-82005278D01*
X121378201Y-82692728D01*
X118463875Y-82692728D01*
X121103029Y-82461832D01*
X120444692Y-74937001D01*
X120699663Y-74937001D01*
X121356063Y-82439694D01*
X129213654Y-81752244D01*
X129140482Y-80476734D01*
X128578892Y-78975908D01*
X127735297Y-77613480D01*
X126642114Y-76441809D01*
X125371562Y-75527654D01*
X125418548Y-75537000D01*
X125581452Y-75537000D01*
X125741227Y-75505218D01*
X125891731Y-75442877D01*
X126027181Y-75352372D01*
X126142372Y-75237181D01*
X126232877Y-75101731D01*
X126295218Y-74951227D01*
X126327000Y-74791452D01*
X126327000Y-74628548D01*
X126295218Y-74468773D01*
X126232877Y-74318269D01*
X126142372Y-74182819D01*
X126027181Y-74067628D01*
X125891731Y-73977123D01*
X125741227Y-73914782D01*
X125581452Y-73883000D01*
X125560684Y-73883000D01*
X125545502Y-73864500D01*
X125450029Y-73786148D01*
X125341104Y-73727926D01*
X125222914Y-73692074D01*
X125130795Y-73683001D01*
X125100001Y-73679968D01*
X125069207Y-73683001D01*
X122267645Y-73683001D01*
X124086582Y-71864066D01*
X124420000Y-71864066D01*
X124503707Y-71855822D01*
X124555000Y-71840262D01*
X124606293Y-71855822D01*
X124690000Y-71864066D01*
X125690000Y-71864066D01*
X125773707Y-71855822D01*
X125854196Y-71831405D01*
X125928376Y-71791755D01*
X125993395Y-71738395D01*
X126046755Y-71673376D01*
X126086405Y-71599196D01*
X126110822Y-71518707D01*
X126119066Y-71435000D01*
X126119066Y-70187000D01*
X131792616Y-70187000D01*
X131789648Y-73880134D01*
X131017549Y-71331345D01*
X131002471Y-71294860D01*
X130988486Y-71257940D01*
X130984716Y-71251894D01*
X130981994Y-71245308D01*
X130960112Y-71212439D01*
X130939226Y-71178947D01*
X130934354Y-71173749D01*
X130930404Y-71167816D01*
X130902560Y-71139828D01*
X130875562Y-71111025D01*
X130869771Y-71106871D01*
X130864746Y-71101820D01*
X130832009Y-71079783D01*
X130799917Y-71056762D01*
X130793426Y-71053810D01*
X130787519Y-71049834D01*
X130751125Y-71034575D01*
X130715174Y-71018227D01*
X130708237Y-71016593D01*
X130701666Y-71013838D01*
X130663000Y-71005938D01*
X130624559Y-70996884D01*
X130617952Y-70996044D01*
X127712683Y-70646885D01*
X127710787Y-70646844D01*
X127708936Y-70646450D01*
X127664304Y-70645827D01*
X127619611Y-70644849D01*
X127617744Y-70645176D01*
X127615851Y-70645150D01*
X127571917Y-70653213D01*
X127527916Y-70660930D01*
X127526150Y-70661613D01*
X127524287Y-70661955D01*
X127482720Y-70678413D01*
X127441091Y-70694515D01*
X127439493Y-70695527D01*
X127437730Y-70696225D01*
X127420672Y-70707218D01*
X127419343Y-70707752D01*
X127391411Y-70725978D01*
X127362443Y-70744324D01*
X127361065Y-70745634D01*
X127359479Y-70746656D01*
X127358973Y-70747144D01*
X127348902Y-70753716D01*
X127288780Y-70812540D01*
X125746090Y-72651046D01*
X125698600Y-72720468D01*
X125665566Y-72797821D01*
X125648258Y-72880133D01*
X125647341Y-72964240D01*
X125662849Y-73046909D01*
X125694188Y-73124965D01*
X125740152Y-73195406D01*
X125798976Y-73255528D01*
X129629198Y-76469466D01*
X129698620Y-76516956D01*
X129775973Y-76549990D01*
X129858285Y-76567298D01*
X129942392Y-76568215D01*
X130025061Y-76552707D01*
X130103117Y-76521368D01*
X130173558Y-76475404D01*
X130233680Y-76416580D01*
X131776370Y-74578074D01*
X131789102Y-74559462D01*
X131773384Y-94113000D01*
X115384621Y-94113000D01*
X116735140Y-92503514D01*
X116782630Y-92434092D01*
X116815664Y-92356739D01*
X116832972Y-92274427D01*
X116833889Y-92190320D01*
X116818381Y-92107651D01*
X116787042Y-92029595D01*
X116741078Y-91959154D01*
X116682254Y-91899032D01*
X112852032Y-88685094D01*
X112782610Y-88637604D01*
X112705257Y-88604570D01*
X112622945Y-88587262D01*
X112538838Y-88586345D01*
X112456169Y-88601853D01*
X112378113Y-88633192D01*
X112307672Y-88679156D01*
X112247550Y-88737980D01*
X110751907Y-90520418D01*
X110760489Y-83402316D01*
X113267576Y-83402316D01*
X113340748Y-84677826D01*
X113902338Y-86178652D01*
X114745933Y-87541080D01*
X115839116Y-88712751D01*
X117139875Y-89648640D01*
X118598223Y-90312781D01*
X120158117Y-90679650D01*
X120543779Y-90721886D01*
X121812617Y-90572457D01*
X121125167Y-82714866D01*
X113267576Y-83402316D01*
X110760489Y-83402316D01*
X110776424Y-70187000D01*
X115370934Y-70187000D01*
X115370934Y-70774288D01*
G04 #@! TA.AperFunction,Conductor*
D19*
G36*
X115370934Y-70774288D02*
G01*
X115322877Y-70658269D01*
X115232372Y-70522819D01*
X115117181Y-70407628D01*
X114981731Y-70317123D01*
X114831227Y-70254782D01*
X114671452Y-70223000D01*
X114508548Y-70223000D01*
X114348773Y-70254782D01*
X114198269Y-70317123D01*
X114062819Y-70407628D01*
X113947628Y-70522819D01*
X113857123Y-70658269D01*
X113794782Y-70808773D01*
X113763000Y-70968548D01*
X113763000Y-71131452D01*
X113794782Y-71291227D01*
X113857123Y-71441731D01*
X113947628Y-71577181D01*
X114005447Y-71635000D01*
X113957628Y-71682819D01*
X113867123Y-71818269D01*
X113804782Y-71968773D01*
X113773000Y-72128548D01*
X113773000Y-72291452D01*
X113804782Y-72451227D01*
X113867123Y-72601731D01*
X113957628Y-72737181D01*
X114005447Y-72785000D01*
X113957628Y-72832819D01*
X113867123Y-72968269D01*
X113804782Y-73118773D01*
X113773000Y-73278548D01*
X113773000Y-73441452D01*
X113804782Y-73601227D01*
X113867123Y-73751731D01*
X113957628Y-73887181D01*
X114072819Y-74002372D01*
X114193487Y-74083000D01*
X112142553Y-74083000D01*
X112127181Y-74067628D01*
X111991731Y-73977123D01*
X111841227Y-73914782D01*
X111681452Y-73883000D01*
X111518548Y-73883000D01*
X111358773Y-73914782D01*
X111208269Y-73977123D01*
X111072819Y-74067628D01*
X110957628Y-74182819D01*
X110867123Y-74318269D01*
X110804782Y-74468773D01*
X110773000Y-74628548D01*
X110773000Y-74791452D01*
X110804782Y-74951227D01*
X110867123Y-75101731D01*
X110957628Y-75237181D01*
X111072819Y-75352372D01*
X111208269Y-75442877D01*
X111358773Y-75505218D01*
X111518548Y-75537000D01*
X111681452Y-75537000D01*
X111841227Y-75505218D01*
X111991731Y-75442877D01*
X112127181Y-75352372D01*
X112142553Y-75337000D01*
X114357447Y-75337000D01*
X114372819Y-75352372D01*
X114508269Y-75442877D01*
X114658773Y-75505218D01*
X114818548Y-75537000D01*
X114981452Y-75537000D01*
X115141227Y-75505218D01*
X115291731Y-75442877D01*
X115427181Y-75352372D01*
X115542372Y-75237181D01*
X115632877Y-75101731D01*
X115695218Y-74951227D01*
X115698048Y-74937001D01*
X118446331Y-74937001D01*
X117639243Y-75239003D01*
X116276815Y-76082598D01*
X115105144Y-77175781D01*
X114169255Y-78476540D01*
X113505114Y-79934888D01*
X113138245Y-81494782D01*
X113096009Y-81880444D01*
X113245438Y-83149282D01*
X118463875Y-82692728D01*
X121378201Y-82692728D01*
X122065651Y-90550319D01*
X123341161Y-90477147D01*
X124841987Y-89915557D01*
X126204415Y-89071962D01*
X127376086Y-87978779D01*
X128311975Y-86678020D01*
X128976116Y-85219672D01*
X129342985Y-83659778D01*
X129385221Y-83274116D01*
X129235792Y-82005278D01*
X121378201Y-82692728D01*
X118463875Y-82692728D01*
X121103029Y-82461832D01*
X120444692Y-74937001D01*
X120699663Y-74937001D01*
X121356063Y-82439694D01*
X129213654Y-81752244D01*
X129140482Y-80476734D01*
X128578892Y-78975908D01*
X127735297Y-77613480D01*
X126642114Y-76441809D01*
X125371562Y-75527654D01*
X125418548Y-75537000D01*
X125581452Y-75537000D01*
X125741227Y-75505218D01*
X125891731Y-75442877D01*
X126027181Y-75352372D01*
X126142372Y-75237181D01*
X126232877Y-75101731D01*
X126295218Y-74951227D01*
X126327000Y-74791452D01*
X126327000Y-74628548D01*
X126295218Y-74468773D01*
X126232877Y-74318269D01*
X126142372Y-74182819D01*
X126027181Y-74067628D01*
X125891731Y-73977123D01*
X125741227Y-73914782D01*
X125581452Y-73883000D01*
X125560684Y-73883000D01*
X125545502Y-73864500D01*
X125450029Y-73786148D01*
X125341104Y-73727926D01*
X125222914Y-73692074D01*
X125130795Y-73683001D01*
X125100001Y-73679968D01*
X125069207Y-73683001D01*
X122267645Y-73683001D01*
X124086582Y-71864066D01*
X124420000Y-71864066D01*
X124503707Y-71855822D01*
X124555000Y-71840262D01*
X124606293Y-71855822D01*
X124690000Y-71864066D01*
X125690000Y-71864066D01*
X125773707Y-71855822D01*
X125854196Y-71831405D01*
X125928376Y-71791755D01*
X125993395Y-71738395D01*
X126046755Y-71673376D01*
X126086405Y-71599196D01*
X126110822Y-71518707D01*
X126119066Y-71435000D01*
X126119066Y-70187000D01*
X131792616Y-70187000D01*
X131789648Y-73880134D01*
X131017549Y-71331345D01*
X131002471Y-71294860D01*
X130988486Y-71257940D01*
X130984716Y-71251894D01*
X130981994Y-71245308D01*
X130960112Y-71212439D01*
X130939226Y-71178947D01*
X130934354Y-71173749D01*
X130930404Y-71167816D01*
X130902560Y-71139828D01*
X130875562Y-71111025D01*
X130869771Y-71106871D01*
X130864746Y-71101820D01*
X130832009Y-71079783D01*
X130799917Y-71056762D01*
X130793426Y-71053810D01*
X130787519Y-71049834D01*
X130751125Y-71034575D01*
X130715174Y-71018227D01*
X130708237Y-71016593D01*
X130701666Y-71013838D01*
X130663000Y-71005938D01*
X130624559Y-70996884D01*
X130617952Y-70996044D01*
X127712683Y-70646885D01*
X127710787Y-70646844D01*
X127708936Y-70646450D01*
X127664304Y-70645827D01*
X127619611Y-70644849D01*
X127617744Y-70645176D01*
X127615851Y-70645150D01*
X127571917Y-70653213D01*
X127527916Y-70660930D01*
X127526150Y-70661613D01*
X127524287Y-70661955D01*
X127482720Y-70678413D01*
X127441091Y-70694515D01*
X127439493Y-70695527D01*
X127437730Y-70696225D01*
X127420672Y-70707218D01*
X127419343Y-70707752D01*
X127391411Y-70725978D01*
X127362443Y-70744324D01*
X127361065Y-70745634D01*
X127359479Y-70746656D01*
X127358973Y-70747144D01*
X127348902Y-70753716D01*
X127288780Y-70812540D01*
X125746090Y-72651046D01*
X125698600Y-72720468D01*
X125665566Y-72797821D01*
X125648258Y-72880133D01*
X125647341Y-72964240D01*
X125662849Y-73046909D01*
X125694188Y-73124965D01*
X125740152Y-73195406D01*
X125798976Y-73255528D01*
X129629198Y-76469466D01*
X129698620Y-76516956D01*
X129775973Y-76549990D01*
X129858285Y-76567298D01*
X129942392Y-76568215D01*
X130025061Y-76552707D01*
X130103117Y-76521368D01*
X130173558Y-76475404D01*
X130233680Y-76416580D01*
X131776370Y-74578074D01*
X131789102Y-74559462D01*
X131773384Y-94113000D01*
X115384621Y-94113000D01*
X116735140Y-92503514D01*
X116782630Y-92434092D01*
X116815664Y-92356739D01*
X116832972Y-92274427D01*
X116833889Y-92190320D01*
X116818381Y-92107651D01*
X116787042Y-92029595D01*
X116741078Y-91959154D01*
X116682254Y-91899032D01*
X112852032Y-88685094D01*
X112782610Y-88637604D01*
X112705257Y-88604570D01*
X112622945Y-88587262D01*
X112538838Y-88586345D01*
X112456169Y-88601853D01*
X112378113Y-88633192D01*
X112307672Y-88679156D01*
X112247550Y-88737980D01*
X110751907Y-90520418D01*
X110760489Y-83402316D01*
X113267576Y-83402316D01*
X113340748Y-84677826D01*
X113902338Y-86178652D01*
X114745933Y-87541080D01*
X115839116Y-88712751D01*
X117139875Y-89648640D01*
X118598223Y-90312781D01*
X120158117Y-90679650D01*
X120543779Y-90721886D01*
X121812617Y-90572457D01*
X121125167Y-82714866D01*
X113267576Y-83402316D01*
X110760489Y-83402316D01*
X110776424Y-70187000D01*
X115370934Y-70187000D01*
X115370934Y-70774288D01*
G37*
G04 #@! TD.AperFunction*
M02*
