G04 #@! TF.GenerationSoftware,KiCad,Pcbnew,5.1.7*
G04 #@! TF.CreationDate,2020-10-17T14:52:52-07:00*
G04 #@! TF.ProjectId,lofi,6c6f6669-2e6b-4696-9361-645f70636258,rev?*
G04 #@! TF.SameCoordinates,Original*
G04 #@! TF.FileFunction,Legend,Top*
G04 #@! TF.FilePolarity,Positive*
%FSLAX46Y46*%
G04 Gerber Fmt 4.6, Leading zero omitted, Abs format (unit mm)*
G04 Created by KiCad (PCBNEW 5.1.7) date 2020-10-17 14:52:52*
%MOMM*%
%LPD*%
G01*
G04 APERTURE LIST*
%ADD10C,0.150000*%
%ADD11C,0.120000*%
G04 APERTURE END LIST*
D10*
X117157142Y-63887619D02*
X117204761Y-63840000D01*
X117300000Y-63792380D01*
X117538095Y-63792380D01*
X117633333Y-63840000D01*
X117680952Y-63887619D01*
X117728571Y-63982857D01*
X117728571Y-64078095D01*
X117680952Y-64220952D01*
X117109523Y-64792380D01*
X117728571Y-64792380D01*
X118109523Y-63887619D02*
X118157142Y-63840000D01*
X118252380Y-63792380D01*
X118490476Y-63792380D01*
X118585714Y-63840000D01*
X118633333Y-63887619D01*
X118680952Y-63982857D01*
X118680952Y-64078095D01*
X118633333Y-64220952D01*
X118061904Y-64792380D01*
X118680952Y-64792380D01*
X119109523Y-64697142D02*
X119157142Y-64744761D01*
X119109523Y-64792380D01*
X119061904Y-64744761D01*
X119109523Y-64697142D01*
X119109523Y-64792380D01*
X119776190Y-63792380D02*
X119871428Y-63792380D01*
X119966666Y-63840000D01*
X120014285Y-63887619D01*
X120061904Y-63982857D01*
X120109523Y-64173333D01*
X120109523Y-64411428D01*
X120061904Y-64601904D01*
X120014285Y-64697142D01*
X119966666Y-64744761D01*
X119871428Y-64792380D01*
X119776190Y-64792380D01*
X119680952Y-64744761D01*
X119633333Y-64697142D01*
X119585714Y-64601904D01*
X119538095Y-64411428D01*
X119538095Y-64173333D01*
X119585714Y-63982857D01*
X119633333Y-63887619D01*
X119680952Y-63840000D01*
X119776190Y-63792380D01*
X120728571Y-63792380D02*
X120823809Y-63792380D01*
X120919047Y-63840000D01*
X120966666Y-63887619D01*
X121014285Y-63982857D01*
X121061904Y-64173333D01*
X121061904Y-64411428D01*
X121014285Y-64601904D01*
X120966666Y-64697142D01*
X120919047Y-64744761D01*
X120823809Y-64792380D01*
X120728571Y-64792380D01*
X120633333Y-64744761D01*
X120585714Y-64697142D01*
X120538095Y-64601904D01*
X120490476Y-64411428D01*
X120490476Y-64173333D01*
X120538095Y-63982857D01*
X120585714Y-63887619D01*
X120633333Y-63840000D01*
X120728571Y-63792380D01*
X121680952Y-63792380D02*
X121776190Y-63792380D01*
X121871428Y-63840000D01*
X121919047Y-63887619D01*
X121966666Y-63982857D01*
X122014285Y-64173333D01*
X122014285Y-64411428D01*
X121966666Y-64601904D01*
X121919047Y-64697142D01*
X121871428Y-64744761D01*
X121776190Y-64792380D01*
X121680952Y-64792380D01*
X121585714Y-64744761D01*
X121538095Y-64697142D01*
X121490476Y-64601904D01*
X121442857Y-64411428D01*
X121442857Y-64173333D01*
X121490476Y-63982857D01*
X121538095Y-63887619D01*
X121585714Y-63840000D01*
X121680952Y-63792380D01*
X123204761Y-64792380D02*
X123204761Y-64125714D01*
X123204761Y-64220952D02*
X123252380Y-64173333D01*
X123347619Y-64125714D01*
X123490476Y-64125714D01*
X123585714Y-64173333D01*
X123633333Y-64268571D01*
X123633333Y-64792380D01*
X123633333Y-64268571D02*
X123680952Y-64173333D01*
X123776190Y-64125714D01*
X123919047Y-64125714D01*
X124014285Y-64173333D01*
X124061904Y-64268571D01*
X124061904Y-64792380D01*
X124538095Y-64792380D02*
X124538095Y-64125714D01*
X124538095Y-64220952D02*
X124585714Y-64173333D01*
X124680952Y-64125714D01*
X124823809Y-64125714D01*
X124919047Y-64173333D01*
X124966666Y-64268571D01*
X124966666Y-64792380D01*
X124966666Y-64268571D02*
X125014285Y-64173333D01*
X125109523Y-64125714D01*
X125252380Y-64125714D01*
X125347619Y-64173333D01*
X125395238Y-64268571D01*
X125395238Y-64792380D01*
D11*
X110300000Y-65610000D02*
X132300000Y-65610000D01*
X110300000Y-69110000D02*
X110300000Y-65023579D01*
X132300000Y-69110000D02*
X132300000Y-65023579D01*
X132300000Y-65610000D02*
X131173496Y-66196421D01*
X132300000Y-65610000D02*
X131173496Y-65023579D01*
X110300000Y-65610000D02*
X111426504Y-66196421D01*
X110300000Y-65610000D02*
X111426504Y-65023579D01*
D10*
X104937620Y-86312152D02*
X104890059Y-86264476D01*
X104842555Y-86169180D01*
X104842842Y-85931085D01*
X104890576Y-85835905D01*
X104938253Y-85788343D01*
X105033548Y-85740839D01*
X105128786Y-85740954D01*
X105271586Y-85788746D01*
X105842324Y-86360864D01*
X105843072Y-85741817D01*
X105177440Y-84883870D02*
X105844106Y-84884674D01*
X104796201Y-85121505D02*
X105510198Y-85360462D01*
X105510946Y-84741415D01*
X105749501Y-84360750D02*
X105797177Y-84313189D01*
X105844739Y-84360865D01*
X105797062Y-84408427D01*
X105749501Y-84360750D01*
X105844739Y-84360865D01*
X105274058Y-83741128D02*
X105226324Y-83836309D01*
X105178647Y-83883870D01*
X105083352Y-83931374D01*
X105035733Y-83931317D01*
X104940552Y-83883583D01*
X104892991Y-83835906D01*
X104845487Y-83740611D01*
X104845717Y-83550135D01*
X104893451Y-83454954D01*
X104941127Y-83407393D01*
X105036423Y-83359889D01*
X105084042Y-83359946D01*
X105179222Y-83407680D01*
X105226784Y-83455357D01*
X105274288Y-83550652D01*
X105274058Y-83741128D01*
X105321562Y-83836424D01*
X105369123Y-83884100D01*
X105464304Y-83931834D01*
X105654780Y-83932064D01*
X105750076Y-83884560D01*
X105797752Y-83836999D01*
X105845486Y-83741818D01*
X105845716Y-83551342D01*
X105798212Y-83456046D01*
X105750650Y-83408370D01*
X105655470Y-83360636D01*
X105464994Y-83360406D01*
X105369698Y-83407910D01*
X105322022Y-83455472D01*
X105274288Y-83550652D01*
X104847039Y-82454897D02*
X104846464Y-82931088D01*
X105322597Y-82979281D01*
X105275035Y-82931605D01*
X105227531Y-82836309D01*
X105227819Y-82598214D01*
X105275553Y-82503034D01*
X105323229Y-82455472D01*
X105418525Y-82407968D01*
X105656620Y-82408256D01*
X105751800Y-82455990D01*
X105799362Y-82503666D01*
X105846866Y-82598962D01*
X105846578Y-82837057D01*
X105798844Y-82932237D01*
X105751168Y-82979799D01*
X104847844Y-81788231D02*
X104847959Y-81692993D01*
X104895693Y-81597813D01*
X104943369Y-81550251D01*
X105038665Y-81502747D01*
X105229198Y-81455358D01*
X105467293Y-81455646D01*
X105657712Y-81503495D01*
X105752892Y-81551228D01*
X105800454Y-81598905D01*
X105847958Y-81694201D01*
X105847843Y-81789439D01*
X105800109Y-81884619D01*
X105752433Y-81932181D01*
X105657137Y-81979685D01*
X105466603Y-82027074D01*
X105228508Y-82026786D01*
X105038090Y-81978937D01*
X104942909Y-81931203D01*
X104895348Y-81883527D01*
X104847844Y-81788231D01*
X105849683Y-80265630D02*
X105183016Y-80264825D01*
X105278254Y-80264940D02*
X105230693Y-80217264D01*
X105183189Y-80121968D01*
X105183361Y-79979111D01*
X105231095Y-79883931D01*
X105326391Y-79836427D01*
X105850200Y-79837059D01*
X105326391Y-79836427D02*
X105231210Y-79788693D01*
X105183706Y-79693397D01*
X105183879Y-79550540D01*
X105231613Y-79455360D01*
X105326908Y-79407856D01*
X105850717Y-79408488D01*
X105851292Y-78932298D02*
X105184626Y-78931493D01*
X105279864Y-78931608D02*
X105232303Y-78883931D01*
X105184799Y-78788636D01*
X105184971Y-78645779D01*
X105232705Y-78550598D01*
X105328001Y-78503094D01*
X105851810Y-78503727D01*
X105328001Y-78503094D02*
X105232820Y-78455360D01*
X105185316Y-78360065D01*
X105185488Y-78217208D01*
X105233222Y-78122027D01*
X105328518Y-78074523D01*
X105852327Y-78075156D01*
D11*
X106680002Y-69746378D02*
X106650002Y-94596378D01*
X109680000Y-69750000D02*
X106093582Y-69745670D01*
X109650000Y-94600000D02*
X106063582Y-94595670D01*
X106650002Y-94596378D02*
X106064942Y-93469167D01*
X106650002Y-94596378D02*
X107237782Y-93470583D01*
X106680002Y-69746378D02*
X106092222Y-70872173D01*
X106680002Y-69746378D02*
X107265062Y-70873589D01*
X111735000Y-84672936D02*
X111735000Y-85127064D01*
X113205000Y-84672936D02*
X113205000Y-85127064D01*
X111735000Y-86672936D02*
X111735000Y-87127064D01*
X113205000Y-86672936D02*
X113205000Y-87127064D01*
X118000000Y-84268748D02*
X118000000Y-84791252D01*
X119420000Y-84268748D02*
X119420000Y-84791252D01*
X116170711Y-81110000D02*
G75*
G03*
X116170711Y-81110000I-70711J0D01*
G01*
X116150000Y-75810000D02*
X116150000Y-78460000D01*
X124850000Y-75810000D02*
X116150000Y-75810000D01*
X124850000Y-79210000D02*
X124850000Y-75810000D01*
X116950000Y-79210000D02*
X124850000Y-79210000D01*
X116150000Y-78460000D02*
X116950000Y-79210000D01*
X113790000Y-88220000D02*
G75*
G03*
X113790000Y-88220000I-50000J0D01*
G01*
X113690000Y-86570000D02*
X116940000Y-86570000D01*
X110435000Y-69910000D02*
X110435000Y-69845000D01*
X113965000Y-69910000D02*
X113965000Y-69845000D01*
X110435000Y-73775000D02*
X110435000Y-73710000D01*
X113965000Y-73775000D02*
X113965000Y-73710000D01*
X113965000Y-69845000D02*
X110435000Y-69845000D01*
X113965000Y-73775000D02*
X110435000Y-73775000D01*
X122851252Y-93960000D02*
X122328748Y-93960000D01*
X122851252Y-92540000D02*
X122328748Y-92540000D01*
X111400000Y-79560000D02*
G75*
G03*
X111400000Y-79560000I-50000J0D01*
G01*
X111180000Y-77033748D02*
X111180000Y-77556252D01*
X112600000Y-77033748D02*
X112600000Y-77556252D01*
X113900000Y-77571252D02*
X113900000Y-77048748D01*
X115320000Y-77571252D02*
X115320000Y-77048748D01*
X126000000Y-80130000D02*
X126000000Y-82990000D01*
X126000000Y-82990000D02*
X127920000Y-82990000D01*
X127920000Y-82990000D02*
X127920000Y-80130000D01*
X121688748Y-86390000D02*
X122211252Y-86390000D01*
X121688748Y-84970000D02*
X122211252Y-84970000D01*
X122211252Y-87010000D02*
X121688748Y-87010000D01*
X122211252Y-88430000D02*
X121688748Y-88430000D01*
X121688748Y-82950000D02*
X122211252Y-82950000D01*
X121688748Y-84370000D02*
X122211252Y-84370000D01*
X126250000Y-76928748D02*
X126250000Y-77451252D01*
X127670000Y-76928748D02*
X127670000Y-77451252D01*
X125838748Y-89700000D02*
X126361252Y-89700000D01*
X125838748Y-91120000D02*
X126361252Y-91120000D01*
X127670000Y-84878748D02*
X127670000Y-85401252D01*
X126250000Y-84878748D02*
X126250000Y-85401252D01*
X113972631Y-89520000D02*
X115567369Y-89520000D01*
X113972631Y-93940000D02*
X115567369Y-93940000D01*
X125838748Y-87550000D02*
X126361252Y-87550000D01*
X125838748Y-88970000D02*
X126361252Y-88970000D01*
D10*
X111542380Y-84836666D02*
X111066190Y-85170000D01*
X111542380Y-85408095D02*
X110542380Y-85408095D01*
X110542380Y-85027142D01*
X110590000Y-84931904D01*
X110637619Y-84884285D01*
X110732857Y-84836666D01*
X110875714Y-84836666D01*
X110970952Y-84884285D01*
X111018571Y-84931904D01*
X111066190Y-85027142D01*
X111066190Y-85408095D01*
X111542380Y-84360476D02*
X111542380Y-84170000D01*
X111494761Y-84074761D01*
X111447142Y-84027142D01*
X111304285Y-83931904D01*
X111113809Y-83884285D01*
X110732857Y-83884285D01*
X110637619Y-83931904D01*
X110590000Y-83979523D01*
X110542380Y-84074761D01*
X110542380Y-84265238D01*
X110590000Y-84360476D01*
X110637619Y-84408095D01*
X110732857Y-84455714D01*
X110970952Y-84455714D01*
X111066190Y-84408095D01*
X111113809Y-84360476D01*
X111161428Y-84265238D01*
X111161428Y-84074761D01*
X111113809Y-83979523D01*
X111066190Y-83931904D01*
X110970952Y-83884285D01*
X111532380Y-86986666D02*
X111056190Y-87320000D01*
X111532380Y-87558095D02*
X110532380Y-87558095D01*
X110532380Y-87177142D01*
X110580000Y-87081904D01*
X110627619Y-87034285D01*
X110722857Y-86986666D01*
X110865714Y-86986666D01*
X110960952Y-87034285D01*
X111008571Y-87081904D01*
X111056190Y-87177142D01*
X111056190Y-87558095D01*
X110960952Y-86415238D02*
X110913333Y-86510476D01*
X110865714Y-86558095D01*
X110770476Y-86605714D01*
X110722857Y-86605714D01*
X110627619Y-86558095D01*
X110580000Y-86510476D01*
X110532380Y-86415238D01*
X110532380Y-86224761D01*
X110580000Y-86129523D01*
X110627619Y-86081904D01*
X110722857Y-86034285D01*
X110770476Y-86034285D01*
X110865714Y-86081904D01*
X110913333Y-86129523D01*
X110960952Y-86224761D01*
X110960952Y-86415238D01*
X111008571Y-86510476D01*
X111056190Y-86558095D01*
X111151428Y-86605714D01*
X111341904Y-86605714D01*
X111437142Y-86558095D01*
X111484761Y-86510476D01*
X111532380Y-86415238D01*
X111532380Y-86224761D01*
X111484761Y-86129523D01*
X111437142Y-86081904D01*
X111341904Y-86034285D01*
X111151428Y-86034285D01*
X111056190Y-86081904D01*
X111008571Y-86129523D01*
X110960952Y-86224761D01*
X118573333Y-87602380D02*
X118240000Y-87126190D01*
X118001904Y-87602380D02*
X118001904Y-86602380D01*
X118382857Y-86602380D01*
X118478095Y-86650000D01*
X118525714Y-86697619D01*
X118573333Y-86792857D01*
X118573333Y-86935714D01*
X118525714Y-87030952D01*
X118478095Y-87078571D01*
X118382857Y-87126190D01*
X118001904Y-87126190D01*
X118906666Y-86602380D02*
X119573333Y-86602380D01*
X119144761Y-87602380D01*
X131414761Y-84303333D02*
X131462380Y-84160476D01*
X131462380Y-83922380D01*
X131414761Y-83827142D01*
X131367142Y-83779523D01*
X131271904Y-83731904D01*
X131176666Y-83731904D01*
X131081428Y-83779523D01*
X131033809Y-83827142D01*
X130986190Y-83922380D01*
X130938571Y-84112857D01*
X130890952Y-84208095D01*
X130843333Y-84255714D01*
X130748095Y-84303333D01*
X130652857Y-84303333D01*
X130557619Y-84255714D01*
X130510000Y-84208095D01*
X130462380Y-84112857D01*
X130462380Y-83874761D01*
X130510000Y-83731904D01*
X130462380Y-83398571D02*
X131462380Y-83160476D01*
X130748095Y-82970000D01*
X131462380Y-82779523D01*
X130462380Y-82541428D01*
X131462380Y-81636666D02*
X131462380Y-82208095D01*
X131462380Y-81922380D02*
X130462380Y-81922380D01*
X130605238Y-82017619D01*
X130700476Y-82112857D01*
X130748095Y-82208095D01*
X125122380Y-78296904D02*
X125931904Y-78296904D01*
X126027142Y-78249285D01*
X126074761Y-78201666D01*
X126122380Y-78106428D01*
X126122380Y-77915952D01*
X126074761Y-77820714D01*
X126027142Y-77773095D01*
X125931904Y-77725476D01*
X125122380Y-77725476D01*
X125122380Y-77344523D02*
X125122380Y-76725476D01*
X125503333Y-77058809D01*
X125503333Y-76915952D01*
X125550952Y-76820714D01*
X125598571Y-76773095D01*
X125693809Y-76725476D01*
X125931904Y-76725476D01*
X126027142Y-76773095D01*
X126074761Y-76820714D01*
X126122380Y-76915952D01*
X126122380Y-77201666D01*
X126074761Y-77296904D01*
X126027142Y-77344523D01*
X113988095Y-88572380D02*
X113988095Y-89381904D01*
X114035714Y-89477142D01*
X114083333Y-89524761D01*
X114178571Y-89572380D01*
X114369047Y-89572380D01*
X114464285Y-89524761D01*
X114511904Y-89477142D01*
X114559523Y-89381904D01*
X114559523Y-88572380D01*
X115559523Y-89572380D02*
X114988095Y-89572380D01*
X115273809Y-89572380D02*
X115273809Y-88572380D01*
X115178571Y-88715238D01*
X115083333Y-88810476D01*
X114988095Y-88858095D01*
X125236666Y-71952380D02*
X125236666Y-72666666D01*
X125189047Y-72809523D01*
X125093809Y-72904761D01*
X124950952Y-72952380D01*
X124855714Y-72952380D01*
X126236666Y-72952380D02*
X125665238Y-72952380D01*
X125950952Y-72952380D02*
X125950952Y-71952380D01*
X125855714Y-72095238D01*
X125760476Y-72190476D01*
X125665238Y-72238095D01*
X126204761Y-71330952D02*
X126109523Y-71283333D01*
X126061904Y-71235714D01*
X126014285Y-71140476D01*
X126014285Y-71092857D01*
X126061904Y-70997619D01*
X126109523Y-70950000D01*
X126204761Y-70902380D01*
X126395238Y-70902380D01*
X126490476Y-70950000D01*
X126538095Y-70997619D01*
X126585714Y-71092857D01*
X126585714Y-71140476D01*
X126538095Y-71235714D01*
X126490476Y-71283333D01*
X126395238Y-71330952D01*
X126204761Y-71330952D01*
X126109523Y-71378571D01*
X126061904Y-71426190D01*
X126014285Y-71521428D01*
X126014285Y-71711904D01*
X126061904Y-71807142D01*
X126109523Y-71854761D01*
X126204761Y-71902380D01*
X126395238Y-71902380D01*
X126490476Y-71854761D01*
X126538095Y-71807142D01*
X126585714Y-71711904D01*
X126585714Y-71521428D01*
X126538095Y-71426190D01*
X126490476Y-71378571D01*
X126395238Y-71330952D01*
X115515714Y-70942380D02*
X114944285Y-70942380D01*
X115230000Y-70942380D02*
X115230000Y-69942380D01*
X115134761Y-70085238D01*
X115039523Y-70180476D01*
X114944285Y-70228095D01*
X115505714Y-70942380D02*
X114934285Y-70942380D01*
X115220000Y-70942380D02*
X115220000Y-69942380D01*
X115124761Y-70085238D01*
X115029523Y-70180476D01*
X114934285Y-70228095D01*
X123856666Y-68467380D02*
X123523333Y-67991190D01*
X123285238Y-68467380D02*
X123285238Y-67467380D01*
X123666190Y-67467380D01*
X123761428Y-67515000D01*
X123809047Y-67562619D01*
X123856666Y-67657857D01*
X123856666Y-67800714D01*
X123809047Y-67895952D01*
X123761428Y-67943571D01*
X123666190Y-67991190D01*
X123285238Y-67991190D01*
X124285238Y-67943571D02*
X124618571Y-67943571D01*
X124761428Y-68467380D02*
X124285238Y-68467380D01*
X124285238Y-67467380D01*
X124761428Y-67467380D01*
X125523333Y-67943571D02*
X125190000Y-67943571D01*
X125190000Y-68467380D02*
X125190000Y-67467380D01*
X125666190Y-67467380D01*
X126190000Y-67467380D02*
X126190000Y-67705476D01*
X125951904Y-67610238D02*
X126190000Y-67705476D01*
X126428095Y-67610238D01*
X126047142Y-67895952D02*
X126190000Y-67705476D01*
X126332857Y-67895952D01*
X126951904Y-67467380D02*
X126951904Y-67705476D01*
X126713809Y-67610238D02*
X126951904Y-67705476D01*
X127190000Y-67610238D01*
X126809047Y-67895952D02*
X126951904Y-67705476D01*
X127094761Y-67895952D01*
X122586666Y-68467380D02*
X122253333Y-67991190D01*
X122015238Y-68467380D02*
X122015238Y-67467380D01*
X122396190Y-67467380D01*
X122491428Y-67515000D01*
X122539047Y-67562619D01*
X122586666Y-67657857D01*
X122586666Y-67800714D01*
X122539047Y-67895952D01*
X122491428Y-67943571D01*
X122396190Y-67991190D01*
X122015238Y-67991190D01*
X123015238Y-67943571D02*
X123348571Y-67943571D01*
X123491428Y-68467380D02*
X123015238Y-68467380D01*
X123015238Y-67467380D01*
X123491428Y-67467380D01*
X124253333Y-67943571D02*
X123920000Y-67943571D01*
X123920000Y-68467380D02*
X123920000Y-67467380D01*
X124396190Y-67467380D01*
X124920000Y-67467380D02*
X124920000Y-67705476D01*
X124681904Y-67610238D02*
X124920000Y-67705476D01*
X125158095Y-67610238D01*
X124777142Y-67895952D02*
X124920000Y-67705476D01*
X125062857Y-67895952D01*
X125681904Y-67467380D02*
X125681904Y-67705476D01*
X125443809Y-67610238D02*
X125681904Y-67705476D01*
X125920000Y-67610238D01*
X125539047Y-67895952D02*
X125681904Y-67705476D01*
X125824761Y-67895952D01*
X121316666Y-68467380D02*
X120983333Y-67991190D01*
X120745238Y-68467380D02*
X120745238Y-67467380D01*
X121126190Y-67467380D01*
X121221428Y-67515000D01*
X121269047Y-67562619D01*
X121316666Y-67657857D01*
X121316666Y-67800714D01*
X121269047Y-67895952D01*
X121221428Y-67943571D01*
X121126190Y-67991190D01*
X120745238Y-67991190D01*
X121745238Y-67943571D02*
X122078571Y-67943571D01*
X122221428Y-68467380D02*
X121745238Y-68467380D01*
X121745238Y-67467380D01*
X122221428Y-67467380D01*
X122983333Y-67943571D02*
X122650000Y-67943571D01*
X122650000Y-68467380D02*
X122650000Y-67467380D01*
X123126190Y-67467380D01*
X123650000Y-67467380D02*
X123650000Y-67705476D01*
X123411904Y-67610238D02*
X123650000Y-67705476D01*
X123888095Y-67610238D01*
X123507142Y-67895952D02*
X123650000Y-67705476D01*
X123792857Y-67895952D01*
X124411904Y-67467380D02*
X124411904Y-67705476D01*
X124173809Y-67610238D02*
X124411904Y-67705476D01*
X124650000Y-67610238D01*
X124269047Y-67895952D02*
X124411904Y-67705476D01*
X124554761Y-67895952D01*
X120046666Y-68467380D02*
X119713333Y-67991190D01*
X119475238Y-68467380D02*
X119475238Y-67467380D01*
X119856190Y-67467380D01*
X119951428Y-67515000D01*
X119999047Y-67562619D01*
X120046666Y-67657857D01*
X120046666Y-67800714D01*
X119999047Y-67895952D01*
X119951428Y-67943571D01*
X119856190Y-67991190D01*
X119475238Y-67991190D01*
X120475238Y-67943571D02*
X120808571Y-67943571D01*
X120951428Y-68467380D02*
X120475238Y-68467380D01*
X120475238Y-67467380D01*
X120951428Y-67467380D01*
X121713333Y-67943571D02*
X121380000Y-67943571D01*
X121380000Y-68467380D02*
X121380000Y-67467380D01*
X121856190Y-67467380D01*
X122380000Y-67467380D02*
X122380000Y-67705476D01*
X122141904Y-67610238D02*
X122380000Y-67705476D01*
X122618095Y-67610238D01*
X122237142Y-67895952D02*
X122380000Y-67705476D01*
X122522857Y-67895952D01*
X123141904Y-67467380D02*
X123141904Y-67705476D01*
X122903809Y-67610238D02*
X123141904Y-67705476D01*
X123380000Y-67610238D01*
X122999047Y-67895952D02*
X123141904Y-67705476D01*
X123284761Y-67895952D01*
X118776666Y-68467380D02*
X118443333Y-67991190D01*
X118205238Y-68467380D02*
X118205238Y-67467380D01*
X118586190Y-67467380D01*
X118681428Y-67515000D01*
X118729047Y-67562619D01*
X118776666Y-67657857D01*
X118776666Y-67800714D01*
X118729047Y-67895952D01*
X118681428Y-67943571D01*
X118586190Y-67991190D01*
X118205238Y-67991190D01*
X119205238Y-67943571D02*
X119538571Y-67943571D01*
X119681428Y-68467380D02*
X119205238Y-68467380D01*
X119205238Y-67467380D01*
X119681428Y-67467380D01*
X120443333Y-67943571D02*
X120110000Y-67943571D01*
X120110000Y-68467380D02*
X120110000Y-67467380D01*
X120586190Y-67467380D01*
X121110000Y-67467380D02*
X121110000Y-67705476D01*
X120871904Y-67610238D02*
X121110000Y-67705476D01*
X121348095Y-67610238D01*
X120967142Y-67895952D02*
X121110000Y-67705476D01*
X121252857Y-67895952D01*
X121871904Y-67467380D02*
X121871904Y-67705476D01*
X121633809Y-67610238D02*
X121871904Y-67705476D01*
X122110000Y-67610238D01*
X121729047Y-67895952D02*
X121871904Y-67705476D01*
X122014761Y-67895952D01*
X117506666Y-68467380D02*
X117173333Y-67991190D01*
X116935238Y-68467380D02*
X116935238Y-67467380D01*
X117316190Y-67467380D01*
X117411428Y-67515000D01*
X117459047Y-67562619D01*
X117506666Y-67657857D01*
X117506666Y-67800714D01*
X117459047Y-67895952D01*
X117411428Y-67943571D01*
X117316190Y-67991190D01*
X116935238Y-67991190D01*
X117935238Y-67943571D02*
X118268571Y-67943571D01*
X118411428Y-68467380D02*
X117935238Y-68467380D01*
X117935238Y-67467380D01*
X118411428Y-67467380D01*
X119173333Y-67943571D02*
X118840000Y-67943571D01*
X118840000Y-68467380D02*
X118840000Y-67467380D01*
X119316190Y-67467380D01*
X119840000Y-67467380D02*
X119840000Y-67705476D01*
X119601904Y-67610238D02*
X119840000Y-67705476D01*
X120078095Y-67610238D01*
X119697142Y-67895952D02*
X119840000Y-67705476D01*
X119982857Y-67895952D01*
X120601904Y-67467380D02*
X120601904Y-67705476D01*
X120363809Y-67610238D02*
X120601904Y-67705476D01*
X120840000Y-67610238D01*
X120459047Y-67895952D02*
X120601904Y-67705476D01*
X120744761Y-67895952D01*
X116236666Y-68467380D02*
X115903333Y-67991190D01*
X115665238Y-68467380D02*
X115665238Y-67467380D01*
X116046190Y-67467380D01*
X116141428Y-67515000D01*
X116189047Y-67562619D01*
X116236666Y-67657857D01*
X116236666Y-67800714D01*
X116189047Y-67895952D01*
X116141428Y-67943571D01*
X116046190Y-67991190D01*
X115665238Y-67991190D01*
X116665238Y-67943571D02*
X116998571Y-67943571D01*
X117141428Y-68467380D02*
X116665238Y-68467380D01*
X116665238Y-67467380D01*
X117141428Y-67467380D01*
X117903333Y-67943571D02*
X117570000Y-67943571D01*
X117570000Y-68467380D02*
X117570000Y-67467380D01*
X118046190Y-67467380D01*
X118570000Y-67467380D02*
X118570000Y-67705476D01*
X118331904Y-67610238D02*
X118570000Y-67705476D01*
X118808095Y-67610238D01*
X118427142Y-67895952D02*
X118570000Y-67705476D01*
X118712857Y-67895952D01*
X119331904Y-67467380D02*
X119331904Y-67705476D01*
X119093809Y-67610238D02*
X119331904Y-67705476D01*
X119570000Y-67610238D01*
X119189047Y-67895952D02*
X119331904Y-67705476D01*
X119474761Y-67895952D01*
X114966666Y-68467380D02*
X114633333Y-67991190D01*
X114395238Y-68467380D02*
X114395238Y-67467380D01*
X114776190Y-67467380D01*
X114871428Y-67515000D01*
X114919047Y-67562619D01*
X114966666Y-67657857D01*
X114966666Y-67800714D01*
X114919047Y-67895952D01*
X114871428Y-67943571D01*
X114776190Y-67991190D01*
X114395238Y-67991190D01*
X115395238Y-67943571D02*
X115728571Y-67943571D01*
X115871428Y-68467380D02*
X115395238Y-68467380D01*
X115395238Y-67467380D01*
X115871428Y-67467380D01*
X116633333Y-67943571D02*
X116300000Y-67943571D01*
X116300000Y-68467380D02*
X116300000Y-67467380D01*
X116776190Y-67467380D01*
X117300000Y-67467380D02*
X117300000Y-67705476D01*
X117061904Y-67610238D02*
X117300000Y-67705476D01*
X117538095Y-67610238D01*
X117157142Y-67895952D02*
X117300000Y-67705476D01*
X117442857Y-67895952D01*
X118061904Y-67467380D02*
X118061904Y-67705476D01*
X117823809Y-67610238D02*
X118061904Y-67705476D01*
X118300000Y-67610238D01*
X117919047Y-67895952D02*
X118061904Y-67705476D01*
X118204761Y-67895952D01*
X114366666Y-71762380D02*
X114366666Y-72476666D01*
X114319047Y-72619523D01*
X114223809Y-72714761D01*
X114080952Y-72762380D01*
X113985714Y-72762380D01*
X114795238Y-71857619D02*
X114842857Y-71810000D01*
X114938095Y-71762380D01*
X115176190Y-71762380D01*
X115271428Y-71810000D01*
X115319047Y-71857619D01*
X115366666Y-71952857D01*
X115366666Y-72048095D01*
X115319047Y-72190952D01*
X114747619Y-72762380D01*
X115366666Y-72762380D01*
X124996666Y-92692380D02*
X124996666Y-93406666D01*
X124949047Y-93549523D01*
X124853809Y-93644761D01*
X124710952Y-93692380D01*
X124615714Y-93692380D01*
X125377619Y-92692380D02*
X125996666Y-92692380D01*
X125663333Y-93073333D01*
X125806190Y-93073333D01*
X125901428Y-93120952D01*
X125949047Y-93168571D01*
X125996666Y-93263809D01*
X125996666Y-93501904D01*
X125949047Y-93597142D01*
X125901428Y-93644761D01*
X125806190Y-93692380D01*
X125520476Y-93692380D01*
X125425238Y-93644761D01*
X125377619Y-93597142D01*
X115858095Y-81972380D02*
X115858095Y-82781904D01*
X115905714Y-82877142D01*
X115953333Y-82924761D01*
X116048571Y-82972380D01*
X116239047Y-82972380D01*
X116334285Y-82924761D01*
X116381904Y-82877142D01*
X116429523Y-82781904D01*
X116429523Y-81972380D01*
X116858095Y-82067619D02*
X116905714Y-82020000D01*
X117000952Y-81972380D01*
X117239047Y-81972380D01*
X117334285Y-82020000D01*
X117381904Y-82067619D01*
X117429523Y-82162857D01*
X117429523Y-82258095D01*
X117381904Y-82400952D01*
X116810476Y-82972380D01*
X117429523Y-82972380D01*
X111543333Y-75127142D02*
X111495714Y-75174761D01*
X111352857Y-75222380D01*
X111257619Y-75222380D01*
X111114761Y-75174761D01*
X111019523Y-75079523D01*
X110971904Y-74984285D01*
X110924285Y-74793809D01*
X110924285Y-74650952D01*
X110971904Y-74460476D01*
X111019523Y-74365238D01*
X111114761Y-74270000D01*
X111257619Y-74222380D01*
X111352857Y-74222380D01*
X111495714Y-74270000D01*
X111543333Y-74317619D01*
X111924285Y-74317619D02*
X111971904Y-74270000D01*
X112067142Y-74222380D01*
X112305238Y-74222380D01*
X112400476Y-74270000D01*
X112448095Y-74317619D01*
X112495714Y-74412857D01*
X112495714Y-74508095D01*
X112448095Y-74650952D01*
X111876666Y-75222380D01*
X112495714Y-75222380D01*
X114503333Y-75167142D02*
X114455714Y-75214761D01*
X114312857Y-75262380D01*
X114217619Y-75262380D01*
X114074761Y-75214761D01*
X113979523Y-75119523D01*
X113931904Y-75024285D01*
X113884285Y-74833809D01*
X113884285Y-74690952D01*
X113931904Y-74500476D01*
X113979523Y-74405238D01*
X114074761Y-74310000D01*
X114217619Y-74262380D01*
X114312857Y-74262380D01*
X114455714Y-74310000D01*
X114503333Y-74357619D01*
X114836666Y-74262380D02*
X115455714Y-74262380D01*
X115122380Y-74643333D01*
X115265238Y-74643333D01*
X115360476Y-74690952D01*
X115408095Y-74738571D01*
X115455714Y-74833809D01*
X115455714Y-75071904D01*
X115408095Y-75167142D01*
X115360476Y-75214761D01*
X115265238Y-75262380D01*
X114979523Y-75262380D01*
X114884285Y-75214761D01*
X114836666Y-75167142D01*
X129112380Y-81798095D02*
X128112380Y-81798095D01*
X128112380Y-81560000D01*
X128160000Y-81417142D01*
X128255238Y-81321904D01*
X128350476Y-81274285D01*
X128540952Y-81226666D01*
X128683809Y-81226666D01*
X128874285Y-81274285D01*
X128969523Y-81321904D01*
X129064761Y-81417142D01*
X129112380Y-81560000D01*
X129112380Y-81798095D01*
X129112380Y-80274285D02*
X129112380Y-80845714D01*
X129112380Y-80560000D02*
X128112380Y-80560000D01*
X128255238Y-80655238D01*
X128350476Y-80750476D01*
X128398095Y-80845714D01*
X124563333Y-86082380D02*
X124230000Y-85606190D01*
X123991904Y-86082380D02*
X123991904Y-85082380D01*
X124372857Y-85082380D01*
X124468095Y-85130000D01*
X124515714Y-85177619D01*
X124563333Y-85272857D01*
X124563333Y-85415714D01*
X124515714Y-85510952D01*
X124468095Y-85558571D01*
X124372857Y-85606190D01*
X123991904Y-85606190D01*
X125515714Y-86082380D02*
X124944285Y-86082380D01*
X125230000Y-86082380D02*
X125230000Y-85082380D01*
X125134761Y-85225238D01*
X125039523Y-85320476D01*
X124944285Y-85368095D01*
X121823333Y-89912380D02*
X121490000Y-89436190D01*
X121251904Y-89912380D02*
X121251904Y-88912380D01*
X121632857Y-88912380D01*
X121728095Y-88960000D01*
X121775714Y-89007619D01*
X121823333Y-89102857D01*
X121823333Y-89245714D01*
X121775714Y-89340952D01*
X121728095Y-89388571D01*
X121632857Y-89436190D01*
X121251904Y-89436190D01*
X122204285Y-89007619D02*
X122251904Y-88960000D01*
X122347142Y-88912380D01*
X122585238Y-88912380D01*
X122680476Y-88960000D01*
X122728095Y-89007619D01*
X122775714Y-89102857D01*
X122775714Y-89198095D01*
X122728095Y-89340952D01*
X122156666Y-89912380D01*
X122775714Y-89912380D01*
X124503333Y-84092380D02*
X124170000Y-83616190D01*
X123931904Y-84092380D02*
X123931904Y-83092380D01*
X124312857Y-83092380D01*
X124408095Y-83140000D01*
X124455714Y-83187619D01*
X124503333Y-83282857D01*
X124503333Y-83425714D01*
X124455714Y-83520952D01*
X124408095Y-83568571D01*
X124312857Y-83616190D01*
X123931904Y-83616190D01*
X124836666Y-83092380D02*
X125455714Y-83092380D01*
X125122380Y-83473333D01*
X125265238Y-83473333D01*
X125360476Y-83520952D01*
X125408095Y-83568571D01*
X125455714Y-83663809D01*
X125455714Y-83901904D01*
X125408095Y-83997142D01*
X125360476Y-84044761D01*
X125265238Y-84092380D01*
X124979523Y-84092380D01*
X124884285Y-84044761D01*
X124836666Y-83997142D01*
X129062380Y-77356666D02*
X128586190Y-77690000D01*
X129062380Y-77928095D02*
X128062380Y-77928095D01*
X128062380Y-77547142D01*
X128110000Y-77451904D01*
X128157619Y-77404285D01*
X128252857Y-77356666D01*
X128395714Y-77356666D01*
X128490952Y-77404285D01*
X128538571Y-77451904D01*
X128586190Y-77547142D01*
X128586190Y-77928095D01*
X128395714Y-76499523D02*
X129062380Y-76499523D01*
X128014761Y-76737619D02*
X128729047Y-76975714D01*
X128729047Y-76356666D01*
X128813333Y-90942380D02*
X128480000Y-90466190D01*
X128241904Y-90942380D02*
X128241904Y-89942380D01*
X128622857Y-89942380D01*
X128718095Y-89990000D01*
X128765714Y-90037619D01*
X128813333Y-90132857D01*
X128813333Y-90275714D01*
X128765714Y-90370952D01*
X128718095Y-90418571D01*
X128622857Y-90466190D01*
X128241904Y-90466190D01*
X129718095Y-89942380D02*
X129241904Y-89942380D01*
X129194285Y-90418571D01*
X129241904Y-90370952D01*
X129337142Y-90323333D01*
X129575238Y-90323333D01*
X129670476Y-90370952D01*
X129718095Y-90418571D01*
X129765714Y-90513809D01*
X129765714Y-90751904D01*
X129718095Y-90847142D01*
X129670476Y-90894761D01*
X129575238Y-90942380D01*
X129337142Y-90942380D01*
X129241904Y-90894761D01*
X129194285Y-90847142D01*
X129062380Y-85306666D02*
X128586190Y-85640000D01*
X129062380Y-85878095D02*
X128062380Y-85878095D01*
X128062380Y-85497142D01*
X128110000Y-85401904D01*
X128157619Y-85354285D01*
X128252857Y-85306666D01*
X128395714Y-85306666D01*
X128490952Y-85354285D01*
X128538571Y-85401904D01*
X128586190Y-85497142D01*
X128586190Y-85878095D01*
X128062380Y-84449523D02*
X128062380Y-84640000D01*
X128110000Y-84735238D01*
X128157619Y-84782857D01*
X128300476Y-84878095D01*
X128490952Y-84925714D01*
X128871904Y-84925714D01*
X128967142Y-84878095D01*
X129014761Y-84830476D01*
X129062380Y-84735238D01*
X129062380Y-84544761D01*
X129014761Y-84449523D01*
X128967142Y-84401904D01*
X128871904Y-84354285D01*
X128633809Y-84354285D01*
X128538571Y-84401904D01*
X128490952Y-84449523D01*
X128443333Y-84544761D01*
X128443333Y-84735238D01*
X128490952Y-84830476D01*
X128538571Y-84878095D01*
X128633809Y-84925714D01*
X118363333Y-88957142D02*
X118315714Y-89004761D01*
X118172857Y-89052380D01*
X118077619Y-89052380D01*
X117934761Y-89004761D01*
X117839523Y-88909523D01*
X117791904Y-88814285D01*
X117744285Y-88623809D01*
X117744285Y-88480952D01*
X117791904Y-88290476D01*
X117839523Y-88195238D01*
X117934761Y-88100000D01*
X118077619Y-88052380D01*
X118172857Y-88052380D01*
X118315714Y-88100000D01*
X118363333Y-88147619D01*
X119315714Y-89052380D02*
X118744285Y-89052380D01*
X119030000Y-89052380D02*
X119030000Y-88052380D01*
X118934761Y-88195238D01*
X118839523Y-88290476D01*
X118744285Y-88338095D01*
X128933333Y-88627142D02*
X128885714Y-88674761D01*
X128742857Y-88722380D01*
X128647619Y-88722380D01*
X128504761Y-88674761D01*
X128409523Y-88579523D01*
X128361904Y-88484285D01*
X128314285Y-88293809D01*
X128314285Y-88150952D01*
X128361904Y-87960476D01*
X128409523Y-87865238D01*
X128504761Y-87770000D01*
X128647619Y-87722380D01*
X128742857Y-87722380D01*
X128885714Y-87770000D01*
X128933333Y-87817619D01*
X129790476Y-88055714D02*
X129790476Y-88722380D01*
X129552380Y-87674761D02*
X129314285Y-88389047D01*
X129933333Y-88389047D01*
M02*
