G04 #@! TF.GenerationSoftware,KiCad,Pcbnew,5.1.7*
G04 #@! TF.CreationDate,2020-10-17T14:52:52-07:00*
G04 #@! TF.ProjectId,lofi,6c6f6669-2e6b-4696-9361-645f70636258,rev?*
G04 #@! TF.SameCoordinates,Original*
G04 #@! TF.FileFunction,Legend,Bot*
G04 #@! TF.FilePolarity,Positive*
%FSLAX46Y46*%
G04 Gerber Fmt 4.6, Leading zero omitted, Abs format (unit mm)*
G04 Created by KiCad (PCBNEW 5.1.7) date 2020-10-17 14:52:52*
%MOMM*%
%LPD*%
G01*
G04 APERTURE LIST*
%ADD10C,0.150000*%
G04 APERTURE END LIST*
D10*
X129557142Y-92637380D02*
X129652380Y-92589761D01*
X129700000Y-92494523D01*
X129700000Y-91637380D01*
X129033333Y-92637380D02*
X129128571Y-92589761D01*
X129176190Y-92542142D01*
X129223809Y-92446904D01*
X129223809Y-92161190D01*
X129176190Y-92065952D01*
X129128571Y-92018333D01*
X129033333Y-91970714D01*
X128890476Y-91970714D01*
X128795238Y-92018333D01*
X128747619Y-92065952D01*
X128700000Y-92161190D01*
X128700000Y-92446904D01*
X128747619Y-92542142D01*
X128795238Y-92589761D01*
X128890476Y-92637380D01*
X129033333Y-92637380D01*
X128414285Y-91970714D02*
X128033333Y-91970714D01*
X128271428Y-92637380D02*
X128271428Y-91780238D01*
X128223809Y-91685000D01*
X128128571Y-91637380D01*
X128033333Y-91637380D01*
X127700000Y-92637380D02*
X127700000Y-91970714D01*
X127700000Y-91637380D02*
X127747619Y-91685000D01*
X127700000Y-91732619D01*
X127652380Y-91685000D01*
X127700000Y-91637380D01*
X127700000Y-91732619D01*
X131247619Y-93620714D02*
X131009523Y-94287380D01*
X130771428Y-93620714D01*
X130009523Y-94239761D02*
X130104761Y-94287380D01*
X130295238Y-94287380D01*
X130390476Y-94239761D01*
X130438095Y-94144523D01*
X130438095Y-93763571D01*
X130390476Y-93668333D01*
X130295238Y-93620714D01*
X130104761Y-93620714D01*
X130009523Y-93668333D01*
X129961904Y-93763571D01*
X129961904Y-93858809D01*
X130438095Y-93954047D01*
X129533333Y-94287380D02*
X129533333Y-93620714D01*
X129533333Y-93811190D02*
X129485714Y-93715952D01*
X129438095Y-93668333D01*
X129342857Y-93620714D01*
X129247619Y-93620714D01*
X127961904Y-93287380D02*
X127866666Y-93287380D01*
X127771428Y-93335000D01*
X127723809Y-93382619D01*
X127676190Y-93477857D01*
X127628571Y-93668333D01*
X127628571Y-93906428D01*
X127676190Y-94096904D01*
X127723809Y-94192142D01*
X127771428Y-94239761D01*
X127866666Y-94287380D01*
X127961904Y-94287380D01*
X128057142Y-94239761D01*
X128104761Y-94192142D01*
X128152380Y-94096904D01*
X128200000Y-93906428D01*
X128200000Y-93668333D01*
X128152380Y-93477857D01*
X128104761Y-93382619D01*
X128057142Y-93335000D01*
X127961904Y-93287380D01*
X127200000Y-94192142D02*
X127152380Y-94239761D01*
X127200000Y-94287380D01*
X127247619Y-94239761D01*
X127200000Y-94192142D01*
X127200000Y-94287380D01*
X126295238Y-93620714D02*
X126295238Y-94287380D01*
X126533333Y-93239761D02*
X126771428Y-93954047D01*
X126152380Y-93954047D01*
M02*
