G04 #@! TF.GenerationSoftware,KiCad,Pcbnew,5.1.7*
G04 #@! TF.CreationDate,2020-10-17T14:52:52-07:00*
G04 #@! TF.ProjectId,lofi,6c6f6669-2e6b-4696-9361-645f70636258,rev?*
G04 #@! TF.SameCoordinates,Original*
G04 #@! TF.FileFunction,Soldermask,Top*
G04 #@! TF.FilePolarity,Negative*
%FSLAX46Y46*%
G04 Gerber Fmt 4.6, Leading zero omitted, Abs format (unit mm)*
G04 Created by KiCad (PCBNEW 5.1.7) date 2020-10-17 14:52:52*
%MOMM*%
%LPD*%
G01*
G04 APERTURE LIST*
%ADD10C,0.100000*%
G04 APERTURE END LIST*
G36*
G01*
X111990248Y-85249000D02*
X112949752Y-85249000D01*
G75*
G02*
X113221000Y-85520248I0J-271248D01*
G01*
X113221000Y-86279752D01*
G75*
G02*
X112949752Y-86551000I-271248J0D01*
G01*
X111990248Y-86551000D01*
G75*
G02*
X111719000Y-86279752I0J271248D01*
G01*
X111719000Y-85520248D01*
G75*
G02*
X111990248Y-85249000I271248J0D01*
G01*
G37*
G36*
G01*
X111990248Y-83249000D02*
X112949752Y-83249000D01*
G75*
G02*
X113221000Y-83520248I0J-271248D01*
G01*
X113221000Y-84279752D01*
G75*
G02*
X112949752Y-84551000I-271248J0D01*
G01*
X111990248Y-84551000D01*
G75*
G02*
X111719000Y-84279752I0J271248D01*
G01*
X111719000Y-83520248D01*
G75*
G02*
X111990248Y-83249000I271248J0D01*
G01*
G37*
G36*
G01*
X111990248Y-87249000D02*
X112949752Y-87249000D01*
G75*
G02*
X113221000Y-87520248I0J-271248D01*
G01*
X113221000Y-88279752D01*
G75*
G02*
X112949752Y-88551000I-271248J0D01*
G01*
X111990248Y-88551000D01*
G75*
G02*
X111719000Y-88279752I0J271248D01*
G01*
X111719000Y-87520248D01*
G75*
G02*
X111990248Y-87249000I271248J0D01*
G01*
G37*
G36*
G01*
X111990248Y-85249000D02*
X112949752Y-85249000D01*
G75*
G02*
X113221000Y-85520248I0J-271248D01*
G01*
X113221000Y-86279752D01*
G75*
G02*
X112949752Y-86551000I-271248J0D01*
G01*
X111990248Y-86551000D01*
G75*
G02*
X111719000Y-86279752I0J271248D01*
G01*
X111719000Y-85520248D01*
G75*
G02*
X111990248Y-85249000I271248J0D01*
G01*
G37*
G36*
G01*
X118231172Y-84929000D02*
X119188828Y-84929000D01*
G75*
G02*
X119461000Y-85201172I0J-272172D01*
G01*
X119461000Y-85908828D01*
G75*
G02*
X119188828Y-86181000I-272172J0D01*
G01*
X118231172Y-86181000D01*
G75*
G02*
X117959000Y-85908828I0J272172D01*
G01*
X117959000Y-85201172D01*
G75*
G02*
X118231172Y-84929000I272172J0D01*
G01*
G37*
G36*
G01*
X118231172Y-82879000D02*
X119188828Y-82879000D01*
G75*
G02*
X119461000Y-83151172I0J-272172D01*
G01*
X119461000Y-83858828D01*
G75*
G02*
X119188828Y-84131000I-272172J0D01*
G01*
X118231172Y-84131000D01*
G75*
G02*
X117959000Y-83858828I0J272172D01*
G01*
X117959000Y-83151172D01*
G75*
G02*
X118231172Y-82879000I272172J0D01*
G01*
G37*
G36*
G01*
X128660000Y-70069000D02*
X132060000Y-70069000D01*
G75*
G02*
X132111000Y-70120000I0J-51000D01*
G01*
X132111000Y-71120000D01*
G75*
G02*
X132060000Y-71171000I-51000J0D01*
G01*
X128660000Y-71171000D01*
G75*
G02*
X128609000Y-71120000I0J51000D01*
G01*
X128609000Y-70120000D01*
G75*
G02*
X128660000Y-70069000I51000J0D01*
G01*
G37*
G36*
G01*
X130560000Y-71469000D02*
X132060000Y-71469000D01*
G75*
G02*
X132111000Y-71520000I0J-51000D01*
G01*
X132111000Y-74520000D01*
G75*
G02*
X132060000Y-74571000I-51000J0D01*
G01*
X130560000Y-74571000D01*
G75*
G02*
X130509000Y-74520000I0J51000D01*
G01*
X130509000Y-71520000D01*
G75*
G02*
X130560000Y-71469000I51000J0D01*
G01*
G37*
G36*
G01*
X130010000Y-91239000D02*
X132010000Y-91239000D01*
G75*
G02*
X132061000Y-91290000I0J-51000D01*
G01*
X132061000Y-94290000D01*
G75*
G02*
X132010000Y-94341000I-51000J0D01*
G01*
X130010000Y-94341000D01*
G75*
G02*
X129959000Y-94290000I0J51000D01*
G01*
X129959000Y-91290000D01*
G75*
G02*
X130010000Y-91239000I51000J0D01*
G01*
G37*
G36*
G01*
X128660000Y-70469000D02*
X130160000Y-70469000D01*
G75*
G02*
X130211000Y-70520000I0J-51000D01*
G01*
X130211000Y-74520000D01*
G75*
G02*
X130160000Y-74571000I-51000J0D01*
G01*
X128660000Y-74571000D01*
G75*
G02*
X128609000Y-74520000I0J51000D01*
G01*
X128609000Y-70520000D01*
G75*
G02*
X128660000Y-70469000I51000J0D01*
G01*
G37*
G36*
G01*
X116990000Y-75661000D02*
X116390000Y-75661000D01*
G75*
G02*
X116339000Y-75610000I0J51000D01*
G01*
X116339000Y-73810000D01*
G75*
G02*
X116390000Y-73759000I51000J0D01*
G01*
X116990000Y-73759000D01*
G75*
G02*
X117041000Y-73810000I0J-51000D01*
G01*
X117041000Y-75610000D01*
G75*
G02*
X116990000Y-75661000I-51000J0D01*
G01*
G37*
G36*
G01*
X118260000Y-75661000D02*
X117660000Y-75661000D01*
G75*
G02*
X117609000Y-75610000I0J51000D01*
G01*
X117609000Y-73810000D01*
G75*
G02*
X117660000Y-73759000I51000J0D01*
G01*
X118260000Y-73759000D01*
G75*
G02*
X118311000Y-73810000I0J-51000D01*
G01*
X118311000Y-75610000D01*
G75*
G02*
X118260000Y-75661000I-51000J0D01*
G01*
G37*
G36*
G01*
X119530000Y-75661000D02*
X118930000Y-75661000D01*
G75*
G02*
X118879000Y-75610000I0J51000D01*
G01*
X118879000Y-73810000D01*
G75*
G02*
X118930000Y-73759000I51000J0D01*
G01*
X119530000Y-73759000D01*
G75*
G02*
X119581000Y-73810000I0J-51000D01*
G01*
X119581000Y-75610000D01*
G75*
G02*
X119530000Y-75661000I-51000J0D01*
G01*
G37*
G36*
G01*
X120800000Y-75661000D02*
X120200000Y-75661000D01*
G75*
G02*
X120149000Y-75610000I0J51000D01*
G01*
X120149000Y-73810000D01*
G75*
G02*
X120200000Y-73759000I51000J0D01*
G01*
X120800000Y-73759000D01*
G75*
G02*
X120851000Y-73810000I0J-51000D01*
G01*
X120851000Y-75610000D01*
G75*
G02*
X120800000Y-75661000I-51000J0D01*
G01*
G37*
G36*
G01*
X122070000Y-75661000D02*
X121470000Y-75661000D01*
G75*
G02*
X121419000Y-75610000I0J51000D01*
G01*
X121419000Y-73810000D01*
G75*
G02*
X121470000Y-73759000I51000J0D01*
G01*
X122070000Y-73759000D01*
G75*
G02*
X122121000Y-73810000I0J-51000D01*
G01*
X122121000Y-75610000D01*
G75*
G02*
X122070000Y-75661000I-51000J0D01*
G01*
G37*
G36*
G01*
X123340000Y-75661000D02*
X122740000Y-75661000D01*
G75*
G02*
X122689000Y-75610000I0J51000D01*
G01*
X122689000Y-73810000D01*
G75*
G02*
X122740000Y-73759000I51000J0D01*
G01*
X123340000Y-73759000D01*
G75*
G02*
X123391000Y-73810000I0J-51000D01*
G01*
X123391000Y-75610000D01*
G75*
G02*
X123340000Y-75661000I-51000J0D01*
G01*
G37*
G36*
G01*
X124610000Y-75661000D02*
X124010000Y-75661000D01*
G75*
G02*
X123959000Y-75610000I0J51000D01*
G01*
X123959000Y-73810000D01*
G75*
G02*
X124010000Y-73759000I51000J0D01*
G01*
X124610000Y-73759000D01*
G75*
G02*
X124661000Y-73810000I0J-51000D01*
G01*
X124661000Y-75610000D01*
G75*
G02*
X124610000Y-75661000I-51000J0D01*
G01*
G37*
G36*
G01*
X124610000Y-81261000D02*
X124010000Y-81261000D01*
G75*
G02*
X123959000Y-81210000I0J51000D01*
G01*
X123959000Y-79410000D01*
G75*
G02*
X124010000Y-79359000I51000J0D01*
G01*
X124610000Y-79359000D01*
G75*
G02*
X124661000Y-79410000I0J-51000D01*
G01*
X124661000Y-81210000D01*
G75*
G02*
X124610000Y-81261000I-51000J0D01*
G01*
G37*
G36*
G01*
X123340000Y-81261000D02*
X122740000Y-81261000D01*
G75*
G02*
X122689000Y-81210000I0J51000D01*
G01*
X122689000Y-79410000D01*
G75*
G02*
X122740000Y-79359000I51000J0D01*
G01*
X123340000Y-79359000D01*
G75*
G02*
X123391000Y-79410000I0J-51000D01*
G01*
X123391000Y-81210000D01*
G75*
G02*
X123340000Y-81261000I-51000J0D01*
G01*
G37*
G36*
G01*
X122070000Y-81261000D02*
X121470000Y-81261000D01*
G75*
G02*
X121419000Y-81210000I0J51000D01*
G01*
X121419000Y-79410000D01*
G75*
G02*
X121470000Y-79359000I51000J0D01*
G01*
X122070000Y-79359000D01*
G75*
G02*
X122121000Y-79410000I0J-51000D01*
G01*
X122121000Y-81210000D01*
G75*
G02*
X122070000Y-81261000I-51000J0D01*
G01*
G37*
G36*
G01*
X120800000Y-81261000D02*
X120200000Y-81261000D01*
G75*
G02*
X120149000Y-81210000I0J51000D01*
G01*
X120149000Y-79410000D01*
G75*
G02*
X120200000Y-79359000I51000J0D01*
G01*
X120800000Y-79359000D01*
G75*
G02*
X120851000Y-79410000I0J-51000D01*
G01*
X120851000Y-81210000D01*
G75*
G02*
X120800000Y-81261000I-51000J0D01*
G01*
G37*
G36*
G01*
X119530000Y-81261000D02*
X118930000Y-81261000D01*
G75*
G02*
X118879000Y-81210000I0J51000D01*
G01*
X118879000Y-79410000D01*
G75*
G02*
X118930000Y-79359000I51000J0D01*
G01*
X119530000Y-79359000D01*
G75*
G02*
X119581000Y-79410000I0J-51000D01*
G01*
X119581000Y-81210000D01*
G75*
G02*
X119530000Y-81261000I-51000J0D01*
G01*
G37*
G36*
G01*
X118260000Y-81261000D02*
X117660000Y-81261000D01*
G75*
G02*
X117609000Y-81210000I0J51000D01*
G01*
X117609000Y-79410000D01*
G75*
G02*
X117660000Y-79359000I51000J0D01*
G01*
X118260000Y-79359000D01*
G75*
G02*
X118311000Y-79410000I0J-51000D01*
G01*
X118311000Y-81210000D01*
G75*
G02*
X118260000Y-81261000I-51000J0D01*
G01*
G37*
G36*
G01*
X116990000Y-81261000D02*
X116390000Y-81261000D01*
G75*
G02*
X116339000Y-81210000I0J51000D01*
G01*
X116339000Y-79410000D01*
G75*
G02*
X116390000Y-79359000I51000J0D01*
G01*
X116990000Y-79359000D01*
G75*
G02*
X117041000Y-79410000I0J-51000D01*
G01*
X117041000Y-81210000D01*
G75*
G02*
X116990000Y-81261000I-51000J0D01*
G01*
G37*
G36*
G01*
X115615001Y-85651000D02*
X114964999Y-85651000D01*
G75*
G02*
X114914000Y-85600001I0J50999D01*
G01*
X114914000Y-84039999D01*
G75*
G02*
X114964999Y-83989000I50999J0D01*
G01*
X115615001Y-83989000D01*
G75*
G02*
X115666000Y-84039999I0J-50999D01*
G01*
X115666000Y-85600001D01*
G75*
G02*
X115615001Y-85651000I-50999J0D01*
G01*
G37*
G36*
G01*
X114665001Y-85651000D02*
X114014999Y-85651000D01*
G75*
G02*
X113964000Y-85600001I0J50999D01*
G01*
X113964000Y-84039999D01*
G75*
G02*
X114014999Y-83989000I50999J0D01*
G01*
X114665001Y-83989000D01*
G75*
G02*
X114716000Y-84039999I0J-50999D01*
G01*
X114716000Y-85600001D01*
G75*
G02*
X114665001Y-85651000I-50999J0D01*
G01*
G37*
G36*
G01*
X116565001Y-85651000D02*
X115914999Y-85651000D01*
G75*
G02*
X115864000Y-85600001I0J50999D01*
G01*
X115864000Y-84039999D01*
G75*
G02*
X115914999Y-83989000I50999J0D01*
G01*
X116565001Y-83989000D01*
G75*
G02*
X116616000Y-84039999I0J-50999D01*
G01*
X116616000Y-85600001D01*
G75*
G02*
X116565001Y-85651000I-50999J0D01*
G01*
G37*
G36*
G01*
X116565001Y-88351000D02*
X115914999Y-88351000D01*
G75*
G02*
X115864000Y-88300001I0J50999D01*
G01*
X115864000Y-86739999D01*
G75*
G02*
X115914999Y-86689000I50999J0D01*
G01*
X116565001Y-86689000D01*
G75*
G02*
X116616000Y-86739999I0J-50999D01*
G01*
X116616000Y-88300001D01*
G75*
G02*
X116565001Y-88351000I-50999J0D01*
G01*
G37*
G36*
G01*
X115615001Y-88351000D02*
X114964999Y-88351000D01*
G75*
G02*
X114914000Y-88300001I0J50999D01*
G01*
X114914000Y-86739999D01*
G75*
G02*
X114964999Y-86689000I50999J0D01*
G01*
X115615001Y-86689000D01*
G75*
G02*
X115666000Y-86739999I0J-50999D01*
G01*
X115666000Y-88300001D01*
G75*
G02*
X115615001Y-88351000I-50999J0D01*
G01*
G37*
G36*
G01*
X114665001Y-88351000D02*
X114014999Y-88351000D01*
G75*
G02*
X113964000Y-88300001I0J50999D01*
G01*
X113964000Y-86739999D01*
G75*
G02*
X114014999Y-86689000I50999J0D01*
G01*
X114665001Y-86689000D01*
G75*
G02*
X114716000Y-86739999I0J-50999D01*
G01*
X114716000Y-88300001D01*
G75*
G02*
X114665001Y-88351000I-50999J0D01*
G01*
G37*
G36*
G01*
X124639000Y-71435000D02*
X124639000Y-69785000D01*
G75*
G02*
X124690000Y-69734000I51000J0D01*
G01*
X125690000Y-69734000D01*
G75*
G02*
X125741000Y-69785000I0J-51000D01*
G01*
X125741000Y-71435000D01*
G75*
G02*
X125690000Y-71486000I-51000J0D01*
G01*
X124690000Y-71486000D01*
G75*
G02*
X124639000Y-71435000I0J51000D01*
G01*
G37*
G36*
G01*
X123369000Y-71435000D02*
X123369000Y-69785000D01*
G75*
G02*
X123420000Y-69734000I51000J0D01*
G01*
X124420000Y-69734000D01*
G75*
G02*
X124471000Y-69785000I0J-51000D01*
G01*
X124471000Y-71435000D01*
G75*
G02*
X124420000Y-71486000I-51000J0D01*
G01*
X123420000Y-71486000D01*
G75*
G02*
X123369000Y-71435000I0J51000D01*
G01*
G37*
G36*
G01*
X122099000Y-71435000D02*
X122099000Y-69785000D01*
G75*
G02*
X122150000Y-69734000I51000J0D01*
G01*
X123150000Y-69734000D01*
G75*
G02*
X123201000Y-69785000I0J-51000D01*
G01*
X123201000Y-71435000D01*
G75*
G02*
X123150000Y-71486000I-51000J0D01*
G01*
X122150000Y-71486000D01*
G75*
G02*
X122099000Y-71435000I0J51000D01*
G01*
G37*
G36*
G01*
X120829000Y-71435000D02*
X120829000Y-69785000D01*
G75*
G02*
X120880000Y-69734000I51000J0D01*
G01*
X121880000Y-69734000D01*
G75*
G02*
X121931000Y-69785000I0J-51000D01*
G01*
X121931000Y-71435000D01*
G75*
G02*
X121880000Y-71486000I-51000J0D01*
G01*
X120880000Y-71486000D01*
G75*
G02*
X120829000Y-71435000I0J51000D01*
G01*
G37*
G36*
G01*
X119559000Y-71435000D02*
X119559000Y-69785000D01*
G75*
G02*
X119610000Y-69734000I51000J0D01*
G01*
X120610000Y-69734000D01*
G75*
G02*
X120661000Y-69785000I0J-51000D01*
G01*
X120661000Y-71435000D01*
G75*
G02*
X120610000Y-71486000I-51000J0D01*
G01*
X119610000Y-71486000D01*
G75*
G02*
X119559000Y-71435000I0J51000D01*
G01*
G37*
G36*
G01*
X118289000Y-71435000D02*
X118289000Y-69785000D01*
G75*
G02*
X118340000Y-69734000I51000J0D01*
G01*
X119340000Y-69734000D01*
G75*
G02*
X119391000Y-69785000I0J-51000D01*
G01*
X119391000Y-71435000D01*
G75*
G02*
X119340000Y-71486000I-51000J0D01*
G01*
X118340000Y-71486000D01*
G75*
G02*
X118289000Y-71435000I0J51000D01*
G01*
G37*
G36*
G01*
X117019000Y-71435000D02*
X117019000Y-69785000D01*
G75*
G02*
X117070000Y-69734000I51000J0D01*
G01*
X118070000Y-69734000D01*
G75*
G02*
X118121000Y-69785000I0J-51000D01*
G01*
X118121000Y-71435000D01*
G75*
G02*
X118070000Y-71486000I-51000J0D01*
G01*
X117070000Y-71486000D01*
G75*
G02*
X117019000Y-71435000I0J51000D01*
G01*
G37*
G36*
G01*
X115749000Y-71435000D02*
X115749000Y-69785000D01*
G75*
G02*
X115800000Y-69734000I51000J0D01*
G01*
X116800000Y-69734000D01*
G75*
G02*
X116851000Y-69785000I0J-51000D01*
G01*
X116851000Y-71435000D01*
G75*
G02*
X116800000Y-71486000I-51000J0D01*
G01*
X115800000Y-71486000D01*
G75*
G02*
X115749000Y-71435000I0J51000D01*
G01*
G37*
G36*
G01*
X124639000Y-70210000D02*
X124639000Y-69210000D01*
G75*
G02*
X124690000Y-69159000I51000J0D01*
G01*
X125690000Y-69159000D01*
G75*
G02*
X125741000Y-69210000I0J-51000D01*
G01*
X125741000Y-70210000D01*
G75*
G02*
X125690000Y-70261000I-51000J0D01*
G01*
X124690000Y-70261000D01*
G75*
G02*
X124639000Y-70210000I0J51000D01*
G01*
G37*
G36*
G01*
X123369000Y-70210000D02*
X123369000Y-69210000D01*
G75*
G02*
X123420000Y-69159000I51000J0D01*
G01*
X124420000Y-69159000D01*
G75*
G02*
X124471000Y-69210000I0J-51000D01*
G01*
X124471000Y-70210000D01*
G75*
G02*
X124420000Y-70261000I-51000J0D01*
G01*
X123420000Y-70261000D01*
G75*
G02*
X123369000Y-70210000I0J51000D01*
G01*
G37*
G36*
G01*
X122099000Y-70210000D02*
X122099000Y-69210000D01*
G75*
G02*
X122150000Y-69159000I51000J0D01*
G01*
X123150000Y-69159000D01*
G75*
G02*
X123201000Y-69210000I0J-51000D01*
G01*
X123201000Y-70210000D01*
G75*
G02*
X123150000Y-70261000I-51000J0D01*
G01*
X122150000Y-70261000D01*
G75*
G02*
X122099000Y-70210000I0J51000D01*
G01*
G37*
G36*
G01*
X120829000Y-70210000D02*
X120829000Y-69210000D01*
G75*
G02*
X120880000Y-69159000I51000J0D01*
G01*
X121880000Y-69159000D01*
G75*
G02*
X121931000Y-69210000I0J-51000D01*
G01*
X121931000Y-70210000D01*
G75*
G02*
X121880000Y-70261000I-51000J0D01*
G01*
X120880000Y-70261000D01*
G75*
G02*
X120829000Y-70210000I0J51000D01*
G01*
G37*
G36*
G01*
X119559000Y-70210000D02*
X119559000Y-69210000D01*
G75*
G02*
X119610000Y-69159000I51000J0D01*
G01*
X120610000Y-69159000D01*
G75*
G02*
X120661000Y-69210000I0J-51000D01*
G01*
X120661000Y-70210000D01*
G75*
G02*
X120610000Y-70261000I-51000J0D01*
G01*
X119610000Y-70261000D01*
G75*
G02*
X119559000Y-70210000I0J51000D01*
G01*
G37*
G36*
G01*
X118289000Y-70210000D02*
X118289000Y-69210000D01*
G75*
G02*
X118340000Y-69159000I51000J0D01*
G01*
X119340000Y-69159000D01*
G75*
G02*
X119391000Y-69210000I0J-51000D01*
G01*
X119391000Y-70210000D01*
G75*
G02*
X119340000Y-70261000I-51000J0D01*
G01*
X118340000Y-70261000D01*
G75*
G02*
X118289000Y-70210000I0J51000D01*
G01*
G37*
G36*
G01*
X117019000Y-70210000D02*
X117019000Y-69210000D01*
G75*
G02*
X117070000Y-69159000I51000J0D01*
G01*
X118070000Y-69159000D01*
G75*
G02*
X118121000Y-69210000I0J-51000D01*
G01*
X118121000Y-70210000D01*
G75*
G02*
X118070000Y-70261000I-51000J0D01*
G01*
X117070000Y-70261000D01*
G75*
G02*
X117019000Y-70210000I0J51000D01*
G01*
G37*
G36*
G01*
X115749000Y-70210000D02*
X115749000Y-69210000D01*
G75*
G02*
X115800000Y-69159000I51000J0D01*
G01*
X116800000Y-69159000D01*
G75*
G02*
X116851000Y-69210000I0J-51000D01*
G01*
X116851000Y-70210000D01*
G75*
G02*
X116800000Y-70261000I-51000J0D01*
G01*
X115800000Y-70261000D01*
G75*
G02*
X115749000Y-70210000I0J51000D01*
G01*
G37*
G36*
G01*
X111751000Y-70314500D02*
X111751000Y-70765500D01*
G75*
G02*
X111525500Y-70991000I-225500J0D01*
G01*
X110874500Y-70991000D01*
G75*
G02*
X110649000Y-70765500I0J225500D01*
G01*
X110649000Y-70314500D01*
G75*
G02*
X110874500Y-70089000I225500J0D01*
G01*
X111525500Y-70089000D01*
G75*
G02*
X111751000Y-70314500I0J-225500D01*
G01*
G37*
G36*
G01*
X113751000Y-70314500D02*
X113751000Y-70765500D01*
G75*
G02*
X113525500Y-70991000I-225500J0D01*
G01*
X112874500Y-70991000D01*
G75*
G02*
X112649000Y-70765500I0J225500D01*
G01*
X112649000Y-70314500D01*
G75*
G02*
X112874500Y-70089000I225500J0D01*
G01*
X113525500Y-70089000D01*
G75*
G02*
X113751000Y-70314500I0J-225500D01*
G01*
G37*
G36*
G01*
X111751000Y-71584500D02*
X111751000Y-72035500D01*
G75*
G02*
X111525500Y-72261000I-225500J0D01*
G01*
X110874500Y-72261000D01*
G75*
G02*
X110649000Y-72035500I0J225500D01*
G01*
X110649000Y-71584500D01*
G75*
G02*
X110874500Y-71359000I225500J0D01*
G01*
X111525500Y-71359000D01*
G75*
G02*
X111751000Y-71584500I0J-225500D01*
G01*
G37*
G36*
G01*
X113751000Y-71584500D02*
X113751000Y-72035500D01*
G75*
G02*
X113525500Y-72261000I-225500J0D01*
G01*
X112874500Y-72261000D01*
G75*
G02*
X112649000Y-72035500I0J225500D01*
G01*
X112649000Y-71584500D01*
G75*
G02*
X112874500Y-71359000I225500J0D01*
G01*
X113525500Y-71359000D01*
G75*
G02*
X113751000Y-71584500I0J-225500D01*
G01*
G37*
G36*
G01*
X111751000Y-72854500D02*
X111751000Y-73305500D01*
G75*
G02*
X111525500Y-73531000I-225500J0D01*
G01*
X110874500Y-73531000D01*
G75*
G02*
X110649000Y-73305500I0J225500D01*
G01*
X110649000Y-72854500D01*
G75*
G02*
X110874500Y-72629000I225500J0D01*
G01*
X111525500Y-72629000D01*
G75*
G02*
X111751000Y-72854500I0J-225500D01*
G01*
G37*
G36*
G01*
X113751000Y-72680000D02*
X113751000Y-73480000D01*
G75*
G02*
X113700000Y-73531000I-51000J0D01*
G01*
X112700000Y-73531000D01*
G75*
G02*
X112649000Y-73480000I0J51000D01*
G01*
X112649000Y-72680000D01*
G75*
G02*
X112700000Y-72629000I51000J0D01*
G01*
X113700000Y-72629000D01*
G75*
G02*
X113751000Y-72680000I0J-51000D01*
G01*
G37*
G36*
G01*
X124241000Y-92771172D02*
X124241000Y-93728828D01*
G75*
G02*
X123968828Y-94001000I-272172J0D01*
G01*
X123261172Y-94001000D01*
G75*
G02*
X122989000Y-93728828I0J272172D01*
G01*
X122989000Y-92771172D01*
G75*
G02*
X123261172Y-92499000I272172J0D01*
G01*
X123968828Y-92499000D01*
G75*
G02*
X124241000Y-92771172I0J-272172D01*
G01*
G37*
G36*
G01*
X122191000Y-92771172D02*
X122191000Y-93728828D01*
G75*
G02*
X121918828Y-94001000I-272172J0D01*
G01*
X121211172Y-94001000D01*
G75*
G02*
X120939000Y-93728828I0J272172D01*
G01*
X120939000Y-92771172D01*
G75*
G02*
X121211172Y-92499000I272172J0D01*
G01*
X121918828Y-92499000D01*
G75*
G02*
X122191000Y-92771172I0J-272172D01*
G01*
G37*
G36*
G01*
X111269000Y-80535001D02*
X111269000Y-79884999D01*
G75*
G02*
X111319999Y-79834000I50999J0D01*
G01*
X112880001Y-79834000D01*
G75*
G02*
X112931000Y-79884999I0J-50999D01*
G01*
X112931000Y-80535001D01*
G75*
G02*
X112880001Y-80586000I-50999J0D01*
G01*
X111319999Y-80586000D01*
G75*
G02*
X111269000Y-80535001I0J50999D01*
G01*
G37*
G36*
G01*
X111269000Y-81485001D02*
X111269000Y-80834999D01*
G75*
G02*
X111319999Y-80784000I50999J0D01*
G01*
X112880001Y-80784000D01*
G75*
G02*
X112931000Y-80834999I0J-50999D01*
G01*
X112931000Y-81485001D01*
G75*
G02*
X112880001Y-81536000I-50999J0D01*
G01*
X111319999Y-81536000D01*
G75*
G02*
X111269000Y-81485001I0J50999D01*
G01*
G37*
G36*
G01*
X111269000Y-82435001D02*
X111269000Y-81784999D01*
G75*
G02*
X111319999Y-81734000I50999J0D01*
G01*
X112880001Y-81734000D01*
G75*
G02*
X112931000Y-81784999I0J-50999D01*
G01*
X112931000Y-82435001D01*
G75*
G02*
X112880001Y-82486000I-50999J0D01*
G01*
X111319999Y-82486000D01*
G75*
G02*
X111269000Y-82435001I0J50999D01*
G01*
G37*
G36*
G01*
X113969000Y-82435001D02*
X113969000Y-81784999D01*
G75*
G02*
X114019999Y-81734000I50999J0D01*
G01*
X115580001Y-81734000D01*
G75*
G02*
X115631000Y-81784999I0J-50999D01*
G01*
X115631000Y-82435001D01*
G75*
G02*
X115580001Y-82486000I-50999J0D01*
G01*
X114019999Y-82486000D01*
G75*
G02*
X113969000Y-82435001I0J50999D01*
G01*
G37*
G36*
G01*
X113969000Y-80535001D02*
X113969000Y-79884999D01*
G75*
G02*
X114019999Y-79834000I50999J0D01*
G01*
X115580001Y-79834000D01*
G75*
G02*
X115631000Y-79884999I0J-50999D01*
G01*
X115631000Y-80535001D01*
G75*
G02*
X115580001Y-80586000I-50999J0D01*
G01*
X114019999Y-80586000D01*
G75*
G02*
X113969000Y-80535001I0J50999D01*
G01*
G37*
G36*
G01*
X111411172Y-77694000D02*
X112368828Y-77694000D01*
G75*
G02*
X112641000Y-77966172I0J-272172D01*
G01*
X112641000Y-78673828D01*
G75*
G02*
X112368828Y-78946000I-272172J0D01*
G01*
X111411172Y-78946000D01*
G75*
G02*
X111139000Y-78673828I0J272172D01*
G01*
X111139000Y-77966172D01*
G75*
G02*
X111411172Y-77694000I272172J0D01*
G01*
G37*
G36*
G01*
X111411172Y-75644000D02*
X112368828Y-75644000D01*
G75*
G02*
X112641000Y-75916172I0J-272172D01*
G01*
X112641000Y-76623828D01*
G75*
G02*
X112368828Y-76896000I-272172J0D01*
G01*
X111411172Y-76896000D01*
G75*
G02*
X111139000Y-76623828I0J272172D01*
G01*
X111139000Y-75916172D01*
G75*
G02*
X111411172Y-75644000I272172J0D01*
G01*
G37*
G36*
G01*
X115088828Y-78961000D02*
X114131172Y-78961000D01*
G75*
G02*
X113859000Y-78688828I0J272172D01*
G01*
X113859000Y-77981172D01*
G75*
G02*
X114131172Y-77709000I272172J0D01*
G01*
X115088828Y-77709000D01*
G75*
G02*
X115361000Y-77981172I0J-272172D01*
G01*
X115361000Y-78688828D01*
G75*
G02*
X115088828Y-78961000I-272172J0D01*
G01*
G37*
G36*
G01*
X115088828Y-76911000D02*
X114131172Y-76911000D01*
G75*
G02*
X113859000Y-76638828I0J272172D01*
G01*
X113859000Y-75931172D01*
G75*
G02*
X114131172Y-75659000I272172J0D01*
G01*
X115088828Y-75659000D01*
G75*
G02*
X115361000Y-75931172I0J-272172D01*
G01*
X115361000Y-76638828D01*
G75*
G02*
X115088828Y-76911000I-272172J0D01*
G01*
G37*
G36*
G01*
X127438828Y-82781000D02*
X126481172Y-82781000D01*
G75*
G02*
X126209000Y-82508828I0J272172D01*
G01*
X126209000Y-81801172D01*
G75*
G02*
X126481172Y-81529000I272172J0D01*
G01*
X127438828Y-81529000D01*
G75*
G02*
X127711000Y-81801172I0J-272172D01*
G01*
X127711000Y-82508828D01*
G75*
G02*
X127438828Y-82781000I-272172J0D01*
G01*
G37*
G36*
G01*
X127438828Y-80731000D02*
X126481172Y-80731000D01*
G75*
G02*
X126209000Y-80458828I0J272172D01*
G01*
X126209000Y-79751172D01*
G75*
G02*
X126481172Y-79479000I272172J0D01*
G01*
X127438828Y-79479000D01*
G75*
G02*
X127711000Y-79751172I0J-272172D01*
G01*
X127711000Y-80458828D01*
G75*
G02*
X127438828Y-80731000I-272172J0D01*
G01*
G37*
G36*
G01*
X122349000Y-86158828D02*
X122349000Y-85201172D01*
G75*
G02*
X122621172Y-84929000I272172J0D01*
G01*
X123328828Y-84929000D01*
G75*
G02*
X123601000Y-85201172I0J-272172D01*
G01*
X123601000Y-86158828D01*
G75*
G02*
X123328828Y-86431000I-272172J0D01*
G01*
X122621172Y-86431000D01*
G75*
G02*
X122349000Y-86158828I0J272172D01*
G01*
G37*
G36*
G01*
X120299000Y-86158828D02*
X120299000Y-85201172D01*
G75*
G02*
X120571172Y-84929000I272172J0D01*
G01*
X121278828Y-84929000D01*
G75*
G02*
X121551000Y-85201172I0J-272172D01*
G01*
X121551000Y-86158828D01*
G75*
G02*
X121278828Y-86431000I-272172J0D01*
G01*
X120571172Y-86431000D01*
G75*
G02*
X120299000Y-86158828I0J272172D01*
G01*
G37*
G36*
G01*
X121551000Y-87241172D02*
X121551000Y-88198828D01*
G75*
G02*
X121278828Y-88471000I-272172J0D01*
G01*
X120571172Y-88471000D01*
G75*
G02*
X120299000Y-88198828I0J272172D01*
G01*
X120299000Y-87241172D01*
G75*
G02*
X120571172Y-86969000I272172J0D01*
G01*
X121278828Y-86969000D01*
G75*
G02*
X121551000Y-87241172I0J-272172D01*
G01*
G37*
G36*
G01*
X123601000Y-87241172D02*
X123601000Y-88198828D01*
G75*
G02*
X123328828Y-88471000I-272172J0D01*
G01*
X122621172Y-88471000D01*
G75*
G02*
X122349000Y-88198828I0J272172D01*
G01*
X122349000Y-87241172D01*
G75*
G02*
X122621172Y-86969000I272172J0D01*
G01*
X123328828Y-86969000D01*
G75*
G02*
X123601000Y-87241172I0J-272172D01*
G01*
G37*
G36*
G01*
X120299000Y-84138828D02*
X120299000Y-83181172D01*
G75*
G02*
X120571172Y-82909000I272172J0D01*
G01*
X121278828Y-82909000D01*
G75*
G02*
X121551000Y-83181172I0J-272172D01*
G01*
X121551000Y-84138828D01*
G75*
G02*
X121278828Y-84411000I-272172J0D01*
G01*
X120571172Y-84411000D01*
G75*
G02*
X120299000Y-84138828I0J272172D01*
G01*
G37*
G36*
G01*
X122349000Y-84138828D02*
X122349000Y-83181172D01*
G75*
G02*
X122621172Y-82909000I272172J0D01*
G01*
X123328828Y-82909000D01*
G75*
G02*
X123601000Y-83181172I0J-272172D01*
G01*
X123601000Y-84138828D01*
G75*
G02*
X123328828Y-84411000I-272172J0D01*
G01*
X122621172Y-84411000D01*
G75*
G02*
X122349000Y-84138828I0J272172D01*
G01*
G37*
G36*
G01*
X126481172Y-77589000D02*
X127438828Y-77589000D01*
G75*
G02*
X127711000Y-77861172I0J-272172D01*
G01*
X127711000Y-78568828D01*
G75*
G02*
X127438828Y-78841000I-272172J0D01*
G01*
X126481172Y-78841000D01*
G75*
G02*
X126209000Y-78568828I0J272172D01*
G01*
X126209000Y-77861172D01*
G75*
G02*
X126481172Y-77589000I272172J0D01*
G01*
G37*
G36*
G01*
X126481172Y-75539000D02*
X127438828Y-75539000D01*
G75*
G02*
X127711000Y-75811172I0J-272172D01*
G01*
X127711000Y-76518828D01*
G75*
G02*
X127438828Y-76791000I-272172J0D01*
G01*
X126481172Y-76791000D01*
G75*
G02*
X126209000Y-76518828I0J272172D01*
G01*
X126209000Y-75811172D01*
G75*
G02*
X126481172Y-75539000I272172J0D01*
G01*
G37*
G36*
G01*
X124449000Y-90888828D02*
X124449000Y-89931172D01*
G75*
G02*
X124721172Y-89659000I272172J0D01*
G01*
X125428828Y-89659000D01*
G75*
G02*
X125701000Y-89931172I0J-272172D01*
G01*
X125701000Y-90888828D01*
G75*
G02*
X125428828Y-91161000I-272172J0D01*
G01*
X124721172Y-91161000D01*
G75*
G02*
X124449000Y-90888828I0J272172D01*
G01*
G37*
G36*
G01*
X126499000Y-90888828D02*
X126499000Y-89931172D01*
G75*
G02*
X126771172Y-89659000I272172J0D01*
G01*
X127478828Y-89659000D01*
G75*
G02*
X127751000Y-89931172I0J-272172D01*
G01*
X127751000Y-90888828D01*
G75*
G02*
X127478828Y-91161000I-272172J0D01*
G01*
X126771172Y-91161000D01*
G75*
G02*
X126499000Y-90888828I0J272172D01*
G01*
G37*
G36*
G01*
X126481172Y-83489000D02*
X127438828Y-83489000D01*
G75*
G02*
X127711000Y-83761172I0J-272172D01*
G01*
X127711000Y-84468828D01*
G75*
G02*
X127438828Y-84741000I-272172J0D01*
G01*
X126481172Y-84741000D01*
G75*
G02*
X126209000Y-84468828I0J272172D01*
G01*
X126209000Y-83761172D01*
G75*
G02*
X126481172Y-83489000I272172J0D01*
G01*
G37*
G36*
G01*
X126481172Y-85539000D02*
X127438828Y-85539000D01*
G75*
G02*
X127711000Y-85811172I0J-272172D01*
G01*
X127711000Y-86518828D01*
G75*
G02*
X127438828Y-86791000I-272172J0D01*
G01*
X126481172Y-86791000D01*
G75*
G02*
X126209000Y-86518828I0J272172D01*
G01*
X126209000Y-85811172D01*
G75*
G02*
X126481172Y-85539000I272172J0D01*
G01*
G37*
G36*
G01*
X110519000Y-93748032D02*
X110519000Y-89711968D01*
G75*
G02*
X110776968Y-89454000I257968J0D01*
G01*
X113563032Y-89454000D01*
G75*
G02*
X113821000Y-89711968I0J-257968D01*
G01*
X113821000Y-93748032D01*
G75*
G02*
X113563032Y-94006000I-257968J0D01*
G01*
X110776968Y-94006000D01*
G75*
G02*
X110519000Y-93748032I0J257968D01*
G01*
G37*
G36*
G01*
X115719000Y-93748032D02*
X115719000Y-89711968D01*
G75*
G02*
X115976968Y-89454000I257968J0D01*
G01*
X118763032Y-89454000D01*
G75*
G02*
X119021000Y-89711968I0J-257968D01*
G01*
X119021000Y-93748032D01*
G75*
G02*
X118763032Y-94006000I-257968J0D01*
G01*
X115976968Y-94006000D01*
G75*
G02*
X115719000Y-93748032I0J257968D01*
G01*
G37*
G36*
G01*
X124449000Y-88738828D02*
X124449000Y-87781172D01*
G75*
G02*
X124721172Y-87509000I272172J0D01*
G01*
X125428828Y-87509000D01*
G75*
G02*
X125701000Y-87781172I0J-272172D01*
G01*
X125701000Y-88738828D01*
G75*
G02*
X125428828Y-89011000I-272172J0D01*
G01*
X124721172Y-89011000D01*
G75*
G02*
X124449000Y-88738828I0J272172D01*
G01*
G37*
G36*
G01*
X126499000Y-88738828D02*
X126499000Y-87781172D01*
G75*
G02*
X126771172Y-87509000I272172J0D01*
G01*
X127478828Y-87509000D01*
G75*
G02*
X127751000Y-87781172I0J-272172D01*
G01*
X127751000Y-88738828D01*
G75*
G02*
X127478828Y-89011000I-272172J0D01*
G01*
X126771172Y-89011000D01*
G75*
G02*
X126499000Y-88738828I0J272172D01*
G01*
G37*
D10*
G36*
X113822165Y-93746406D02*
G01*
X113823000Y-93748032D01*
X113823000Y-93847360D01*
X113822990Y-93847556D01*
X113819467Y-93883327D01*
X113819391Y-93883712D01*
X113810747Y-93912209D01*
X113810597Y-93912571D01*
X113796560Y-93938832D01*
X113796342Y-93939158D01*
X113777452Y-93962175D01*
X113777175Y-93962452D01*
X113754158Y-93981342D01*
X113753832Y-93981560D01*
X113727571Y-93995597D01*
X113727209Y-93995747D01*
X113698712Y-94004391D01*
X113698327Y-94004467D01*
X113662556Y-94007990D01*
X113662360Y-94008000D01*
X113563032Y-94008000D01*
X113561300Y-94007000D01*
X113561300Y-94005000D01*
X113562836Y-94004010D01*
X113612964Y-93999073D01*
X113660983Y-93984506D01*
X113705235Y-93960854D01*
X113744022Y-93929022D01*
X113775854Y-93890235D01*
X113799506Y-93845983D01*
X113814073Y-93797964D01*
X113819010Y-93747836D01*
X113820175Y-93746210D01*
X113822165Y-93746406D01*
G37*
G36*
X119022165Y-93746406D02*
G01*
X119023000Y-93748032D01*
X119023000Y-93847360D01*
X119022990Y-93847556D01*
X119019467Y-93883327D01*
X119019391Y-93883712D01*
X119010747Y-93912209D01*
X119010597Y-93912571D01*
X118996560Y-93938832D01*
X118996342Y-93939158D01*
X118977452Y-93962175D01*
X118977175Y-93962452D01*
X118954158Y-93981342D01*
X118953832Y-93981560D01*
X118927571Y-93995597D01*
X118927209Y-93995747D01*
X118898712Y-94004391D01*
X118898327Y-94004467D01*
X118862556Y-94007990D01*
X118862360Y-94008000D01*
X118763032Y-94008000D01*
X118761300Y-94007000D01*
X118761300Y-94005000D01*
X118762836Y-94004010D01*
X118812964Y-93999073D01*
X118860983Y-93984506D01*
X118905235Y-93960854D01*
X118944022Y-93929022D01*
X118975854Y-93890235D01*
X118999506Y-93845983D01*
X119014073Y-93797964D01*
X119019010Y-93747836D01*
X119020175Y-93746210D01*
X119022165Y-93746406D01*
G37*
G36*
X115720990Y-93747836D02*
G01*
X115725927Y-93797964D01*
X115740494Y-93845983D01*
X115764146Y-93890235D01*
X115795978Y-93929022D01*
X115834765Y-93960854D01*
X115879017Y-93984506D01*
X115927036Y-93999073D01*
X115977164Y-94004010D01*
X115978790Y-94005175D01*
X115978594Y-94007165D01*
X115976968Y-94008000D01*
X115877640Y-94008000D01*
X115877444Y-94007990D01*
X115841673Y-94004467D01*
X115841288Y-94004391D01*
X115812791Y-93995747D01*
X115812429Y-93995597D01*
X115786168Y-93981560D01*
X115785842Y-93981342D01*
X115762825Y-93962452D01*
X115762548Y-93962175D01*
X115743658Y-93939158D01*
X115743440Y-93938832D01*
X115729403Y-93912571D01*
X115729253Y-93912209D01*
X115720609Y-93883712D01*
X115720533Y-93883327D01*
X115717010Y-93847556D01*
X115717000Y-93847360D01*
X115717000Y-93748032D01*
X115718000Y-93746300D01*
X115720000Y-93746300D01*
X115720990Y-93747836D01*
G37*
G36*
X110520990Y-93747836D02*
G01*
X110525927Y-93797964D01*
X110540494Y-93845983D01*
X110564146Y-93890235D01*
X110595978Y-93929022D01*
X110634765Y-93960854D01*
X110679017Y-93984506D01*
X110727036Y-93999073D01*
X110777164Y-94004010D01*
X110778790Y-94005175D01*
X110778594Y-94007165D01*
X110776968Y-94008000D01*
X110677640Y-94008000D01*
X110677444Y-94007990D01*
X110641673Y-94004467D01*
X110641288Y-94004391D01*
X110612791Y-93995747D01*
X110612429Y-93995597D01*
X110586168Y-93981560D01*
X110585842Y-93981342D01*
X110562825Y-93962452D01*
X110562548Y-93962175D01*
X110543658Y-93939158D01*
X110543440Y-93938832D01*
X110529403Y-93912571D01*
X110529253Y-93912209D01*
X110520609Y-93883712D01*
X110520533Y-93883327D01*
X110517010Y-93847556D01*
X110517000Y-93847360D01*
X110517000Y-93748032D01*
X110518000Y-93746300D01*
X110520000Y-93746300D01*
X110520990Y-93747836D01*
G37*
G36*
X115978700Y-89453000D02*
G01*
X115978700Y-89455000D01*
X115977164Y-89455990D01*
X115927036Y-89460927D01*
X115879017Y-89475494D01*
X115834765Y-89499146D01*
X115795978Y-89530978D01*
X115764146Y-89569765D01*
X115740494Y-89614017D01*
X115725927Y-89662036D01*
X115720990Y-89712164D01*
X115719825Y-89713790D01*
X115717835Y-89713594D01*
X115717000Y-89711968D01*
X115717000Y-89612640D01*
X115717010Y-89612444D01*
X115720533Y-89576673D01*
X115720609Y-89576288D01*
X115729253Y-89547791D01*
X115729403Y-89547429D01*
X115743440Y-89521168D01*
X115743658Y-89520842D01*
X115762548Y-89497825D01*
X115762825Y-89497548D01*
X115785842Y-89478658D01*
X115786168Y-89478440D01*
X115812429Y-89464403D01*
X115812791Y-89464253D01*
X115841288Y-89455609D01*
X115841673Y-89455533D01*
X115877444Y-89452010D01*
X115877640Y-89452000D01*
X115976968Y-89452000D01*
X115978700Y-89453000D01*
G37*
G36*
X110778700Y-89453000D02*
G01*
X110778700Y-89455000D01*
X110777164Y-89455990D01*
X110727036Y-89460927D01*
X110679017Y-89475494D01*
X110634765Y-89499146D01*
X110595978Y-89530978D01*
X110564146Y-89569765D01*
X110540494Y-89614017D01*
X110525927Y-89662036D01*
X110520990Y-89712164D01*
X110519825Y-89713790D01*
X110517835Y-89713594D01*
X110517000Y-89711968D01*
X110517000Y-89612640D01*
X110517010Y-89612444D01*
X110520533Y-89576673D01*
X110520609Y-89576288D01*
X110529253Y-89547791D01*
X110529403Y-89547429D01*
X110543440Y-89521168D01*
X110543658Y-89520842D01*
X110562548Y-89497825D01*
X110562825Y-89497548D01*
X110585842Y-89478658D01*
X110586168Y-89478440D01*
X110612429Y-89464403D01*
X110612791Y-89464253D01*
X110641288Y-89455609D01*
X110641673Y-89455533D01*
X110677444Y-89452010D01*
X110677640Y-89452000D01*
X110776968Y-89452000D01*
X110778700Y-89453000D01*
G37*
G36*
X118862556Y-89452010D02*
G01*
X118898327Y-89455533D01*
X118898712Y-89455609D01*
X118927209Y-89464253D01*
X118927571Y-89464403D01*
X118953832Y-89478440D01*
X118954158Y-89478658D01*
X118977175Y-89497548D01*
X118977452Y-89497825D01*
X118996342Y-89520842D01*
X118996560Y-89521168D01*
X119010597Y-89547429D01*
X119010747Y-89547791D01*
X119019391Y-89576288D01*
X119019467Y-89576673D01*
X119022990Y-89612444D01*
X119023000Y-89612640D01*
X119023000Y-89711968D01*
X119022000Y-89713700D01*
X119020000Y-89713700D01*
X119019010Y-89712164D01*
X119014073Y-89662036D01*
X118999506Y-89614017D01*
X118975854Y-89569765D01*
X118944022Y-89530978D01*
X118905235Y-89499146D01*
X118860983Y-89475494D01*
X118812964Y-89460927D01*
X118762836Y-89455990D01*
X118761210Y-89454825D01*
X118761406Y-89452835D01*
X118763032Y-89452000D01*
X118862360Y-89452000D01*
X118862556Y-89452010D01*
G37*
G36*
X113662556Y-89452010D02*
G01*
X113698327Y-89455533D01*
X113698712Y-89455609D01*
X113727209Y-89464253D01*
X113727571Y-89464403D01*
X113753832Y-89478440D01*
X113754158Y-89478658D01*
X113777175Y-89497548D01*
X113777452Y-89497825D01*
X113796342Y-89520842D01*
X113796560Y-89521168D01*
X113810597Y-89547429D01*
X113810747Y-89547791D01*
X113819391Y-89576288D01*
X113819467Y-89576673D01*
X113822990Y-89612444D01*
X113823000Y-89612640D01*
X113823000Y-89711968D01*
X113822000Y-89713700D01*
X113820000Y-89713700D01*
X113819010Y-89712164D01*
X113814073Y-89662036D01*
X113799506Y-89614017D01*
X113775854Y-89569765D01*
X113744022Y-89530978D01*
X113705235Y-89499146D01*
X113660983Y-89475494D01*
X113612964Y-89460927D01*
X113562836Y-89455990D01*
X113561210Y-89454825D01*
X113561406Y-89452835D01*
X113563032Y-89452000D01*
X113662360Y-89452000D01*
X113662556Y-89452010D01*
G37*
G36*
X115865732Y-86688000D02*
G01*
X115866000Y-86689000D01*
X115866000Y-88351000D01*
X115865000Y-88352732D01*
X115864000Y-88353000D01*
X115666000Y-88353000D01*
X115664268Y-88352000D01*
X115664000Y-88351000D01*
X115664000Y-86691000D01*
X114916000Y-86691000D01*
X114916000Y-88351000D01*
X114915000Y-88352732D01*
X114914000Y-88353000D01*
X114716000Y-88353000D01*
X114714268Y-88352000D01*
X114714000Y-88351000D01*
X114714000Y-86689000D01*
X114715000Y-86687268D01*
X114716000Y-86687000D01*
X115864000Y-86687000D01*
X115865732Y-86688000D01*
G37*
G36*
X115865732Y-83988000D02*
G01*
X115866000Y-83989000D01*
X115866000Y-85651000D01*
X115865000Y-85652732D01*
X115864000Y-85653000D01*
X115666000Y-85653000D01*
X115664268Y-85652000D01*
X115664000Y-85651000D01*
X115664000Y-83991000D01*
X114916000Y-83991000D01*
X114916000Y-85651000D01*
X114915000Y-85652732D01*
X114914000Y-85653000D01*
X114716000Y-85653000D01*
X114714268Y-85652000D01*
X114714000Y-85651000D01*
X114714000Y-83989000D01*
X114715000Y-83987268D01*
X114716000Y-83987000D01*
X115864000Y-83987000D01*
X115865732Y-83988000D01*
G37*
G36*
X112932732Y-81535000D02*
G01*
X112933000Y-81536000D01*
X112933000Y-81734000D01*
X112932000Y-81735732D01*
X112931000Y-81736000D01*
X111269000Y-81736000D01*
X111267268Y-81735000D01*
X111267000Y-81734000D01*
X111267000Y-81536000D01*
X111268000Y-81534268D01*
X111269000Y-81534000D01*
X112931000Y-81534000D01*
X112932732Y-81535000D01*
G37*
G36*
X112932732Y-80585000D02*
G01*
X112933000Y-80586000D01*
X112933000Y-80784000D01*
X112932000Y-80785732D01*
X112931000Y-80786000D01*
X111269000Y-80786000D01*
X111267268Y-80785000D01*
X111267000Y-80784000D01*
X111267000Y-80586000D01*
X111268000Y-80584268D01*
X111269000Y-80584000D01*
X112931000Y-80584000D01*
X112932732Y-80585000D01*
G37*
G36*
X124640732Y-69158000D02*
G01*
X124641000Y-69159000D01*
X124641000Y-71486000D01*
X124640000Y-71487732D01*
X124639000Y-71488000D01*
X124471000Y-71488000D01*
X124469268Y-71487000D01*
X124469000Y-71486000D01*
X124469000Y-69161000D01*
X123371000Y-69161000D01*
X123371000Y-71486000D01*
X123370000Y-71487732D01*
X123369000Y-71488000D01*
X123201000Y-71488000D01*
X123199268Y-71487000D01*
X123199000Y-71486000D01*
X123199000Y-69161000D01*
X122101000Y-69161000D01*
X122101000Y-71486000D01*
X122100000Y-71487732D01*
X122099000Y-71488000D01*
X121931000Y-71488000D01*
X121929268Y-71487000D01*
X121929000Y-71486000D01*
X121929000Y-69161000D01*
X120831000Y-69161000D01*
X120831000Y-71486000D01*
X120830000Y-71487732D01*
X120829000Y-71488000D01*
X120661000Y-71488000D01*
X120659268Y-71487000D01*
X120659000Y-71486000D01*
X120659000Y-69161000D01*
X119561000Y-69161000D01*
X119561000Y-71486000D01*
X119560000Y-71487732D01*
X119559000Y-71488000D01*
X119391000Y-71488000D01*
X119389268Y-71487000D01*
X119389000Y-71486000D01*
X119389000Y-69161000D01*
X118291000Y-69161000D01*
X118291000Y-71486000D01*
X118290000Y-71487732D01*
X118289000Y-71488000D01*
X118121000Y-71488000D01*
X118119268Y-71487000D01*
X118119000Y-71486000D01*
X118119000Y-69161000D01*
X117021000Y-69161000D01*
X117021000Y-71486000D01*
X117020000Y-71487732D01*
X117019000Y-71488000D01*
X116851000Y-71488000D01*
X116849268Y-71487000D01*
X116849000Y-71486000D01*
X116849000Y-69159000D01*
X116850000Y-69157268D01*
X116851000Y-69157000D01*
X124639000Y-69157000D01*
X124640732Y-69158000D01*
G37*
M02*
