G04 #@! TF.GenerationSoftware,KiCad,Pcbnew,5.1.2*
G04 #@! TF.CreationDate,2019-08-16T09:09:30-07:00*
G04 #@! TF.ProjectId,lofi,6c6f6669-2e6b-4696-9361-645f70636258,rev?*
G04 #@! TF.SameCoordinates,Original*
G04 #@! TF.FileFunction,Paste,Top*
G04 #@! TF.FilePolarity,Positive*
%FSLAX46Y46*%
G04 Gerber Fmt 4.6, Leading zero omitted, Abs format (unit mm)*
G04 Created by KiCad (PCBNEW 5.1.2) date 2019-08-16 09:09:30*
%MOMM*%
%LPD*%
G04 APERTURE LIST*
%ADD10C,0.100000*%
%ADD11C,0.600000*%
%ADD12R,2.000000X2.000000*%
%ADD13C,0.800000*%
%ADD14R,0.800000X1.000000*%
%ADD15C,0.875000*%
%ADD16C,3.025000*%
%ADD17C,1.150000*%
%ADD18R,1.560000X0.650000*%
G04 APERTURE END LIST*
D10*
G36*
X126989703Y-79820722D02*
G01*
X127004264Y-79822882D01*
X127018543Y-79826459D01*
X127032403Y-79831418D01*
X127045710Y-79837712D01*
X127058336Y-79845280D01*
X127070159Y-79854048D01*
X127081066Y-79863934D01*
X127090952Y-79874841D01*
X127099720Y-79886664D01*
X127107288Y-79899290D01*
X127113582Y-79912597D01*
X127118541Y-79926457D01*
X127122118Y-79940736D01*
X127124278Y-79955297D01*
X127125000Y-79970000D01*
X127125000Y-80270000D01*
X127124278Y-80284703D01*
X127122118Y-80299264D01*
X127118541Y-80313543D01*
X127113582Y-80327403D01*
X127107288Y-80340710D01*
X127099720Y-80353336D01*
X127090952Y-80365159D01*
X127081066Y-80376066D01*
X127070159Y-80385952D01*
X127058336Y-80394720D01*
X127045710Y-80402288D01*
X127032403Y-80408582D01*
X127018543Y-80413541D01*
X127004264Y-80417118D01*
X126989703Y-80419278D01*
X126975000Y-80420000D01*
X125875000Y-80420000D01*
X125860297Y-80419278D01*
X125845736Y-80417118D01*
X125831457Y-80413541D01*
X125817597Y-80408582D01*
X125804290Y-80402288D01*
X125791664Y-80394720D01*
X125779841Y-80385952D01*
X125768934Y-80376066D01*
X125759048Y-80365159D01*
X125750280Y-80353336D01*
X125742712Y-80340710D01*
X125736418Y-80327403D01*
X125731459Y-80313543D01*
X125727882Y-80299264D01*
X125725722Y-80284703D01*
X125725000Y-80270000D01*
X125725000Y-79970000D01*
X125725722Y-79955297D01*
X125727882Y-79940736D01*
X125731459Y-79926457D01*
X125736418Y-79912597D01*
X125742712Y-79899290D01*
X125750280Y-79886664D01*
X125759048Y-79874841D01*
X125768934Y-79863934D01*
X125779841Y-79854048D01*
X125791664Y-79845280D01*
X125804290Y-79837712D01*
X125817597Y-79831418D01*
X125831457Y-79826459D01*
X125845736Y-79822882D01*
X125860297Y-79820722D01*
X125875000Y-79820000D01*
X126975000Y-79820000D01*
X126989703Y-79820722D01*
X126989703Y-79820722D01*
G37*
D11*
X126425000Y-80120000D03*
D10*
G36*
X126989703Y-81090722D02*
G01*
X127004264Y-81092882D01*
X127018543Y-81096459D01*
X127032403Y-81101418D01*
X127045710Y-81107712D01*
X127058336Y-81115280D01*
X127070159Y-81124048D01*
X127081066Y-81133934D01*
X127090952Y-81144841D01*
X127099720Y-81156664D01*
X127107288Y-81169290D01*
X127113582Y-81182597D01*
X127118541Y-81196457D01*
X127122118Y-81210736D01*
X127124278Y-81225297D01*
X127125000Y-81240000D01*
X127125000Y-81540000D01*
X127124278Y-81554703D01*
X127122118Y-81569264D01*
X127118541Y-81583543D01*
X127113582Y-81597403D01*
X127107288Y-81610710D01*
X127099720Y-81623336D01*
X127090952Y-81635159D01*
X127081066Y-81646066D01*
X127070159Y-81655952D01*
X127058336Y-81664720D01*
X127045710Y-81672288D01*
X127032403Y-81678582D01*
X127018543Y-81683541D01*
X127004264Y-81687118D01*
X126989703Y-81689278D01*
X126975000Y-81690000D01*
X125875000Y-81690000D01*
X125860297Y-81689278D01*
X125845736Y-81687118D01*
X125831457Y-81683541D01*
X125817597Y-81678582D01*
X125804290Y-81672288D01*
X125791664Y-81664720D01*
X125779841Y-81655952D01*
X125768934Y-81646066D01*
X125759048Y-81635159D01*
X125750280Y-81623336D01*
X125742712Y-81610710D01*
X125736418Y-81597403D01*
X125731459Y-81583543D01*
X125727882Y-81569264D01*
X125725722Y-81554703D01*
X125725000Y-81540000D01*
X125725000Y-81240000D01*
X125725722Y-81225297D01*
X125727882Y-81210736D01*
X125731459Y-81196457D01*
X125736418Y-81182597D01*
X125742712Y-81169290D01*
X125750280Y-81156664D01*
X125759048Y-81144841D01*
X125768934Y-81133934D01*
X125779841Y-81124048D01*
X125791664Y-81115280D01*
X125804290Y-81107712D01*
X125817597Y-81101418D01*
X125831457Y-81096459D01*
X125845736Y-81092882D01*
X125860297Y-81090722D01*
X125875000Y-81090000D01*
X126975000Y-81090000D01*
X126989703Y-81090722D01*
X126989703Y-81090722D01*
G37*
D11*
X126425000Y-81390000D03*
D10*
G36*
X126989703Y-82360722D02*
G01*
X127004264Y-82362882D01*
X127018543Y-82366459D01*
X127032403Y-82371418D01*
X127045710Y-82377712D01*
X127058336Y-82385280D01*
X127070159Y-82394048D01*
X127081066Y-82403934D01*
X127090952Y-82414841D01*
X127099720Y-82426664D01*
X127107288Y-82439290D01*
X127113582Y-82452597D01*
X127118541Y-82466457D01*
X127122118Y-82480736D01*
X127124278Y-82495297D01*
X127125000Y-82510000D01*
X127125000Y-82810000D01*
X127124278Y-82824703D01*
X127122118Y-82839264D01*
X127118541Y-82853543D01*
X127113582Y-82867403D01*
X127107288Y-82880710D01*
X127099720Y-82893336D01*
X127090952Y-82905159D01*
X127081066Y-82916066D01*
X127070159Y-82925952D01*
X127058336Y-82934720D01*
X127045710Y-82942288D01*
X127032403Y-82948582D01*
X127018543Y-82953541D01*
X127004264Y-82957118D01*
X126989703Y-82959278D01*
X126975000Y-82960000D01*
X125875000Y-82960000D01*
X125860297Y-82959278D01*
X125845736Y-82957118D01*
X125831457Y-82953541D01*
X125817597Y-82948582D01*
X125804290Y-82942288D01*
X125791664Y-82934720D01*
X125779841Y-82925952D01*
X125768934Y-82916066D01*
X125759048Y-82905159D01*
X125750280Y-82893336D01*
X125742712Y-82880710D01*
X125736418Y-82867403D01*
X125731459Y-82853543D01*
X125727882Y-82839264D01*
X125725722Y-82824703D01*
X125725000Y-82810000D01*
X125725000Y-82510000D01*
X125725722Y-82495297D01*
X125727882Y-82480736D01*
X125731459Y-82466457D01*
X125736418Y-82452597D01*
X125742712Y-82439290D01*
X125750280Y-82426664D01*
X125759048Y-82414841D01*
X125768934Y-82403934D01*
X125779841Y-82394048D01*
X125791664Y-82385280D01*
X125804290Y-82377712D01*
X125817597Y-82371418D01*
X125831457Y-82366459D01*
X125845736Y-82362882D01*
X125860297Y-82360722D01*
X125875000Y-82360000D01*
X126975000Y-82360000D01*
X126989703Y-82360722D01*
X126989703Y-82360722D01*
G37*
D11*
X126425000Y-82660000D03*
D10*
G36*
X126989703Y-83630722D02*
G01*
X127004264Y-83632882D01*
X127018543Y-83636459D01*
X127032403Y-83641418D01*
X127045710Y-83647712D01*
X127058336Y-83655280D01*
X127070159Y-83664048D01*
X127081066Y-83673934D01*
X127090952Y-83684841D01*
X127099720Y-83696664D01*
X127107288Y-83709290D01*
X127113582Y-83722597D01*
X127118541Y-83736457D01*
X127122118Y-83750736D01*
X127124278Y-83765297D01*
X127125000Y-83780000D01*
X127125000Y-84080000D01*
X127124278Y-84094703D01*
X127122118Y-84109264D01*
X127118541Y-84123543D01*
X127113582Y-84137403D01*
X127107288Y-84150710D01*
X127099720Y-84163336D01*
X127090952Y-84175159D01*
X127081066Y-84186066D01*
X127070159Y-84195952D01*
X127058336Y-84204720D01*
X127045710Y-84212288D01*
X127032403Y-84218582D01*
X127018543Y-84223541D01*
X127004264Y-84227118D01*
X126989703Y-84229278D01*
X126975000Y-84230000D01*
X125875000Y-84230000D01*
X125860297Y-84229278D01*
X125845736Y-84227118D01*
X125831457Y-84223541D01*
X125817597Y-84218582D01*
X125804290Y-84212288D01*
X125791664Y-84204720D01*
X125779841Y-84195952D01*
X125768934Y-84186066D01*
X125759048Y-84175159D01*
X125750280Y-84163336D01*
X125742712Y-84150710D01*
X125736418Y-84137403D01*
X125731459Y-84123543D01*
X125727882Y-84109264D01*
X125725722Y-84094703D01*
X125725000Y-84080000D01*
X125725000Y-83780000D01*
X125725722Y-83765297D01*
X125727882Y-83750736D01*
X125731459Y-83736457D01*
X125736418Y-83722597D01*
X125742712Y-83709290D01*
X125750280Y-83696664D01*
X125759048Y-83684841D01*
X125768934Y-83673934D01*
X125779841Y-83664048D01*
X125791664Y-83655280D01*
X125804290Y-83647712D01*
X125817597Y-83641418D01*
X125831457Y-83636459D01*
X125845736Y-83632882D01*
X125860297Y-83630722D01*
X125875000Y-83630000D01*
X126975000Y-83630000D01*
X126989703Y-83630722D01*
X126989703Y-83630722D01*
G37*
D11*
X126425000Y-83930000D03*
D10*
G36*
X126989703Y-84900722D02*
G01*
X127004264Y-84902882D01*
X127018543Y-84906459D01*
X127032403Y-84911418D01*
X127045710Y-84917712D01*
X127058336Y-84925280D01*
X127070159Y-84934048D01*
X127081066Y-84943934D01*
X127090952Y-84954841D01*
X127099720Y-84966664D01*
X127107288Y-84979290D01*
X127113582Y-84992597D01*
X127118541Y-85006457D01*
X127122118Y-85020736D01*
X127124278Y-85035297D01*
X127125000Y-85050000D01*
X127125000Y-85350000D01*
X127124278Y-85364703D01*
X127122118Y-85379264D01*
X127118541Y-85393543D01*
X127113582Y-85407403D01*
X127107288Y-85420710D01*
X127099720Y-85433336D01*
X127090952Y-85445159D01*
X127081066Y-85456066D01*
X127070159Y-85465952D01*
X127058336Y-85474720D01*
X127045710Y-85482288D01*
X127032403Y-85488582D01*
X127018543Y-85493541D01*
X127004264Y-85497118D01*
X126989703Y-85499278D01*
X126975000Y-85500000D01*
X125875000Y-85500000D01*
X125860297Y-85499278D01*
X125845736Y-85497118D01*
X125831457Y-85493541D01*
X125817597Y-85488582D01*
X125804290Y-85482288D01*
X125791664Y-85474720D01*
X125779841Y-85465952D01*
X125768934Y-85456066D01*
X125759048Y-85445159D01*
X125750280Y-85433336D01*
X125742712Y-85420710D01*
X125736418Y-85407403D01*
X125731459Y-85393543D01*
X125727882Y-85379264D01*
X125725722Y-85364703D01*
X125725000Y-85350000D01*
X125725000Y-85050000D01*
X125725722Y-85035297D01*
X125727882Y-85020736D01*
X125731459Y-85006457D01*
X125736418Y-84992597D01*
X125742712Y-84979290D01*
X125750280Y-84966664D01*
X125759048Y-84954841D01*
X125768934Y-84943934D01*
X125779841Y-84934048D01*
X125791664Y-84925280D01*
X125804290Y-84917712D01*
X125817597Y-84911418D01*
X125831457Y-84906459D01*
X125845736Y-84902882D01*
X125860297Y-84900722D01*
X125875000Y-84900000D01*
X126975000Y-84900000D01*
X126989703Y-84900722D01*
X126989703Y-84900722D01*
G37*
D11*
X126425000Y-85200000D03*
D10*
G36*
X126989703Y-86170722D02*
G01*
X127004264Y-86172882D01*
X127018543Y-86176459D01*
X127032403Y-86181418D01*
X127045710Y-86187712D01*
X127058336Y-86195280D01*
X127070159Y-86204048D01*
X127081066Y-86213934D01*
X127090952Y-86224841D01*
X127099720Y-86236664D01*
X127107288Y-86249290D01*
X127113582Y-86262597D01*
X127118541Y-86276457D01*
X127122118Y-86290736D01*
X127124278Y-86305297D01*
X127125000Y-86320000D01*
X127125000Y-86620000D01*
X127124278Y-86634703D01*
X127122118Y-86649264D01*
X127118541Y-86663543D01*
X127113582Y-86677403D01*
X127107288Y-86690710D01*
X127099720Y-86703336D01*
X127090952Y-86715159D01*
X127081066Y-86726066D01*
X127070159Y-86735952D01*
X127058336Y-86744720D01*
X127045710Y-86752288D01*
X127032403Y-86758582D01*
X127018543Y-86763541D01*
X127004264Y-86767118D01*
X126989703Y-86769278D01*
X126975000Y-86770000D01*
X125875000Y-86770000D01*
X125860297Y-86769278D01*
X125845736Y-86767118D01*
X125831457Y-86763541D01*
X125817597Y-86758582D01*
X125804290Y-86752288D01*
X125791664Y-86744720D01*
X125779841Y-86735952D01*
X125768934Y-86726066D01*
X125759048Y-86715159D01*
X125750280Y-86703336D01*
X125742712Y-86690710D01*
X125736418Y-86677403D01*
X125731459Y-86663543D01*
X125727882Y-86649264D01*
X125725722Y-86634703D01*
X125725000Y-86620000D01*
X125725000Y-86320000D01*
X125725722Y-86305297D01*
X125727882Y-86290736D01*
X125731459Y-86276457D01*
X125736418Y-86262597D01*
X125742712Y-86249290D01*
X125750280Y-86236664D01*
X125759048Y-86224841D01*
X125768934Y-86213934D01*
X125779841Y-86204048D01*
X125791664Y-86195280D01*
X125804290Y-86187712D01*
X125817597Y-86181418D01*
X125831457Y-86176459D01*
X125845736Y-86172882D01*
X125860297Y-86170722D01*
X125875000Y-86170000D01*
X126975000Y-86170000D01*
X126989703Y-86170722D01*
X126989703Y-86170722D01*
G37*
D11*
X126425000Y-86470000D03*
D10*
G36*
X126989703Y-87440722D02*
G01*
X127004264Y-87442882D01*
X127018543Y-87446459D01*
X127032403Y-87451418D01*
X127045710Y-87457712D01*
X127058336Y-87465280D01*
X127070159Y-87474048D01*
X127081066Y-87483934D01*
X127090952Y-87494841D01*
X127099720Y-87506664D01*
X127107288Y-87519290D01*
X127113582Y-87532597D01*
X127118541Y-87546457D01*
X127122118Y-87560736D01*
X127124278Y-87575297D01*
X127125000Y-87590000D01*
X127125000Y-87890000D01*
X127124278Y-87904703D01*
X127122118Y-87919264D01*
X127118541Y-87933543D01*
X127113582Y-87947403D01*
X127107288Y-87960710D01*
X127099720Y-87973336D01*
X127090952Y-87985159D01*
X127081066Y-87996066D01*
X127070159Y-88005952D01*
X127058336Y-88014720D01*
X127045710Y-88022288D01*
X127032403Y-88028582D01*
X127018543Y-88033541D01*
X127004264Y-88037118D01*
X126989703Y-88039278D01*
X126975000Y-88040000D01*
X125875000Y-88040000D01*
X125860297Y-88039278D01*
X125845736Y-88037118D01*
X125831457Y-88033541D01*
X125817597Y-88028582D01*
X125804290Y-88022288D01*
X125791664Y-88014720D01*
X125779841Y-88005952D01*
X125768934Y-87996066D01*
X125759048Y-87985159D01*
X125750280Y-87973336D01*
X125742712Y-87960710D01*
X125736418Y-87947403D01*
X125731459Y-87933543D01*
X125727882Y-87919264D01*
X125725722Y-87904703D01*
X125725000Y-87890000D01*
X125725000Y-87590000D01*
X125725722Y-87575297D01*
X125727882Y-87560736D01*
X125731459Y-87546457D01*
X125736418Y-87532597D01*
X125742712Y-87519290D01*
X125750280Y-87506664D01*
X125759048Y-87494841D01*
X125768934Y-87483934D01*
X125779841Y-87474048D01*
X125791664Y-87465280D01*
X125804290Y-87457712D01*
X125817597Y-87451418D01*
X125831457Y-87446459D01*
X125845736Y-87442882D01*
X125860297Y-87440722D01*
X125875000Y-87440000D01*
X126975000Y-87440000D01*
X126989703Y-87440722D01*
X126989703Y-87440722D01*
G37*
D11*
X126425000Y-87740000D03*
D10*
G36*
X120989703Y-87440722D02*
G01*
X121004264Y-87442882D01*
X121018543Y-87446459D01*
X121032403Y-87451418D01*
X121045710Y-87457712D01*
X121058336Y-87465280D01*
X121070159Y-87474048D01*
X121081066Y-87483934D01*
X121090952Y-87494841D01*
X121099720Y-87506664D01*
X121107288Y-87519290D01*
X121113582Y-87532597D01*
X121118541Y-87546457D01*
X121122118Y-87560736D01*
X121124278Y-87575297D01*
X121125000Y-87590000D01*
X121125000Y-87890000D01*
X121124278Y-87904703D01*
X121122118Y-87919264D01*
X121118541Y-87933543D01*
X121113582Y-87947403D01*
X121107288Y-87960710D01*
X121099720Y-87973336D01*
X121090952Y-87985159D01*
X121081066Y-87996066D01*
X121070159Y-88005952D01*
X121058336Y-88014720D01*
X121045710Y-88022288D01*
X121032403Y-88028582D01*
X121018543Y-88033541D01*
X121004264Y-88037118D01*
X120989703Y-88039278D01*
X120975000Y-88040000D01*
X119875000Y-88040000D01*
X119860297Y-88039278D01*
X119845736Y-88037118D01*
X119831457Y-88033541D01*
X119817597Y-88028582D01*
X119804290Y-88022288D01*
X119791664Y-88014720D01*
X119779841Y-88005952D01*
X119768934Y-87996066D01*
X119759048Y-87985159D01*
X119750280Y-87973336D01*
X119742712Y-87960710D01*
X119736418Y-87947403D01*
X119731459Y-87933543D01*
X119727882Y-87919264D01*
X119725722Y-87904703D01*
X119725000Y-87890000D01*
X119725000Y-87590000D01*
X119725722Y-87575297D01*
X119727882Y-87560736D01*
X119731459Y-87546457D01*
X119736418Y-87532597D01*
X119742712Y-87519290D01*
X119750280Y-87506664D01*
X119759048Y-87494841D01*
X119768934Y-87483934D01*
X119779841Y-87474048D01*
X119791664Y-87465280D01*
X119804290Y-87457712D01*
X119817597Y-87451418D01*
X119831457Y-87446459D01*
X119845736Y-87442882D01*
X119860297Y-87440722D01*
X119875000Y-87440000D01*
X120975000Y-87440000D01*
X120989703Y-87440722D01*
X120989703Y-87440722D01*
G37*
D11*
X120425000Y-87740000D03*
D10*
G36*
X120989703Y-86170722D02*
G01*
X121004264Y-86172882D01*
X121018543Y-86176459D01*
X121032403Y-86181418D01*
X121045710Y-86187712D01*
X121058336Y-86195280D01*
X121070159Y-86204048D01*
X121081066Y-86213934D01*
X121090952Y-86224841D01*
X121099720Y-86236664D01*
X121107288Y-86249290D01*
X121113582Y-86262597D01*
X121118541Y-86276457D01*
X121122118Y-86290736D01*
X121124278Y-86305297D01*
X121125000Y-86320000D01*
X121125000Y-86620000D01*
X121124278Y-86634703D01*
X121122118Y-86649264D01*
X121118541Y-86663543D01*
X121113582Y-86677403D01*
X121107288Y-86690710D01*
X121099720Y-86703336D01*
X121090952Y-86715159D01*
X121081066Y-86726066D01*
X121070159Y-86735952D01*
X121058336Y-86744720D01*
X121045710Y-86752288D01*
X121032403Y-86758582D01*
X121018543Y-86763541D01*
X121004264Y-86767118D01*
X120989703Y-86769278D01*
X120975000Y-86770000D01*
X119875000Y-86770000D01*
X119860297Y-86769278D01*
X119845736Y-86767118D01*
X119831457Y-86763541D01*
X119817597Y-86758582D01*
X119804290Y-86752288D01*
X119791664Y-86744720D01*
X119779841Y-86735952D01*
X119768934Y-86726066D01*
X119759048Y-86715159D01*
X119750280Y-86703336D01*
X119742712Y-86690710D01*
X119736418Y-86677403D01*
X119731459Y-86663543D01*
X119727882Y-86649264D01*
X119725722Y-86634703D01*
X119725000Y-86620000D01*
X119725000Y-86320000D01*
X119725722Y-86305297D01*
X119727882Y-86290736D01*
X119731459Y-86276457D01*
X119736418Y-86262597D01*
X119742712Y-86249290D01*
X119750280Y-86236664D01*
X119759048Y-86224841D01*
X119768934Y-86213934D01*
X119779841Y-86204048D01*
X119791664Y-86195280D01*
X119804290Y-86187712D01*
X119817597Y-86181418D01*
X119831457Y-86176459D01*
X119845736Y-86172882D01*
X119860297Y-86170722D01*
X119875000Y-86170000D01*
X120975000Y-86170000D01*
X120989703Y-86170722D01*
X120989703Y-86170722D01*
G37*
D11*
X120425000Y-86470000D03*
D10*
G36*
X120989703Y-84900722D02*
G01*
X121004264Y-84902882D01*
X121018543Y-84906459D01*
X121032403Y-84911418D01*
X121045710Y-84917712D01*
X121058336Y-84925280D01*
X121070159Y-84934048D01*
X121081066Y-84943934D01*
X121090952Y-84954841D01*
X121099720Y-84966664D01*
X121107288Y-84979290D01*
X121113582Y-84992597D01*
X121118541Y-85006457D01*
X121122118Y-85020736D01*
X121124278Y-85035297D01*
X121125000Y-85050000D01*
X121125000Y-85350000D01*
X121124278Y-85364703D01*
X121122118Y-85379264D01*
X121118541Y-85393543D01*
X121113582Y-85407403D01*
X121107288Y-85420710D01*
X121099720Y-85433336D01*
X121090952Y-85445159D01*
X121081066Y-85456066D01*
X121070159Y-85465952D01*
X121058336Y-85474720D01*
X121045710Y-85482288D01*
X121032403Y-85488582D01*
X121018543Y-85493541D01*
X121004264Y-85497118D01*
X120989703Y-85499278D01*
X120975000Y-85500000D01*
X119875000Y-85500000D01*
X119860297Y-85499278D01*
X119845736Y-85497118D01*
X119831457Y-85493541D01*
X119817597Y-85488582D01*
X119804290Y-85482288D01*
X119791664Y-85474720D01*
X119779841Y-85465952D01*
X119768934Y-85456066D01*
X119759048Y-85445159D01*
X119750280Y-85433336D01*
X119742712Y-85420710D01*
X119736418Y-85407403D01*
X119731459Y-85393543D01*
X119727882Y-85379264D01*
X119725722Y-85364703D01*
X119725000Y-85350000D01*
X119725000Y-85050000D01*
X119725722Y-85035297D01*
X119727882Y-85020736D01*
X119731459Y-85006457D01*
X119736418Y-84992597D01*
X119742712Y-84979290D01*
X119750280Y-84966664D01*
X119759048Y-84954841D01*
X119768934Y-84943934D01*
X119779841Y-84934048D01*
X119791664Y-84925280D01*
X119804290Y-84917712D01*
X119817597Y-84911418D01*
X119831457Y-84906459D01*
X119845736Y-84902882D01*
X119860297Y-84900722D01*
X119875000Y-84900000D01*
X120975000Y-84900000D01*
X120989703Y-84900722D01*
X120989703Y-84900722D01*
G37*
D11*
X120425000Y-85200000D03*
D10*
G36*
X120989703Y-83630722D02*
G01*
X121004264Y-83632882D01*
X121018543Y-83636459D01*
X121032403Y-83641418D01*
X121045710Y-83647712D01*
X121058336Y-83655280D01*
X121070159Y-83664048D01*
X121081066Y-83673934D01*
X121090952Y-83684841D01*
X121099720Y-83696664D01*
X121107288Y-83709290D01*
X121113582Y-83722597D01*
X121118541Y-83736457D01*
X121122118Y-83750736D01*
X121124278Y-83765297D01*
X121125000Y-83780000D01*
X121125000Y-84080000D01*
X121124278Y-84094703D01*
X121122118Y-84109264D01*
X121118541Y-84123543D01*
X121113582Y-84137403D01*
X121107288Y-84150710D01*
X121099720Y-84163336D01*
X121090952Y-84175159D01*
X121081066Y-84186066D01*
X121070159Y-84195952D01*
X121058336Y-84204720D01*
X121045710Y-84212288D01*
X121032403Y-84218582D01*
X121018543Y-84223541D01*
X121004264Y-84227118D01*
X120989703Y-84229278D01*
X120975000Y-84230000D01*
X119875000Y-84230000D01*
X119860297Y-84229278D01*
X119845736Y-84227118D01*
X119831457Y-84223541D01*
X119817597Y-84218582D01*
X119804290Y-84212288D01*
X119791664Y-84204720D01*
X119779841Y-84195952D01*
X119768934Y-84186066D01*
X119759048Y-84175159D01*
X119750280Y-84163336D01*
X119742712Y-84150710D01*
X119736418Y-84137403D01*
X119731459Y-84123543D01*
X119727882Y-84109264D01*
X119725722Y-84094703D01*
X119725000Y-84080000D01*
X119725000Y-83780000D01*
X119725722Y-83765297D01*
X119727882Y-83750736D01*
X119731459Y-83736457D01*
X119736418Y-83722597D01*
X119742712Y-83709290D01*
X119750280Y-83696664D01*
X119759048Y-83684841D01*
X119768934Y-83673934D01*
X119779841Y-83664048D01*
X119791664Y-83655280D01*
X119804290Y-83647712D01*
X119817597Y-83641418D01*
X119831457Y-83636459D01*
X119845736Y-83632882D01*
X119860297Y-83630722D01*
X119875000Y-83630000D01*
X120975000Y-83630000D01*
X120989703Y-83630722D01*
X120989703Y-83630722D01*
G37*
D11*
X120425000Y-83930000D03*
D10*
G36*
X120989703Y-82360722D02*
G01*
X121004264Y-82362882D01*
X121018543Y-82366459D01*
X121032403Y-82371418D01*
X121045710Y-82377712D01*
X121058336Y-82385280D01*
X121070159Y-82394048D01*
X121081066Y-82403934D01*
X121090952Y-82414841D01*
X121099720Y-82426664D01*
X121107288Y-82439290D01*
X121113582Y-82452597D01*
X121118541Y-82466457D01*
X121122118Y-82480736D01*
X121124278Y-82495297D01*
X121125000Y-82510000D01*
X121125000Y-82810000D01*
X121124278Y-82824703D01*
X121122118Y-82839264D01*
X121118541Y-82853543D01*
X121113582Y-82867403D01*
X121107288Y-82880710D01*
X121099720Y-82893336D01*
X121090952Y-82905159D01*
X121081066Y-82916066D01*
X121070159Y-82925952D01*
X121058336Y-82934720D01*
X121045710Y-82942288D01*
X121032403Y-82948582D01*
X121018543Y-82953541D01*
X121004264Y-82957118D01*
X120989703Y-82959278D01*
X120975000Y-82960000D01*
X119875000Y-82960000D01*
X119860297Y-82959278D01*
X119845736Y-82957118D01*
X119831457Y-82953541D01*
X119817597Y-82948582D01*
X119804290Y-82942288D01*
X119791664Y-82934720D01*
X119779841Y-82925952D01*
X119768934Y-82916066D01*
X119759048Y-82905159D01*
X119750280Y-82893336D01*
X119742712Y-82880710D01*
X119736418Y-82867403D01*
X119731459Y-82853543D01*
X119727882Y-82839264D01*
X119725722Y-82824703D01*
X119725000Y-82810000D01*
X119725000Y-82510000D01*
X119725722Y-82495297D01*
X119727882Y-82480736D01*
X119731459Y-82466457D01*
X119736418Y-82452597D01*
X119742712Y-82439290D01*
X119750280Y-82426664D01*
X119759048Y-82414841D01*
X119768934Y-82403934D01*
X119779841Y-82394048D01*
X119791664Y-82385280D01*
X119804290Y-82377712D01*
X119817597Y-82371418D01*
X119831457Y-82366459D01*
X119845736Y-82362882D01*
X119860297Y-82360722D01*
X119875000Y-82360000D01*
X120975000Y-82360000D01*
X120989703Y-82360722D01*
X120989703Y-82360722D01*
G37*
D11*
X120425000Y-82660000D03*
D10*
G36*
X120989703Y-81090722D02*
G01*
X121004264Y-81092882D01*
X121018543Y-81096459D01*
X121032403Y-81101418D01*
X121045710Y-81107712D01*
X121058336Y-81115280D01*
X121070159Y-81124048D01*
X121081066Y-81133934D01*
X121090952Y-81144841D01*
X121099720Y-81156664D01*
X121107288Y-81169290D01*
X121113582Y-81182597D01*
X121118541Y-81196457D01*
X121122118Y-81210736D01*
X121124278Y-81225297D01*
X121125000Y-81240000D01*
X121125000Y-81540000D01*
X121124278Y-81554703D01*
X121122118Y-81569264D01*
X121118541Y-81583543D01*
X121113582Y-81597403D01*
X121107288Y-81610710D01*
X121099720Y-81623336D01*
X121090952Y-81635159D01*
X121081066Y-81646066D01*
X121070159Y-81655952D01*
X121058336Y-81664720D01*
X121045710Y-81672288D01*
X121032403Y-81678582D01*
X121018543Y-81683541D01*
X121004264Y-81687118D01*
X120989703Y-81689278D01*
X120975000Y-81690000D01*
X119875000Y-81690000D01*
X119860297Y-81689278D01*
X119845736Y-81687118D01*
X119831457Y-81683541D01*
X119817597Y-81678582D01*
X119804290Y-81672288D01*
X119791664Y-81664720D01*
X119779841Y-81655952D01*
X119768934Y-81646066D01*
X119759048Y-81635159D01*
X119750280Y-81623336D01*
X119742712Y-81610710D01*
X119736418Y-81597403D01*
X119731459Y-81583543D01*
X119727882Y-81569264D01*
X119725722Y-81554703D01*
X119725000Y-81540000D01*
X119725000Y-81240000D01*
X119725722Y-81225297D01*
X119727882Y-81210736D01*
X119731459Y-81196457D01*
X119736418Y-81182597D01*
X119742712Y-81169290D01*
X119750280Y-81156664D01*
X119759048Y-81144841D01*
X119768934Y-81133934D01*
X119779841Y-81124048D01*
X119791664Y-81115280D01*
X119804290Y-81107712D01*
X119817597Y-81101418D01*
X119831457Y-81096459D01*
X119845736Y-81092882D01*
X119860297Y-81090722D01*
X119875000Y-81090000D01*
X120975000Y-81090000D01*
X120989703Y-81090722D01*
X120989703Y-81090722D01*
G37*
D11*
X120425000Y-81390000D03*
D10*
G36*
X120989703Y-79820722D02*
G01*
X121004264Y-79822882D01*
X121018543Y-79826459D01*
X121032403Y-79831418D01*
X121045710Y-79837712D01*
X121058336Y-79845280D01*
X121070159Y-79854048D01*
X121081066Y-79863934D01*
X121090952Y-79874841D01*
X121099720Y-79886664D01*
X121107288Y-79899290D01*
X121113582Y-79912597D01*
X121118541Y-79926457D01*
X121122118Y-79940736D01*
X121124278Y-79955297D01*
X121125000Y-79970000D01*
X121125000Y-80270000D01*
X121124278Y-80284703D01*
X121122118Y-80299264D01*
X121118541Y-80313543D01*
X121113582Y-80327403D01*
X121107288Y-80340710D01*
X121099720Y-80353336D01*
X121090952Y-80365159D01*
X121081066Y-80376066D01*
X121070159Y-80385952D01*
X121058336Y-80394720D01*
X121045710Y-80402288D01*
X121032403Y-80408582D01*
X121018543Y-80413541D01*
X121004264Y-80417118D01*
X120989703Y-80419278D01*
X120975000Y-80420000D01*
X119875000Y-80420000D01*
X119860297Y-80419278D01*
X119845736Y-80417118D01*
X119831457Y-80413541D01*
X119817597Y-80408582D01*
X119804290Y-80402288D01*
X119791664Y-80394720D01*
X119779841Y-80385952D01*
X119768934Y-80376066D01*
X119759048Y-80365159D01*
X119750280Y-80353336D01*
X119742712Y-80340710D01*
X119736418Y-80327403D01*
X119731459Y-80313543D01*
X119727882Y-80299264D01*
X119725722Y-80284703D01*
X119725000Y-80270000D01*
X119725000Y-79970000D01*
X119725722Y-79955297D01*
X119727882Y-79940736D01*
X119731459Y-79926457D01*
X119736418Y-79912597D01*
X119742712Y-79899290D01*
X119750280Y-79886664D01*
X119759048Y-79874841D01*
X119768934Y-79863934D01*
X119779841Y-79854048D01*
X119791664Y-79845280D01*
X119804290Y-79837712D01*
X119817597Y-79831418D01*
X119831457Y-79826459D01*
X119845736Y-79822882D01*
X119860297Y-79820722D01*
X119875000Y-79820000D01*
X120975000Y-79820000D01*
X120989703Y-79820722D01*
X120989703Y-79820722D01*
G37*
D11*
X120425000Y-80120000D03*
D12*
X131000000Y-73150000D03*
X131000000Y-93120000D03*
X131000000Y-70680000D03*
D10*
G36*
X128289603Y-91000963D02*
G01*
X128309018Y-91003843D01*
X128328057Y-91008612D01*
X128346537Y-91015224D01*
X128364279Y-91023616D01*
X128381114Y-91033706D01*
X128396879Y-91045398D01*
X128411421Y-91058579D01*
X128424602Y-91073121D01*
X128436294Y-91088886D01*
X128446384Y-91105721D01*
X128454776Y-91123463D01*
X128461388Y-91141943D01*
X128466157Y-91160982D01*
X128469037Y-91180397D01*
X128470000Y-91200000D01*
X128470000Y-91800000D01*
X128469037Y-91819603D01*
X128466157Y-91839018D01*
X128461388Y-91858057D01*
X128454776Y-91876537D01*
X128446384Y-91894279D01*
X128436294Y-91911114D01*
X128424602Y-91926879D01*
X128411421Y-91941421D01*
X128396879Y-91954602D01*
X128381114Y-91966294D01*
X128364279Y-91976384D01*
X128346537Y-91984776D01*
X128328057Y-91991388D01*
X128309018Y-91996157D01*
X128289603Y-91999037D01*
X128270000Y-92000000D01*
X127870000Y-92000000D01*
X127850397Y-91999037D01*
X127830982Y-91996157D01*
X127811943Y-91991388D01*
X127793463Y-91984776D01*
X127775721Y-91976384D01*
X127758886Y-91966294D01*
X127743121Y-91954602D01*
X127728579Y-91941421D01*
X127715398Y-91926879D01*
X127703706Y-91911114D01*
X127693616Y-91894279D01*
X127685224Y-91876537D01*
X127678612Y-91858057D01*
X127673843Y-91839018D01*
X127670963Y-91819603D01*
X127670000Y-91800000D01*
X127670000Y-91200000D01*
X127670963Y-91180397D01*
X127673843Y-91160982D01*
X127678612Y-91141943D01*
X127685224Y-91123463D01*
X127693616Y-91105721D01*
X127703706Y-91088886D01*
X127715398Y-91073121D01*
X127728579Y-91058579D01*
X127743121Y-91045398D01*
X127758886Y-91033706D01*
X127775721Y-91023616D01*
X127793463Y-91015224D01*
X127811943Y-91008612D01*
X127830982Y-91003843D01*
X127850397Y-91000963D01*
X127870000Y-91000000D01*
X128270000Y-91000000D01*
X128289603Y-91000963D01*
X128289603Y-91000963D01*
G37*
D13*
X128070000Y-91500000D03*
D10*
G36*
X128289603Y-93000963D02*
G01*
X128309018Y-93003843D01*
X128328057Y-93008612D01*
X128346537Y-93015224D01*
X128364279Y-93023616D01*
X128381114Y-93033706D01*
X128396879Y-93045398D01*
X128411421Y-93058579D01*
X128424602Y-93073121D01*
X128436294Y-93088886D01*
X128446384Y-93105721D01*
X128454776Y-93123463D01*
X128461388Y-93141943D01*
X128466157Y-93160982D01*
X128469037Y-93180397D01*
X128470000Y-93200000D01*
X128470000Y-93800000D01*
X128469037Y-93819603D01*
X128466157Y-93839018D01*
X128461388Y-93858057D01*
X128454776Y-93876537D01*
X128446384Y-93894279D01*
X128436294Y-93911114D01*
X128424602Y-93926879D01*
X128411421Y-93941421D01*
X128396879Y-93954602D01*
X128381114Y-93966294D01*
X128364279Y-93976384D01*
X128346537Y-93984776D01*
X128328057Y-93991388D01*
X128309018Y-93996157D01*
X128289603Y-93999037D01*
X128270000Y-94000000D01*
X127870000Y-94000000D01*
X127850397Y-93999037D01*
X127830982Y-93996157D01*
X127811943Y-93991388D01*
X127793463Y-93984776D01*
X127775721Y-93976384D01*
X127758886Y-93966294D01*
X127743121Y-93954602D01*
X127728579Y-93941421D01*
X127715398Y-93926879D01*
X127703706Y-93911114D01*
X127693616Y-93894279D01*
X127685224Y-93876537D01*
X127678612Y-93858057D01*
X127673843Y-93839018D01*
X127670963Y-93819603D01*
X127670000Y-93800000D01*
X127670000Y-93200000D01*
X127670963Y-93180397D01*
X127673843Y-93160982D01*
X127678612Y-93141943D01*
X127685224Y-93123463D01*
X127693616Y-93105721D01*
X127703706Y-93088886D01*
X127715398Y-93073121D01*
X127728579Y-93058579D01*
X127743121Y-93045398D01*
X127758886Y-93033706D01*
X127775721Y-93023616D01*
X127793463Y-93015224D01*
X127811943Y-93008612D01*
X127830982Y-93003843D01*
X127850397Y-93000963D01*
X127870000Y-93000000D01*
X128270000Y-93000000D01*
X128289603Y-93000963D01*
X128289603Y-93000963D01*
G37*
D13*
X128070000Y-93500000D03*
D10*
G36*
X127019603Y-91000963D02*
G01*
X127039018Y-91003843D01*
X127058057Y-91008612D01*
X127076537Y-91015224D01*
X127094279Y-91023616D01*
X127111114Y-91033706D01*
X127126879Y-91045398D01*
X127141421Y-91058579D01*
X127154602Y-91073121D01*
X127166294Y-91088886D01*
X127176384Y-91105721D01*
X127184776Y-91123463D01*
X127191388Y-91141943D01*
X127196157Y-91160982D01*
X127199037Y-91180397D01*
X127200000Y-91200000D01*
X127200000Y-91800000D01*
X127199037Y-91819603D01*
X127196157Y-91839018D01*
X127191388Y-91858057D01*
X127184776Y-91876537D01*
X127176384Y-91894279D01*
X127166294Y-91911114D01*
X127154602Y-91926879D01*
X127141421Y-91941421D01*
X127126879Y-91954602D01*
X127111114Y-91966294D01*
X127094279Y-91976384D01*
X127076537Y-91984776D01*
X127058057Y-91991388D01*
X127039018Y-91996157D01*
X127019603Y-91999037D01*
X127000000Y-92000000D01*
X126600000Y-92000000D01*
X126580397Y-91999037D01*
X126560982Y-91996157D01*
X126541943Y-91991388D01*
X126523463Y-91984776D01*
X126505721Y-91976384D01*
X126488886Y-91966294D01*
X126473121Y-91954602D01*
X126458579Y-91941421D01*
X126445398Y-91926879D01*
X126433706Y-91911114D01*
X126423616Y-91894279D01*
X126415224Y-91876537D01*
X126408612Y-91858057D01*
X126403843Y-91839018D01*
X126400963Y-91819603D01*
X126400000Y-91800000D01*
X126400000Y-91200000D01*
X126400963Y-91180397D01*
X126403843Y-91160982D01*
X126408612Y-91141943D01*
X126415224Y-91123463D01*
X126423616Y-91105721D01*
X126433706Y-91088886D01*
X126445398Y-91073121D01*
X126458579Y-91058579D01*
X126473121Y-91045398D01*
X126488886Y-91033706D01*
X126505721Y-91023616D01*
X126523463Y-91015224D01*
X126541943Y-91008612D01*
X126560982Y-91003843D01*
X126580397Y-91000963D01*
X126600000Y-91000000D01*
X127000000Y-91000000D01*
X127019603Y-91000963D01*
X127019603Y-91000963D01*
G37*
D13*
X126800000Y-91500000D03*
D10*
G36*
X127019603Y-93000963D02*
G01*
X127039018Y-93003843D01*
X127058057Y-93008612D01*
X127076537Y-93015224D01*
X127094279Y-93023616D01*
X127111114Y-93033706D01*
X127126879Y-93045398D01*
X127141421Y-93058579D01*
X127154602Y-93073121D01*
X127166294Y-93088886D01*
X127176384Y-93105721D01*
X127184776Y-93123463D01*
X127191388Y-93141943D01*
X127196157Y-93160982D01*
X127199037Y-93180397D01*
X127200000Y-93200000D01*
X127200000Y-93800000D01*
X127199037Y-93819603D01*
X127196157Y-93839018D01*
X127191388Y-93858057D01*
X127184776Y-93876537D01*
X127176384Y-93894279D01*
X127166294Y-93911114D01*
X127154602Y-93926879D01*
X127141421Y-93941421D01*
X127126879Y-93954602D01*
X127111114Y-93966294D01*
X127094279Y-93976384D01*
X127076537Y-93984776D01*
X127058057Y-93991388D01*
X127039018Y-93996157D01*
X127019603Y-93999037D01*
X127000000Y-94000000D01*
X126600000Y-94000000D01*
X126580397Y-93999037D01*
X126560982Y-93996157D01*
X126541943Y-93991388D01*
X126523463Y-93984776D01*
X126505721Y-93976384D01*
X126488886Y-93966294D01*
X126473121Y-93954602D01*
X126458579Y-93941421D01*
X126445398Y-93926879D01*
X126433706Y-93911114D01*
X126423616Y-93894279D01*
X126415224Y-93876537D01*
X126408612Y-93858057D01*
X126403843Y-93839018D01*
X126400963Y-93819603D01*
X126400000Y-93800000D01*
X126400000Y-93200000D01*
X126400963Y-93180397D01*
X126403843Y-93160982D01*
X126408612Y-93141943D01*
X126415224Y-93123463D01*
X126423616Y-93105721D01*
X126433706Y-93088886D01*
X126445398Y-93073121D01*
X126458579Y-93058579D01*
X126473121Y-93045398D01*
X126488886Y-93033706D01*
X126505721Y-93023616D01*
X126523463Y-93015224D01*
X126541943Y-93008612D01*
X126560982Y-93003843D01*
X126580397Y-93000963D01*
X126600000Y-93000000D01*
X127000000Y-93000000D01*
X127019603Y-93000963D01*
X127019603Y-93000963D01*
G37*
D13*
X126800000Y-93500000D03*
D10*
G36*
X125749603Y-91000963D02*
G01*
X125769018Y-91003843D01*
X125788057Y-91008612D01*
X125806537Y-91015224D01*
X125824279Y-91023616D01*
X125841114Y-91033706D01*
X125856879Y-91045398D01*
X125871421Y-91058579D01*
X125884602Y-91073121D01*
X125896294Y-91088886D01*
X125906384Y-91105721D01*
X125914776Y-91123463D01*
X125921388Y-91141943D01*
X125926157Y-91160982D01*
X125929037Y-91180397D01*
X125930000Y-91200000D01*
X125930000Y-91800000D01*
X125929037Y-91819603D01*
X125926157Y-91839018D01*
X125921388Y-91858057D01*
X125914776Y-91876537D01*
X125906384Y-91894279D01*
X125896294Y-91911114D01*
X125884602Y-91926879D01*
X125871421Y-91941421D01*
X125856879Y-91954602D01*
X125841114Y-91966294D01*
X125824279Y-91976384D01*
X125806537Y-91984776D01*
X125788057Y-91991388D01*
X125769018Y-91996157D01*
X125749603Y-91999037D01*
X125730000Y-92000000D01*
X125330000Y-92000000D01*
X125310397Y-91999037D01*
X125290982Y-91996157D01*
X125271943Y-91991388D01*
X125253463Y-91984776D01*
X125235721Y-91976384D01*
X125218886Y-91966294D01*
X125203121Y-91954602D01*
X125188579Y-91941421D01*
X125175398Y-91926879D01*
X125163706Y-91911114D01*
X125153616Y-91894279D01*
X125145224Y-91876537D01*
X125138612Y-91858057D01*
X125133843Y-91839018D01*
X125130963Y-91819603D01*
X125130000Y-91800000D01*
X125130000Y-91200000D01*
X125130963Y-91180397D01*
X125133843Y-91160982D01*
X125138612Y-91141943D01*
X125145224Y-91123463D01*
X125153616Y-91105721D01*
X125163706Y-91088886D01*
X125175398Y-91073121D01*
X125188579Y-91058579D01*
X125203121Y-91045398D01*
X125218886Y-91033706D01*
X125235721Y-91023616D01*
X125253463Y-91015224D01*
X125271943Y-91008612D01*
X125290982Y-91003843D01*
X125310397Y-91000963D01*
X125330000Y-91000000D01*
X125730000Y-91000000D01*
X125749603Y-91000963D01*
X125749603Y-91000963D01*
G37*
D13*
X125530000Y-91500000D03*
D14*
X125530000Y-93500000D03*
D10*
G36*
X112477691Y-79451053D02*
G01*
X112498926Y-79454203D01*
X112519750Y-79459419D01*
X112539962Y-79466651D01*
X112559368Y-79475830D01*
X112577781Y-79486866D01*
X112595024Y-79499654D01*
X112610930Y-79514070D01*
X112625346Y-79529976D01*
X112638134Y-79547219D01*
X112649170Y-79565632D01*
X112658349Y-79585038D01*
X112665581Y-79605250D01*
X112670797Y-79626074D01*
X112673947Y-79647309D01*
X112675000Y-79668750D01*
X112675000Y-80106250D01*
X112673947Y-80127691D01*
X112670797Y-80148926D01*
X112665581Y-80169750D01*
X112658349Y-80189962D01*
X112649170Y-80209368D01*
X112638134Y-80227781D01*
X112625346Y-80245024D01*
X112610930Y-80260930D01*
X112595024Y-80275346D01*
X112577781Y-80288134D01*
X112559368Y-80299170D01*
X112539962Y-80308349D01*
X112519750Y-80315581D01*
X112498926Y-80320797D01*
X112477691Y-80323947D01*
X112456250Y-80325000D01*
X111943750Y-80325000D01*
X111922309Y-80323947D01*
X111901074Y-80320797D01*
X111880250Y-80315581D01*
X111860038Y-80308349D01*
X111840632Y-80299170D01*
X111822219Y-80288134D01*
X111804976Y-80275346D01*
X111789070Y-80260930D01*
X111774654Y-80245024D01*
X111761866Y-80227781D01*
X111750830Y-80209368D01*
X111741651Y-80189962D01*
X111734419Y-80169750D01*
X111729203Y-80148926D01*
X111726053Y-80127691D01*
X111725000Y-80106250D01*
X111725000Y-79668750D01*
X111726053Y-79647309D01*
X111729203Y-79626074D01*
X111734419Y-79605250D01*
X111741651Y-79585038D01*
X111750830Y-79565632D01*
X111761866Y-79547219D01*
X111774654Y-79529976D01*
X111789070Y-79514070D01*
X111804976Y-79499654D01*
X111822219Y-79486866D01*
X111840632Y-79475830D01*
X111860038Y-79466651D01*
X111880250Y-79459419D01*
X111901074Y-79454203D01*
X111922309Y-79451053D01*
X111943750Y-79450000D01*
X112456250Y-79450000D01*
X112477691Y-79451053D01*
X112477691Y-79451053D01*
G37*
D15*
X112200000Y-79887500D03*
D10*
G36*
X112477691Y-77876053D02*
G01*
X112498926Y-77879203D01*
X112519750Y-77884419D01*
X112539962Y-77891651D01*
X112559368Y-77900830D01*
X112577781Y-77911866D01*
X112595024Y-77924654D01*
X112610930Y-77939070D01*
X112625346Y-77954976D01*
X112638134Y-77972219D01*
X112649170Y-77990632D01*
X112658349Y-78010038D01*
X112665581Y-78030250D01*
X112670797Y-78051074D01*
X112673947Y-78072309D01*
X112675000Y-78093750D01*
X112675000Y-78531250D01*
X112673947Y-78552691D01*
X112670797Y-78573926D01*
X112665581Y-78594750D01*
X112658349Y-78614962D01*
X112649170Y-78634368D01*
X112638134Y-78652781D01*
X112625346Y-78670024D01*
X112610930Y-78685930D01*
X112595024Y-78700346D01*
X112577781Y-78713134D01*
X112559368Y-78724170D01*
X112539962Y-78733349D01*
X112519750Y-78740581D01*
X112498926Y-78745797D01*
X112477691Y-78748947D01*
X112456250Y-78750000D01*
X111943750Y-78750000D01*
X111922309Y-78748947D01*
X111901074Y-78745797D01*
X111880250Y-78740581D01*
X111860038Y-78733349D01*
X111840632Y-78724170D01*
X111822219Y-78713134D01*
X111804976Y-78700346D01*
X111789070Y-78685930D01*
X111774654Y-78670024D01*
X111761866Y-78652781D01*
X111750830Y-78634368D01*
X111741651Y-78614962D01*
X111734419Y-78594750D01*
X111729203Y-78573926D01*
X111726053Y-78552691D01*
X111725000Y-78531250D01*
X111725000Y-78093750D01*
X111726053Y-78072309D01*
X111729203Y-78051074D01*
X111734419Y-78030250D01*
X111741651Y-78010038D01*
X111750830Y-77990632D01*
X111761866Y-77972219D01*
X111774654Y-77954976D01*
X111789070Y-77939070D01*
X111804976Y-77924654D01*
X111822219Y-77911866D01*
X111840632Y-77900830D01*
X111860038Y-77891651D01*
X111880250Y-77884419D01*
X111901074Y-77879203D01*
X111922309Y-77876053D01*
X111943750Y-77875000D01*
X112456250Y-77875000D01*
X112477691Y-77876053D01*
X112477691Y-77876053D01*
G37*
D15*
X112200000Y-78312500D03*
D10*
G36*
X124527691Y-77426053D02*
G01*
X124548926Y-77429203D01*
X124569750Y-77434419D01*
X124589962Y-77441651D01*
X124609368Y-77450830D01*
X124627781Y-77461866D01*
X124645024Y-77474654D01*
X124660930Y-77489070D01*
X124675346Y-77504976D01*
X124688134Y-77522219D01*
X124699170Y-77540632D01*
X124708349Y-77560038D01*
X124715581Y-77580250D01*
X124720797Y-77601074D01*
X124723947Y-77622309D01*
X124725000Y-77643750D01*
X124725000Y-78156250D01*
X124723947Y-78177691D01*
X124720797Y-78198926D01*
X124715581Y-78219750D01*
X124708349Y-78239962D01*
X124699170Y-78259368D01*
X124688134Y-78277781D01*
X124675346Y-78295024D01*
X124660930Y-78310930D01*
X124645024Y-78325346D01*
X124627781Y-78338134D01*
X124609368Y-78349170D01*
X124589962Y-78358349D01*
X124569750Y-78365581D01*
X124548926Y-78370797D01*
X124527691Y-78373947D01*
X124506250Y-78375000D01*
X124068750Y-78375000D01*
X124047309Y-78373947D01*
X124026074Y-78370797D01*
X124005250Y-78365581D01*
X123985038Y-78358349D01*
X123965632Y-78349170D01*
X123947219Y-78338134D01*
X123929976Y-78325346D01*
X123914070Y-78310930D01*
X123899654Y-78295024D01*
X123886866Y-78277781D01*
X123875830Y-78259368D01*
X123866651Y-78239962D01*
X123859419Y-78219750D01*
X123854203Y-78198926D01*
X123851053Y-78177691D01*
X123850000Y-78156250D01*
X123850000Y-77643750D01*
X123851053Y-77622309D01*
X123854203Y-77601074D01*
X123859419Y-77580250D01*
X123866651Y-77560038D01*
X123875830Y-77540632D01*
X123886866Y-77522219D01*
X123899654Y-77504976D01*
X123914070Y-77489070D01*
X123929976Y-77474654D01*
X123947219Y-77461866D01*
X123965632Y-77450830D01*
X123985038Y-77441651D01*
X124005250Y-77434419D01*
X124026074Y-77429203D01*
X124047309Y-77426053D01*
X124068750Y-77425000D01*
X124506250Y-77425000D01*
X124527691Y-77426053D01*
X124527691Y-77426053D01*
G37*
D15*
X124287500Y-77900000D03*
D10*
G36*
X122952691Y-77426053D02*
G01*
X122973926Y-77429203D01*
X122994750Y-77434419D01*
X123014962Y-77441651D01*
X123034368Y-77450830D01*
X123052781Y-77461866D01*
X123070024Y-77474654D01*
X123085930Y-77489070D01*
X123100346Y-77504976D01*
X123113134Y-77522219D01*
X123124170Y-77540632D01*
X123133349Y-77560038D01*
X123140581Y-77580250D01*
X123145797Y-77601074D01*
X123148947Y-77622309D01*
X123150000Y-77643750D01*
X123150000Y-78156250D01*
X123148947Y-78177691D01*
X123145797Y-78198926D01*
X123140581Y-78219750D01*
X123133349Y-78239962D01*
X123124170Y-78259368D01*
X123113134Y-78277781D01*
X123100346Y-78295024D01*
X123085930Y-78310930D01*
X123070024Y-78325346D01*
X123052781Y-78338134D01*
X123034368Y-78349170D01*
X123014962Y-78358349D01*
X122994750Y-78365581D01*
X122973926Y-78370797D01*
X122952691Y-78373947D01*
X122931250Y-78375000D01*
X122493750Y-78375000D01*
X122472309Y-78373947D01*
X122451074Y-78370797D01*
X122430250Y-78365581D01*
X122410038Y-78358349D01*
X122390632Y-78349170D01*
X122372219Y-78338134D01*
X122354976Y-78325346D01*
X122339070Y-78310930D01*
X122324654Y-78295024D01*
X122311866Y-78277781D01*
X122300830Y-78259368D01*
X122291651Y-78239962D01*
X122284419Y-78219750D01*
X122279203Y-78198926D01*
X122276053Y-78177691D01*
X122275000Y-78156250D01*
X122275000Y-77643750D01*
X122276053Y-77622309D01*
X122279203Y-77601074D01*
X122284419Y-77580250D01*
X122291651Y-77560038D01*
X122300830Y-77540632D01*
X122311866Y-77522219D01*
X122324654Y-77504976D01*
X122339070Y-77489070D01*
X122354976Y-77474654D01*
X122372219Y-77461866D01*
X122390632Y-77450830D01*
X122410038Y-77441651D01*
X122430250Y-77434419D01*
X122451074Y-77429203D01*
X122472309Y-77426053D01*
X122493750Y-77425000D01*
X122931250Y-77425000D01*
X122952691Y-77426053D01*
X122952691Y-77426053D01*
G37*
D15*
X122712500Y-77900000D03*
D10*
G36*
X130477691Y-81751053D02*
G01*
X130498926Y-81754203D01*
X130519750Y-81759419D01*
X130539962Y-81766651D01*
X130559368Y-81775830D01*
X130577781Y-81786866D01*
X130595024Y-81799654D01*
X130610930Y-81814070D01*
X130625346Y-81829976D01*
X130638134Y-81847219D01*
X130649170Y-81865632D01*
X130658349Y-81885038D01*
X130665581Y-81905250D01*
X130670797Y-81926074D01*
X130673947Y-81947309D01*
X130675000Y-81968750D01*
X130675000Y-82406250D01*
X130673947Y-82427691D01*
X130670797Y-82448926D01*
X130665581Y-82469750D01*
X130658349Y-82489962D01*
X130649170Y-82509368D01*
X130638134Y-82527781D01*
X130625346Y-82545024D01*
X130610930Y-82560930D01*
X130595024Y-82575346D01*
X130577781Y-82588134D01*
X130559368Y-82599170D01*
X130539962Y-82608349D01*
X130519750Y-82615581D01*
X130498926Y-82620797D01*
X130477691Y-82623947D01*
X130456250Y-82625000D01*
X129943750Y-82625000D01*
X129922309Y-82623947D01*
X129901074Y-82620797D01*
X129880250Y-82615581D01*
X129860038Y-82608349D01*
X129840632Y-82599170D01*
X129822219Y-82588134D01*
X129804976Y-82575346D01*
X129789070Y-82560930D01*
X129774654Y-82545024D01*
X129761866Y-82527781D01*
X129750830Y-82509368D01*
X129741651Y-82489962D01*
X129734419Y-82469750D01*
X129729203Y-82448926D01*
X129726053Y-82427691D01*
X129725000Y-82406250D01*
X129725000Y-81968750D01*
X129726053Y-81947309D01*
X129729203Y-81926074D01*
X129734419Y-81905250D01*
X129741651Y-81885038D01*
X129750830Y-81865632D01*
X129761866Y-81847219D01*
X129774654Y-81829976D01*
X129789070Y-81814070D01*
X129804976Y-81799654D01*
X129822219Y-81786866D01*
X129840632Y-81775830D01*
X129860038Y-81766651D01*
X129880250Y-81759419D01*
X129901074Y-81754203D01*
X129922309Y-81751053D01*
X129943750Y-81750000D01*
X130456250Y-81750000D01*
X130477691Y-81751053D01*
X130477691Y-81751053D01*
G37*
D15*
X130200000Y-82187500D03*
D10*
G36*
X130477691Y-80176053D02*
G01*
X130498926Y-80179203D01*
X130519750Y-80184419D01*
X130539962Y-80191651D01*
X130559368Y-80200830D01*
X130577781Y-80211866D01*
X130595024Y-80224654D01*
X130610930Y-80239070D01*
X130625346Y-80254976D01*
X130638134Y-80272219D01*
X130649170Y-80290632D01*
X130658349Y-80310038D01*
X130665581Y-80330250D01*
X130670797Y-80351074D01*
X130673947Y-80372309D01*
X130675000Y-80393750D01*
X130675000Y-80831250D01*
X130673947Y-80852691D01*
X130670797Y-80873926D01*
X130665581Y-80894750D01*
X130658349Y-80914962D01*
X130649170Y-80934368D01*
X130638134Y-80952781D01*
X130625346Y-80970024D01*
X130610930Y-80985930D01*
X130595024Y-81000346D01*
X130577781Y-81013134D01*
X130559368Y-81024170D01*
X130539962Y-81033349D01*
X130519750Y-81040581D01*
X130498926Y-81045797D01*
X130477691Y-81048947D01*
X130456250Y-81050000D01*
X129943750Y-81050000D01*
X129922309Y-81048947D01*
X129901074Y-81045797D01*
X129880250Y-81040581D01*
X129860038Y-81033349D01*
X129840632Y-81024170D01*
X129822219Y-81013134D01*
X129804976Y-81000346D01*
X129789070Y-80985930D01*
X129774654Y-80970024D01*
X129761866Y-80952781D01*
X129750830Y-80934368D01*
X129741651Y-80914962D01*
X129734419Y-80894750D01*
X129729203Y-80873926D01*
X129726053Y-80852691D01*
X129725000Y-80831250D01*
X129725000Y-80393750D01*
X129726053Y-80372309D01*
X129729203Y-80351074D01*
X129734419Y-80330250D01*
X129741651Y-80310038D01*
X129750830Y-80290632D01*
X129761866Y-80272219D01*
X129774654Y-80254976D01*
X129789070Y-80239070D01*
X129804976Y-80224654D01*
X129822219Y-80211866D01*
X129840632Y-80200830D01*
X129860038Y-80191651D01*
X129880250Y-80184419D01*
X129901074Y-80179203D01*
X129922309Y-80176053D01*
X129943750Y-80175000D01*
X130456250Y-80175000D01*
X130477691Y-80176053D01*
X130477691Y-80176053D01*
G37*
D15*
X130200000Y-80612500D03*
D10*
G36*
X113327691Y-84426053D02*
G01*
X113348926Y-84429203D01*
X113369750Y-84434419D01*
X113389962Y-84441651D01*
X113409368Y-84450830D01*
X113427781Y-84461866D01*
X113445024Y-84474654D01*
X113460930Y-84489070D01*
X113475346Y-84504976D01*
X113488134Y-84522219D01*
X113499170Y-84540632D01*
X113508349Y-84560038D01*
X113515581Y-84580250D01*
X113520797Y-84601074D01*
X113523947Y-84622309D01*
X113525000Y-84643750D01*
X113525000Y-85156250D01*
X113523947Y-85177691D01*
X113520797Y-85198926D01*
X113515581Y-85219750D01*
X113508349Y-85239962D01*
X113499170Y-85259368D01*
X113488134Y-85277781D01*
X113475346Y-85295024D01*
X113460930Y-85310930D01*
X113445024Y-85325346D01*
X113427781Y-85338134D01*
X113409368Y-85349170D01*
X113389962Y-85358349D01*
X113369750Y-85365581D01*
X113348926Y-85370797D01*
X113327691Y-85373947D01*
X113306250Y-85375000D01*
X112868750Y-85375000D01*
X112847309Y-85373947D01*
X112826074Y-85370797D01*
X112805250Y-85365581D01*
X112785038Y-85358349D01*
X112765632Y-85349170D01*
X112747219Y-85338134D01*
X112729976Y-85325346D01*
X112714070Y-85310930D01*
X112699654Y-85295024D01*
X112686866Y-85277781D01*
X112675830Y-85259368D01*
X112666651Y-85239962D01*
X112659419Y-85219750D01*
X112654203Y-85198926D01*
X112651053Y-85177691D01*
X112650000Y-85156250D01*
X112650000Y-84643750D01*
X112651053Y-84622309D01*
X112654203Y-84601074D01*
X112659419Y-84580250D01*
X112666651Y-84560038D01*
X112675830Y-84540632D01*
X112686866Y-84522219D01*
X112699654Y-84504976D01*
X112714070Y-84489070D01*
X112729976Y-84474654D01*
X112747219Y-84461866D01*
X112765632Y-84450830D01*
X112785038Y-84441651D01*
X112805250Y-84434419D01*
X112826074Y-84429203D01*
X112847309Y-84426053D01*
X112868750Y-84425000D01*
X113306250Y-84425000D01*
X113327691Y-84426053D01*
X113327691Y-84426053D01*
G37*
D15*
X113087500Y-84900000D03*
D10*
G36*
X111752691Y-84426053D02*
G01*
X111773926Y-84429203D01*
X111794750Y-84434419D01*
X111814962Y-84441651D01*
X111834368Y-84450830D01*
X111852781Y-84461866D01*
X111870024Y-84474654D01*
X111885930Y-84489070D01*
X111900346Y-84504976D01*
X111913134Y-84522219D01*
X111924170Y-84540632D01*
X111933349Y-84560038D01*
X111940581Y-84580250D01*
X111945797Y-84601074D01*
X111948947Y-84622309D01*
X111950000Y-84643750D01*
X111950000Y-85156250D01*
X111948947Y-85177691D01*
X111945797Y-85198926D01*
X111940581Y-85219750D01*
X111933349Y-85239962D01*
X111924170Y-85259368D01*
X111913134Y-85277781D01*
X111900346Y-85295024D01*
X111885930Y-85310930D01*
X111870024Y-85325346D01*
X111852781Y-85338134D01*
X111834368Y-85349170D01*
X111814962Y-85358349D01*
X111794750Y-85365581D01*
X111773926Y-85370797D01*
X111752691Y-85373947D01*
X111731250Y-85375000D01*
X111293750Y-85375000D01*
X111272309Y-85373947D01*
X111251074Y-85370797D01*
X111230250Y-85365581D01*
X111210038Y-85358349D01*
X111190632Y-85349170D01*
X111172219Y-85338134D01*
X111154976Y-85325346D01*
X111139070Y-85310930D01*
X111124654Y-85295024D01*
X111111866Y-85277781D01*
X111100830Y-85259368D01*
X111091651Y-85239962D01*
X111084419Y-85219750D01*
X111079203Y-85198926D01*
X111076053Y-85177691D01*
X111075000Y-85156250D01*
X111075000Y-84643750D01*
X111076053Y-84622309D01*
X111079203Y-84601074D01*
X111084419Y-84580250D01*
X111091651Y-84560038D01*
X111100830Y-84540632D01*
X111111866Y-84522219D01*
X111124654Y-84504976D01*
X111139070Y-84489070D01*
X111154976Y-84474654D01*
X111172219Y-84461866D01*
X111190632Y-84450830D01*
X111210038Y-84441651D01*
X111230250Y-84434419D01*
X111251074Y-84429203D01*
X111272309Y-84426053D01*
X111293750Y-84425000D01*
X111731250Y-84425000D01*
X111752691Y-84426053D01*
X111752691Y-84426053D01*
G37*
D15*
X111512500Y-84900000D03*
D10*
G36*
X111765191Y-86726053D02*
G01*
X111786426Y-86729203D01*
X111807250Y-86734419D01*
X111827462Y-86741651D01*
X111846868Y-86750830D01*
X111865281Y-86761866D01*
X111882524Y-86774654D01*
X111898430Y-86789070D01*
X111912846Y-86804976D01*
X111925634Y-86822219D01*
X111936670Y-86840632D01*
X111945849Y-86860038D01*
X111953081Y-86880250D01*
X111958297Y-86901074D01*
X111961447Y-86922309D01*
X111962500Y-86943750D01*
X111962500Y-87456250D01*
X111961447Y-87477691D01*
X111958297Y-87498926D01*
X111953081Y-87519750D01*
X111945849Y-87539962D01*
X111936670Y-87559368D01*
X111925634Y-87577781D01*
X111912846Y-87595024D01*
X111898430Y-87610930D01*
X111882524Y-87625346D01*
X111865281Y-87638134D01*
X111846868Y-87649170D01*
X111827462Y-87658349D01*
X111807250Y-87665581D01*
X111786426Y-87670797D01*
X111765191Y-87673947D01*
X111743750Y-87675000D01*
X111306250Y-87675000D01*
X111284809Y-87673947D01*
X111263574Y-87670797D01*
X111242750Y-87665581D01*
X111222538Y-87658349D01*
X111203132Y-87649170D01*
X111184719Y-87638134D01*
X111167476Y-87625346D01*
X111151570Y-87610930D01*
X111137154Y-87595024D01*
X111124366Y-87577781D01*
X111113330Y-87559368D01*
X111104151Y-87539962D01*
X111096919Y-87519750D01*
X111091703Y-87498926D01*
X111088553Y-87477691D01*
X111087500Y-87456250D01*
X111087500Y-86943750D01*
X111088553Y-86922309D01*
X111091703Y-86901074D01*
X111096919Y-86880250D01*
X111104151Y-86860038D01*
X111113330Y-86840632D01*
X111124366Y-86822219D01*
X111137154Y-86804976D01*
X111151570Y-86789070D01*
X111167476Y-86774654D01*
X111184719Y-86761866D01*
X111203132Y-86750830D01*
X111222538Y-86741651D01*
X111242750Y-86734419D01*
X111263574Y-86729203D01*
X111284809Y-86726053D01*
X111306250Y-86725000D01*
X111743750Y-86725000D01*
X111765191Y-86726053D01*
X111765191Y-86726053D01*
G37*
D15*
X111525000Y-87200000D03*
D10*
G36*
X113340191Y-86726053D02*
G01*
X113361426Y-86729203D01*
X113382250Y-86734419D01*
X113402462Y-86741651D01*
X113421868Y-86750830D01*
X113440281Y-86761866D01*
X113457524Y-86774654D01*
X113473430Y-86789070D01*
X113487846Y-86804976D01*
X113500634Y-86822219D01*
X113511670Y-86840632D01*
X113520849Y-86860038D01*
X113528081Y-86880250D01*
X113533297Y-86901074D01*
X113536447Y-86922309D01*
X113537500Y-86943750D01*
X113537500Y-87456250D01*
X113536447Y-87477691D01*
X113533297Y-87498926D01*
X113528081Y-87519750D01*
X113520849Y-87539962D01*
X113511670Y-87559368D01*
X113500634Y-87577781D01*
X113487846Y-87595024D01*
X113473430Y-87610930D01*
X113457524Y-87625346D01*
X113440281Y-87638134D01*
X113421868Y-87649170D01*
X113402462Y-87658349D01*
X113382250Y-87665581D01*
X113361426Y-87670797D01*
X113340191Y-87673947D01*
X113318750Y-87675000D01*
X112881250Y-87675000D01*
X112859809Y-87673947D01*
X112838574Y-87670797D01*
X112817750Y-87665581D01*
X112797538Y-87658349D01*
X112778132Y-87649170D01*
X112759719Y-87638134D01*
X112742476Y-87625346D01*
X112726570Y-87610930D01*
X112712154Y-87595024D01*
X112699366Y-87577781D01*
X112688330Y-87559368D01*
X112679151Y-87539962D01*
X112671919Y-87519750D01*
X112666703Y-87498926D01*
X112663553Y-87477691D01*
X112662500Y-87456250D01*
X112662500Y-86943750D01*
X112663553Y-86922309D01*
X112666703Y-86901074D01*
X112671919Y-86880250D01*
X112679151Y-86860038D01*
X112688330Y-86840632D01*
X112699366Y-86822219D01*
X112712154Y-86804976D01*
X112726570Y-86789070D01*
X112742476Y-86774654D01*
X112759719Y-86761866D01*
X112778132Y-86750830D01*
X112797538Y-86741651D01*
X112817750Y-86734419D01*
X112838574Y-86729203D01*
X112859809Y-86726053D01*
X112881250Y-86725000D01*
X113318750Y-86725000D01*
X113340191Y-86726053D01*
X113340191Y-86726053D01*
G37*
D15*
X113100000Y-87200000D03*
D10*
G36*
X111740191Y-82226053D02*
G01*
X111761426Y-82229203D01*
X111782250Y-82234419D01*
X111802462Y-82241651D01*
X111821868Y-82250830D01*
X111840281Y-82261866D01*
X111857524Y-82274654D01*
X111873430Y-82289070D01*
X111887846Y-82304976D01*
X111900634Y-82322219D01*
X111911670Y-82340632D01*
X111920849Y-82360038D01*
X111928081Y-82380250D01*
X111933297Y-82401074D01*
X111936447Y-82422309D01*
X111937500Y-82443750D01*
X111937500Y-82956250D01*
X111936447Y-82977691D01*
X111933297Y-82998926D01*
X111928081Y-83019750D01*
X111920849Y-83039962D01*
X111911670Y-83059368D01*
X111900634Y-83077781D01*
X111887846Y-83095024D01*
X111873430Y-83110930D01*
X111857524Y-83125346D01*
X111840281Y-83138134D01*
X111821868Y-83149170D01*
X111802462Y-83158349D01*
X111782250Y-83165581D01*
X111761426Y-83170797D01*
X111740191Y-83173947D01*
X111718750Y-83175000D01*
X111281250Y-83175000D01*
X111259809Y-83173947D01*
X111238574Y-83170797D01*
X111217750Y-83165581D01*
X111197538Y-83158349D01*
X111178132Y-83149170D01*
X111159719Y-83138134D01*
X111142476Y-83125346D01*
X111126570Y-83110930D01*
X111112154Y-83095024D01*
X111099366Y-83077781D01*
X111088330Y-83059368D01*
X111079151Y-83039962D01*
X111071919Y-83019750D01*
X111066703Y-82998926D01*
X111063553Y-82977691D01*
X111062500Y-82956250D01*
X111062500Y-82443750D01*
X111063553Y-82422309D01*
X111066703Y-82401074D01*
X111071919Y-82380250D01*
X111079151Y-82360038D01*
X111088330Y-82340632D01*
X111099366Y-82322219D01*
X111112154Y-82304976D01*
X111126570Y-82289070D01*
X111142476Y-82274654D01*
X111159719Y-82261866D01*
X111178132Y-82250830D01*
X111197538Y-82241651D01*
X111217750Y-82234419D01*
X111238574Y-82229203D01*
X111259809Y-82226053D01*
X111281250Y-82225000D01*
X111718750Y-82225000D01*
X111740191Y-82226053D01*
X111740191Y-82226053D01*
G37*
D15*
X111500000Y-82700000D03*
D10*
G36*
X113315191Y-82226053D02*
G01*
X113336426Y-82229203D01*
X113357250Y-82234419D01*
X113377462Y-82241651D01*
X113396868Y-82250830D01*
X113415281Y-82261866D01*
X113432524Y-82274654D01*
X113448430Y-82289070D01*
X113462846Y-82304976D01*
X113475634Y-82322219D01*
X113486670Y-82340632D01*
X113495849Y-82360038D01*
X113503081Y-82380250D01*
X113508297Y-82401074D01*
X113511447Y-82422309D01*
X113512500Y-82443750D01*
X113512500Y-82956250D01*
X113511447Y-82977691D01*
X113508297Y-82998926D01*
X113503081Y-83019750D01*
X113495849Y-83039962D01*
X113486670Y-83059368D01*
X113475634Y-83077781D01*
X113462846Y-83095024D01*
X113448430Y-83110930D01*
X113432524Y-83125346D01*
X113415281Y-83138134D01*
X113396868Y-83149170D01*
X113377462Y-83158349D01*
X113357250Y-83165581D01*
X113336426Y-83170797D01*
X113315191Y-83173947D01*
X113293750Y-83175000D01*
X112856250Y-83175000D01*
X112834809Y-83173947D01*
X112813574Y-83170797D01*
X112792750Y-83165581D01*
X112772538Y-83158349D01*
X112753132Y-83149170D01*
X112734719Y-83138134D01*
X112717476Y-83125346D01*
X112701570Y-83110930D01*
X112687154Y-83095024D01*
X112674366Y-83077781D01*
X112663330Y-83059368D01*
X112654151Y-83039962D01*
X112646919Y-83019750D01*
X112641703Y-82998926D01*
X112638553Y-82977691D01*
X112637500Y-82956250D01*
X112637500Y-82443750D01*
X112638553Y-82422309D01*
X112641703Y-82401074D01*
X112646919Y-82380250D01*
X112654151Y-82360038D01*
X112663330Y-82340632D01*
X112674366Y-82322219D01*
X112687154Y-82304976D01*
X112701570Y-82289070D01*
X112717476Y-82274654D01*
X112734719Y-82261866D01*
X112753132Y-82250830D01*
X112772538Y-82241651D01*
X112792750Y-82234419D01*
X112813574Y-82229203D01*
X112834809Y-82226053D01*
X112856250Y-82225000D01*
X113293750Y-82225000D01*
X113315191Y-82226053D01*
X113315191Y-82226053D01*
G37*
D15*
X113075000Y-82700000D03*
D10*
G36*
X130477691Y-76576053D02*
G01*
X130498926Y-76579203D01*
X130519750Y-76584419D01*
X130539962Y-76591651D01*
X130559368Y-76600830D01*
X130577781Y-76611866D01*
X130595024Y-76624654D01*
X130610930Y-76639070D01*
X130625346Y-76654976D01*
X130638134Y-76672219D01*
X130649170Y-76690632D01*
X130658349Y-76710038D01*
X130665581Y-76730250D01*
X130670797Y-76751074D01*
X130673947Y-76772309D01*
X130675000Y-76793750D01*
X130675000Y-77231250D01*
X130673947Y-77252691D01*
X130670797Y-77273926D01*
X130665581Y-77294750D01*
X130658349Y-77314962D01*
X130649170Y-77334368D01*
X130638134Y-77352781D01*
X130625346Y-77370024D01*
X130610930Y-77385930D01*
X130595024Y-77400346D01*
X130577781Y-77413134D01*
X130559368Y-77424170D01*
X130539962Y-77433349D01*
X130519750Y-77440581D01*
X130498926Y-77445797D01*
X130477691Y-77448947D01*
X130456250Y-77450000D01*
X129943750Y-77450000D01*
X129922309Y-77448947D01*
X129901074Y-77445797D01*
X129880250Y-77440581D01*
X129860038Y-77433349D01*
X129840632Y-77424170D01*
X129822219Y-77413134D01*
X129804976Y-77400346D01*
X129789070Y-77385930D01*
X129774654Y-77370024D01*
X129761866Y-77352781D01*
X129750830Y-77334368D01*
X129741651Y-77314962D01*
X129734419Y-77294750D01*
X129729203Y-77273926D01*
X129726053Y-77252691D01*
X129725000Y-77231250D01*
X129725000Y-76793750D01*
X129726053Y-76772309D01*
X129729203Y-76751074D01*
X129734419Y-76730250D01*
X129741651Y-76710038D01*
X129750830Y-76690632D01*
X129761866Y-76672219D01*
X129774654Y-76654976D01*
X129789070Y-76639070D01*
X129804976Y-76624654D01*
X129822219Y-76611866D01*
X129840632Y-76600830D01*
X129860038Y-76591651D01*
X129880250Y-76584419D01*
X129901074Y-76579203D01*
X129922309Y-76576053D01*
X129943750Y-76575000D01*
X130456250Y-76575000D01*
X130477691Y-76576053D01*
X130477691Y-76576053D01*
G37*
D15*
X130200000Y-77012500D03*
D10*
G36*
X130477691Y-78151053D02*
G01*
X130498926Y-78154203D01*
X130519750Y-78159419D01*
X130539962Y-78166651D01*
X130559368Y-78175830D01*
X130577781Y-78186866D01*
X130595024Y-78199654D01*
X130610930Y-78214070D01*
X130625346Y-78229976D01*
X130638134Y-78247219D01*
X130649170Y-78265632D01*
X130658349Y-78285038D01*
X130665581Y-78305250D01*
X130670797Y-78326074D01*
X130673947Y-78347309D01*
X130675000Y-78368750D01*
X130675000Y-78806250D01*
X130673947Y-78827691D01*
X130670797Y-78848926D01*
X130665581Y-78869750D01*
X130658349Y-78889962D01*
X130649170Y-78909368D01*
X130638134Y-78927781D01*
X130625346Y-78945024D01*
X130610930Y-78960930D01*
X130595024Y-78975346D01*
X130577781Y-78988134D01*
X130559368Y-78999170D01*
X130539962Y-79008349D01*
X130519750Y-79015581D01*
X130498926Y-79020797D01*
X130477691Y-79023947D01*
X130456250Y-79025000D01*
X129943750Y-79025000D01*
X129922309Y-79023947D01*
X129901074Y-79020797D01*
X129880250Y-79015581D01*
X129860038Y-79008349D01*
X129840632Y-78999170D01*
X129822219Y-78988134D01*
X129804976Y-78975346D01*
X129789070Y-78960930D01*
X129774654Y-78945024D01*
X129761866Y-78927781D01*
X129750830Y-78909368D01*
X129741651Y-78889962D01*
X129734419Y-78869750D01*
X129729203Y-78848926D01*
X129726053Y-78827691D01*
X129725000Y-78806250D01*
X129725000Y-78368750D01*
X129726053Y-78347309D01*
X129729203Y-78326074D01*
X129734419Y-78305250D01*
X129741651Y-78285038D01*
X129750830Y-78265632D01*
X129761866Y-78247219D01*
X129774654Y-78229976D01*
X129789070Y-78214070D01*
X129804976Y-78199654D01*
X129822219Y-78186866D01*
X129840632Y-78175830D01*
X129860038Y-78166651D01*
X129880250Y-78159419D01*
X129901074Y-78154203D01*
X129922309Y-78151053D01*
X129943750Y-78150000D01*
X130456250Y-78150000D01*
X130477691Y-78151053D01*
X130477691Y-78151053D01*
G37*
D15*
X130200000Y-78587500D03*
D10*
G36*
X130477691Y-87188553D02*
G01*
X130498926Y-87191703D01*
X130519750Y-87196919D01*
X130539962Y-87204151D01*
X130559368Y-87213330D01*
X130577781Y-87224366D01*
X130595024Y-87237154D01*
X130610930Y-87251570D01*
X130625346Y-87267476D01*
X130638134Y-87284719D01*
X130649170Y-87303132D01*
X130658349Y-87322538D01*
X130665581Y-87342750D01*
X130670797Y-87363574D01*
X130673947Y-87384809D01*
X130675000Y-87406250D01*
X130675000Y-87843750D01*
X130673947Y-87865191D01*
X130670797Y-87886426D01*
X130665581Y-87907250D01*
X130658349Y-87927462D01*
X130649170Y-87946868D01*
X130638134Y-87965281D01*
X130625346Y-87982524D01*
X130610930Y-87998430D01*
X130595024Y-88012846D01*
X130577781Y-88025634D01*
X130559368Y-88036670D01*
X130539962Y-88045849D01*
X130519750Y-88053081D01*
X130498926Y-88058297D01*
X130477691Y-88061447D01*
X130456250Y-88062500D01*
X129943750Y-88062500D01*
X129922309Y-88061447D01*
X129901074Y-88058297D01*
X129880250Y-88053081D01*
X129860038Y-88045849D01*
X129840632Y-88036670D01*
X129822219Y-88025634D01*
X129804976Y-88012846D01*
X129789070Y-87998430D01*
X129774654Y-87982524D01*
X129761866Y-87965281D01*
X129750830Y-87946868D01*
X129741651Y-87927462D01*
X129734419Y-87907250D01*
X129729203Y-87886426D01*
X129726053Y-87865191D01*
X129725000Y-87843750D01*
X129725000Y-87406250D01*
X129726053Y-87384809D01*
X129729203Y-87363574D01*
X129734419Y-87342750D01*
X129741651Y-87322538D01*
X129750830Y-87303132D01*
X129761866Y-87284719D01*
X129774654Y-87267476D01*
X129789070Y-87251570D01*
X129804976Y-87237154D01*
X129822219Y-87224366D01*
X129840632Y-87213330D01*
X129860038Y-87204151D01*
X129880250Y-87196919D01*
X129901074Y-87191703D01*
X129922309Y-87188553D01*
X129943750Y-87187500D01*
X130456250Y-87187500D01*
X130477691Y-87188553D01*
X130477691Y-87188553D01*
G37*
D15*
X130200000Y-87625000D03*
D10*
G36*
X130477691Y-88763553D02*
G01*
X130498926Y-88766703D01*
X130519750Y-88771919D01*
X130539962Y-88779151D01*
X130559368Y-88788330D01*
X130577781Y-88799366D01*
X130595024Y-88812154D01*
X130610930Y-88826570D01*
X130625346Y-88842476D01*
X130638134Y-88859719D01*
X130649170Y-88878132D01*
X130658349Y-88897538D01*
X130665581Y-88917750D01*
X130670797Y-88938574D01*
X130673947Y-88959809D01*
X130675000Y-88981250D01*
X130675000Y-89418750D01*
X130673947Y-89440191D01*
X130670797Y-89461426D01*
X130665581Y-89482250D01*
X130658349Y-89502462D01*
X130649170Y-89521868D01*
X130638134Y-89540281D01*
X130625346Y-89557524D01*
X130610930Y-89573430D01*
X130595024Y-89587846D01*
X130577781Y-89600634D01*
X130559368Y-89611670D01*
X130539962Y-89620849D01*
X130519750Y-89628081D01*
X130498926Y-89633297D01*
X130477691Y-89636447D01*
X130456250Y-89637500D01*
X129943750Y-89637500D01*
X129922309Y-89636447D01*
X129901074Y-89633297D01*
X129880250Y-89628081D01*
X129860038Y-89620849D01*
X129840632Y-89611670D01*
X129822219Y-89600634D01*
X129804976Y-89587846D01*
X129789070Y-89573430D01*
X129774654Y-89557524D01*
X129761866Y-89540281D01*
X129750830Y-89521868D01*
X129741651Y-89502462D01*
X129734419Y-89482250D01*
X129729203Y-89461426D01*
X129726053Y-89440191D01*
X129725000Y-89418750D01*
X129725000Y-88981250D01*
X129726053Y-88959809D01*
X129729203Y-88938574D01*
X129734419Y-88917750D01*
X129741651Y-88897538D01*
X129750830Y-88878132D01*
X129761866Y-88859719D01*
X129774654Y-88842476D01*
X129789070Y-88826570D01*
X129804976Y-88812154D01*
X129822219Y-88799366D01*
X129840632Y-88788330D01*
X129860038Y-88779151D01*
X129880250Y-88771919D01*
X129901074Y-88766703D01*
X129922309Y-88763553D01*
X129943750Y-88762500D01*
X130456250Y-88762500D01*
X130477691Y-88763553D01*
X130477691Y-88763553D01*
G37*
D15*
X130200000Y-89200000D03*
D10*
G36*
X130477691Y-83676053D02*
G01*
X130498926Y-83679203D01*
X130519750Y-83684419D01*
X130539962Y-83691651D01*
X130559368Y-83700830D01*
X130577781Y-83711866D01*
X130595024Y-83724654D01*
X130610930Y-83739070D01*
X130625346Y-83754976D01*
X130638134Y-83772219D01*
X130649170Y-83790632D01*
X130658349Y-83810038D01*
X130665581Y-83830250D01*
X130670797Y-83851074D01*
X130673947Y-83872309D01*
X130675000Y-83893750D01*
X130675000Y-84331250D01*
X130673947Y-84352691D01*
X130670797Y-84373926D01*
X130665581Y-84394750D01*
X130658349Y-84414962D01*
X130649170Y-84434368D01*
X130638134Y-84452781D01*
X130625346Y-84470024D01*
X130610930Y-84485930D01*
X130595024Y-84500346D01*
X130577781Y-84513134D01*
X130559368Y-84524170D01*
X130539962Y-84533349D01*
X130519750Y-84540581D01*
X130498926Y-84545797D01*
X130477691Y-84548947D01*
X130456250Y-84550000D01*
X129943750Y-84550000D01*
X129922309Y-84548947D01*
X129901074Y-84545797D01*
X129880250Y-84540581D01*
X129860038Y-84533349D01*
X129840632Y-84524170D01*
X129822219Y-84513134D01*
X129804976Y-84500346D01*
X129789070Y-84485930D01*
X129774654Y-84470024D01*
X129761866Y-84452781D01*
X129750830Y-84434368D01*
X129741651Y-84414962D01*
X129734419Y-84394750D01*
X129729203Y-84373926D01*
X129726053Y-84352691D01*
X129725000Y-84331250D01*
X129725000Y-83893750D01*
X129726053Y-83872309D01*
X129729203Y-83851074D01*
X129734419Y-83830250D01*
X129741651Y-83810038D01*
X129750830Y-83790632D01*
X129761866Y-83772219D01*
X129774654Y-83754976D01*
X129789070Y-83739070D01*
X129804976Y-83724654D01*
X129822219Y-83711866D01*
X129840632Y-83700830D01*
X129860038Y-83691651D01*
X129880250Y-83684419D01*
X129901074Y-83679203D01*
X129922309Y-83676053D01*
X129943750Y-83675000D01*
X130456250Y-83675000D01*
X130477691Y-83676053D01*
X130477691Y-83676053D01*
G37*
D15*
X130200000Y-84112500D03*
D10*
G36*
X130477691Y-85251053D02*
G01*
X130498926Y-85254203D01*
X130519750Y-85259419D01*
X130539962Y-85266651D01*
X130559368Y-85275830D01*
X130577781Y-85286866D01*
X130595024Y-85299654D01*
X130610930Y-85314070D01*
X130625346Y-85329976D01*
X130638134Y-85347219D01*
X130649170Y-85365632D01*
X130658349Y-85385038D01*
X130665581Y-85405250D01*
X130670797Y-85426074D01*
X130673947Y-85447309D01*
X130675000Y-85468750D01*
X130675000Y-85906250D01*
X130673947Y-85927691D01*
X130670797Y-85948926D01*
X130665581Y-85969750D01*
X130658349Y-85989962D01*
X130649170Y-86009368D01*
X130638134Y-86027781D01*
X130625346Y-86045024D01*
X130610930Y-86060930D01*
X130595024Y-86075346D01*
X130577781Y-86088134D01*
X130559368Y-86099170D01*
X130539962Y-86108349D01*
X130519750Y-86115581D01*
X130498926Y-86120797D01*
X130477691Y-86123947D01*
X130456250Y-86125000D01*
X129943750Y-86125000D01*
X129922309Y-86123947D01*
X129901074Y-86120797D01*
X129880250Y-86115581D01*
X129860038Y-86108349D01*
X129840632Y-86099170D01*
X129822219Y-86088134D01*
X129804976Y-86075346D01*
X129789070Y-86060930D01*
X129774654Y-86045024D01*
X129761866Y-86027781D01*
X129750830Y-86009368D01*
X129741651Y-85989962D01*
X129734419Y-85969750D01*
X129729203Y-85948926D01*
X129726053Y-85927691D01*
X129725000Y-85906250D01*
X129725000Y-85468750D01*
X129726053Y-85447309D01*
X129729203Y-85426074D01*
X129734419Y-85405250D01*
X129741651Y-85385038D01*
X129750830Y-85365632D01*
X129761866Y-85347219D01*
X129774654Y-85329976D01*
X129789070Y-85314070D01*
X129804976Y-85299654D01*
X129822219Y-85286866D01*
X129840632Y-85275830D01*
X129860038Y-85266651D01*
X129880250Y-85259419D01*
X129901074Y-85254203D01*
X129922309Y-85251053D01*
X129943750Y-85250000D01*
X130456250Y-85250000D01*
X130477691Y-85251053D01*
X130477691Y-85251053D01*
G37*
D15*
X130200000Y-85687500D03*
D10*
G36*
X118699503Y-89376204D02*
G01*
X118723772Y-89379804D01*
X118747570Y-89385765D01*
X118770670Y-89394030D01*
X118792849Y-89404520D01*
X118813892Y-89417133D01*
X118833598Y-89431748D01*
X118851776Y-89448224D01*
X118868252Y-89466402D01*
X118882867Y-89486108D01*
X118895480Y-89507151D01*
X118905970Y-89529330D01*
X118914235Y-89552430D01*
X118920196Y-89576228D01*
X118923796Y-89600497D01*
X118925000Y-89625001D01*
X118925000Y-93574999D01*
X118923796Y-93599503D01*
X118920196Y-93623772D01*
X118914235Y-93647570D01*
X118905970Y-93670670D01*
X118895480Y-93692849D01*
X118882867Y-93713892D01*
X118868252Y-93733598D01*
X118851776Y-93751776D01*
X118833598Y-93768252D01*
X118813892Y-93782867D01*
X118792849Y-93795480D01*
X118770670Y-93805970D01*
X118747570Y-93814235D01*
X118723772Y-93820196D01*
X118699503Y-93823796D01*
X118674999Y-93825000D01*
X116150001Y-93825000D01*
X116125497Y-93823796D01*
X116101228Y-93820196D01*
X116077430Y-93814235D01*
X116054330Y-93805970D01*
X116032151Y-93795480D01*
X116011108Y-93782867D01*
X115991402Y-93768252D01*
X115973224Y-93751776D01*
X115956748Y-93733598D01*
X115942133Y-93713892D01*
X115929520Y-93692849D01*
X115919030Y-93670670D01*
X115910765Y-93647570D01*
X115904804Y-93623772D01*
X115901204Y-93599503D01*
X115900000Y-93574999D01*
X115900000Y-89625001D01*
X115901204Y-89600497D01*
X115904804Y-89576228D01*
X115910765Y-89552430D01*
X115919030Y-89529330D01*
X115929520Y-89507151D01*
X115942133Y-89486108D01*
X115956748Y-89466402D01*
X115973224Y-89448224D01*
X115991402Y-89431748D01*
X116011108Y-89417133D01*
X116032151Y-89404520D01*
X116054330Y-89394030D01*
X116077430Y-89385765D01*
X116101228Y-89379804D01*
X116125497Y-89376204D01*
X116150001Y-89375000D01*
X118674999Y-89375000D01*
X118699503Y-89376204D01*
X118699503Y-89376204D01*
G37*
D16*
X117412500Y-91600000D03*
D10*
G36*
X113674503Y-89376204D02*
G01*
X113698772Y-89379804D01*
X113722570Y-89385765D01*
X113745670Y-89394030D01*
X113767849Y-89404520D01*
X113788892Y-89417133D01*
X113808598Y-89431748D01*
X113826776Y-89448224D01*
X113843252Y-89466402D01*
X113857867Y-89486108D01*
X113870480Y-89507151D01*
X113880970Y-89529330D01*
X113889235Y-89552430D01*
X113895196Y-89576228D01*
X113898796Y-89600497D01*
X113900000Y-89625001D01*
X113900000Y-93574999D01*
X113898796Y-93599503D01*
X113895196Y-93623772D01*
X113889235Y-93647570D01*
X113880970Y-93670670D01*
X113870480Y-93692849D01*
X113857867Y-93713892D01*
X113843252Y-93733598D01*
X113826776Y-93751776D01*
X113808598Y-93768252D01*
X113788892Y-93782867D01*
X113767849Y-93795480D01*
X113745670Y-93805970D01*
X113722570Y-93814235D01*
X113698772Y-93820196D01*
X113674503Y-93823796D01*
X113649999Y-93825000D01*
X111125001Y-93825000D01*
X111100497Y-93823796D01*
X111076228Y-93820196D01*
X111052430Y-93814235D01*
X111029330Y-93805970D01*
X111007151Y-93795480D01*
X110986108Y-93782867D01*
X110966402Y-93768252D01*
X110948224Y-93751776D01*
X110931748Y-93733598D01*
X110917133Y-93713892D01*
X110904520Y-93692849D01*
X110894030Y-93670670D01*
X110885765Y-93647570D01*
X110879804Y-93623772D01*
X110876204Y-93599503D01*
X110875000Y-93574999D01*
X110875000Y-89625001D01*
X110876204Y-89600497D01*
X110879804Y-89576228D01*
X110885765Y-89552430D01*
X110894030Y-89529330D01*
X110904520Y-89507151D01*
X110917133Y-89486108D01*
X110931748Y-89466402D01*
X110948224Y-89448224D01*
X110966402Y-89431748D01*
X110986108Y-89417133D01*
X111007151Y-89404520D01*
X111029330Y-89394030D01*
X111052430Y-89385765D01*
X111076228Y-89379804D01*
X111100497Y-89376204D01*
X111125001Y-89375000D01*
X113649999Y-89375000D01*
X113674503Y-89376204D01*
X113674503Y-89376204D01*
G37*
D16*
X112387500Y-91600000D03*
D10*
G36*
X120899505Y-92501204D02*
G01*
X120923773Y-92504804D01*
X120947572Y-92510765D01*
X120970671Y-92519030D01*
X120992850Y-92529520D01*
X121013893Y-92542132D01*
X121033599Y-92556747D01*
X121051777Y-92573223D01*
X121068253Y-92591401D01*
X121082868Y-92611107D01*
X121095480Y-92632150D01*
X121105970Y-92654329D01*
X121114235Y-92677428D01*
X121120196Y-92701227D01*
X121123796Y-92725495D01*
X121125000Y-92749999D01*
X121125000Y-93650001D01*
X121123796Y-93674505D01*
X121120196Y-93698773D01*
X121114235Y-93722572D01*
X121105970Y-93745671D01*
X121095480Y-93767850D01*
X121082868Y-93788893D01*
X121068253Y-93808599D01*
X121051777Y-93826777D01*
X121033599Y-93843253D01*
X121013893Y-93857868D01*
X120992850Y-93870480D01*
X120970671Y-93880970D01*
X120947572Y-93889235D01*
X120923773Y-93895196D01*
X120899505Y-93898796D01*
X120875001Y-93900000D01*
X120224999Y-93900000D01*
X120200495Y-93898796D01*
X120176227Y-93895196D01*
X120152428Y-93889235D01*
X120129329Y-93880970D01*
X120107150Y-93870480D01*
X120086107Y-93857868D01*
X120066401Y-93843253D01*
X120048223Y-93826777D01*
X120031747Y-93808599D01*
X120017132Y-93788893D01*
X120004520Y-93767850D01*
X119994030Y-93745671D01*
X119985765Y-93722572D01*
X119979804Y-93698773D01*
X119976204Y-93674505D01*
X119975000Y-93650001D01*
X119975000Y-92749999D01*
X119976204Y-92725495D01*
X119979804Y-92701227D01*
X119985765Y-92677428D01*
X119994030Y-92654329D01*
X120004520Y-92632150D01*
X120017132Y-92611107D01*
X120031747Y-92591401D01*
X120048223Y-92573223D01*
X120066401Y-92556747D01*
X120086107Y-92542132D01*
X120107150Y-92529520D01*
X120129329Y-92519030D01*
X120152428Y-92510765D01*
X120176227Y-92504804D01*
X120200495Y-92501204D01*
X120224999Y-92500000D01*
X120875001Y-92500000D01*
X120899505Y-92501204D01*
X120899505Y-92501204D01*
G37*
D17*
X120550000Y-93200000D03*
D10*
G36*
X122949505Y-92501204D02*
G01*
X122973773Y-92504804D01*
X122997572Y-92510765D01*
X123020671Y-92519030D01*
X123042850Y-92529520D01*
X123063893Y-92542132D01*
X123083599Y-92556747D01*
X123101777Y-92573223D01*
X123118253Y-92591401D01*
X123132868Y-92611107D01*
X123145480Y-92632150D01*
X123155970Y-92654329D01*
X123164235Y-92677428D01*
X123170196Y-92701227D01*
X123173796Y-92725495D01*
X123175000Y-92749999D01*
X123175000Y-93650001D01*
X123173796Y-93674505D01*
X123170196Y-93698773D01*
X123164235Y-93722572D01*
X123155970Y-93745671D01*
X123145480Y-93767850D01*
X123132868Y-93788893D01*
X123118253Y-93808599D01*
X123101777Y-93826777D01*
X123083599Y-93843253D01*
X123063893Y-93857868D01*
X123042850Y-93870480D01*
X123020671Y-93880970D01*
X122997572Y-93889235D01*
X122973773Y-93895196D01*
X122949505Y-93898796D01*
X122925001Y-93900000D01*
X122274999Y-93900000D01*
X122250495Y-93898796D01*
X122226227Y-93895196D01*
X122202428Y-93889235D01*
X122179329Y-93880970D01*
X122157150Y-93870480D01*
X122136107Y-93857868D01*
X122116401Y-93843253D01*
X122098223Y-93826777D01*
X122081747Y-93808599D01*
X122067132Y-93788893D01*
X122054520Y-93767850D01*
X122044030Y-93745671D01*
X122035765Y-93722572D01*
X122029804Y-93698773D01*
X122026204Y-93674505D01*
X122025000Y-93650001D01*
X122025000Y-92749999D01*
X122026204Y-92725495D01*
X122029804Y-92701227D01*
X122035765Y-92677428D01*
X122044030Y-92654329D01*
X122054520Y-92632150D01*
X122067132Y-92611107D01*
X122081747Y-92591401D01*
X122098223Y-92573223D01*
X122116401Y-92556747D01*
X122136107Y-92542132D01*
X122157150Y-92529520D01*
X122179329Y-92519030D01*
X122202428Y-92510765D01*
X122226227Y-92504804D01*
X122250495Y-92501204D01*
X122274999Y-92500000D01*
X122925001Y-92500000D01*
X122949505Y-92501204D01*
X122949505Y-92501204D01*
G37*
D17*
X122600000Y-93200000D03*
D18*
X115450000Y-82700000D03*
X115450000Y-83650000D03*
X115450000Y-84600000D03*
X118150000Y-84600000D03*
X118150000Y-82700000D03*
X118150000Y-83650000D03*
X115350000Y-78150000D03*
X115350000Y-79100000D03*
X115350000Y-80050000D03*
X118050000Y-80050000D03*
X118050000Y-78150000D03*
M02*
