G04 #@! TF.GenerationSoftware,KiCad,Pcbnew,5.1.2*
G04 #@! TF.CreationDate,2019-08-16T09:09:30-07:00*
G04 #@! TF.ProjectId,lofi,6c6f6669-2e6b-4696-9361-645f70636258,rev?*
G04 #@! TF.SameCoordinates,Original*
G04 #@! TF.FileFunction,Soldermask,Bot*
G04 #@! TF.FilePolarity,Negative*
%FSLAX46Y46*%
G04 Gerber Fmt 4.6, Leading zero omitted, Abs format (unit mm)*
G04 Created by KiCad (PCBNEW 5.1.2) date 2019-08-16 09:09:30*
%MOMM*%
%LPD*%
G04 APERTURE LIST*
%ADD10C,0.100000*%
G04 APERTURE END LIST*
D10*
G36*
X116537692Y-92144150D02*
G01*
X114929437Y-94060793D01*
X111021078Y-90781290D01*
X112629333Y-88864647D01*
X116537692Y-92144150D01*
X116537692Y-92144150D01*
G37*
G36*
X123502544Y-75239180D02*
G01*
X124876738Y-75808390D01*
X124876740Y-75808391D01*
X126113482Y-76634755D01*
X127165245Y-77686518D01*
X127991609Y-78923260D01*
X127991610Y-78923262D01*
X128560820Y-80297456D01*
X128851000Y-81756290D01*
X128851000Y-83243710D01*
X128560820Y-84702544D01*
X127991610Y-86076738D01*
X127991609Y-86076740D01*
X127165245Y-87313482D01*
X126113482Y-88365245D01*
X124876740Y-89191609D01*
X124876739Y-89191610D01*
X124876738Y-89191610D01*
X123502544Y-89760820D01*
X122043710Y-90051000D01*
X120556290Y-90051000D01*
X119097456Y-89760820D01*
X117723262Y-89191610D01*
X117723261Y-89191610D01*
X117723260Y-89191609D01*
X116486518Y-88365245D01*
X115434755Y-87313482D01*
X114608391Y-86076740D01*
X114608390Y-86076738D01*
X114039180Y-84702544D01*
X113749000Y-83243710D01*
X113749000Y-81756290D01*
X114039180Y-80297456D01*
X114608390Y-78923262D01*
X114608391Y-78923260D01*
X115434755Y-77686518D01*
X116486518Y-76634755D01*
X117723260Y-75808391D01*
X117723262Y-75808390D01*
X119097456Y-75239180D01*
X120556290Y-74949000D01*
X122043710Y-74949000D01*
X123502544Y-75239180D01*
X123502544Y-75239180D01*
G37*
G36*
X131578922Y-74218710D02*
G01*
X129970667Y-76135353D01*
X126062308Y-72855850D01*
X127670563Y-70939207D01*
X131578922Y-74218710D01*
X131578922Y-74218710D01*
G37*
G36*
X116753402Y-69268099D02*
G01*
X116760515Y-69291548D01*
X116772066Y-69313159D01*
X116787611Y-69332101D01*
X116806553Y-69347646D01*
X116828164Y-69359197D01*
X116851613Y-69366310D01*
X116875999Y-69368712D01*
X116900385Y-69366310D01*
X116923834Y-69359197D01*
X116945445Y-69347646D01*
X116972623Y-69323013D01*
X116981813Y-69311815D01*
X117014001Y-69285399D01*
X117050716Y-69265774D01*
X117090566Y-69253686D01*
X117138141Y-69249000D01*
X117801859Y-69249000D01*
X117849434Y-69253686D01*
X117889284Y-69265774D01*
X117925999Y-69285399D01*
X117958186Y-69311814D01*
X117984600Y-69343999D01*
X117994760Y-69363008D01*
X118008374Y-69383383D01*
X118025701Y-69400710D01*
X118046075Y-69414324D01*
X118068714Y-69423701D01*
X118092747Y-69428482D01*
X118117251Y-69428482D01*
X118141285Y-69423702D01*
X118163923Y-69414325D01*
X118184298Y-69400711D01*
X118201625Y-69383384D01*
X118215240Y-69363008D01*
X118225400Y-69343999D01*
X118251814Y-69311814D01*
X118284001Y-69285399D01*
X118320716Y-69265774D01*
X118360566Y-69253686D01*
X118408141Y-69249000D01*
X119071859Y-69249000D01*
X119119434Y-69253686D01*
X119159284Y-69265774D01*
X119195999Y-69285399D01*
X119228186Y-69311814D01*
X119254600Y-69343999D01*
X119264760Y-69363008D01*
X119278374Y-69383383D01*
X119295701Y-69400710D01*
X119316075Y-69414324D01*
X119338714Y-69423701D01*
X119362747Y-69428482D01*
X119387251Y-69428482D01*
X119411285Y-69423702D01*
X119433923Y-69414325D01*
X119454298Y-69400711D01*
X119471625Y-69383384D01*
X119485240Y-69363008D01*
X119495400Y-69343999D01*
X119521814Y-69311814D01*
X119554001Y-69285399D01*
X119590716Y-69265774D01*
X119630566Y-69253686D01*
X119678141Y-69249000D01*
X120341859Y-69249000D01*
X120389434Y-69253686D01*
X120429284Y-69265774D01*
X120465999Y-69285399D01*
X120498186Y-69311814D01*
X120524600Y-69343999D01*
X120534760Y-69363008D01*
X120548374Y-69383383D01*
X120565701Y-69400710D01*
X120586075Y-69414324D01*
X120608714Y-69423701D01*
X120632747Y-69428482D01*
X120657251Y-69428482D01*
X120681285Y-69423702D01*
X120703923Y-69414325D01*
X120724298Y-69400711D01*
X120741625Y-69383384D01*
X120755240Y-69363008D01*
X120765400Y-69343999D01*
X120791814Y-69311814D01*
X120824001Y-69285399D01*
X120860716Y-69265774D01*
X120900566Y-69253686D01*
X120948141Y-69249000D01*
X121611859Y-69249000D01*
X121659434Y-69253686D01*
X121699284Y-69265774D01*
X121735999Y-69285399D01*
X121768186Y-69311814D01*
X121794600Y-69343999D01*
X121804760Y-69363008D01*
X121818374Y-69383383D01*
X121835701Y-69400710D01*
X121856075Y-69414324D01*
X121878714Y-69423701D01*
X121902747Y-69428482D01*
X121927251Y-69428482D01*
X121951285Y-69423702D01*
X121973923Y-69414325D01*
X121994298Y-69400711D01*
X122011625Y-69383384D01*
X122025240Y-69363008D01*
X122035400Y-69343999D01*
X122061814Y-69311814D01*
X122094001Y-69285399D01*
X122130716Y-69265774D01*
X122170566Y-69253686D01*
X122218141Y-69249000D01*
X122881859Y-69249000D01*
X122929434Y-69253686D01*
X122969284Y-69265774D01*
X123005999Y-69285399D01*
X123038186Y-69311814D01*
X123064600Y-69343999D01*
X123074760Y-69363008D01*
X123088374Y-69383383D01*
X123105701Y-69400710D01*
X123126075Y-69414324D01*
X123148714Y-69423701D01*
X123172747Y-69428482D01*
X123197251Y-69428482D01*
X123221285Y-69423702D01*
X123243923Y-69414325D01*
X123264298Y-69400711D01*
X123281625Y-69383384D01*
X123295240Y-69363008D01*
X123305400Y-69343999D01*
X123331814Y-69311814D01*
X123364001Y-69285399D01*
X123400716Y-69265774D01*
X123440566Y-69253686D01*
X123488141Y-69249000D01*
X124151859Y-69249000D01*
X124199434Y-69253686D01*
X124239284Y-69265774D01*
X124275999Y-69285399D01*
X124308186Y-69311814D01*
X124334600Y-69343999D01*
X124344760Y-69363008D01*
X124358374Y-69383383D01*
X124375701Y-69400710D01*
X124396075Y-69414324D01*
X124418714Y-69423701D01*
X124442747Y-69428482D01*
X124467251Y-69428482D01*
X124491285Y-69423702D01*
X124513923Y-69414325D01*
X124534298Y-69400711D01*
X124551625Y-69383384D01*
X124565240Y-69363008D01*
X124575400Y-69343999D01*
X124601814Y-69311814D01*
X124634001Y-69285399D01*
X124670716Y-69265774D01*
X124710566Y-69253686D01*
X124758141Y-69249000D01*
X125421859Y-69249000D01*
X125469434Y-69253686D01*
X125509284Y-69265774D01*
X125545999Y-69285399D01*
X125578186Y-69311814D01*
X125604601Y-69344001D01*
X125624226Y-69380716D01*
X125636314Y-69420566D01*
X125641000Y-69468141D01*
X125641000Y-70731859D01*
X125636314Y-70779434D01*
X125624226Y-70819284D01*
X125604601Y-70855999D01*
X125578186Y-70888186D01*
X125545999Y-70914601D01*
X125509284Y-70934226D01*
X125469434Y-70946314D01*
X125421859Y-70951000D01*
X124758141Y-70951000D01*
X124710566Y-70946314D01*
X124670716Y-70934226D01*
X124634001Y-70914601D01*
X124601814Y-70888186D01*
X124575400Y-70856001D01*
X124565240Y-70836992D01*
X124551626Y-70816617D01*
X124534299Y-70799290D01*
X124513925Y-70785676D01*
X124491286Y-70776299D01*
X124467253Y-70771518D01*
X124442749Y-70771518D01*
X124418715Y-70776298D01*
X124396077Y-70785675D01*
X124375702Y-70799289D01*
X124358375Y-70816616D01*
X124344760Y-70836992D01*
X124334600Y-70856001D01*
X124308186Y-70888186D01*
X124275999Y-70914601D01*
X124239284Y-70934226D01*
X124199434Y-70946314D01*
X124151859Y-70951000D01*
X123488141Y-70951000D01*
X123440566Y-70946314D01*
X123400716Y-70934226D01*
X123364001Y-70914601D01*
X123331814Y-70888186D01*
X123305400Y-70856001D01*
X123295240Y-70836992D01*
X123281626Y-70816617D01*
X123264299Y-70799290D01*
X123243925Y-70785676D01*
X123221286Y-70776299D01*
X123197253Y-70771518D01*
X123172749Y-70771518D01*
X123148715Y-70776298D01*
X123126077Y-70785675D01*
X123105702Y-70799289D01*
X123088375Y-70816616D01*
X123074760Y-70836992D01*
X123064600Y-70856001D01*
X123038186Y-70888186D01*
X123005999Y-70914601D01*
X122969284Y-70934226D01*
X122929434Y-70946314D01*
X122881859Y-70951000D01*
X122218141Y-70951000D01*
X122170566Y-70946314D01*
X122130716Y-70934226D01*
X122094001Y-70914601D01*
X122061814Y-70888186D01*
X122035400Y-70856001D01*
X122025240Y-70836992D01*
X122011626Y-70816617D01*
X121994299Y-70799290D01*
X121973925Y-70785676D01*
X121951286Y-70776299D01*
X121927253Y-70771518D01*
X121902749Y-70771518D01*
X121878715Y-70776298D01*
X121856077Y-70785675D01*
X121835702Y-70799289D01*
X121818375Y-70816616D01*
X121804760Y-70836992D01*
X121794600Y-70856001D01*
X121768186Y-70888186D01*
X121735999Y-70914601D01*
X121699284Y-70934226D01*
X121659434Y-70946314D01*
X121611859Y-70951000D01*
X120948141Y-70951000D01*
X120900566Y-70946314D01*
X120860716Y-70934226D01*
X120824001Y-70914601D01*
X120791814Y-70888186D01*
X120765400Y-70856001D01*
X120755240Y-70836992D01*
X120741626Y-70816617D01*
X120724299Y-70799290D01*
X120703925Y-70785676D01*
X120681286Y-70776299D01*
X120657253Y-70771518D01*
X120632749Y-70771518D01*
X120608715Y-70776298D01*
X120586077Y-70785675D01*
X120565702Y-70799289D01*
X120548375Y-70816616D01*
X120534760Y-70836992D01*
X120524600Y-70856001D01*
X120498186Y-70888186D01*
X120465999Y-70914601D01*
X120429284Y-70934226D01*
X120389434Y-70946314D01*
X120341859Y-70951000D01*
X119678141Y-70951000D01*
X119630566Y-70946314D01*
X119590716Y-70934226D01*
X119554001Y-70914601D01*
X119521814Y-70888186D01*
X119495400Y-70856001D01*
X119485240Y-70836992D01*
X119471626Y-70816617D01*
X119454299Y-70799290D01*
X119433925Y-70785676D01*
X119411286Y-70776299D01*
X119387253Y-70771518D01*
X119362749Y-70771518D01*
X119338715Y-70776298D01*
X119316077Y-70785675D01*
X119295702Y-70799289D01*
X119278375Y-70816616D01*
X119264760Y-70836992D01*
X119254600Y-70856001D01*
X119228186Y-70888186D01*
X119195999Y-70914601D01*
X119159284Y-70934226D01*
X119119434Y-70946314D01*
X119071859Y-70951000D01*
X118408141Y-70951000D01*
X118360566Y-70946314D01*
X118320716Y-70934226D01*
X118284001Y-70914601D01*
X118251814Y-70888186D01*
X118225400Y-70856001D01*
X118215240Y-70836992D01*
X118201626Y-70816617D01*
X118184299Y-70799290D01*
X118163925Y-70785676D01*
X118141286Y-70776299D01*
X118117253Y-70771518D01*
X118092749Y-70771518D01*
X118068715Y-70776298D01*
X118046077Y-70785675D01*
X118025702Y-70799289D01*
X118008375Y-70816616D01*
X117994760Y-70836992D01*
X117984600Y-70856001D01*
X117958186Y-70888186D01*
X117925999Y-70914601D01*
X117889284Y-70934226D01*
X117849434Y-70946314D01*
X117801859Y-70951000D01*
X117138141Y-70951000D01*
X117090566Y-70946314D01*
X117050716Y-70934226D01*
X117014001Y-70914601D01*
X116981813Y-70888185D01*
X116972623Y-70876987D01*
X116955296Y-70859660D01*
X116934922Y-70846047D01*
X116912283Y-70836670D01*
X116888249Y-70831890D01*
X116863745Y-70831890D01*
X116839712Y-70836671D01*
X116817073Y-70846049D01*
X116796699Y-70859663D01*
X116779372Y-70876990D01*
X116765759Y-70897364D01*
X116756382Y-70920003D01*
X116751784Y-70951000D01*
X115649000Y-70951000D01*
X115649000Y-69249000D01*
X116751521Y-69249000D01*
X116753402Y-69268099D01*
X116753402Y-69268099D01*
G37*
M02*
