M48
; DRILL file {KiCad 5.1.2} date Fri 16 Aug 2019 11:11:29 PM PDT
; FORMAT={-:-/ absolute / inch / decimal}
; #@! TF.CreationDate,2019-08-16T23:11:29-07:00
; #@! TF.GenerationSoftware,Kicad,Pcbnew,5.1.2
; #@! TF.FileFunction,Plated,1,2,PTH
FMAT,2
INCH
T1C0.0157
T2C0.0197
%
G90
G05
T1
X4.3898Y-2.9213
X4.4134Y-2.7835
X4.4213Y-3.5787
X4.4567Y-3.0787
X4.4567Y-3.1732
X4.4646Y-2.9567
X4.4724Y-3.4882
X4.4961Y-3.6339
X4.5102Y-2.808
X4.5118Y-2.7559
X4.5118Y-2.8543
X4.5197Y-2.9213
X4.5276Y-3.5197
X4.6969Y-3.5984
X4.7441Y-3.5984
X4.937Y-2.9213
X4.9449Y-2.8386
T2
X4.6248Y-2.7244
X4.7748Y-2.7244
X4.5748Y-2.7717
X4.6248Y-2.7717
X4.6748Y-2.7717
X4.7248Y-2.7717
X4.7748Y-2.7717
X4.8248Y-2.7717
X4.8748Y-2.7717
X4.9248Y-2.7717
X4.8748Y-2.7244
X4.5748Y-2.7244
X4.9248Y-2.7244
X4.6748Y-2.7244
X4.7248Y-2.7244
X4.8248Y-2.7244
T0
M30
